<svg width="500" height="500" viewBox="0 0 500 500" fill="none" xmlns="http://www.w3.org/2000/svg">
<path fill-rule="evenodd" clip-rule="evenodd" d="M381.5 265.5C375.273 264.554 369.606 262.22 364.5 258.5C357.008 251.509 349.675 244.342 342.5 237C337.833 234.667 333.167 232.333 328.5 230C302.963 221.782 276.963 215.449 250.5 211C224.412 206.7 200.079 211.367 177.5 225C159.75 238.376 140.416 248.876 119.5 256.5C115.833 256.5 112.167 256.5 108.5 256.5C102.982 255.579 98.1488 253.246 94 249.5C91.7771 244.551 90.2771 239.385 89.5 234C90.891 220.697 97.7243 211.53 110 206.5C110.834 203.828 111.668 201.161 112.5 198.5C93.9208 182.745 89.0874 163.412 98 140.5C102.341 131.812 107.674 123.812 114 116.5C119.423 109.866 125.923 108.699 133.5 113C137.667 119.135 139.834 125.968 140 133.5C147.931 126.233 156.431 119.733 165.5 114C187.179 103.718 209.845 96.5518 233.5 92.5002C225.282 85.3042 222.116 76.3042 224 65.5002C231.595 51.1123 243.429 45.9456 259.5 50.0002C261.246 50.4711 262.913 51.1378 264.5 52.0002C267 55.1669 269.5 58.3335 272 61.5002C273.527 67.4151 273.861 73.4151 273 79.5002C271.939 82.5618 270.106 85.0618 267.5 87.0002C263.229 87.7699 261.563 90.2699 262.5 94.5002C268.232 94.2834 273.899 94.7834 279.5 96.0002C289.906 99.1357 300.239 102.469 310.5 106C320.166 111.164 329.5 116.831 338.5 123C341.04 125.205 343.207 127.705 345 130.5C345.912 126.205 346.579 121.872 347 117.5C349.156 108.172 354.656 105.339 363.5 109C375.412 116.925 383.579 127.758 388 141.5C396.275 161.699 393.442 180.032 379.5 196.5C375.82 198.538 374.82 201.538 376.5 205.5C394.173 212.341 405.839 224.841 411.5 243C408.271 259.383 398.271 266.883 381.5 265.5Z" fill="#79CA28"/>
<path fill-rule="evenodd" clip-rule="evenodd" d="M244.501 58.4999C251.289 57.9816 257.123 59.9816 262.001 64.4999C264.151 69.1402 263.985 73.6402 261.501 77.9999C258.206 80.2306 254.706 82.064 251.001 83.4999C251.057 86.5013 251.557 89.5013 252.501 92.4999C249.573 93.484 246.573 93.8173 243.501 93.4999C243.501 90.1666 243.501 86.8332 243.501 83.4999C237.333 81.5339 234.333 77.2006 234.501 70.4999C234.668 68.8332 234.834 67.1666 235.001 65.4999C237.791 62.5349 240.958 60.2015 244.501 58.4999Z" fill="#D3F237"/>
<path fill-rule="evenodd" clip-rule="evenodd" d="M236.5 103.5C271.024 101.461 302.357 110.294 330.5 130C346.243 147.642 357.743 167.808 365 190.5C365.824 193.882 365.657 197.216 364.5 200.5C359.263 198.381 353.929 196.548 348.5 195C329.211 191.127 309.878 187.46 290.5 184C233.888 174.244 178.888 179.744 125.5 200.5C127.569 180.46 133.736 161.793 144 144.5C157.992 129.521 174.825 119.021 194.5 113C208.221 107.959 222.221 104.793 236.5 103.5Z" fill="#D3F237"/>
<path fill-rule="evenodd" clip-rule="evenodd" d="M242.5 140.5C252.617 138.6 255.617 132.933 251.5 123.5C251.043 122.702 250.376 122.369 249.5 122.5C244.85 118.596 240.016 118.596 235 122.5C232.968 127.292 233.301 131.959 236 136.5C238.257 133.881 240.423 133.881 242.5 136.5C241.174 137.642 240.174 138.976 239.5 140.5C234.806 139.546 230.472 137.712 226.5 135C224.848 133.53 223.848 131.697 223.5 129.5C229.357 118.811 238.357 114.978 250.5 118C262.361 120.228 265.861 126.728 261 137.5C255.266 141.514 249.099 142.514 242.5 140.5Z" fill="#FAFAF7"/>
<path fill-rule="evenodd" clip-rule="evenodd" d="M249.501 122.5C250.377 122.369 251.044 122.702 251.501 123.5C255.618 132.933 252.618 138.6 242.501 140.5C241.501 140.5 240.501 140.5 239.501 140.5C240.175 138.976 241.175 137.642 242.501 136.5C240.424 133.881 238.258 133.881 236.001 136.5C233.302 131.959 232.969 127.292 235.001 122.5C240.017 118.596 244.851 118.596 249.501 122.5Z" fill="#141314"/>
<path fill-rule="evenodd" clip-rule="evenodd" d="M357.5 118.5C362.349 120.836 366.516 124.169 370 128.5C374.758 136.685 378.424 145.351 381 154.5C382.355 163.486 381.355 172.153 378 180.5C376.907 182.349 375.574 184.016 374 185.5C368.805 169.497 361.638 154.497 352.5 140.5C355.117 133.366 356.784 126.033 357.5 118.5Z" fill="#D3F237"/>
<path fill-rule="evenodd" clip-rule="evenodd" d="M249.5 122.5C252.695 128.943 250.695 132.11 243.5 132C239.181 129.153 238.848 126.153 242.5 123C244.81 122.503 247.143 122.337 249.5 122.5Z" fill="#F3F3F3"/>
<path fill-rule="evenodd" clip-rule="evenodd" d="M122.501 121.5C124.723 121.178 126.557 121.845 128.001 123.5C128.488 129.853 129.154 136.186 130.001 142.5C130.375 143.416 130.875 144.25 131.501 145C125.03 158.759 119.864 172.925 116.001 187.5C110.096 183.375 106.429 177.708 105.001 170.5C102.862 158.706 104.862 147.706 111.001 137.5C114.608 131.932 118.441 126.598 122.501 121.5Z" fill="#D3F337"/>
<path fill-rule="evenodd" clip-rule="evenodd" d="M182.5 127.5C189.184 127.095 195.017 129.095 200 133.5C200.667 135.5 200.667 137.5 200 139.5C193.746 147.491 185.413 151.491 175 151.5C169.399 151.402 165.566 148.736 163.5 143.5C167.501 135.148 173.834 129.814 182.5 127.5Z" fill="#F8F8F3"/>
<path fill-rule="evenodd" clip-rule="evenodd" d="M178.499 129.5C179.872 129.343 181.206 129.51 182.499 130C178.204 131.845 177.537 134.512 180.499 138C183.803 139.042 185.97 137.875 186.999 134.5C191.107 141.441 189.107 145.774 180.999 147.5C180.166 147.333 179.332 147.167 178.499 147C180.154 145.556 180.821 143.722 180.499 141.5C179.126 141.343 177.792 141.51 176.499 142C175.887 143.303 175.553 144.47 175.499 145.5C172.757 143.067 171.924 140.067 172.999 136.5C174.665 134.004 176.499 131.671 178.499 129.5Z" fill="#111111"/>
<path fill-rule="evenodd" clip-rule="evenodd" d="M305.5 131.5C313.997 131.663 318.664 135.996 319.5 144.5C319.124 146.383 318.124 147.883 316.5 149C307.211 150.889 298.545 149.223 290.5 144C287.019 141.234 285.519 137.734 286 133.5C287.214 131.951 288.714 130.785 290.5 130C294.5 129.333 298.5 129.333 302.5 130C303.737 130.232 304.737 130.732 305.5 131.5Z" fill="#F9F9F5"/>
<path fill-rule="evenodd" clip-rule="evenodd" d="M305.5 131.5C305.611 132.117 305.944 132.617 306.5 133C302.81 133.69 301.643 135.857 303 139.5C306.524 141.766 309.191 140.766 311 136.5C311.499 145.304 307.666 148.47 299.5 146C301.283 144.933 301.783 143.433 301 141.5C299.667 140.167 298.333 140.167 297 141.5C296.34 135.137 299.173 131.804 305.5 131.5Z" fill="#181817"/>
<path fill-rule="evenodd" clip-rule="evenodd" d="M201.5 151.5C205.514 152.543 207.18 155.209 206.5 159.5C218.048 159.689 229.048 157.522 239.5 153C242 152.833 244.5 152.667 247 152.5C255.675 154.445 264.508 156.112 273.5 157.5C274.5 157.333 275.5 157.167 276.5 157C277.558 153.709 279.558 152.542 282.5 153.5C279.32 157.76 278.653 162.427 280.5 167.5C279.178 167.67 278.011 167.337 277 166.5C276.187 164.564 275.687 162.564 275.5 160.5C271.18 159.835 266.846 159.168 262.5 158.5C256.309 161.895 249.643 163.895 242.5 164.5C237.223 164.409 232.556 162.742 228.5 159.5C221.267 161.017 213.934 161.85 206.5 162C205.7 165.106 204.033 167.606 201.5 169.5C202.786 163.791 202.786 157.791 201.5 151.5Z" fill="#7BCB29"/>
<path fill-rule="evenodd" clip-rule="evenodd" d="M243.5 155.5C247.394 155.11 251.06 155.777 254.5 157.5C247.698 160.78 240.698 161.28 233.5 159C236.776 157.308 240.109 156.141 243.5 155.5Z" fill="#89DA6E"/>
<path fill-rule="evenodd" clip-rule="evenodd" d="M226.499 189.5C247.291 189.182 267.958 190.682 288.499 194C311.946 198.539 335.279 203.539 358.499 209C368.103 212.803 377.437 217.136 386.499 222C395.164 228.825 399.331 237.659 398.999 248.5C394.143 254.259 387.977 256.426 380.499 255C376.704 253.269 373.037 251.269 369.499 249C362.469 241.635 355.135 234.635 347.499 228C342.166 225.333 336.832 222.667 331.499 220C303.719 210.972 275.385 204.305 246.499 200C227.233 197.962 208.566 200.295 190.499 207C185.166 209.667 179.832 212.333 174.499 215C160.166 224.502 145.5 233.502 130.499 242C122.861 246.248 114.861 247.248 106.499 245C98.2768 236.011 98.9434 227.345 108.499 219C119.787 214.345 131.121 209.678 142.499 205C158.431 200.684 174.431 196.684 190.499 193C202.602 191.368 214.602 190.202 226.499 189.5Z" fill="#D3F237"/>
<path fill-rule="evenodd" clip-rule="evenodd" d="M364.5 258.5C360.45 283.821 351.95 307.487 339 329.5C338.333 330.167 337.667 330.833 337 331.5C336.158 319.075 334.658 306.741 332.5 294.5C336.377 295.232 340.211 296.232 344 297.5C349.227 295.089 349.727 291.922 345.5 288C339.075 285.133 333.409 281.3 328.5 276.5C323.617 260.906 315.283 247.406 303.5 236C298.923 232.554 294.59 232.721 290.5 236.5C286.256 244.24 281.423 251.573 276 258.5C265.674 270.492 255.007 282.159 244 293.5C230.731 284.564 219.065 273.897 209 261.5C204.387 254.675 200.72 247.342 198 239.5C195.552 236.455 192.719 235.955 189.5 238C188 239.5 186.5 241 185 242.5C182.257 248.985 179.257 255.319 176 261.5C175.433 264.168 174.933 266.834 174.5 269.5C159.275 273.608 146.942 281.941 137.5 294.5C135.314 306.136 139.314 308.636 149.5 302C152.349 298.984 155.349 296.15 158.5 293.5C158.833 293.833 159.167 294.167 159.5 294.5C156.837 301.525 156.837 308.525 159.5 315.5C158.958 321.83 158.291 328.164 157.5 334.5C133.136 314.434 120.469 288.434 119.5 256.5C140.416 248.876 159.75 238.376 177.5 225C200.079 211.367 224.412 206.7 250.5 211C276.963 215.449 302.963 221.782 328.5 230C333.167 232.333 337.833 234.667 342.5 237C349.675 244.342 357.008 251.509 364.5 258.5Z" fill="#C34ECD"/>
<path fill-rule="evenodd" clip-rule="evenodd" d="M328.5 276.5C323.994 274.363 319.327 273.03 314.5 272.5C315.239 272.631 315.906 272.464 316.5 272C311.921 262.083 305.754 253.249 298 245.5C292.921 252.398 288.087 259.398 283.5 266.5C281.473 266.338 279.473 266.505 277.5 267C272.362 270.142 267.862 273.976 264 278.5C261.637 283.434 259.804 288.434 258.5 293.5C255.703 295.795 253.036 298.295 250.5 301C245.959 303.98 241.292 303.98 236.5 301C231.318 296.583 225.984 292.417 220.5 288.5C218.165 285.271 216.665 281.604 216 277.5C212.182 273.675 207.682 271.008 202.5 269.5C198.497 264.163 194.997 258.497 192 252.5C188.959 257.248 186.459 262.248 184.5 267.5C181.135 268.04 177.802 268.706 174.5 269.5C174.933 266.834 175.433 264.168 176 261.5C179.257 255.319 182.257 248.985 185 242.5C186.5 241 188 239.5 189.5 238C192.719 235.955 195.552 236.455 198 239.5C200.72 247.342 204.387 254.675 209 261.5C219.065 273.897 230.731 284.564 244 293.5C255.007 282.159 265.674 270.492 276 258.5C281.423 251.573 286.256 244.24 290.5 236.5C294.59 232.721 298.923 232.554 303.5 236C315.283 247.406 323.617 260.906 328.5 276.5Z" fill="#93397B"/>
<path fill-rule="evenodd" clip-rule="evenodd" d="M314.5 272.5C304.528 268.706 294.194 266.706 283.5 266.5C288.087 259.398 292.921 252.398 298 245.5C305.754 253.249 311.921 262.083 316.5 272C315.906 272.464 315.239 272.631 314.5 272.5Z" fill="#BDB5BF"/>
<path fill-rule="evenodd" clip-rule="evenodd" d="M202.5 269.5C196.534 268.553 190.534 267.886 184.5 267.5C186.459 262.248 188.959 257.248 192 252.5C194.997 258.497 198.497 264.163 202.5 269.5Z" fill="#BDB4BF"/>
<path fill-rule="evenodd" clip-rule="evenodd" d="M283.499 266.5C294.193 266.706 304.527 268.706 314.499 272.5C319.326 273.03 323.993 274.363 328.499 276.5C333.408 281.3 339.074 285.133 345.499 288C349.726 291.922 349.226 295.089 343.999 297.5C340.21 296.232 336.376 295.232 332.499 294.5C330.057 293.101 327.723 291.434 325.499 289.5C324.486 292.459 324.486 295.459 325.499 298.5C324.824 301.178 324.157 303.844 323.499 306.5C320.619 313.262 317.452 319.928 313.999 326.5C308.972 331.385 303.139 334.719 296.499 336.5C284.212 337.681 273.379 334.348 263.999 326.5C258.956 316.087 257.123 305.087 258.499 293.5C259.803 288.434 261.636 283.434 263.999 278.5C267.861 273.976 272.361 270.142 277.499 267C279.472 266.505 281.472 266.338 283.499 266.5Z" fill="#030203"/>
<path fill-rule="evenodd" clip-rule="evenodd" d="M184.499 267.5C190.533 267.886 196.533 268.553 202.499 269.5C207.681 271.008 212.181 273.675 215.999 277.5C216.664 281.604 218.164 285.271 220.499 288.5C221.972 291.447 223.472 294.447 224.999 297.5C226.109 303.426 225.443 309.092 222.999 314.5C220.224 320.156 216.724 325.323 212.499 330C207.229 334.451 201.229 337.284 194.499 338.5C184.17 340.974 175.504 338.308 168.499 330.5C166.87 329.375 165.37 328.041 163.999 326.5C162.34 322.823 160.84 319.156 159.499 315.5C156.836 308.525 156.836 301.525 159.499 294.5C159.166 294.167 158.832 293.833 158.499 293.5C155.348 296.15 152.348 298.984 149.499 302C139.313 308.636 135.313 306.136 137.499 294.5C146.941 281.941 159.274 273.608 174.499 269.5C177.801 268.706 181.134 268.04 184.499 267.5Z" fill="#030303"/>
<path fill-rule="evenodd" clip-rule="evenodd" d="M276.501 276.5C284.001 277.668 285.334 281.168 280.501 287C271.642 286.601 270.309 283.101 276.501 276.5Z" fill="#EAEAEA"/>
<path fill-rule="evenodd" clip-rule="evenodd" d="M200.5 278.5C204.113 278.78 206.113 280.78 206.5 284.5C205.763 287.966 203.596 289.966 200 290.5C196.024 289.214 194.69 286.547 196 282.5C197.667 281.267 199.167 279.933 200.5 278.5Z" fill="#F2F2F2"/>
<path fill-rule="evenodd" clip-rule="evenodd" d="M267.5 285.5C274.172 285.159 275.838 287.826 272.5 293.5C268.745 295.97 266.079 294.97 264.5 290.5C265.092 288.577 266.092 286.911 267.5 285.5Z" fill="#EDEDED"/>
<path fill-rule="evenodd" clip-rule="evenodd" d="M282.5 286.5C287.993 285.178 290.493 287.178 290 292.5C287.503 294.478 284.669 294.978 281.5 294C280.426 293.261 279.759 292.261 279.5 291C280.315 289.357 281.315 287.857 282.5 286.5Z" fill="#F7F7F7"/>
<path fill-rule="evenodd" clip-rule="evenodd" d="M188.501 288.5C195.358 288.508 197.691 291.675 195.501 298C188.753 300.909 185.587 298.743 186.001 291.5C187.046 290.627 187.879 289.627 188.501 288.5Z" fill="#EFEFEF"/>
<path fill-rule="evenodd" clip-rule="evenodd" d="M202.499 299.5C200.302 291.533 203.302 288.7 211.499 291C213.993 293.244 213.993 295.577 211.499 298C208.722 300.326 205.722 300.826 202.499 299.5Z" fill="#F0F0F0"/>
<path fill-rule="evenodd" clip-rule="evenodd" d="M274.5 293.5C281.632 293.789 283.298 296.956 279.5 303C272.474 302.759 270.807 299.593 274.5 293.5Z" fill="#EDEDED"/>
<path fill-rule="evenodd" clip-rule="evenodd" d="M220.5 288.5C225.984 292.417 231.318 296.583 236.5 301C241.292 303.98 245.959 303.98 250.5 301C253.036 298.295 255.703 295.795 258.5 293.5C257.124 305.087 258.957 316.087 264 326.5C273.38 334.348 284.213 337.681 296.5 336.5C296.414 338.677 295.747 340.677 294.5 342.5C296.978 348.917 301.645 352.75 308.5 354C314.833 354.667 321.167 354.667 327.5 354C332.452 352.388 335.785 349.221 337.5 344.5C343.466 340.268 348.299 334.935 352 328.5C357.657 317.519 362.491 306.185 366.5 294.5C379.961 300.963 390.961 310.296 399.5 322.5C397.941 324.131 395.941 324.964 393.5 325C380.547 326.774 367.547 328.274 354.5 329.5C350.612 342.608 344.112 354.274 335 364.5C329.167 370.333 323.333 376.167 317.5 382C311.119 387.191 304.119 391.358 296.5 394.5C295.893 396.775 295.559 399.109 295.5 401.5C297.209 413.793 298.042 426.126 298 438.5C286.275 444.748 273.775 446.915 260.5 445C256.242 442.055 255.409 438.221 258 433.5C262.267 429.299 267.434 426.966 273.5 426.5C273.666 417.827 273.5 409.16 273 400.5C272.5 400 272 399.5 271.5 399C257.81 399.549 244.143 399.549 230.5 399C230 399.5 229.5 400 229 400.5C226.975 414.089 226.142 427.756 226.5 441.5C217.285 442.935 208.118 444.602 199 446.5C188.475 445.348 185.141 439.682 189 429.5C193.023 425.404 197.856 422.738 203.5 421.5C204.655 418.554 204.821 415.554 204 412.5C202.875 406.124 201.541 399.791 200 393.5C182.519 386.358 167.519 375.691 155 361.5C148.948 353.73 144.782 345.063 142.5 335.5C145.167 337.5 147.5 339.833 149.5 342.5C149.922 349.862 153.589 354.696 160.5 357C169.734 359.31 178.734 358.643 187.5 355C192.997 350.84 195.33 345.34 194.5 338.5C201.23 337.284 207.23 334.451 212.5 330C216.725 325.323 220.225 320.156 223 314.5C225.444 309.092 226.11 303.426 225 297.5C223.473 294.447 221.973 291.447 220.5 288.5Z" fill="#BDB6BE"/>
<path fill-rule="evenodd" clip-rule="evenodd" d="M364.5 258.5C369.606 262.22 375.273 264.554 381.5 265.5C383.442 276.245 384.109 287.245 383.5 298.5C379.463 295.82 375.463 293.154 371.5 290.5C372.628 284.337 373.128 278.003 373 271.5C371.811 277.59 370.311 283.59 368.5 289.5C367.833 291.167 367.167 292.833 366.5 294.5C362.491 306.185 357.657 317.519 352 328.5C348.299 334.935 343.466 340.268 337.5 344.5C334.169 345.974 331.003 345.641 328 343.5C327.016 330.984 325.516 318.651 323.5 306.5C324.158 303.844 324.825 301.178 325.5 298.5C324.487 295.459 324.487 292.459 325.5 289.5C327.724 291.434 330.058 293.101 332.5 294.5C334.658 306.741 336.158 319.075 337 331.5C337.667 330.833 338.333 330.167 339 329.5C351.95 307.487 360.45 283.821 364.5 258.5Z" fill="#93387B"/>
<path fill-rule="evenodd" clip-rule="evenodd" d="M371.5 290.5C370.391 290.443 369.391 290.11 368.5 289.5C370.311 283.59 371.811 277.59 373 271.5C373.128 278.003 372.628 284.337 371.5 290.5Z" fill="#C44FD1"/>
<path fill-rule="evenodd" clip-rule="evenodd" d="M108.5 256.5C112.167 256.5 115.833 256.5 119.5 256.5C120.469 288.434 133.136 314.434 157.5 334.5C158.291 328.164 158.958 321.83 159.5 315.5C160.841 319.156 162.341 322.823 164 326.5C165.371 328.041 166.871 329.375 168.5 330.5C168.785 335.897 168.451 341.23 167.5 346.5C165.926 347.631 164.259 347.798 162.5 347C159.576 346.012 156.576 345.346 153.5 345C152.529 343.519 151.196 342.685 149.5 342.5C147.5 339.833 145.167 337.5 142.5 335.5C141.92 333.251 140.587 331.585 138.5 330.5C130.672 322.176 124.339 312.843 119.5 302.5C119.051 300.467 118.051 298.8 116.5 297.5C114.055 298.312 111.722 299.312 109.5 300.5C105.946 285.945 105.612 271.279 108.5 256.5Z" fill="#93387B"/>
<path fill-rule="evenodd" clip-rule="evenodd" d="M127.5 336.5C130.833 336.5 134.167 336.5 137.5 336.5C138.016 339.899 138.85 343.232 140 346.5C151.408 367.741 167.908 383.741 189.5 394.5C175.122 391.312 162.789 384.479 152.5 374C148.667 371.247 144.667 370.914 140.5 373C136.077 379.428 130.91 385.261 125 390.5C126.979 372.352 127.813 354.352 127.5 336.5Z" fill="#C24ECD"/>
<path fill-rule="evenodd" clip-rule="evenodd" d="M364.5 334.5C360.459 353.237 360.626 371.904 365 390.5C357.663 385.645 350.83 380.312 344.5 374.5C341.728 375.026 339.062 375.859 336.5 377C331.112 381.023 325.446 384.523 319.5 387.5C335.892 373.106 348.892 356.106 358.5 336.5C360.173 334.914 362.173 334.247 364.5 334.5Z" fill="#C24ECD"/>
<path fill-rule="evenodd" clip-rule="evenodd" d="M368.5 289.5C369.391 290.11 370.391 290.443 371.5 290.5C375.463 293.154 379.463 295.82 383.5 298.5C387.847 302.845 392.514 306.845 397.5 310.5C398.5 311.833 399.5 313.167 400.5 314.5C401.925 315.922 402.925 317.589 403.5 319.5C404.686 321.792 404.686 324.126 403.5 326.5C401.754 328.252 399.754 329.585 397.5 330.5C390.167 331.167 382.833 331.833 375.5 332.5C371.542 332.251 367.876 332.918 364.5 334.5C362.173 334.247 360.173 334.914 358.5 336.5C348.892 356.106 335.892 373.106 319.5 387.5C313.964 391.356 307.964 394.356 301.5 396.5C301.5 399.833 301.5 403.167 301.5 406.5C302.167 414.833 302.833 423.167 303.5 431.5C303.756 435.269 303.423 438.936 302.5 442.5C301.833 442.5 301.5 442.833 301.5 443.5C295.158 446.056 288.824 448.389 282.5 450.5C282.167 450.5 281.833 450.5 281.5 450.5C273.826 450.666 266.159 450.5 258.5 450C255.667 448.5 253.5 446.333 252 443.5C250.836 431.653 256.17 424.653 268 422.5C268.498 419.518 268.665 416.518 268.5 413.5C268.5 410.167 268.5 406.833 268.5 403.5C256.86 404.388 245.193 404.721 233.5 404.5C233.747 407.939 233.414 411.272 232.5 414.5C231.952 424.724 231.286 434.891 230.5 445C222.215 447.124 213.882 449.124 205.5 451C198.498 452.379 191.998 451.212 186 447.5C178.324 433.094 182.324 423.094 198 417.5C198.805 414.304 198.638 411.304 197.5 408.5C197.588 404.694 196.921 401.028 195.5 397.5C193.757 395.962 191.757 394.962 189.5 394.5C167.908 383.741 151.408 367.741 140 346.5C138.85 343.232 138.016 339.899 137.5 336.5C134.167 336.5 130.833 336.5 127.5 336.5C124.038 335.518 120.371 335.185 116.5 335.5C111.625 334.759 106.625 333.925 101.5 333C95.1024 331.432 90.7691 327.599 88.5 321.5C92.5303 311.47 99.53 304.47 109.5 300.5C111.722 299.312 114.055 298.312 116.5 297.5C118.051 298.8 119.051 300.467 119.5 302.5C111.051 306.441 103.551 311.774 97 318.5C95.5157 326.022 98.6823 329.522 106.5 329C114.709 329.426 122.876 330.26 131 331.5C133.528 331.275 136.028 330.942 138.5 330.5C140.587 331.585 141.92 333.251 142.5 335.5C144.782 345.063 148.948 353.73 155 361.5C167.519 375.691 182.519 386.358 200 393.5C201.541 399.791 202.875 406.124 204 412.5C204.821 415.554 204.655 418.554 203.5 421.5C197.856 422.738 193.023 425.404 189 429.5C185.141 439.682 188.475 445.348 199 446.5C208.118 444.602 217.285 442.935 226.5 441.5C226.142 427.756 226.975 414.089 229 400.5C229.5 400 230 399.5 230.5 399C244.143 399.549 257.81 399.549 271.5 399C272 399.5 272.5 400 273 400.5C273.5 409.16 273.666 417.827 273.5 426.5C267.434 426.966 262.267 429.299 258 433.5C255.409 438.221 256.242 442.055 260.5 445C273.775 446.915 286.275 444.748 298 438.5C298.042 426.126 297.209 413.793 295.5 401.5C295.559 399.109 295.893 396.775 296.5 394.5C304.119 391.358 311.119 387.191 317.5 382C323.333 376.167 329.167 370.333 335 364.5C344.112 354.274 350.612 342.608 354.5 329.5C367.547 328.274 380.547 326.774 393.5 325C395.941 324.964 397.941 324.131 399.5 322.5C390.961 310.296 379.961 300.963 366.5 294.5C367.167 292.833 367.833 291.167 368.5 289.5Z" fill="#A797A7"/>
<path fill-rule="evenodd" clip-rule="evenodd" d="M261.499 340.5C266.988 340.504 268.821 343.171 266.999 348.5C264.449 354.103 260.616 358.603 255.499 362C252.071 362.701 248.737 362.368 245.499 361C240.514 358.592 235.681 356.092 230.999 353.5C230.003 348.992 231.836 346.659 236.499 346.5C241.669 348.111 246.669 350.111 251.499 352.5C254.851 348.429 258.184 344.429 261.499 340.5Z" fill="#0A080B"/>
<path fill-rule="evenodd" clip-rule="evenodd" d="M168.5 330.5C175.505 338.308 184.171 340.974 194.5 338.5C195.33 345.34 192.997 350.84 187.5 355C178.734 358.643 169.734 359.31 160.5 357C153.589 354.696 149.922 349.862 149.5 342.5C151.196 342.685 152.529 343.519 153.5 345C156.576 345.346 159.576 346.012 162.5 347C164.259 347.798 165.926 347.631 167.5 346.5C168.451 341.23 168.785 335.897 168.5 330.5Z" fill="#A797A7"/>
<path fill-rule="evenodd" clip-rule="evenodd" d="M323.5 306.5C325.516 318.651 327.016 330.984 328 343.5C331.003 345.641 334.169 345.974 337.5 344.5C335.785 349.221 332.452 352.388 327.5 354C321.167 354.667 314.833 354.667 308.5 354C301.645 352.75 296.978 348.917 294.5 342.5C295.747 340.677 296.414 338.677 296.5 336.5C303.14 334.719 308.973 331.385 314 326.5C317.453 319.928 320.62 313.262 323.5 306.5Z" fill="#A99AA8"/>
<path fill-rule="evenodd" clip-rule="evenodd" d="M119.5 302.5C124.339 312.843 130.672 322.176 138.5 330.5C136.028 330.942 133.528 331.275 131 331.5C122.876 330.26 114.709 329.426 106.5 329C98.6821 329.522 95.5155 326.022 96.9998 318.5C103.551 311.774 111.051 306.441 119.5 302.5Z" fill="#BEB6BF"/>
<path fill-rule="evenodd" clip-rule="evenodd" d="M202.499 299.5C205.663 304.516 204.33 307.849 198.499 309.5C194.163 308.499 192.663 305.832 193.999 301.5C196.253 298.395 199.086 297.728 202.499 299.5Z" fill="#F0F0F0"/>
<path fill-rule="evenodd" clip-rule="evenodd" d="M375.5 332.5C375.167 333.833 374.833 335.167 374.5 336.5C370.044 354.704 370.71 372.704 376.5 390.5C378.275 393.983 379.108 397.65 379 401.5C377.491 403.919 375.325 404.919 372.5 404.5C371.127 404.657 369.793 404.49 368.5 404C364.34 401.977 360.34 399.811 356.5 397.5C355.205 396.512 353.872 395.512 352.5 394.5C349.212 391.551 345.879 388.551 342.5 385.5C329.97 394.691 316.304 401.691 301.5 406.5C301.5 403.167 301.5 399.833 301.5 396.5C307.964 394.356 313.964 391.356 319.5 387.5C325.446 384.523 331.112 381.023 336.5 377C339.062 375.859 341.728 375.026 344.5 374.5C350.83 380.312 357.663 385.645 365 390.5C360.626 371.904 360.459 353.237 364.5 334.5C367.876 332.918 371.542 332.251 375.5 332.5Z" fill="#93387B"/>
<path fill-rule="evenodd" clip-rule="evenodd" d="M116.5 335.5C120.371 335.185 124.038 335.518 127.5 336.5C127.813 354.352 126.979 372.352 125 390.5C130.91 385.261 136.077 379.428 140.5 373C144.667 370.914 148.667 371.247 152.5 374C162.789 384.479 175.122 391.312 189.5 394.5C191.757 394.962 193.757 395.962 195.5 397.5C196.921 401.028 197.588 404.694 197.5 408.5C186.743 404.969 176.076 401.136 165.5 397C158.376 393.02 151.876 388.186 146 382.5C138.688 393.48 129.188 401.98 117.5 408C113.167 409.489 110.833 407.989 110.5 403.5C113.166 394.672 114.999 385.672 116 376.5C116.5 362.837 116.667 349.171 116.5 335.5Z" fill="#93387B"/>
<path fill-rule="evenodd" clip-rule="evenodd" d="M268.5 413.5C256.523 414.366 244.523 414.699 232.5 414.5C233.414 411.272 233.747 407.939 233.5 404.5C245.193 404.721 256.86 404.388 268.5 403.5C268.5 406.833 268.5 410.167 268.5 413.5Z" fill="#93387B"/>
</svg>
