<svg width="500" height="500" viewBox="0 0 500 500" fill="none" xmlns="http://www.w3.org/2000/svg">
<path fill-rule="evenodd" clip-rule="evenodd" d="M299.501 118.5C298.516 122.634 298.183 126.968 298.501 131.5C298.669 138.852 299.169 146.185 300.001 153.5C300.718 154.044 301.218 154.711 301.501 155.5C301.823 157.722 301.156 159.556 299.501 161C291.181 165.808 283.348 164.975 276.001 158.5C275.445 156.115 275.611 153.782 276.501 151.5C276.501 142.5 276.501 133.5 276.501 124.5C276.501 120.5 276.501 116.5 276.501 112.5C276.375 99.4765 276.875 86.4765 278.001 73.5C278.585 67.8237 281.085 63.3237 285.501 60C288.168 59.3333 290.834 59.3333 293.501 60C296.383 61.6079 299.383 62.9413 302.501 64C315.654 73.7456 329.32 82.7456 343.501 91C347.962 97.6384 346.629 102.972 339.501 107C337.168 107.667 334.834 107.667 332.501 107C321.706 101.435 311.039 95.6018 300.501 89.5C299.503 99.1437 299.169 108.81 299.501 118.5Z" fill="#C7C7C7"/>
<path fill-rule="evenodd" clip-rule="evenodd" d="M292.501 91.5C293.168 91.5 293.501 91.8333 293.501 92.5C294.014 113.83 294.348 135.163 294.501 156.5C294.501 157.167 294.168 157.5 293.501 157.5C292.697 135.51 292.364 113.51 292.501 91.5Z" fill="#FFC3B9"/>
<path fill-rule="evenodd" clip-rule="evenodd" d="M294.5 156.5C294.347 135.163 294.013 113.83 293.5 92.5C294.15 92.1961 294.817 91.8627 295.5 91.5C296.666 112.826 296.833 134.159 296 155.5C295.617 156.056 295.117 156.389 294.5 156.5Z" fill="#FAFAF9"/>
<path fill-rule="evenodd" clip-rule="evenodd" d="M292.5 91.5C292.363 113.51 292.696 135.51 293.5 157.5C290.833 157.5 288.167 157.5 285.5 157.5C284.849 134.173 284.349 110.84 284 87.5C282.362 110.817 282.195 134.151 283.5 157.5C282.206 156.71 281.039 155.71 280 154.5C278.115 132.503 278.115 110.503 280 88.5C281.659 86.1309 281.826 83.6309 280.5 81C280.667 79.8333 280.833 78.6667 281 77.5C281.654 78.6956 282.154 78.6956 282.5 77.5C281.182 75.0878 281.349 72.7544 283 70.5C283.638 71.6086 284.138 72.7753 284.5 74C283.541 76.1199 283.374 78.2865 284 80.5C285.216 78.038 285.882 75.3713 286 72.5C286.833 71.6667 287.667 70.8333 288.5 70C292.192 69.7813 295.692 70.6146 299 72.5C299.5 72.3333 300 72.1667 300.5 72C298.485 70.4447 298.152 68.6114 299.5 66.5C313.341 74.2511 326.675 82.7511 339.5 92C335.603 95.6559 333.269 99.8226 332.5 104.5C322.661 98.7461 312.661 93.2461 302.5 88C299.997 86.2161 299.997 84.5494 302.5 83C299.912 81.3137 297.245 81.1471 294.5 82.5C292.183 80.684 290.016 78.684 288 76.5C288.72 79.2652 290.387 81.5985 293 83.5C293.43 86.1922 293.263 88.8589 292.5 91.5Z" fill="#FBF7F7"/>
<path fill-rule="evenodd" clip-rule="evenodd" d="M285.501 157.5C284.834 157.5 284.168 157.5 283.501 157.5C282.196 134.151 282.363 110.817 284.001 87.5C284.35 110.84 284.85 134.173 285.501 157.5Z" fill="#FFC6BD"/>
<path fill-rule="evenodd" clip-rule="evenodd" d="M286.5 62.5C289.973 62.5758 293.306 63.2424 296.5 64.5C296.5 66.1667 296.5 67.8333 296.5 69.5C292.111 67.5362 288.278 68.2029 285 71.5C282.788 68.0213 283.288 65.0213 286.5 62.5Z" fill="#F7F7F6"/>
<path fill-rule="evenodd" clip-rule="evenodd" d="M276.5 112.5C276.5 116.5 276.5 120.5 276.5 124.5C260.934 121.12 245.267 118.12 229.5 115.5C220.007 118.213 211.007 121.88 202.5 126.5C196.304 129.092 190.637 132.425 185.5 136.5C173.211 142.981 161.544 150.481 150.5 159C163.257 164.792 176.59 168.459 190.5 170C221.202 179.3 252.369 186.8 284 192.5C289.437 191.698 293.937 189.198 297.5 185C303.195 181.489 308.861 177.989 314.5 174.5C318.879 171.108 323.213 167.774 327.5 164.5C338.114 158.522 348.448 152.022 358.5 145C340.732 141.141 323.065 136.808 305.5 132C303.19 131.503 300.857 131.337 298.5 131.5C298.182 126.968 298.515 122.634 299.5 118.5C323.079 124.636 346.746 130.47 370.5 136C375.099 137.598 377.932 140.765 379 145.5C382.044 177.983 382.211 210.483 379.5 243C380.648 273.481 380.814 303.981 380 334.5C380.402 353.13 377.402 371.13 371 388.5C368.5 392.333 365.333 395.5 361.5 398C338.99 411.921 315.657 424.255 291.5 435C285.031 435.137 278.698 434.137 272.5 432C257.621 427.319 242.954 422.152 228.5 416.5C226.491 414.935 224.157 413.935 221.5 413.5C215.689 412.598 210.023 411.098 204.5 409C190.828 403.722 177.161 398.556 163.5 393.5C161.709 392.609 159.876 391.609 158 390.5C157.617 391.056 157.117 391.389 156.5 391.5C150.036 387.932 143.37 384.432 136.5 381C134.382 379.951 132.716 378.451 131.5 376.5C131.56 375.957 131.893 375.624 132.5 375.5C134.1 378.096 136.433 379.43 139.5 379.5C139.208 375.436 138.208 371.602 136.5 368C136.514 366.615 136.848 365.449 137.5 364.5C138.468 367.044 140.135 369.211 142.5 371C149.136 374.318 155.802 377.651 162.5 381C166.45 382.206 170.45 383.206 174.5 384C184.882 388.334 195.216 392.667 205.5 397C221.936 401.598 237.936 407.098 253.5 413.5C250.909 414.991 249.909 417.325 250.5 420.5C253.187 420.336 255.854 420.503 258.5 421C264.251 426.25 266.251 425.083 264.5 417.5C270.435 419.151 276.435 420.484 282.5 421.5C280.515 360.853 278.848 300.186 277.5 239.5C277.838 227.422 278.838 215.422 280.5 203.5C248.196 198.34 216.529 190.84 185.5 181C171.396 178.965 157.73 175.299 144.5 170C141.568 169.047 138.568 168.547 135.5 168.5C128.949 228.236 128.949 287.902 135.5 347.5C131.986 354.72 129.986 362.386 129.5 370.5C128.14 371.18 126.807 371.847 125.5 372.5C120.824 328.696 118.491 284.696 118.5 240.5C119.489 216.1 121.322 191.766 124 167.5C124.725 165.051 125.725 162.717 127 160.5C152.24 142.122 178.74 125.622 206.5 111C214.302 107.398 222.469 105.232 231 104.5C246.199 106.783 261.366 109.45 276.5 112.5Z" fill="#136955"/>
<path fill-rule="evenodd" clip-rule="evenodd" d="M298.5 131.5C300.857 131.337 303.19 131.503 305.5 132C323.065 136.808 340.732 141.141 358.5 145C348.448 152.022 338.114 158.522 327.5 164.5C319.85 161.307 311.85 159.307 303.5 158.5C303.058 157.261 302.391 156.261 301.5 155.5C301.217 154.711 300.717 154.044 300 153.5C299.168 146.185 298.668 138.852 298.5 131.5Z" fill="#1F9160"/>
<path fill-rule="evenodd" clip-rule="evenodd" d="M202.5 126.5C202.259 130.554 203.926 131.887 207.5 130.5C209.444 131.189 211.444 131.689 213.5 132C234.301 139.063 255.301 145.563 276.5 151.5C275.61 153.782 275.444 156.115 276 158.5C283.347 164.975 291.18 165.808 299.5 161C301.155 159.556 301.822 157.722 301.5 155.5C302.391 156.261 303.058 157.261 303.5 158.5C311.85 159.307 319.85 161.307 327.5 164.5C323.213 167.774 318.879 171.108 314.5 174.5C314.209 173.351 313.376 172.684 312 172.5C302.13 170.317 292.297 168.15 282.5 166C272.254 161.697 261.587 159.03 250.5 158C240.078 153.958 229.745 149.625 219.5 145C207.864 143.091 196.531 140.258 185.5 136.5C190.637 132.425 196.304 129.092 202.5 126.5Z" fill="#1D865D"/>
<path fill-rule="evenodd" clip-rule="evenodd" d="M276.499 124.5C276.499 133.5 276.499 142.5 276.499 151.5C255.3 145.563 234.3 139.063 213.499 132C211.443 131.689 209.443 131.189 207.499 130.5C203.925 131.887 202.258 130.554 202.499 126.5C211.006 121.88 220.006 118.213 229.499 115.5C245.266 118.12 260.933 121.12 276.499 124.5Z" fill="#1F9160"/>
<path fill-rule="evenodd" clip-rule="evenodd" d="M185.5 136.5C196.531 140.258 207.864 143.091 219.5 145C229.745 149.625 240.078 153.958 250.5 158C261.587 159.03 272.254 161.697 282.5 166C292.297 168.15 302.13 170.317 312 172.5C313.376 172.684 314.209 173.351 314.5 174.5C308.861 177.989 303.195 181.489 297.5 185C293.937 189.198 289.437 191.698 284 192.5C252.369 186.8 221.202 179.3 190.5 170C176.59 168.459 163.257 164.792 150.5 159C161.544 150.481 173.211 142.981 185.5 136.5Z" fill="#1F9160"/>
<path fill-rule="evenodd" clip-rule="evenodd" d="M366.5 153.5C367.043 153.56 367.376 153.893 367.5 154.5C366.653 155.845 365.487 156.845 364 157.5C362.514 161.776 361.181 166.109 360 170.5C353.109 183.167 347.775 196.5 344 210.5C340.703 216.995 337.703 223.662 335 230.5C322.398 219.897 309.232 210.063 295.5 201C319.199 185.155 342.865 169.322 366.5 153.5Z" fill="#1F9160"/>
<path fill-rule="evenodd" clip-rule="evenodd" d="M343.5 394.5C343.667 381.496 343.5 368.496 343 355.5C341.544 343.215 340.544 330.882 340 318.5C339.749 296.806 338.916 275.14 337.5 253.5C338.116 249.855 338.45 246.188 338.5 242.5C342.508 240.658 345.341 237.658 347 233.5C353.272 215.194 360.438 197.194 368.5 179.5C368.833 186.167 369.167 192.833 369.5 199.5C368.774 247.497 368.274 295.497 368 343.5C366.821 351.472 365.821 359.472 365 367.5C363.917 381.41 356.75 390.41 343.5 394.5Z" fill="#1F9160"/>
<path fill-rule="evenodd" clip-rule="evenodd" d="M327.5 240.5C326.002 246.353 325.336 252.353 325.5 258.5C326.992 280.136 327.825 301.803 328 323.5C329.35 332.125 330.35 340.792 331 349.5C331.393 366.998 331.893 384.331 332.5 401.5C320.381 408.06 308.048 414.394 295.5 420.5C295.167 419.333 294.833 418.167 294.5 417C292.661 358.012 290.994 299.012 289.5 240C290.021 230.838 290.354 221.671 290.5 212.5C297.074 216.132 303.407 220.299 309.5 225C315.397 230.406 321.397 235.572 327.5 240.5Z" fill="#1F9161"/>
<path fill-rule="evenodd" clip-rule="evenodd" d="M327.501 240.5C330.967 242.092 334.634 242.758 338.501 242.5C338.451 246.188 338.117 249.855 337.501 253.5C338.917 275.14 339.75 296.806 340.001 318.5C340.545 330.882 341.545 343.215 343.001 355.5C343.501 368.496 343.668 381.496 343.501 394.5C340.125 397.194 336.458 399.527 332.501 401.5C331.894 384.331 331.394 366.998 331.001 349.5C330.351 340.792 329.351 332.125 328.001 323.5C327.826 301.803 326.993 280.136 325.501 258.5C325.337 252.353 326.003 246.353 327.501 240.5Z" fill="#1D865D"/>
<path fill-rule="evenodd" clip-rule="evenodd" d="M264.499 417.5C263.858 416.518 263.192 415.518 262.499 414.5C264.806 407.08 266.806 399.58 268.499 392C268.295 387.441 266.128 385.607 261.999 386.5C260.672 393.112 259.672 399.778 258.999 406.5C258.166 408.5 257.332 410.5 256.499 412.5C255.582 413.127 254.582 413.461 253.499 413.5C237.935 407.098 221.935 401.598 205.499 397C195.215 392.667 184.881 388.334 174.499 384C170.449 383.206 166.449 382.206 162.499 381C155.801 377.651 149.135 374.318 142.499 371C140.134 369.211 138.467 367.044 137.499 364.5C139.267 358.657 140.267 352.657 140.499 346.5C138.707 346.366 137.041 346.699 135.499 347.5C128.948 287.902 128.948 228.236 135.499 168.5C138.567 168.547 141.567 169.047 144.499 170C157.729 175.299 171.395 178.965 185.499 181C216.528 190.84 248.195 198.34 280.499 203.5C278.837 215.422 277.837 227.422 277.499 239.5C278.847 300.186 280.514 360.853 282.499 421.5C276.434 420.484 270.434 419.151 264.499 417.5Z" fill="#219161"/>
<path fill-rule="evenodd" clip-rule="evenodd" d="M270.5 269.5C266.36 271.349 262.026 271.849 257.5 271C256.177 270.184 255.511 269.017 255.5 267.5C255.858 264.733 256.525 262.067 257.5 259.5C261.351 257.831 265.351 257.331 269.5 258C273.16 261.483 273.494 265.316 270.5 269.5Z" fill="#79CA29"/>
<path fill-rule="evenodd" clip-rule="evenodd" d="M257.5 259.5C256.525 262.067 255.858 264.733 255.5 267.5C253.777 265.22 253.111 262.553 253.5 259.5C253.525 256.821 254.858 255.488 257.5 255.5C257.5 256.833 257.5 258.167 257.5 259.5Z" fill="#B17B53"/>
<path fill-rule="evenodd" clip-rule="evenodd" d="M151.5 265.5C150.29 265.068 149.29 264.401 148.5 263.5C146.658 256.968 145.658 250.302 145.5 243.5C149.476 242.669 153.476 242.503 157.5 243C167.014 250.696 166.347 257.696 155.5 264C154.255 264.791 152.922 265.291 151.5 265.5Z" fill="#0F0A04"/>
<path fill-rule="evenodd" clip-rule="evenodd" d="M243.5 251.5C243.167 252.167 242.833 252.833 242.5 253.5C238.611 253.624 235.278 252.291 232.5 249.5C231.534 251.396 231.201 253.396 231.5 255.5C229.533 255.739 227.699 255.406 226 254.5C224.726 247.897 224.226 241.23 224.5 234.5C225.978 234.238 227.311 234.571 228.5 235.5C229.041 237.535 229.708 239.535 230.5 241.5C232.326 237.482 235.326 235.982 239.5 237C240.245 239.405 239.578 241.572 237.5 243.5C239.387 245.04 241.22 246.707 243 248.5C243.483 249.448 243.649 250.448 243.5 251.5Z" fill="#0E0A03"/>
<path fill-rule="evenodd" clip-rule="evenodd" d="M243.501 251.5C243.65 250.448 243.484 249.448 243.001 248.5C241.221 246.707 239.388 245.04 237.501 243.5C239.579 241.572 240.246 239.405 239.501 237C235.327 235.982 232.327 237.482 230.501 241.5C229.709 239.535 229.042 237.535 228.501 235.5C227.312 234.571 225.979 234.238 224.501 234.5C224.227 241.23 224.727 247.897 226.001 254.5C227.7 255.406 229.534 255.739 231.501 255.5C231.202 253.396 231.535 251.396 232.501 249.5C235.279 252.291 238.612 253.624 242.501 253.5C242.501 254.167 242.501 254.833 242.501 255.5C234.12 256.206 227.787 260.206 223.501 267.5C208.041 273.559 192.041 276.059 175.501 275C166.625 273.718 158.625 270.551 151.501 265.5C152.923 265.291 154.256 264.791 155.501 264C166.348 257.696 167.015 250.696 157.501 243C153.477 242.503 149.477 242.669 145.501 243.5C145.659 250.302 146.659 256.968 148.501 263.5C137.731 256.705 133.897 247.038 137.001 234.5C137.89 226.559 141.056 219.725 146.501 214C157.828 206.891 170.161 202.557 183.501 201C194.168 200.333 204.834 200.333 215.501 201C233.524 205.189 244.191 216.356 247.501 234.5C247.118 240.517 245.784 246.184 243.501 251.5Z" fill="#F8CF35"/>
<path fill-rule="evenodd" clip-rule="evenodd" d="M151.5 249.5C154.175 248.253 156.009 249.253 157 252.5C157.977 255.259 157.144 257.259 154.5 258.5C153.616 255.344 152.616 252.344 151.5 249.5Z" fill="#F0CE37"/>
<path fill-rule="evenodd" clip-rule="evenodd" d="M189.5 238.5C191.39 238.297 192.89 238.963 194 240.5C195.292 245.378 196.792 250.212 198.5 255C198 256.833 196.833 258 195 258.5C192.52 254.273 190.187 249.939 188 245.5C187.167 242.829 187.667 240.496 189.5 238.5Z" fill="#151006"/>
<path fill-rule="evenodd" clip-rule="evenodd" d="M171.5 237.5C179.932 236.612 184.265 240.278 184.5 248.5C184.657 252.2 183.991 255.7 182.5 259C179.21 259.589 177.71 258.089 178 254.5C176.264 258.862 173.264 260.529 169 259.5C169.052 256.728 170.219 254.394 172.5 252.5C169.067 251.4 167.067 249.067 166.5 245.5C167.366 242.308 169.032 239.641 171.5 237.5Z" fill="#110D05"/>
<path fill-rule="evenodd" clip-rule="evenodd" d="M176.5 241.5C180.125 243.775 180.125 246.109 176.5 248.5C171.495 246.175 171.495 243.841 176.5 241.5Z" fill="#E2C036"/>
<path fill-rule="evenodd" clip-rule="evenodd" d="M213.5 236.5C216.833 236.027 219 237.36 220 240.5C220.667 244.5 220.667 248.5 220 252.5C216.571 254.013 213.571 253.347 211 250.5C210.503 252.81 210.337 255.143 210.5 257.5C208.833 257.5 207.167 257.5 205.5 257.5C203.945 251.234 203.112 244.901 203 238.5C204.049 237.483 205.216 237.316 206.5 238C208.667 240.167 210.833 242.333 213 244.5C212.482 241.777 212.649 239.111 213.5 236.5Z" fill="#0F0B04"/>
<path fill-rule="evenodd" clip-rule="evenodd" d="M156.5 210.5C159.306 210.822 161.806 211.822 164 213.5C166.084 217.66 167.584 221.993 168.5 226.5C168.167 227.833 167.833 229.167 167.5 230.5C165.541 229.252 164.041 227.585 163 225.5C160.281 226.444 157.448 226.777 154.5 226.5C154.5 227.833 154.5 229.167 154.5 230.5C151.07 231.245 149.403 229.911 149.5 226.5C150.027 223.419 150.86 220.419 152 217.5C153.75 215.266 155.25 212.932 156.5 210.5Z" fill="#130F05"/>
<path fill-rule="evenodd" clip-rule="evenodd" d="M157.499 217.5C159.102 217.312 160.436 217.812 161.499 219C159.918 219.707 158.418 220.54 156.999 221.5C156.42 220.072 156.587 218.738 157.499 217.5Z" fill="#E1CA3B"/>
<path fill-rule="evenodd" clip-rule="evenodd" d="M218.5 208.5C220.582 208.472 222.416 209.139 224 210.5C224.499 214.152 224.665 217.818 224.5 221.5C227.836 221.467 231.003 222.134 234 223.5C235.033 226.217 234.2 228.051 231.5 229C227.496 229.144 223.496 228.811 219.5 228C218.01 227.255 217.01 226.088 216.5 224.5C217.167 219.148 217.834 213.814 218.5 208.5Z" fill="#090501"/>
<path fill-rule="evenodd" clip-rule="evenodd" d="M199.5 207.5C209.539 207.709 213.373 212.709 211 222.5C208.774 226.861 205.274 228.361 200.5 227C194.901 224.225 192.735 219.725 194 213.5C195.36 210.977 197.193 208.977 199.5 207.5Z" fill="#0F0B03"/>
<path fill-rule="evenodd" clip-rule="evenodd" d="M203.5 213.5C204.364 214.688 205.364 215.855 206.5 217C205.929 218.205 205.262 219.372 204.5 220.5C203.167 219.167 201.833 219.167 200.5 220.5C200.39 218.902 200.057 217.235 199.5 215.5C200.949 214.828 202.282 214.161 203.5 213.5Z" fill="#E3C434"/>
<path fill-rule="evenodd" clip-rule="evenodd" d="M175.499 207.5C179.181 207.335 182.847 207.501 186.499 208C190.913 208.748 192.413 211.248 190.999 215.5C189.635 218.363 187.469 220.363 184.499 221.5C183.795 224.704 183.129 227.871 182.499 231C180.832 231.667 179.166 231.667 177.499 231C173.823 224.288 172.323 217.122 172.999 209.5C173.994 208.934 174.827 208.267 175.499 207.5Z" fill="#0F0A03"/>
<path fill-rule="evenodd" clip-rule="evenodd" d="M179.5 211.5C187.712 211.513 188.545 213.847 182 218.5C181.616 215.94 180.783 213.606 179.5 211.5Z" fill="#E1BE33"/>
<path fill-rule="evenodd" clip-rule="evenodd" d="M242.501 255.5C246.33 256.1 249.997 257.434 253.501 259.5C253.112 262.553 253.778 265.22 255.501 267.5C255.512 269.017 256.178 270.184 257.501 271C262.027 271.849 266.361 271.349 270.501 269.5C271.791 270.058 272.624 271.058 273.001 272.5C275.649 277.373 275.982 282.373 274.001 287.5C265.882 305.916 252.382 311.416 233.501 304C221.076 294.251 217.743 282.084 223.501 267.5C227.787 260.206 234.12 256.206 242.501 255.5Z" fill="#ED3D37"/>
<path fill-rule="evenodd" clip-rule="evenodd" d="M245.5 266.5C247.389 272.822 245.055 276.488 238.5 277.5C232.897 276.291 230.897 272.957 232.5 267.5C236.465 262.626 240.798 262.293 245.5 266.5Z" fill="#0C0909"/>
<path fill-rule="evenodd" clip-rule="evenodd" d="M245.5 266.5C246.75 266.577 247.583 267.244 248 268.5C248.914 273.196 248.414 277.696 246.5 282C239.565 285.957 234.065 284.457 230 277.5C229.031 273.594 229.864 270.261 232.5 267.5C230.897 272.957 232.897 276.291 238.5 277.5C245.055 276.488 247.389 272.822 245.5 266.5Z" fill="#F9F1F1"/>
<path fill-rule="evenodd" clip-rule="evenodd" d="M263.5 278.5C265.897 287.273 262.563 290.773 253.5 289C250.346 286.397 249.679 283.231 251.5 279.5C255.118 274.596 259.118 274.262 263.5 278.5Z" fill="#0D0709"/>
<path fill-rule="evenodd" clip-rule="evenodd" d="M263.499 278.5C265.41 278.574 266.577 279.574 266.999 281.5C268.58 287.062 267.08 291.562 262.499 295C252.549 297.722 248.049 293.889 248.999 283.5C249.199 281.68 250.033 280.347 251.499 279.5C249.678 283.231 250.345 286.397 253.499 289C262.562 290.773 265.896 287.273 263.499 278.5Z" fill="#F9F4F4"/>
<path fill-rule="evenodd" clip-rule="evenodd" d="M235.5 290.5C239.5 289.833 241.167 291.5 240.5 295.5C236.5 296.167 234.833 294.5 235.5 290.5Z" fill="#050200"/>
<path fill-rule="evenodd" clip-rule="evenodd" d="M260.5 332.5C254.303 329.155 247.97 325.989 241.5 323C232.472 320.891 225.306 323.725 220 331.5C213.702 340.804 213.036 350.471 218 360.5C233.244 372.844 246.244 370.844 257 354.5C258.759 351.036 259.926 347.37 260.5 343.5C262.986 347.328 266.319 349.995 270.5 351.5C272.478 369.698 264.812 381.864 247.5 388C237.779 389.941 228.112 389.608 218.5 387C196.353 382.422 176.019 373.755 157.5 361C145.708 351.456 141.375 339.289 144.5 324.5C147.687 322.65 150.853 320.65 154 318.5C153.968 320.598 153.301 322.598 152 324.5C148.972 337.268 153.138 346.768 164.5 353C170.693 353.984 176.693 353.318 182.5 351C186.633 347.869 190.466 344.369 194 340.5C195.457 336.259 195.791 331.926 195 327.5C193.964 324.247 193.297 320.914 193 317.5C192.215 315.714 191.049 314.214 189.5 313C180.016 306.663 169.683 304.829 158.5 307.5C163.883 303.754 169.883 301.254 176.5 300C203.75 298.863 228.417 306.197 250.5 322C254.037 325.369 257.371 328.869 260.5 332.5Z" fill="#FAFBFA"/>
<path fill-rule="evenodd" clip-rule="evenodd" d="M144.5 324.5C140.195 324.158 138.695 321.824 140 317.5C145.131 312.186 151.298 308.852 158.5 307.5C169.683 304.829 180.016 306.663 189.5 313C191.049 314.214 192.215 315.714 193 317.5C193.297 320.914 193.964 324.247 195 327.5C195.791 331.926 195.457 336.259 194 340.5C190.466 344.369 186.633 347.869 182.5 351C176.693 353.318 170.693 353.984 164.5 353C153.138 346.768 148.972 337.268 152 324.5C153.301 322.598 153.968 320.598 154 318.5C150.853 320.65 147.687 322.65 144.5 324.5Z" fill="#060606"/>
<path fill-rule="evenodd" clip-rule="evenodd" d="M178.5 317.5C188.502 317.159 191.169 321.493 186.5 330.5C182.519 335.142 178.353 335.476 174 331.5C173.333 328.5 173.333 325.5 174 322.5C175.707 320.963 177.207 319.296 178.5 317.5Z" fill="#F7F7F7"/>
<path fill-rule="evenodd" clip-rule="evenodd" d="M260.499 332.5C265.308 337.383 270.141 342.383 274.999 347.5C275.637 350.93 274.137 352.263 270.499 351.5C266.318 349.995 262.985 347.328 260.499 343.5C259.925 347.37 258.758 351.036 256.999 354.5C246.243 370.844 233.243 372.844 217.999 360.5C213.035 350.471 213.701 340.804 219.999 331.5C225.305 323.725 232.471 320.891 241.499 323C247.969 325.989 254.302 329.155 260.499 332.5Z" fill="#060606"/>
<path fill-rule="evenodd" clip-rule="evenodd" d="M231.5 327.5C236.435 326.623 239.102 328.623 239.5 333.5C238.882 336.732 237.715 339.732 236 342.5C228.736 345.609 224.57 343.109 223.5 335C224.731 330.935 227.398 328.435 231.5 327.5Z" fill="#F5F5F5"/>
<path fill-rule="evenodd" clip-rule="evenodd" d="M137.5 364.5C136.848 365.449 136.514 366.615 136.5 368C138.208 371.602 139.208 375.436 139.5 379.5C136.433 379.43 134.1 378.096 132.5 375.5C131.893 375.624 131.56 375.957 131.5 376.5C126.725 378.477 124.725 377.144 125.5 372.5C126.807 371.847 128.14 371.18 129.5 370.5C129.986 362.386 131.986 354.72 135.5 347.5C137.042 346.699 138.708 346.366 140.5 346.5C140.268 352.657 139.268 358.657 137.5 364.5Z" fill="#040605"/>
<path fill-rule="evenodd" clip-rule="evenodd" d="M191.5 365.5C193.199 365.34 194.866 365.506 196.5 366C199.011 367.848 201.511 369.681 204 371.5C206.112 370.392 207.946 368.892 209.5 367C211.167 366.333 212.833 366.333 214.5 367C215.022 367.561 215.355 368.228 215.5 369C212.829 373.837 208.829 377.004 203.5 378.5C199.223 376.067 195.057 373.4 191 370.5C190.36 368.735 190.527 367.068 191.5 365.5Z" fill="#0D0C0C"/>
<path fill-rule="evenodd" clip-rule="evenodd" d="M264.501 417.5C266.252 425.083 264.252 426.25 258.501 421C255.855 420.503 253.188 420.336 250.501 420.5C249.91 417.325 250.91 414.991 253.501 413.5C254.584 413.461 255.584 413.127 256.501 412.5C257.334 410.5 258.168 408.5 259.001 406.5C259.674 399.778 260.674 393.112 262.001 386.5C266.13 385.607 268.297 387.441 268.501 392C266.808 399.58 264.808 407.08 262.501 414.5C263.194 415.518 263.86 416.518 264.501 417.5Z" fill="#020805"/>
<path fill-rule="evenodd" clip-rule="evenodd" d="M163.5 393.5C156.357 399.802 149.024 405.969 141.5 412C136.573 412.449 133.073 410.282 131 405.5C130.286 399.434 132.786 397.6 138.5 400C139.211 401.255 140.044 402.421 141 403.5C145.211 398.106 150.377 394.106 156.5 391.5C157.117 391.389 157.617 391.056 158 390.5C159.876 391.609 161.709 392.609 163.5 393.5Z" fill="#08090D"/>
<path fill-rule="evenodd" clip-rule="evenodd" d="M221.5 413.5C224.157 413.935 226.491 414.935 228.5 416.5C221.289 424.212 214.622 432.379 208.5 441C203.655 442.163 199.821 440.663 197 436.5C193.732 430.063 195.565 427.563 202.5 429C204 429.833 205.167 431 206 432.5C211.175 426.136 216.342 419.803 221.5 413.5Z" fill="#07090D"/>
</svg>
