<svg width="500" height="500" viewBox="0 0 500 500" fill="none" xmlns="http://www.w3.org/2000/svg">
<path fill-rule="evenodd" clip-rule="evenodd" d="M189.5 72.5C189.168 84.1857 189.501 95.8523 190.5 107.5C203.874 98.4412 217.207 89.4412 230.5 80.5C234.297 77.9348 238.297 75.9348 242.5 74.5C253.316 73.7382 262.982 76.7382 271.5 83.5C283.295 92.2362 295.295 100.736 307.5 109C319.707 119.379 332.04 129.545 344.5 139.5C360.628 153.124 376.628 166.957 392.5 181C402.833 188.667 413.167 196.333 423.5 204C428.387 208.061 433.053 212.227 437.5 216.5C437.5 218.833 437.5 221.167 437.5 223.5C436.508 226.823 435.508 230.156 434.5 233.5C431.386 241.078 428.219 248.744 425 256.5C420.171 265.612 413.671 266.945 405.5 260.5C400.816 257.474 396.149 254.474 391.5 251.5C391.167 250.5 390.5 249.833 389.5 249.5C387.025 246.759 384.025 244.759 380.5 243.5C362.827 226.826 344.16 211.326 324.5 197C315.376 187.536 305.376 179.203 294.5 172C284.381 161.541 273.381 152.208 261.5 144C257.5 140.667 253.833 137 250.5 133C248.029 132.294 245.695 132.627 243.5 134C235.811 140.691 228.478 147.691 221.5 155C190.41 176.418 162.077 201.084 136.5 229C127.307 236.698 118.307 244.532 109.5 252.5C106.545 254.122 103.878 256.122 101.5 258.5C96.4986 263.283 90.4986 265.95 83.5 266.5C79.8527 266.378 77.0194 264.712 75 261.5C72.8703 258.233 71.037 254.9 69.5 251.5C67.2977 244.893 65.2977 238.226 63.5 231.5C60.552 226.545 60.8854 221.879 64.5 217.5C65.3382 217.158 65.6716 216.492 65.5 215.5C74.7905 207.207 83.4571 198.207 91.5 188.5C99.466 182.202 106.799 175.202 113.5 167.5C120.168 161.668 127.002 156.001 134 150.5C135.613 145.176 135.779 139.843 134.5 134.5C134.5 132.833 134.5 131.167 134.5 129.5C134.062 117.837 133.728 106.17 133.5 94.5C132.966 85.9977 133.633 77.6643 135.5 69.5C135.611 68.8826 135.944 68.3826 136.5 68C142.237 66.5856 147.904 64.9189 153.5 63C162.914 62.8966 172.247 62.0632 181.5 60.5C188.954 61.0319 191.621 65.0319 189.5 72.5Z" fill="#C02013"/>
<path fill-rule="evenodd" clip-rule="evenodd" d="M248.5 83.4999C250.527 83.3378 252.527 83.5044 254.5 83.9999C293.642 110.583 330.976 139.583 366.5 171C387.517 185.682 407.017 202.182 425 220.5C423.932 232.037 420.265 242.704 414 252.5C402.226 245.058 390.726 237.224 379.5 229C356.544 211.046 333.877 192.712 311.5 174C299.087 162.249 286.087 151.249 272.5 141C265.364 131.863 256.531 125.03 246 120.5C244.775 120.862 243.609 121.362 242.5 122C231.619 132.12 220.286 141.787 208.5 151C169.505 188.051 128.838 223.051 86.5 256C84.8541 257.401 83.1875 257.568 81.5 256.5C76.8072 246.613 72.8072 236.446 69.5 226C80.4769 211.356 93.1435 198.356 107.5 187C116.348 178.319 125.014 169.486 133.5 160.5C161.48 137.325 190.813 115.825 221.5 95.9999C230.091 90.701 239.091 86.5344 248.5 83.4999Z" fill="#ED3B36"/>
<path fill-rule="evenodd" clip-rule="evenodd" d="M176.5 68.5001C178.792 68.2437 180.959 68.577 183 69.5001C183.667 83.8334 183.667 98.1668 183 112.5C169.047 122.785 155.38 133.452 142 144.5C141.067 138.035 140.567 131.535 140.5 125C141.142 107.838 141.642 90.6713 142 73.5001C153.46 70.8413 164.96 69.1746 176.5 68.5001Z" fill="#EE3C37"/>
<path fill-rule="evenodd" clip-rule="evenodd" d="M380.5 243.5C381.695 280.504 381.695 317.504 380.5 354.5C378.074 352.201 375.24 350.535 372 349.5C369.602 337.24 366.268 325.24 362 313.5C359.441 310.651 356.274 309.817 352.5 311C350.406 312.255 349.406 314.088 349.5 316.5C353.314 327.611 356.314 338.944 358.5 350.5C356.507 352.666 354.673 354.999 353 357.5C351.751 363.011 353.918 366.011 359.5 366.5C361.682 366.303 363.682 365.636 365.5 364.5C368.107 365.137 370.44 366.304 372.5 368C374.81 368.497 377.143 368.663 379.5 368.5C378.066 376.902 375.399 384.902 371.5 392.5C370.5 393.333 369.5 394.167 368.5 395C322.513 396.788 276.513 398.288 230.5 399.5C230.429 382.307 228.595 365.307 225 348.5C217.078 332.792 204.578 327.292 187.5 332C181.551 335.56 176.051 339.726 171 344.5C164.053 356.957 160.553 370.291 160.5 384.5C159.518 387.962 159.185 391.629 159.5 395.5C148.495 395.667 137.495 395.5 126.5 395C120.054 392.554 115.554 388.054 113 381.5C112.519 377.469 111.853 373.469 111 369.5C110.827 330.429 110.327 291.429 109.5 252.5C118.307 244.532 127.307 236.698 136.5 229C162.077 201.084 190.41 176.418 221.5 155C228.478 147.691 235.811 140.691 243.5 134C245.695 132.627 248.029 132.294 250.5 133C253.833 137 257.5 140.667 261.5 144C273.381 152.208 284.381 161.541 294.5 172C305.376 179.203 315.376 187.536 324.5 197C344.16 211.326 362.827 226.826 380.5 243.5Z" fill="#F8D39C"/>
<path fill-rule="evenodd" clip-rule="evenodd" d="M328.5 234.5C318.005 232.252 307.671 229.419 297.5 226C279.304 223.159 267.471 230.659 262 248.5C260.19 260.708 261.856 272.375 267 283.5C277.703 292.442 289.87 295.275 303.5 292C308.116 289.44 312.282 286.273 316 282.5C319.891 274.719 323.225 266.719 326 258.5C326.256 254.754 325.756 251.087 324.5 247.5C327.714 248.44 330.714 249.94 333.5 252C336.98 252.301 340.313 253.135 343.5 254.5C344.584 254.315 345.584 253.982 346.5 253.5C349.081 256.32 350.914 259.654 352 263.5C354.444 280.775 348.944 294.942 335.5 306C329.561 309.803 323.227 312.803 316.5 315C277.55 323.152 238.55 323.485 199.5 316C189.534 313.54 179.534 311.207 169.5 309C146.097 298.371 137.764 280.871 144.5 256.5C142.797 266.133 146.13 268.633 154.5 264C157.682 260.651 161.015 257.484 164.5 254.5C164.833 254.833 165.167 255.167 165.5 255.5C163.648 259.67 163.148 264.004 164 268.5C166.223 281.798 173.389 291.298 185.5 297C199.795 299.57 211.628 295.403 221 284.5C223.147 279.54 225.814 274.873 229 270.5C231.388 260.782 229.054 252.448 222 245.5C220.662 235.505 214.829 230.339 204.5 230C197.867 228.78 191.2 228.447 184.5 229C173.544 232.031 163.544 236.864 154.5 243.5C157.218 240.276 160.218 237.109 163.5 234C186.643 219.287 211.977 211.62 239.5 211C256.312 209.746 272.979 210.746 289.5 214C304.301 217.73 317.301 224.564 328.5 234.5Z" fill="#FCFCFB"/>
<path fill-rule="evenodd" clip-rule="evenodd" d="M328.5 234.5C334.332 239.678 340.832 244.011 348 247.5C348.748 249.84 348.248 251.84 346.5 253.5C345.584 253.982 344.584 254.315 343.5 254.5C340.313 253.135 336.98 252.301 333.5 252C330.714 249.94 327.714 248.44 324.5 247.5C325.756 251.087 326.256 254.754 326 258.5C323.225 266.719 319.891 274.719 316 282.5C312.282 286.273 308.116 289.44 303.5 292C289.87 295.275 277.703 292.442 267 283.5C261.856 272.375 260.19 260.708 262 248.5C267.471 230.659 279.304 223.159 297.5 226C307.671 229.419 318.005 232.252 328.5 234.5Z" fill="#040404"/>
<path fill-rule="evenodd" clip-rule="evenodd" d="M144.5 256.5C147.043 251.615 150.377 247.282 154.5 243.5C163.544 236.864 173.544 232.031 184.5 229C191.2 228.447 197.867 228.78 204.5 230C214.829 230.339 220.662 235.505 222 245.5C229.054 252.448 231.388 260.782 229 270.5C225.814 274.873 223.147 279.54 221 284.5C211.628 295.403 199.795 299.57 185.5 297C173.389 291.298 166.223 281.798 164 268.5C163.148 264.004 163.648 259.67 165.5 255.5C165.167 255.167 164.833 254.833 164.5 254.5C161.015 257.484 157.682 260.651 154.5 264C146.13 268.633 142.797 266.133 144.5 256.5Z" fill="#040404"/>
<path fill-rule="evenodd" clip-rule="evenodd" d="M279.5 234.5C284.169 233.7 288.003 235.033 291 238.5C291.405 244.193 291.072 249.859 290 255.5C285.909 259.305 281.076 260.472 275.5 259C270.436 255.028 268.602 249.861 270 243.5C273.062 240.386 276.228 237.386 279.5 234.5Z" fill="#F7F7F7"/>
<path fill-rule="evenodd" clip-rule="evenodd" d="M204.5 239.5C211.877 239.708 215.877 243.542 216.5 251C215.566 259.07 211.399 264.57 204 267.5C197.685 265.579 194.185 261.246 193.5 254.5C194.998 247.81 198.665 242.81 204.5 239.5Z" fill="#F4F4F4"/>
<path fill-rule="evenodd" clip-rule="evenodd" d="M264.5 297.5C269.325 297.488 271.491 299.821 271 304.5C268.211 310.615 264.045 315.448 258.5 319C255.743 319.584 253.077 319.25 250.5 318C245.515 315.592 240.682 313.092 236 310.5C235.217 306.771 236.717 304.437 240.5 303.5C245.688 305.116 250.688 307.116 255.5 309.5C258.984 305.866 261.984 301.866 264.5 297.5Z" fill="#0C0C0C"/>
<path fill-rule="evenodd" clip-rule="evenodd" d="M134.5 308.5C138.317 307.826 141.15 309.159 143 312.5C142.182 318.795 141.182 325.129 140 331.5C139.333 338.833 139.333 346.167 140 353.5C140.985 356.585 143.152 358.085 146.5 358C150.092 360.971 150.425 364.304 147.5 368C143.619 369.19 139.619 369.857 135.5 370C132.244 373.631 128.244 374.964 123.5 374C119.583 371.166 118.749 367.666 121 363.5C123.891 361.462 125.724 358.795 126.5 355.5C125.134 343.484 125.301 331.484 127 319.5C127.725 317.051 128.725 314.717 130 312.5C131.992 311.672 133.492 310.339 134.5 308.5Z" fill="#040403"/>
<path fill-rule="evenodd" clip-rule="evenodd" d="M380.5 354.5C384.844 359.701 384.51 364.368 379.5 368.5C377.143 368.663 374.81 368.497 372.5 368C370.44 366.304 368.107 365.137 365.5 364.5C363.682 365.636 361.682 366.303 359.5 366.5C353.918 366.011 351.751 363.011 353 357.5C354.673 354.999 356.507 352.666 358.5 350.5C356.314 338.944 353.314 327.611 349.5 316.5C349.406 314.088 350.406 312.255 352.5 311C356.274 309.817 359.441 310.651 362 313.5C366.268 325.24 369.602 337.24 372 349.5C375.24 350.535 378.074 352.201 380.5 354.5Z" fill="#050503"/>
<path fill-rule="evenodd" clip-rule="evenodd" d="M109.5 252.5C110.327 291.429 110.827 330.429 111 369.5C111.853 373.469 112.519 377.469 113 381.5C115.554 388.054 120.054 392.554 126.5 395C137.495 395.5 148.495 395.667 159.5 395.5C159.185 391.629 159.518 387.962 160.5 384.5C160.5 390.833 160.5 397.167 160.5 403.5C148.495 403.667 136.495 403.5 124.5 403C118.028 401.445 113.028 397.945 109.5 392.5C107.342 389.839 105.842 386.839 105 383.5C103.838 376.865 103.005 370.199 102.5 363.5C102.5 362.833 102.5 362.167 102.5 361.5C102.806 327.142 102.473 292.809 101.5 258.5C103.878 256.122 106.545 254.122 109.5 252.5Z" fill="#E0985E"/>
<path fill-rule="evenodd" clip-rule="evenodd" d="M230.5 399.5C231.01 402.388 230.344 404.721 228.5 406.5C226.5 406.5 224.5 406.5 222.5 406.5C221.678 390.561 220.845 374.561 220 358.5C218.395 345.563 211.062 338.896 198 338.5C191.463 338.7 185.963 341.2 181.5 346C180.207 346.49 178.873 346.657 177.5 346.5C175.035 352.104 172.535 357.771 170 363.5C168.619 376.788 168.119 390.121 168.5 403.5C166.5 403.5 164.5 403.5 162.5 403.5C161.833 403.5 161.167 403.5 160.5 403.5C160.5 397.167 160.5 390.833 160.5 384.5C160.553 370.291 164.053 356.957 171 344.5C176.051 339.726 181.551 335.56 187.5 332C204.578 327.292 217.078 332.792 225 348.5C228.595 365.307 230.429 382.307 230.5 399.5Z" fill="#B96736"/>
<path fill-rule="evenodd" clip-rule="evenodd" d="M222.5 406.5C214.167 406.5 205.833 406.5 197.5 406.5C192.87 405.771 188.203 405.437 183.5 405.5C181.492 389.597 179.992 373.597 179 357.5C177.488 355.043 176.154 355.043 175 357.5C174.825 373.072 175.325 388.572 176.5 404C176.272 404.399 175.938 404.565 175.5 404.5C170.968 404.818 166.634 404.485 162.5 403.5C164.5 403.5 166.5 403.5 168.5 403.5C168.119 390.121 168.619 376.788 170 363.5C172.535 357.771 175.035 352.104 177.5 346.5C178.873 346.657 180.207 346.49 181.5 346C185.963 341.2 191.463 338.7 198 338.5C211.062 338.896 218.395 345.563 220 358.5C220.845 374.561 221.678 390.561 222.5 406.5Z" fill="#AC7451"/>
<path fill-rule="evenodd" clip-rule="evenodd" d="M293.5 327.5C306.837 327.333 320.171 327.5 333.5 328C336.308 328.598 338.808 329.765 341 331.5C343.766 341.053 344.932 350.886 344.5 361C344.573 367.23 344.073 373.397 343 379.5C342.167 380.333 341.333 381.167 340.5 382C320.231 383.631 299.898 383.964 279.5 383C276.452 382.394 273.952 380.894 272 378.5C270.597 363.189 270.263 347.856 271 332.5C273.47 330.562 276.304 329.396 279.5 329C284.351 328.826 289.018 328.326 293.5 327.5Z" fill="#F2F2F2"/>
<path fill-rule="evenodd" clip-rule="evenodd" d="M277.502 361C284.177 360.834 297.846 360.5 304.504 361C305.477 366.407 305.811 371.907 305.504 377.5C296.171 377.5 286.837 377.5 277.504 377.5C277.184 374.102 277.505 372 277.501 368C277.5 365.5 277.503 365 277.502 361Z" fill="#C0E1E8"/>
<path fill-rule="evenodd" clip-rule="evenodd" d="M325.503 358.5C329.503 358.5 333.503 358.5 337.503 358.5C336.929 364.484 336.596 370.484 336.503 376.5C327.847 377.313 319.18 377.48 310.503 377C309.206 374.455 309.501 372.5 309.501 369.5C309.501 366.5 307.323 363.195 309.501 359.5C311.736 359.795 323.738 359.461 325.503 358.5Z" fill="#C0E1E7"/>
<path fill-rule="evenodd" clip-rule="evenodd" d="M294.5 333.5C297.898 333.18 301.232 333.513 304.5 334.5C305.464 341.442 305.797 348.442 305.5 355.5C296.144 356.08 286.809 356.747 277.499 357.5C276.335 350.524 276.168 343.524 276.999 336.5C282.979 335.827 288.813 334.827 294.5 333.5Z" fill="#D1E7EB"/>
<path fill-rule="evenodd" clip-rule="evenodd" d="M308.5 333.5C317.866 333.279 327.199 333.613 336.5 334.5C337.372 340.789 337.705 347.122 337.5 353.5C327.851 354.323 318.184 354.989 308.5 355.5C308.5 348.167 308.5 340.833 308.5 333.5Z" fill="#CAE4E9"/>
<path fill-rule="evenodd" clip-rule="evenodd" d="M183.5 405.5C181.492 389.597 179.992 373.597 179 357.5C177.488 355.043 176.154 355.043 175 357.5C174.825 373.072 175.325 388.572 176.5 404C176.272 404.399 175.938 404.565 175.5 404.5C175.842 405.338 176.508 405.672 177.5 405.5C178.833 405.5 180.167 405.5 181.5 405.5H183.5Z" fill="#AC7451"/>
<path fill-rule="evenodd" clip-rule="evenodd" d="M208.5 375.5C219.651 375.947 221.317 380.113 213.5 388C206.037 388.783 203.371 385.616 205.5 378.5C206.855 377.812 207.855 376.812 208.5 375.5Z" fill="#FACE35"/>
<path fill-rule="evenodd" clip-rule="evenodd" d="M380.5 243.5C384.025 244.759 387.025 246.759 389.5 249.5C388.5 262.003 388.5 274.669 389.5 287.5C389.5 297.833 389.5 308.167 389.5 318.5C389.5 323.833 389.5 329.167 389.5 334.5C389.5 337.167 389.5 339.833 389.5 342.5C389.54 350.187 389.207 357.854 388.5 365.5C387.539 367.265 387.205 369.265 387.5 371.5C385.825 374.507 385.159 377.84 385.5 381.5C384.13 383.25 383.13 385.25 382.5 387.5C381.559 389.05 380.893 390.716 380.5 392.5C377.892 399.919 372.559 403.752 364.5 404C343.506 404.812 322.506 405.312 301.5 405.5C295.833 405.5 290.167 405.5 284.5 405.5C268.652 405.764 252.819 406.431 237 407.5C233.979 407.498 231.146 407.164 228.5 406.5C230.344 404.721 231.01 402.388 230.5 399.5C276.513 398.288 322.513 396.788 368.5 395C369.5 394.167 370.5 393.333 371.5 392.5C375.399 384.902 378.066 376.902 379.5 368.5C384.51 364.368 384.844 359.701 380.5 354.5C381.695 317.504 381.695 280.504 380.5 243.5Z" fill="#E0985D"/>
<path fill-rule="evenodd" clip-rule="evenodd" d="M183.5 405.5C188.203 405.437 192.87 405.771 197.5 406.5C197.527 413.186 197.861 419.852 198.5 426.5C196.988 434.178 192.321 438.678 184.5 440C177.184 441.408 171.851 438.908 168.5 432.5C169.384 424.96 173.717 421.293 181.5 421.5C182.474 419.257 182.808 416.924 182.5 414.5C182.19 411.287 182.523 408.287 183.5 405.5Z" fill="#020302"/>
<path fill-rule="evenodd" clip-rule="evenodd" d="M284.5 405.5C290.167 405.5 295.833 405.5 301.5 405.5C301.5 410.833 301.5 416.167 301.5 421.5C312.467 419.797 316.8 424.13 314.5 434.5C310.451 437.655 305.785 439.321 300.5 439.5C298.5 439.5 296.5 439.5 294.5 439.5C289.885 438.052 286.718 435.052 285 430.5C285.666 422.159 285.5 413.826 284.5 405.5Z" fill="#020301"/>
</svg>
