<svg width="500" height="500" viewBox="0 0 500 500" fill="none" xmlns="http://www.w3.org/2000/svg">
<path fill-rule="evenodd" clip-rule="evenodd" d="M349.5 46.5C351.117 47.038 352.784 47.3713 354.5 47.5C357.195 50.5256 359.862 53.5256 362.5 56.5C366.521 66.8052 363.521 74.4719 353.5 79.5C350.946 80.388 348.279 80.7214 345.5 80.5C337.977 79.6336 332.31 75.967 328.5 69.5C325.331 62.6862 325.997 56.3528 330.5 50.5C332.01 49.1639 333.677 47.9973 335.5 47C340.155 46.5008 344.821 46.3342 349.5 46.5Z" fill="#FCFCFC"/>
<path fill-rule="evenodd" clip-rule="evenodd" d="M328.5 69.5C332.31 75.967 337.977 79.6336 345.5 80.5C345.002 83.3263 343.669 85.6597 341.5 87.5C332.866 83.9575 324.2 80.6242 315.5 77.5C317.5 75.8333 319.5 74.1667 321.5 72.5C323.687 71.242 326.02 70.242 328.5 69.5Z" fill="#19AF05"/>
<path fill-rule="evenodd" clip-rule="evenodd" d="M315.5 77.5C324.2 80.6242 332.866 83.9575 341.5 87.5C339.462 92.2843 338.462 97.2843 338.5 102.5C324.291 95.4312 309.291 90.7646 293.5 88.5C300.516 84.3255 307.849 80.6588 315.5 77.5Z" fill="#EC3E36"/>
<path fill-rule="evenodd" clip-rule="evenodd" d="M272.5 95.5C273.167 95.5 273.833 95.5 274.5 95.5C296.207 98.9268 317.54 103.927 338.5 110.5C338.604 116.351 339.604 122.018 341.5 127.5C309.923 115.585 277.257 108.918 243.5 107.5C243.5 107.167 243.5 106.833 243.5 106.5C253.105 102.632 262.771 98.9656 272.5 95.5Z" fill="#EC3E36"/>
<path fill-rule="evenodd" clip-rule="evenodd" d="M293.5 88.5C309.291 90.7646 324.291 95.4312 338.5 102.5C338.5 105.167 338.5 107.833 338.5 110.5C317.54 103.927 296.207 98.9268 274.5 95.5C280.557 92.5903 286.89 90.2569 293.5 88.5Z" fill="#1EAD04"/>
<path fill-rule="evenodd" clip-rule="evenodd" d="M243.5 107.5C277.257 108.918 309.923 115.585 341.5 127.5C343.716 131.266 345.383 135.266 346.5 139.5C347.067 141.03 347.733 142.53 348.5 144C348.272 144.399 347.938 144.565 347.5 144.5C325.201 136.071 302.201 130.238 278.5 127C257.045 122.654 235.378 120.821 213.5 121.5C214.436 120.026 215.77 119.026 217.5 118.5C225.831 114.056 234.498 110.389 243.5 107.5Z" fill="#1AAF02"/>
<path fill-rule="evenodd" clip-rule="evenodd" d="M213.5 121.5C235.378 120.821 257.045 122.654 278.5 127C302.201 130.238 325.201 136.071 347.5 144.5C349.699 148.451 351.699 152.451 353.5 156.5C353.758 158.81 353.758 160.81 353.5 162.5C339.625 157.375 325.625 152.541 311.5 148C290.28 143.689 268.946 140.023 247.5 137C233.485 136.763 219.485 136.263 205.5 135.5C201.192 136.201 196.859 136.534 192.5 136.5C190.801 136.66 189.134 136.494 187.5 136C195.457 129.856 204.124 125.022 213.5 121.5Z" fill="#EC3E36"/>
<path fill-rule="evenodd" clip-rule="evenodd" d="M353.5 162.5C353.932 163.71 354.599 164.71 355.5 165.5C355.263 166.791 355.596 167.791 356.5 168.5C356.5 170.5 356.5 172.5 356.5 174.5C315.971 159.627 274.137 150.961 231 148.5C208.969 147.965 187.469 150.965 166.5 157.5C166.062 157.565 165.728 157.399 165.5 157C168.371 154.297 171.038 151.464 173.5 148.5C174.833 147.833 175.833 146.833 176.5 145.5C178.167 144.5 179.5 143.167 180.5 141.5C183.87 138.252 187.87 136.585 192.5 136.5C196.859 136.534 201.192 136.201 205.5 135.5C219.485 136.263 233.485 136.763 247.5 137C268.946 140.023 290.28 143.689 311.5 148C325.625 152.541 339.625 157.375 353.5 162.5Z" fill="#1BAF02"/>
<path fill-rule="evenodd" clip-rule="evenodd" d="M356.5 174.5C358.311 179.779 358.644 185.112 357.5 190.5C308.614 171.408 257.948 162.575 205.5 164C186.35 166.441 168.017 171.608 150.5 179.5C149.494 179.062 149.494 178.396 150.5 177.5C151.752 175.999 152.752 174.332 153.5 172.5C155.4 170.381 157.066 168.047 158.5 165.5C159.167 165.5 159.5 165.167 159.5 164.5C161.5 161.833 163.833 159.5 166.5 157.5C187.469 150.965 208.969 147.965 231 148.5C274.137 150.961 315.971 159.627 356.5 174.5Z" fill="#ED3D36"/>
<path fill-rule="evenodd" clip-rule="evenodd" d="M357.5 190.5C360.88 199.389 362.88 208.723 363.5 218.5C361.603 213.079 358.269 208.579 353.5 205C337.331 193.608 319.331 186.941 299.5 185C266.598 181.202 233.598 179.868 200.5 181C186.123 183.237 172.123 186.904 158.5 192C151.272 195.438 144.606 199.604 138.5 204.5C139.443 197.672 141.776 191.339 145.5 185.5C146.752 183.999 147.752 182.332 148.5 180.5C149.492 180.672 150.158 180.338 150.5 179.5C168.017 171.608 186.35 166.441 205.5 164C257.948 162.575 308.614 171.408 357.5 190.5Z" fill="#16AF05"/>
<path fill-rule="evenodd" clip-rule="evenodd" d="M363.5 218.5C367.596 233.225 368.596 248.225 366.5 263.5C364.457 264.579 363.124 266.246 362.5 268.5C345.599 251.788 325.932 239.288 303.5 231C298.322 229.202 292.989 228.202 287.5 228C268.479 227.138 249.479 225.971 230.5 224.5C193.973 227.601 162.807 241.934 137 267.5C136.617 266.944 136.117 266.611 135.5 266.5C132.767 262.124 130.101 257.791 127.5 253.5C127.5 252.833 127.5 252.167 127.5 251.5C127.502 245.477 127.835 239.477 128.5 233.5C129.535 226.025 131.202 218.692 133.5 211.5C135.522 209.469 137.189 207.135 138.5 204.5C144.606 199.604 151.272 195.438 158.5 192C172.123 186.904 186.123 183.237 200.5 181C233.598 179.868 266.598 181.202 299.5 185C319.331 186.941 337.331 193.608 353.5 205C358.269 208.579 361.603 213.079 363.5 218.5Z" fill="#FEFEFD"/>
<path fill-rule="evenodd" clip-rule="evenodd" d="M362.5 268.5C364.739 276.526 366.405 284.692 367.5 293C366.739 302.148 366.739 311.315 367.5 320.5C366.515 324.634 366.182 328.968 366.5 333.5C365.833 335.5 365.167 337.5 364.5 339.5C363.5 339.833 362.833 340.5 362.5 341.5C360.821 341.715 359.821 341.048 359.5 339.5C354.016 322.57 348.683 305.57 343.5 288.5C347.335 290.522 351.335 292.022 355.5 293C362.978 294.857 365.644 292.19 363.5 285C355.684 281.51 348.684 276.843 342.5 271C330.833 267.333 319.167 263.667 307.5 260C301.235 258.516 294.902 258.182 288.5 259C283.155 262.006 278.155 265.506 273.5 269.5C268.673 269.059 264.007 267.893 259.5 266C247.047 260.607 234.714 254.94 222.5 249C218.311 245.31 213.978 241.81 209.5 238.5C202.304 246.708 193.971 253.374 184.5 258.5C163.553 260.89 146.386 270.223 133 286.5C130.839 290.848 131.005 295.015 133.5 299C135.5 299.667 137.5 299.667 139.5 299C144.375 295.734 149.042 292.234 153.5 288.5C147.655 301.857 142.655 315.524 138.5 329.5C137.96 333.642 137.294 337.642 136.5 341.5C135.178 341.67 134.011 341.337 133 340.5C132.218 337.69 131.384 335.023 130.5 332.5C130.156 328.106 129.49 323.772 128.5 319.5C128.795 317.265 128.461 315.265 127.5 313.5C126.534 297.181 129.2 281.514 135.5 266.5C136.117 266.611 136.617 266.944 137 267.5C162.807 241.934 193.973 227.601 230.5 224.5C249.479 225.971 268.479 227.138 287.5 228C292.989 228.202 298.322 229.202 303.5 231C325.932 239.288 345.599 251.788 362.5 268.5Z" fill="#FDD653"/>
<path fill-rule="evenodd" clip-rule="evenodd" d="M127.5 253.5C130.101 257.791 132.767 262.124 135.5 266.5C129.2 281.514 126.534 297.181 127.5 313.5C123.891 312.026 120.557 310.026 117.5 307.5C116.893 307.624 116.56 307.957 116.5 308.5C115.865 305.238 114.198 302.572 111.5 300.5C109.935 296.473 108.602 292.473 107.5 288.5C107.5 287.167 107.5 285.833 107.5 284.5C105.915 279.325 105.248 273.991 105.5 268.5C105.292 263.365 105.959 258.365 107.5 253.5C108.391 251.709 109.391 249.876 110.5 248C117.693 245.269 123.36 247.102 127.5 253.5Z" fill="#F2C8A5"/>
<path fill-rule="evenodd" clip-rule="evenodd" d="M273.5 269.5C262.425 287.252 261.592 305.586 271 324.5C274.972 328.902 279.805 331.902 285.5 333.5C285.756 353.246 295.756 361.746 315.5 359C326.033 356.651 335.199 351.818 343 344.5C350.072 332.921 348.905 322.421 339.5 313C337.527 312.505 335.527 312.338 333.5 312.5C335.32 307.521 337.153 302.521 339 297.5C338.637 293.47 338.804 289.47 339.5 285.5C340.901 286.521 342.235 287.521 343.5 288.5C348.683 305.57 354.016 322.57 359.5 339.5C358.778 339.082 358.278 338.416 358 337.5C356.487 340.527 354.987 343.527 353.5 346.5C347.315 352.185 341.315 358.019 335.5 364C299.399 385.347 260.732 392.014 219.5 384C206.279 381.149 193.279 377.482 180.5 373C167.577 366.9 156.577 358.4 147.5 347.5C147.5 347.167 147.5 346.833 147.5 346.5C160.969 354.234 175.969 357.401 192.5 356C203.781 351.898 208.781 344.065 207.5 332.5C217.499 325.876 224.666 316.876 229 305.5C230.583 295.249 227.917 286.249 221 278.5C221.476 273.287 219.642 269.12 215.5 266C205.852 260.769 195.519 258.269 184.5 258.5C193.971 253.374 202.304 246.708 209.5 238.5C213.978 241.81 218.311 245.31 222.5 249C234.714 254.94 247.047 260.607 259.5 266C264.007 267.893 268.673 269.059 273.5 269.5Z" fill="#F3C8A5"/>
<path fill-rule="evenodd" clip-rule="evenodd" d="M390.5 298.5C388.515 301.798 386.515 305.131 384.5 308.5C380.243 313.959 374.91 317.959 368.5 320.5C368.167 320.5 367.833 320.5 367.5 320.5C366.739 311.315 366.739 302.148 367.5 293C366.405 284.692 364.739 276.526 362.5 268.5C363.124 266.246 364.457 264.579 366.5 263.5C370.167 260.5 373.5 257.167 376.5 253.5C381.663 249.167 386.497 249.5 391 254.5C392.333 257.167 393.667 259.833 395 262.5C396.405 274.875 394.905 286.875 390.5 298.5Z" fill="#F3C8A5"/>
<path fill-rule="evenodd" clip-rule="evenodd" d="M184.5 258.5C195.519 258.269 205.852 260.769 215.5 266C219.642 269.12 221.476 273.287 221 278.5C227.917 286.249 230.583 295.249 229 305.5C224.666 316.876 217.499 325.876 207.5 332.5C186.831 342.602 170.665 337.936 159 318.5C155.665 311.174 154.165 303.507 154.5 295.5C154.462 292.819 155.129 290.319 156.5 288C155.368 286.209 154.368 286.375 153.5 288.5C149.042 292.234 144.375 295.734 139.5 299C137.5 299.667 135.5 299.667 133.5 299C131.005 295.015 130.839 290.848 133 286.5C146.386 270.223 163.553 260.89 184.5 258.5Z" fill="#040303"/>
<path fill-rule="evenodd" clip-rule="evenodd" d="M343.5 288.5C342.235 287.521 340.901 286.521 339.5 285.5C338.804 289.47 338.637 293.47 339 297.5C337.153 302.521 335.32 307.521 333.5 312.5C324.076 334.207 308.076 341.207 285.5 333.5C279.805 331.902 274.972 328.902 271 324.5C261.592 305.586 262.425 287.252 273.5 269.5C278.155 265.506 283.155 262.006 288.5 259C294.902 258.182 301.235 258.516 307.5 260C319.167 263.667 330.833 267.333 342.5 271C348.684 276.843 355.684 281.51 363.5 285C365.644 292.19 362.978 294.857 355.5 293C351.335 292.022 347.335 290.522 343.5 288.5Z" fill="#040403"/>
<path fill-rule="evenodd" clip-rule="evenodd" d="M288.5 268.5C293.347 267.84 297.181 269.507 300 273.5C300.594 280.304 299.927 286.971 298 293.5C292.491 298.002 286.491 298.669 280 295.5C278.601 292.371 276.935 289.371 275 286.5C273.959 281.576 275.459 277.576 279.5 274.5C283.065 273.255 286.065 271.255 288.5 268.5Z" fill="#F6F6F6"/>
<path fill-rule="evenodd" clip-rule="evenodd" d="M199.5 272.5C212.29 272.711 216.79 279.044 213 291.5C210.717 297.906 206.217 301.906 199.5 303.5C192.835 301.027 189.168 296.194 188.5 289C189.8 284.668 191.633 280.501 194 276.5C195.5 274.531 197.333 273.198 199.5 272.5Z" fill="#F7F7F7"/>
<path fill-rule="evenodd" clip-rule="evenodd" d="M154.5 295.5C153.804 299.275 152.804 303.109 151.5 307C151.598 309.873 152.932 311.873 155.5 313C154.552 313.483 153.552 313.649 152.5 313.5C152.719 314.675 152.386 315.675 151.5 316.5C148.81 318.613 146.31 320.947 144 323.5C143.638 329.074 143.471 334.407 143.5 339.5C141.95 336.025 140.284 332.692 138.5 329.5C142.655 315.524 147.655 301.857 153.5 288.5C154.368 286.375 155.368 286.209 156.5 288C155.129 290.319 154.462 292.819 154.5 295.5Z" fill="#F3C9A5"/>
<path fill-rule="evenodd" clip-rule="evenodd" d="M333.5 312.5C335.527 312.338 337.527 312.505 339.5 313C348.905 322.421 350.072 332.921 343 344.5C335.199 351.818 326.033 356.651 315.5 359C295.756 361.746 285.756 353.246 285.5 333.5C308.076 341.207 324.076 334.207 333.5 312.5Z" fill="#EDB69E"/>
<path fill-rule="evenodd" clip-rule="evenodd" d="M154.5 295.5C154.165 303.507 155.665 311.174 159 318.5C170.665 337.936 186.831 342.602 207.5 332.5C208.781 344.065 203.781 351.898 192.5 356C175.969 357.401 160.969 354.234 147.5 346.5C145.929 344.365 144.596 342.032 143.5 339.5C143.471 334.407 143.638 329.074 144 323.5C146.31 320.947 148.81 318.613 151.5 316.5C152.386 315.675 152.719 314.675 152.5 313.5C153.552 313.649 154.552 313.483 155.5 313C152.932 311.873 151.598 309.873 151.5 307C152.804 303.109 153.804 299.275 154.5 295.5Z" fill="#ECB59E"/>
<path fill-rule="evenodd" clip-rule="evenodd" d="M267.5 340.5C272.835 340.005 275.335 342.338 275 347.5C271.539 354.288 266.706 359.788 260.5 364C258.5 364.667 256.5 364.667 254.5 364C247.728 361.197 241.228 358.03 235 354.5C233.243 349.515 234.91 346.849 240 346.5C245.012 347.09 249.512 348.923 253.5 352C255.167 352.667 256.833 352.667 258.5 352C261.147 347.864 264.147 344.031 267.5 340.5Z" fill="#090808"/>
<path fill-rule="evenodd" clip-rule="evenodd" d="M353.5 346.5C354.167 346.833 354.833 347.167 355.5 347.5C355.328 348.492 355.662 349.158 356.5 349.5C361.39 358.055 367.056 366.055 373.5 373.5C375.167 375.833 377.167 377.833 379.5 379.5C378.694 380.728 377.694 381.728 376.5 382.5C364.553 382.517 352.887 384.184 341.5 387.5C341.365 394.862 341.698 402.196 342.5 409.5C328.545 408.476 315.045 405.476 302 400.5C300.523 401.444 299.523 402.777 299 404.5C296.781 413.16 293.781 421.494 290 429.5C280.209 422.044 270.709 414.211 261.5 406C259.61 404.888 257.61 404.054 255.5 403.5C244.857 411.811 235.524 421.478 227.5 432.5C226.833 432.5 226.167 432.5 225.5 432.5C222.637 419.943 217.971 408.11 211.5 397C208.103 397.013 204.77 397.679 201.5 399C187.81 405.118 174.31 411.618 161 418.5C161.896 408.622 163.396 398.789 165.5 389C164.97 386.793 163.97 384.793 162.5 383C149.789 382.375 137.122 382.875 124.5 384.5C123.5 384.167 122.833 383.5 122.5 382.5C123.167 381.5 123.833 380.5 124.5 379.5C126.633 377.909 128.299 375.909 129.5 373.5C132.888 370.403 135.555 366.736 137.5 362.5C139.42 359.661 141.087 356.661 142.5 353.5C143.69 351.131 145.357 349.131 147.5 347.5C156.577 358.4 167.577 366.9 180.5 373C193.279 377.482 206.279 381.149 219.5 384C260.732 392.014 299.399 385.347 335.5 364C341.315 358.019 347.315 352.185 353.5 346.5Z" fill="#ED3D36"/>
<path fill-rule="evenodd" clip-rule="evenodd" d="M379.5 379.5C381.167 379.5 382.833 379.5 384.5 379.5C386.385 381.053 387.385 383.053 387.5 385.5C386.844 390.33 384.177 392.163 379.5 391C378.244 390.583 377.577 389.75 377.5 388.5C377.795 386.265 377.461 384.265 376.5 382.5C377.694 381.728 378.694 380.728 379.5 379.5Z" fill="#F8CE36"/>
<path fill-rule="evenodd" clip-rule="evenodd" d="M122.5 382.5C122.833 383.5 123.5 384.167 124.5 384.5C124.5 386.5 124.5 388.5 124.5 390.5C124.443 391.609 124.11 392.609 123.5 393.5C117.538 398.377 113.872 397.043 112.5 389.5C112.607 382.38 115.94 380.047 122.5 382.5Z" fill="#F9CF35"/>
<path fill-rule="evenodd" clip-rule="evenodd" d="M376.5 382.5C377.461 384.265 377.795 386.265 377.5 388.5C371.706 387.591 366.04 387.924 360.5 389.5C356.167 389.5 351.833 389.5 347.5 389.5C347.009 396.351 347.676 403.018 349.5 409.5C347.193 410.763 345.859 412.763 345.5 415.5C333.656 416.097 322.156 414.43 311 410.5C310.235 410.57 309.735 410.903 309.5 411.5C304.999 411.737 301.999 413.904 300.5 418C304.229 417.707 307.896 416.874 311.5 415.5C312.401 416.29 313.068 417.29 313.5 418.5C309.078 419.697 304.744 421.197 300.5 423C298.964 424.599 298.464 426.433 299 428.5C303.828 425.169 308.995 422.503 314.5 420.5C315.434 421.568 315.768 422.901 315.5 424.5C310.016 426.407 305.016 429.073 300.5 432.5C296.153 429.949 291.82 429.949 287.5 432.5C287.737 433.791 287.404 434.791 286.5 435.5C282.5 431.833 278.5 428.167 274.5 424.5C271.402 422.108 268.069 419.942 264.5 418C261.984 415.317 259.317 412.817 256.5 410.5C250.753 415.91 245.753 421.91 241.5 428.5C239.091 431.575 236.425 434.242 233.5 436.5C231.754 434.748 229.754 433.415 227.5 432.5C235.524 421.478 244.857 411.811 255.5 403.5C257.61 404.054 259.61 404.888 261.5 406C270.709 414.211 280.209 422.044 290 429.5C293.781 421.494 296.781 413.16 299 404.5C299.523 402.777 300.523 401.444 302 400.5C315.045 405.476 328.545 408.476 342.5 409.5C341.698 402.196 341.365 394.862 341.5 387.5C352.887 384.184 364.553 382.517 376.5 382.5Z" fill="#1EAF09"/>
<path fill-rule="evenodd" clip-rule="evenodd" d="M349.5 409.5C356.375 409.307 358.209 412.307 355 418.5C350.679 420.547 347.512 419.547 345.5 415.5C345.859 412.763 347.193 410.763 349.5 409.5Z" fill="#F6D036"/>
<path fill-rule="evenodd" clip-rule="evenodd" d="M309.5 411.5C310.167 412.833 310.833 414.167 311.5 415.5C307.896 416.874 304.229 417.707 300.5 418C301.999 413.904 304.999 411.737 309.5 411.5Z" fill="#F1F9EF"/>
<path fill-rule="evenodd" clip-rule="evenodd" d="M225.5 432.5C223.272 433.377 221.272 434.71 219.5 436.5C219.946 433.99 219.28 431.99 217.5 430.5C212.043 428.124 206.377 426.124 200.5 424.5C200.5 423.5 200.5 422.5 200.5 421.5C205.876 422.8 211.209 423.966 216.5 425C215.833 423.667 215.167 422.333 214.5 421C209.899 419.516 205.232 418.35 200.5 417.5C200.5 416.167 200.5 414.833 200.5 413.5C204.192 414.34 207.859 415.34 211.5 416.5C212.167 416.167 212.833 415.833 213.5 415.5C212.833 413.833 212.167 412.167 211.5 410.5C208.232 409.513 204.898 409.18 201.5 409.5C201.5 408.5 201.5 407.5 201.5 406.5C204.247 406.813 206.914 406.48 209.5 405.5C209.081 404.328 208.415 403.328 207.5 402.5C205.396 403.519 203.396 404.519 201.5 405.5C198.833 406.5 196.167 407.5 193.5 408.5C185.298 412.428 177.631 417.094 170.5 422.5C168.062 424.267 165.395 425.601 162.5 426.5C161.401 421.772 158.401 419.105 153.5 418.5C154.449 411.088 155.783 403.754 157.5 396.5C158.163 394.196 158.83 391.863 159.5 389.5C154.311 388.446 149.311 388.779 144.5 390.5C142.5 390.5 140.5 390.5 138.5 390.5C133.833 390.5 129.167 390.5 124.5 390.5C124.5 388.5 124.5 386.5 124.5 384.5C137.122 382.875 149.789 382.375 162.5 383C163.97 384.793 164.97 386.793 165.5 389C163.396 398.789 161.896 408.622 161 418.5C174.31 411.618 187.81 405.118 201.5 399C204.77 397.679 208.103 397.013 211.5 397C217.971 408.11 222.637 419.943 225.5 432.5Z" fill="#1DAE07"/>
<path fill-rule="evenodd" clip-rule="evenodd" d="M201.5 409.5C204.898 409.18 208.232 409.513 211.5 410.5C212.167 412.167 212.833 413.833 213.5 415.5C212.833 415.833 212.167 416.167 211.5 416.5C207.859 415.34 204.192 414.34 200.5 413.5C200.433 412.041 200.766 410.708 201.5 409.5Z" fill="#EFF8ED"/>
<path fill-rule="evenodd" clip-rule="evenodd" d="M201.5 406.5C201.5 406.167 201.5 405.833 201.5 405.5C203.396 404.519 205.396 403.519 207.5 402.5C208.415 403.328 209.081 404.328 209.5 405.5C206.914 406.48 204.247 406.813 201.5 406.5Z" fill="#DBF0D5"/>
<path fill-rule="evenodd" clip-rule="evenodd" d="M200.5 417.5C205.232 418.35 209.899 419.516 214.5 421C215.167 422.333 215.833 423.667 216.5 425C211.209 423.966 205.876 422.8 200.5 421.5C200.5 420.167 200.5 418.833 200.5 417.5Z" fill="#F6FBF5"/>
<path fill-rule="evenodd" clip-rule="evenodd" d="M330.5 421.5C331.161 427.504 328.495 430.838 322.5 431.5C317.954 430.409 316.621 427.742 318.5 423.5C318.297 421.61 318.963 420.11 320.5 419C324.421 417.861 327.754 418.695 330.5 421.5Z" fill="#FBF5F5"/>
<path fill-rule="evenodd" clip-rule="evenodd" d="M313.5 418.5C314.338 418.842 314.672 419.508 314.5 420.5C308.995 422.503 303.828 425.169 299 428.5C298.464 426.433 298.964 424.599 300.5 423C304.744 421.197 309.078 419.697 313.5 418.5Z" fill="#F5FAF3"/>
<path fill-rule="evenodd" clip-rule="evenodd" d="M153.5 418.5C158.401 419.105 161.401 421.772 162.5 426.5C159.693 434.143 155.026 435.476 148.5 430.5C148.5 427.833 148.5 425.167 148.5 422.5C150.191 421.136 151.858 419.803 153.5 418.5Z" fill="#FAD135"/>
<path fill-rule="evenodd" clip-rule="evenodd" d="M200.5 424.5C206.377 426.124 212.043 428.124 217.5 430.5C217.5 431.5 217.5 432.5 217.5 433.5C211.737 431.786 206.07 429.786 200.5 427.5C200.5 426.5 200.5 425.5 200.5 424.5Z" fill="#F4FBF2"/>
<path fill-rule="evenodd" clip-rule="evenodd" d="M315.5 424.5C312.53 430.469 308.196 435.136 302.5 438.5C302.167 438.5 301.833 438.5 301.5 438.5C301.675 436.379 301.341 434.379 300.5 432.5C305.016 429.073 310.016 426.407 315.5 424.5Z" fill="#FBF8F5"/>
<path fill-rule="evenodd" clip-rule="evenodd" d="M194.5 427.5C199.039 435.999 196.706 439.832 187.5 439C185.677 438.003 184.01 436.836 182.5 435.5C182.689 427.394 186.689 424.727 194.5 427.5Z" fill="#FCF9F9"/>
<path fill-rule="evenodd" clip-rule="evenodd" d="M300.5 432.5C301.341 434.379 301.675 436.379 301.5 438.5C300.008 441.323 297.674 442.99 294.5 443.5C293.5 443.5 292.5 443.5 291.5 443.5C289.015 441.348 287.349 438.681 286.5 435.5C287.404 434.791 287.737 433.791 287.5 432.5C291.82 429.949 296.153 429.949 300.5 432.5Z" fill="#F9CE35"/>
<path fill-rule="evenodd" clip-rule="evenodd" d="M332.5 439.5C326.941 447.777 319.274 450.777 309.5 448.5C308.5 447.833 307.5 447.167 306.5 446.5C305.833 445.167 304.833 444.167 303.5 443.5C302.699 441.958 302.366 440.292 302.5 438.5C308.196 435.136 312.53 430.469 315.5 424.5C316.391 423.89 317.391 423.557 318.5 423.5C316.621 427.742 317.954 430.409 322.5 431.5C328.495 430.838 331.161 427.504 330.5 421.5C332.102 417.991 334.602 416.658 338 417.5C338.667 421.5 338.667 425.5 338 429.5C336.408 433.021 334.575 436.354 332.5 439.5Z" fill="#ED3D36"/>
<path fill-rule="evenodd" clip-rule="evenodd" d="M199.5 427.5C199.833 427.5 200.167 427.5 200.5 427.5C206.07 429.786 211.737 431.786 217.5 433.5C217.737 434.791 217.404 435.791 216.5 436.5C215.5 436.5 214.5 436.5 213.5 436.5C208.901 434.539 204.235 432.539 199.5 430.5C199.5 429.5 199.5 428.5 199.5 427.5Z" fill="#1FAF17"/>
<path fill-rule="evenodd" clip-rule="evenodd" d="M225.5 432.5C226.167 432.5 226.833 432.5 227.5 432.5C229.754 433.415 231.754 434.748 233.5 436.5C233.632 439.57 233.299 442.57 232.5 445.5C230.18 447.226 227.513 447.893 224.5 447.5C219.316 445.465 217.65 441.798 219.5 436.5C221.272 434.71 223.272 433.377 225.5 432.5Z" fill="#F9CF36"/>
<path fill-rule="evenodd" clip-rule="evenodd" d="M199.5 430.5C204.235 432.539 208.901 434.539 213.5 436.5C207.976 436.223 203.31 434.223 199.5 430.5Z" fill="#F0E9DF"/>
<path fill-rule="evenodd" clip-rule="evenodd" d="M199.5 427.5C199.5 428.5 199.5 429.5 199.5 430.5C203.31 434.223 207.976 436.223 213.5 436.5C214.5 436.5 215.5 436.5 216.5 436.5C216.804 437.15 217.137 437.817 217.5 438.5C216.196 441.13 214.53 443.463 212.5 445.5C210.223 446.449 208.223 447.782 206.5 449.5C200.459 452.108 194.125 453.442 187.5 453.5C186.5 453.5 185.5 453.5 184.5 453.5C181.358 451.42 178.358 449.086 175.5 446.5C173.857 442.705 173.191 438.705 173.5 434.5C174.467 433.194 175.801 432.527 177.5 432.5C178.922 433.925 180.589 434.925 182.5 435.5C184.01 436.836 185.677 438.003 187.5 439C196.706 439.832 199.039 435.999 194.5 427.5C196.05 426.28 197.716 426.28 199.5 427.5Z" fill="#EC3D37"/>
</svg>
