<svg width="500" height="500" viewBox="0 0 500 500" fill="none" xmlns="http://www.w3.org/2000/svg">
<path fill-rule="evenodd" clip-rule="evenodd" d="M403.5 114.5C404.54 116.719 404.04 118.719 402 120.5C403.058 124.387 402.558 128.053 400.5 131.5C393.922 130.54 387.255 130.207 380.5 130.5C380.252 125.84 378.252 122.007 374.5 119C372.397 118.749 371.063 119.749 370.5 122C371.036 124.24 372.203 126.073 374 127.5C374.333 130.167 374.667 132.833 375 135.5C379.408 142.557 381.242 150.223 380.5 158.5C374.332 154.979 367.665 153.646 360.5 154.5C359.656 147.148 355.656 142.315 348.5 140C344.5 139.333 340.5 139.333 336.5 140C332.466 141.937 328.299 143.437 324 144.5C320.458 141.99 316.625 139.823 312.5 138C305.833 137.333 299.167 137.333 292.5 138C291.584 138.374 290.75 138.874 290 139.5C285.99 136.165 281.49 133.665 276.5 132C268.5 131.333 260.5 131.333 252.5 132C249.511 132.33 246.678 133.164 244 134.5C238.739 130.773 232.905 129.607 226.5 131C222.861 132.734 219.361 134.568 216 136.5C212.989 135.41 210.156 133.91 207.5 132C202.615 129.349 197.615 129.016 192.5 131C187.891 133.313 183.391 135.813 179 138.5C178.184 137.177 177.017 136.511 175.5 136.5C181.293 128.873 187.96 122.039 195.5 116C218.155 98.9979 242.155 83.9976 267.5 70.9999C277.561 66.7889 287.894 63.4556 298.5 60.9999C308.715 59.8557 318.715 60.8557 328.5 63.9999C343.851 69.841 358.184 77.5077 371.5 86.9999C382.058 96.3989 392.725 105.566 403.5 114.5Z" fill="#ED3D36"/>
<path fill-rule="evenodd" clip-rule="evenodd" d="M309.5 53.5C315.115 54.6028 320.782 55.6028 326.5 56.5C328.214 57.7384 330.214 58.405 332.5 58.5C333.29 59.4013 334.29 60.0679 335.5 60.5C341.74 62.62 347.74 65.2866 353.5 68.5C358.666 71.2484 363.666 74.2484 368.5 77.5C373.491 80.6732 378.157 84.3399 382.5 88.5C389.833 94.833 397.167 101.167 404.5 107.5C405.29 108.401 406.29 109.068 407.5 109.5C405.164 110.296 403.831 111.962 403.5 114.5C392.725 105.566 382.058 96.399 371.5 87C358.184 77.5078 343.851 69.8411 328.5 64C318.715 60.8558 308.715 59.8558 298.5 61C287.894 63.4557 277.561 66.789 267.5 71C242.155 83.9977 218.155 98.998 195.5 116C187.96 122.039 181.293 128.873 175.5 136.5C173.167 136.5 170.833 136.5 168.5 136.5C172.45 130.549 176.783 124.882 181.5 119.5C182.5 118.833 183.5 118.167 184.5 117.5C188.397 114.391 192.064 111.057 195.5 107.5C204.709 101.735 213.709 95.735 222.5 89.5C226.833 86.8333 231.167 84.1667 235.5 81.5C236.167 81.1667 236.833 80.8333 237.5 80.5C239.853 79.6597 241.853 78.3264 243.5 76.5C247.3 74.7664 250.966 72.7664 254.5 70.5C257.696 69.0713 260.696 67.4046 263.5 65.5C268.895 64.2624 273.895 62.2624 278.5 59.5C281.785 59.0719 284.785 58.0719 287.5 56.5C294.771 55.0661 302.104 54.0661 309.5 53.5Z" fill="#AE2D1D"/>
<path fill-rule="evenodd" clip-rule="evenodd" d="M439.5 105.5C441.651 111.136 444.318 116.469 447.5 121.5C446.535 126.443 445.868 131.443 445.5 136.5C442.079 142.583 437.079 146.917 430.5 149.5C424.631 148.046 418.631 147.379 412.5 147.5C409.122 146.977 406.122 145.644 403.5 143.5C402.341 141.145 401.341 138.812 400.5 136.5C400.5 134.833 400.5 133.167 400.5 131.5C402.558 128.053 403.058 124.387 402 120.5C404.04 118.719 404.54 116.719 403.5 114.5C403.831 111.962 405.164 110.296 407.5 109.5C412.29 105.175 417.957 102.675 424.5 102C430.183 100.676 435.183 101.843 439.5 105.5Z" fill="#FDFCFC"/>
<path fill-rule="evenodd" clip-rule="evenodd" d="M400.5 131.5C400.5 133.167 400.5 134.833 400.5 136.5C394.774 136.256 388.774 136.59 382.5 137.5C383.764 140.125 384.931 142.792 386 145.5C386.098 151.652 386.932 157.652 388.5 163.5C385.489 162.331 382.822 160.664 380.5 158.5C381.242 150.223 379.408 142.557 375 135.5C374.667 132.833 374.333 130.167 374 127.5C372.203 126.073 371.036 124.24 370.5 122C371.063 119.749 372.397 118.749 374.5 119C378.252 122.007 380.252 125.84 380.5 130.5C387.255 130.207 393.922 130.54 400.5 131.5Z" fill="#AE2C1C"/>
<path fill-rule="evenodd" clip-rule="evenodd" d="M380.5 158.5C382.822 160.664 385.489 162.331 388.5 163.5C388.5 164.167 388.833 164.5 389.5 164.5C391.437 165.931 393.27 167.598 395 169.5C393.733 173.991 395.067 177.658 399 180.5C399.495 182.473 399.662 184.473 399.5 186.5C400.786 189.117 402.453 191.45 404.5 193.5C404.932 194.71 405.599 195.71 406.5 196.5C407.324 199.764 407.658 203.098 407.5 206.5C406.662 206.842 406.328 207.508 406.5 208.5C405.847 212.093 405.014 215.759 404 219.5C401.295 222.036 398.795 224.703 396.5 227.5C394.287 227.848 392.287 228.681 390.5 230C393.585 237.162 395.252 244.662 395.5 252.5C394.128 251.488 392.795 250.488 391.5 249.5C390.827 242.969 389.327 236.636 387 230.5C382.767 229.55 379.1 227.55 376 224.5C372.468 217.132 368.301 210.132 363.5 203.5C362.692 203.192 362.025 202.692 361.5 202C357.833 201.667 354.167 201.333 350.5 201C347.422 198.248 344.089 195.914 340.5 194C337.5 193.667 334.5 193.333 331.5 193C329.126 190.961 327.126 188.628 325.5 186C323.131 185.464 321.131 184.297 319.5 182.5C313.472 185.425 307.139 186.591 300.5 186C295.199 183.867 291.866 180.033 290.5 174.5C282.338 178.912 273.672 181.078 264.5 181C261.344 179.328 258.344 177.495 255.5 175.5C251.87 177.315 248.203 179.149 244.5 181C237.907 183.808 232.24 182.641 227.5 177.5C222.285 179.91 216.785 180.91 211 180.5C205.899 181.183 201.399 180.017 197.5 177C196 176.833 194.5 176.667 193 176.5C184.024 178.415 175.19 180.915 166.5 184C164.461 186.374 162.128 188.374 159.5 190C154.348 192.66 149.181 195.16 144 197.5C132.949 215.284 126.115 234.617 123.5 255.5C122.876 257.754 121.543 259.421 119.5 260.5C121.313 237.395 128.313 216.062 140.5 196.5C137.26 196.024 133.927 196.024 130.5 196.5C128.297 196.396 126.297 195.73 124.5 194.5C122.06 190.852 120.393 186.852 119.5 182.5C120.228 178.594 122.062 175.26 125 172.5C125.315 170.414 125.815 168.414 126.5 166.5C130.568 162.761 133.901 158.428 136.5 153.5C138.368 152.737 140.035 151.737 141.5 150.5C146.328 149.754 150.995 148.421 155.5 146.5C156.524 145.148 157.524 143.815 158.5 142.5C161.571 140.102 164.905 138.102 168.5 136.5C170.833 136.5 173.167 136.5 175.5 136.5C177.017 136.511 178.184 137.177 179 138.5C183.391 135.813 187.891 133.313 192.5 131C197.615 129.016 202.615 129.349 207.5 132C210.156 133.91 212.989 135.41 216 136.5C219.361 134.568 222.861 132.734 226.5 131C232.905 129.607 238.739 130.773 244 134.5C246.678 133.164 249.511 132.33 252.5 132C260.5 131.333 268.5 131.333 276.5 132C281.49 133.665 285.99 136.165 290 139.5C290.75 138.874 291.584 138.374 292.5 138C299.167 137.333 305.833 137.333 312.5 138C316.625 139.823 320.458 141.99 324 144.5C328.299 143.437 332.466 141.937 336.5 140C340.5 139.333 344.5 139.333 348.5 140C355.656 142.315 359.656 147.148 360.5 154.5C367.665 153.646 374.332 154.979 380.5 158.5Z" fill="#FEFDFD"/>
<path fill-rule="evenodd" clip-rule="evenodd" d="M391.5 249.5C383.006 246.526 375.339 242.026 368.5 236C362.793 233.327 356.793 231.827 350.5 231.5C341.856 228.067 332.856 225.401 323.5 223.5C316.679 222.345 309.679 222.179 302.5 223C301.944 223.383 301.611 223.883 301.5 224.5C297.798 226.024 294.464 228.19 291.5 231C288.954 232.711 286.954 234.877 285.5 237.5C276.829 250.076 273.662 264.076 276 279.5C276.756 283.758 277.923 287.758 279.5 291.5C281.106 300.217 285.773 306.717 293.5 311C302.675 315.335 312.341 317.168 322.5 316.5C320.745 324.815 323.079 331.648 329.5 337C332.339 338.92 335.339 340.587 338.5 342C346.258 342.559 353.924 341.893 361.5 340C365.896 338.13 370.229 336.297 374.5 334.5C359.577 354.264 340.744 368.93 318 378.5C318.5 387.839 319.333 397.172 320.5 406.5C316.802 406.6 313.635 407.933 311 410.5C308.047 408.37 304.88 408.037 301.5 409.5C300.33 402.291 298.997 395.125 297.5 388C295.035 385.124 291.869 383.957 288 384.5C267.145 385.661 246.312 385.828 225.5 385C224.874 385.75 224.374 386.584 224 387.5C223.814 394.414 223.314 401.247 222.5 408C220.336 408.914 218.336 410.081 216.5 411.5C213.152 407.328 208.819 405.661 203.5 406.5C203.461 398.01 202.294 389.676 200 381.5C186.238 374.887 173.404 366.887 161.5 357.5C168.884 356.979 176.218 355.479 183.5 353C195.788 348.263 199.788 339.763 195.5 327.5C194.399 325.898 192.899 324.898 191 324.5C186.677 325.698 182.51 325.698 178.5 324.5C189.559 325.332 199.559 322.666 208.5 316.5C212.456 314.212 215.789 311.212 218.5 307.5C220.451 306.284 221.951 304.618 223 302.5C225.067 296.695 227.901 291.362 231.5 286.5C232.117 286.389 232.617 286.056 233 285.5C233.814 280.98 233.647 276.646 232.5 272.5C232.768 270.901 232.434 269.568 231.5 268.5C229.386 262.274 226.219 256.607 222 251.5C221.814 248.964 221.314 246.631 220.5 244.5C218.676 239.178 215.009 235.678 209.5 234C202.106 231.192 194.439 229.692 186.5 229.5C178.154 228.414 169.82 229.247 161.5 232C149.805 236.681 138.805 242.681 128.5 250C126.7 251.812 125.033 253.645 123.5 255.5C126.115 234.617 132.949 215.284 144 197.5C149.181 195.16 154.348 192.66 159.5 190C162.128 188.374 164.461 186.374 166.5 184C175.19 180.915 184.024 178.415 193 176.5C194.5 176.667 196 176.833 197.5 177C201.399 180.017 205.899 181.183 211 180.5C216.785 180.91 222.285 179.91 227.5 177.5C232.24 182.641 237.907 183.808 244.5 181C248.203 179.149 251.87 177.315 255.5 175.5C258.344 177.495 261.344 179.328 264.5 181C273.672 181.078 282.338 178.912 290.5 174.5C291.866 180.033 295.199 183.867 300.5 186C307.139 186.591 313.472 185.425 319.5 182.5C321.131 184.297 323.131 185.464 325.5 186C327.126 188.628 329.126 190.961 331.5 193C334.5 193.333 337.5 193.667 340.5 194C344.089 195.914 347.422 198.248 350.5 201C354.167 201.333 357.833 201.667 361.5 202C362.025 202.692 362.692 203.192 363.5 203.5C368.301 210.132 372.468 217.132 376 224.5C379.1 227.55 382.767 229.55 387 230.5C389.327 236.636 390.827 242.969 391.5 249.5Z" fill="#DF9051"/>
<path fill-rule="evenodd" clip-rule="evenodd" d="M293.5 199.5C299.176 199.334 304.843 199.501 310.5 200C315.459 206.643 314.125 211.643 306.5 215C299.668 217.322 292.668 217.988 285.5 217C280.564 213.042 280.231 208.709 284.5 204C287.324 201.921 290.324 200.421 293.5 199.5Z" fill="#FDFCFB"/>
<path fill-rule="evenodd" clip-rule="evenodd" d="M188.5 203.5C196.971 203.05 205.304 203.883 213.5 206C217.681 210.808 217.014 215.142 211.5 219C203.36 221.687 195.027 222.687 186.5 222C178.853 219.225 177.02 214.392 181 207.5C183.255 205.501 185.755 204.168 188.5 203.5Z" fill="#FEFAF8"/>
<path fill-rule="evenodd" clip-rule="evenodd" d="M119.5 260.5C114.615 265.978 113.282 272.311 115.5 279.5C116.622 280.63 117.956 281.297 119.5 281.5C120.5 286.166 121.5 290.832 122.5 295.5C110.49 312.189 101.156 330.189 94.5 349.5C93.6935 348.272 92.6935 347.272 91.5 346.5C92.4972 346.53 93.1639 346.03 93.5 345C94.9404 340.846 96.2737 336.68 97.5 332.5C102.308 322.217 107.641 312.217 113.5 302.5C114.897 301.181 115.563 299.514 115.5 297.5C113.974 287.543 112.974 277.543 112.5 267.5C112.5 262.167 112.5 256.833 112.5 251.5C112.543 245.332 113.543 239.332 115.5 233.5C115.557 232.391 115.89 231.391 116.5 230.5C119.893 221.382 123.56 212.382 127.5 203.5C128.773 201.287 129.773 198.954 130.5 196.5C133.927 196.024 137.26 196.024 140.5 196.5C128.313 216.062 121.313 237.395 119.5 260.5Z" fill="#DF9051"/>
<path fill-rule="evenodd" clip-rule="evenodd" d="M323.5 223.5C316.11 223.236 308.777 223.57 301.5 224.5C301.611 223.883 301.944 223.383 302.5 223C309.679 222.179 316.679 222.345 323.5 223.5Z" fill="#8F764B"/>
<path fill-rule="evenodd" clip-rule="evenodd" d="M350.5 231.5C356.793 231.827 362.793 233.327 368.5 236C375.339 242.026 383.006 246.526 391.5 249.5C392.795 250.488 394.128 251.488 395.5 252.5C395.5 254.833 395.5 257.167 395.5 259.5C394.167 260.167 393.167 261.167 392.5 262.5C387.253 261.391 381.92 260.558 376.5 260C372.112 257.477 367.778 254.977 363.5 252.5C361.32 245.092 356.486 238.759 349 233.5C347.719 234.647 347.386 234.313 348 232.5C348.671 231.748 349.504 231.414 350.5 231.5Z" fill="#060605"/>
<path fill-rule="evenodd" clip-rule="evenodd" d="M186.5 229.5C185.432 230.434 184.099 230.768 182.5 230.5C180.473 230.338 178.473 230.505 176.5 231C174.734 234.23 172.234 235.063 169 233.5C168.167 235.167 167.333 236.833 166.5 238.5C160.846 240.391 156.846 243.557 154.5 248C150.595 253.712 146.595 259.212 142.5 264.5C136.439 270.566 130.106 276.233 123.5 281.5C122.167 281.5 120.833 281.5 119.5 281.5C117.956 281.297 116.622 280.63 115.5 279.5C113.282 272.311 114.615 265.978 119.5 260.5C121.543 259.421 122.876 257.754 123.5 255.5C125.033 253.645 126.7 251.812 128.5 250C138.805 242.681 149.805 236.681 161.5 232C169.82 229.247 178.154 228.414 186.5 229.5Z" fill="#070806"/>
<path fill-rule="evenodd" clip-rule="evenodd" d="M301.5 224.5C307.319 225.328 313.319 225.828 319.5 226C327.02 226.929 333.687 229.763 339.5 234.5C349.771 244.883 356.104 257.049 358.5 271C356.363 279.369 353.529 287.536 350 295.5C347.167 297.891 344 299.724 340.5 301C339.663 302.011 339.33 303.178 339.5 304.5C334.31 305.436 329.31 306.936 324.5 309C320.167 309.667 315.833 309.667 311.5 309C306.107 307.291 300.774 305.624 295.5 304C291.72 300.374 287.887 296.874 284 293.5C283.667 293.833 283.333 294.167 283 294.5C282.28 292.944 281.113 291.944 279.5 291.5C279.453 285.147 280.119 284.98 281.5 291C283.061 291.188 283.728 290.355 283.5 288.5C287.043 288.872 289.21 290.872 290 294.5C304.418 306.459 320.252 308.626 337.5 301C340.854 298.968 344.187 296.968 347.5 295C351.46 287.443 354.126 279.109 355.5 270C354.806 257.448 349.806 247.281 340.5 239.5C327.676 228.436 312.676 225.602 295.5 231C291.911 233.381 288.578 236.215 285.5 239.5C285.5 238.833 285.5 238.167 285.5 237.5C286.954 234.877 288.954 232.711 291.5 231C294.464 228.19 297.798 226.024 301.5 224.5Z" fill="#082418"/>
<path fill-rule="evenodd" clip-rule="evenodd" d="M323.5 223.5C332.856 225.401 341.856 228.067 350.5 231.5C349.504 231.414 348.671 231.748 348 232.5C347.386 234.313 347.719 234.647 349 233.5C356.486 238.759 361.32 245.092 363.5 252.5C363.647 256.906 364.314 261.239 365.5 265.5C362.954 275.474 359.62 285.14 355.5 294.5C348.796 308.193 337.796 315.526 322.5 316.5C312.341 317.168 302.675 315.335 293.5 311C285.773 306.717 281.106 300.217 279.5 291.5C281.113 291.944 282.28 292.944 283 294.5C283.333 294.167 283.667 293.833 284 293.5C287.887 296.874 291.72 300.374 295.5 304C300.774 305.624 306.107 307.291 311.5 309C315.833 309.667 320.167 309.667 324.5 309C329.31 306.936 334.31 305.436 339.5 304.5C339.33 303.178 339.663 302.011 340.5 301C344 299.724 347.167 297.891 350 295.5C353.529 287.536 356.363 279.369 358.5 271C356.104 257.049 349.771 244.883 339.5 234.5C333.687 229.763 327.02 226.929 319.5 226C313.319 225.828 307.319 225.328 301.5 224.5C308.777 223.57 316.11 223.236 323.5 223.5Z" fill="#081911"/>
<path fill-rule="evenodd" clip-rule="evenodd" d="M340.5 239.5C342.015 243.196 344.181 246.53 347 249.5C357.422 277.299 348.589 295.465 320.5 304C312.631 304.322 305.298 302.488 298.5 298.5C292.898 293.977 287.731 288.977 283 283.5C280.695 276.07 278.861 268.57 277.5 261C278.957 256.684 280.79 252.517 283 248.5C284.011 247.663 285.178 247.33 286.5 247.5C286.66 245.801 286.494 244.134 286 242.5C285.346 243.696 284.846 243.696 284.5 242.5C285.127 241.583 285.461 240.583 285.5 239.5C288.578 236.215 291.911 233.381 295.5 231C312.676 225.602 327.676 228.436 340.5 239.5Z" fill="#0B3623"/>
<path fill-rule="evenodd" clip-rule="evenodd" d="M315.5 238.5C315.738 240.404 316.738 241.738 318.5 242.5C318.5 244.833 318.5 247.167 318.5 249.5C316.313 254.885 314.813 260.552 314 266.5C311.087 269.373 307.587 270.706 303.5 270.5C301.05 270.702 298.717 270.369 296.5 269.5C295.504 269.586 294.671 269.252 294 268.5C293.79 266.942 293.29 265.609 292.5 264.5C290.473 263.139 288.806 261.473 287.5 259.5C286.781 257.236 286.448 254.903 286.5 252.5C286.971 250.421 287.637 248.421 288.5 246.5C289.364 245.312 290.364 244.145 291.5 243C295.759 241.066 299.759 238.732 303.5 236C307.896 235.032 311.896 235.865 315.5 238.5Z" fill="#FAFCFB"/>
<path fill-rule="evenodd" clip-rule="evenodd" d="M186.5 229.5C194.439 229.692 202.106 231.192 209.5 234C215.009 235.678 218.676 239.178 220.5 244.5C220.637 251.626 219.97 251.959 218.5 245.5C215.946 243.292 213.446 240.959 211 238.5C209.883 238.665 208.716 238.998 207.5 239.5C198.125 234.991 188.458 234.491 178.5 238C170.756 242.409 164.256 248.242 159 255.5C158.51 256.793 158.343 258.127 158.5 259.5C155.688 260.895 154.354 263.229 154.5 266.5C149.971 275.713 150.137 285.047 155 294.5C166.011 311.921 181.511 318.088 201.5 313C206.857 310.402 212.357 308.236 218 306.5C218.399 306.728 218.565 307.062 218.5 307.5C215.789 311.212 212.456 314.212 208.5 316.5C208.38 315.414 207.713 314.747 206.5 314.5C200.855 317.411 194.855 319.078 188.5 319.5C181.434 318.841 174.434 317.674 167.5 316C163.172 311.455 159.672 306.288 157 300.5C156.333 299.167 155.667 299.167 155 300.5C147.05 285.856 146.383 271.189 153 256.5C154.815 254.595 156.815 252.928 159 251.5C159.163 249.324 159.996 247.491 161.5 246C164.382 244.633 167.049 242.967 169.5 241C168.269 239.817 168.269 238.651 169.5 237.5C174.086 235.378 178.419 233.044 182.5 230.5C184.099 230.768 185.432 230.434 186.5 229.5Z" fill="#092217"/>
<path fill-rule="evenodd" clip-rule="evenodd" d="M286.5 252.5C286.448 254.903 286.781 257.236 287.5 259.5C289.079 288.211 304.079 299.378 332.5 293C344.665 281.842 347.498 268.675 341 253.5C334.45 244.659 325.95 239.659 315.5 238.5C311.896 235.865 307.896 235.032 303.5 236C299.759 238.732 295.759 241.066 291.5 243C290.364 244.145 289.364 245.312 288.5 246.5C287.697 245.577 287.53 244.577 288 243.5C294.844 235.786 303.51 232.119 314 232.5C324.614 232.31 333.614 235.977 341 243.5C341.721 247.342 343.387 250.676 346 253.5C353.121 272.138 348.287 286.638 331.5 297C323.233 300.16 314.9 300.327 306.5 297.5C285.431 288.563 278.764 273.563 286.5 252.5Z" fill="#10482F"/>
<path fill-rule="evenodd" clip-rule="evenodd" d="M363.5 252.5C367.778 254.977 372.112 257.477 376.5 260C381.92 260.558 387.253 261.391 392.5 262.5C392.699 277.009 390.366 291.009 385.5 304.5C387.149 306.65 388.982 308.65 391 310.5C397.5 321 404 331.5 410.5 342C403.891 342.439 399.891 345.939 398.5 352.5C393.668 345.021 388.001 338.188 381.5 332C380.552 331.517 379.552 331.351 378.5 331.5C381.975 327.828 384.475 323.494 386 318.5C386.667 316.167 386.667 313.833 386 311.5C384.249 309.51 383.249 307.177 383 304.5C375.324 297.079 366.157 293.746 355.5 294.5C359.62 285.14 362.954 275.474 365.5 265.5C364.314 261.239 363.647 256.906 363.5 252.5Z" fill="#DF9051"/>
<path fill-rule="evenodd" clip-rule="evenodd" d="M142.5 264.5C143.551 267.344 143.551 270.344 142.5 273.5C141.837 275.641 141.503 277.975 141.5 280.5C141.315 284.141 141.981 287.474 143.5 290.5C144.315 291.429 145.148 292.429 146 293.5C147.025 300.436 149.859 306.436 154.5 311.5C148.059 312.814 142.559 315.814 138 320.5C137.153 322.854 136.32 325.188 135.5 327.5C134.549 325.882 133.216 324.549 131.5 323.5C125.155 330.184 120.322 337.851 117 346.5C114.86 344.513 112.36 343.18 109.5 342.5C106.578 343.798 103.578 344.798 100.5 345.5C101.557 338.369 104.057 331.703 108 325.5C113.417 316.331 119.083 307.331 125 298.5C125.208 292.785 124.708 287.119 123.5 281.5C130.106 276.233 136.439 270.566 142.5 264.5Z" fill="#DF8F51"/>
<path fill-rule="evenodd" clip-rule="evenodd" d="M182.5 230.5C178.419 233.044 174.086 235.378 169.5 237.5C168.269 238.651 168.269 239.817 169.5 241C167.049 242.967 164.382 244.633 161.5 246C159.996 247.491 159.163 249.324 159 251.5C156.815 252.928 154.815 254.595 153 256.5C146.383 271.189 147.05 285.856 155 300.5C155.667 299.167 156.333 299.167 157 300.5C159.672 306.288 163.172 311.455 167.5 316C174.434 317.674 181.434 318.841 188.5 319.5C194.855 319.078 200.855 317.411 206.5 314.5C207.713 314.747 208.38 315.414 208.5 316.5C199.559 322.666 189.559 325.332 178.5 324.5C174.431 323.974 170.431 322.807 166.5 321C162.625 317.619 158.625 314.453 154.5 311.5C149.859 306.436 147.025 300.436 146 293.5C145.148 292.429 144.315 291.429 143.5 290.5C142.708 284.87 142.375 279.203 142.5 273.5C143.551 270.344 143.551 267.344 142.5 264.5C146.595 259.212 150.595 253.712 154.5 248C156.846 243.557 160.846 240.391 166.5 238.5C167.333 236.833 168.167 235.167 169 233.5C172.234 235.063 174.734 234.23 176.5 231C178.473 230.505 180.473 230.338 182.5 230.5Z" fill="#091A11"/>
<path fill-rule="evenodd" clip-rule="evenodd" d="M315.5 238.5C325.95 239.659 334.45 244.659 341 253.5C347.498 268.675 344.665 281.842 332.5 293C304.079 299.378 289.079 288.211 287.5 259.5C288.806 261.473 290.473 263.139 292.5 264.5C291.873 267.734 291.873 270.901 292.5 274C300.464 289.548 312.798 294.548 329.5 289C341.253 279.495 343.919 267.995 337.5 254.5C335.126 252.461 333.126 250.128 331.5 247.5C327.338 245.312 323.005 243.645 318.5 242.5C316.738 241.738 315.738 240.404 315.5 238.5Z" fill="#145C3D"/>
<path fill-rule="evenodd" clip-rule="evenodd" d="M232.5 272.5C233.647 276.646 233.814 280.98 233 285.5C232.617 286.056 232.117 286.389 231.5 286.5C232.383 281.897 232.717 277.23 232.5 272.5Z" fill="#937953"/>
<path fill-rule="evenodd" clip-rule="evenodd" d="M73.5 281.5C77.1817 281.335 80.8484 281.501 84.5 282C85.9423 282.377 86.9423 283.21 87.5 284.5C87.4449 290.992 85.7782 296.992 82.5 302.5C81.8333 301.833 81.1667 301.167 80.5 300.5C79.2798 294.061 76.9465 288.061 73.5 282.5C73.5 282.167 73.5 281.833 73.5 281.5Z" fill="#FDF8F8"/>
<path fill-rule="evenodd" clip-rule="evenodd" d="M73.5004 282.5C76.9469 288.061 79.2802 294.061 80.5004 300.5C78.6459 301.69 76.8125 303.023 75.0004 304.5C74.8337 305.833 74.6671 307.167 74.5004 308.5C75.0342 313.1 76.3675 317.433 78.5004 321.5C74.7284 318.906 71.0617 316.073 67.5004 313C63.1108 310.592 58.4441 309.092 53.5004 308.5C53.4484 306.097 53.7818 303.764 54.5004 301.5C61.3739 301.425 67.5405 303.425 73.0004 307.5C72.5961 299.454 70.0961 292.12 65.5004 285.5C67.7338 282.871 70.4004 281.871 73.5004 282.5Z" fill="#ED3F38"/>
<path fill-rule="evenodd" clip-rule="evenodd" d="M65.5 285.5C70.0957 292.12 72.5957 299.454 73 307.5C67.5401 303.425 61.3735 301.425 54.5 301.5C55.3638 297.441 57.0305 293.774 59.5 290.5C60.865 288.14 62.865 286.473 65.5 285.5Z" fill="#FDF7F7"/>
<path fill-rule="evenodd" clip-rule="evenodd" d="M142.5 273.5C142.375 279.203 142.708 284.87 143.5 290.5C141.981 287.474 141.315 284.141 141.5 280.5C141.503 277.975 141.837 275.641 142.5 273.5Z" fill="#8A6645"/>
<path fill-rule="evenodd" clip-rule="evenodd" d="M87.5 284.5C89.4832 285.471 91.4832 286.471 93.5 287.5C94.1667 288.5 94.8333 289.5 95.5 290.5C94.1512 296.861 91.4845 302.528 87.5 307.5C86.0613 305.64 84.3947 303.973 82.5 302.5C85.7782 296.992 87.4449 290.992 87.5 284.5Z" fill="#ED3F38"/>
<path fill-rule="evenodd" clip-rule="evenodd" d="M95.5 290.5C99.634 293.785 101.301 298.118 100.5 303.5C99.821 306.388 98.4877 308.888 96.5 311C92.5904 312.041 89.5904 310.875 87.5 307.5C91.4845 302.528 94.1512 296.861 95.5 290.5Z" fill="#FCF7F6"/>
<path fill-rule="evenodd" clip-rule="evenodd" d="M285.5 237.5C285.5 238.167 285.5 238.833 285.5 239.5C285.461 240.583 285.127 241.583 284.5 242.5C284.846 243.696 285.346 243.696 286 242.5C286.494 244.134 286.66 245.801 286.5 247.5C285.178 247.33 284.011 247.663 283 248.5C280.79 252.517 278.957 256.684 277.5 261C278.861 268.57 280.695 276.07 283 283.5C287.731 288.977 292.898 293.977 298.5 298.5C305.298 302.488 312.631 304.322 320.5 304C348.589 295.465 357.422 277.299 347 249.5C344.181 246.53 342.015 243.196 340.5 239.5C349.806 247.281 354.806 257.448 355.5 270C354.126 279.109 351.46 287.443 347.5 295C344.187 296.968 340.854 298.968 337.5 301C320.252 308.626 304.418 306.459 290 294.5C289.21 290.872 287.043 288.872 283.5 288.5C283.728 290.355 283.061 291.188 281.5 291C280.119 284.98 279.453 285.147 279.5 291.5C277.923 287.758 276.756 283.758 276 279.5C273.662 264.076 276.829 250.076 285.5 237.5Z" fill="#0B2E1E"/>
<path fill-rule="evenodd" clip-rule="evenodd" d="M318.5 242.5C323.005 243.645 327.338 245.312 331.5 247.5C333.126 250.128 335.126 252.461 337.5 254.5C343.919 267.995 341.253 279.495 329.5 289C312.798 294.548 300.464 289.548 292.5 274C291.873 270.901 291.873 267.734 292.5 264.5C293.29 265.609 293.79 266.942 294 268.5C294.671 269.252 295.504 269.586 296.5 269.5C298.337 272.168 299.504 275.168 300 278.5C308.287 285.63 317.121 286.63 326.5 281.5C327.711 279.578 329.044 277.745 330.5 276C330.167 275.667 329.833 275.333 329.5 275C331.266 272.904 332.599 270.571 333.5 268C332.643 267.311 331.977 266.478 331.5 265.5C332.485 263.902 332.651 262.235 332 260.5C330.167 258.167 328.333 255.833 326.5 253.5C323.979 252.215 321.313 251.548 318.5 251.5C318.5 250.833 318.5 250.167 318.5 249.5C318.5 247.167 318.5 244.833 318.5 242.5Z" fill="#176C47"/>
<path fill-rule="evenodd" clip-rule="evenodd" d="M318.5 251.5C321.313 251.548 323.979 252.215 326.5 253.5C328.333 255.833 330.167 258.167 332 260.5C332.651 262.235 332.485 263.902 331.5 265.5C331.977 266.478 332.643 267.311 333.5 268C332.599 270.571 331.266 272.904 329.5 275C329.833 275.333 330.167 275.667 330.5 276C329.044 277.745 327.711 279.578 326.5 281.5C317.121 286.63 308.287 285.63 300 278.5C299.504 275.168 298.337 272.168 296.5 269.5C298.717 270.369 301.05 270.702 303.5 270.5C304.919 271.451 306.585 271.784 308.5 271.5C308.232 274.119 308.565 276.619 309.5 279C314.194 279.564 318.86 279.397 323.5 278.5C323.351 277.448 323.517 276.448 324 275.5C326 274.833 327.333 273.5 328 271.5C329.103 266.572 327.936 261.905 324.5 257.5C322.722 257.431 320.889 257.097 319 256.5C318.506 254.866 318.34 253.199 318.5 251.5Z" fill="#1A7B51"/>
<path fill-rule="evenodd" clip-rule="evenodd" d="M318.5 249.5C318.5 250.167 318.5 250.833 318.5 251.5C318.34 253.199 318.506 254.866 319 256.5C320.889 257.097 322.722 257.431 324.5 257.5C327.936 261.905 329.103 266.572 328 271.5C327.333 273.5 326 274.833 324 275.5C323.517 276.448 323.351 277.448 323.5 278.5C318.86 279.397 314.194 279.564 309.5 279C308.565 276.619 308.232 274.119 308.5 271.5C306.585 271.784 304.919 271.451 303.5 270.5C307.587 270.706 311.087 269.373 314 266.5C314.813 260.552 316.313 254.885 318.5 249.5Z" fill="#218D5E"/>
<path fill-rule="evenodd" clip-rule="evenodd" d="M220.5 244.5C221.314 246.631 221.814 248.964 222 251.5C226.219 256.607 229.386 262.274 231.5 268.5C229.932 284.434 222.599 297.268 209.5 307C204.997 307.962 200.664 309.295 196.5 311C187.376 311.648 178.376 310.315 169.5 307C156.94 296.282 151.94 282.782 154.5 266.5C154.354 263.229 155.688 260.895 158.5 259.5C158.343 258.127 158.51 256.793 159 255.5C164.256 248.242 170.756 242.409 178.5 238C188.458 234.491 198.125 234.991 207.5 239.5C208.716 238.998 209.883 238.665 211 238.5C213.446 240.959 215.946 243.292 218.5 245.5C219.97 251.959 220.637 251.626 220.5 244.5Z" fill="#0C3421"/>
<path fill-rule="evenodd" clip-rule="evenodd" d="M195.5 244.5C193.131 245.69 191.131 247.357 189.5 249.5C179.018 249.337 171.185 254.004 166 263.5C160.003 283.516 167.003 296.182 187 301.5C197.018 300.325 205.352 295.992 212 288.5C212.643 283.53 213.81 278.697 215.5 274C215.125 271.711 214.459 269.545 213.5 267.5C214.244 263.881 214.577 260.215 214.5 256.5C215.302 257.952 215.802 259.618 216 261.5C216.333 261.167 216.667 260.833 217 260.5C220.495 269.927 220.162 279.26 216 288.5C212.901 292.733 209.735 296.9 206.5 301C200.206 303.319 193.706 304.819 187 305.5C170.108 303.274 160.608 293.774 158.5 277C160.35 256.99 171.016 245.824 190.5 243.5C192.258 243.592 193.924 243.925 195.5 244.5Z" fill="#125236"/>
<path fill-rule="evenodd" clip-rule="evenodd" d="M189.5 249.5C187.884 251.738 186.551 254.071 185.5 256.5C182.798 257.79 179.964 258.79 177 259.5C171.069 267.794 170.069 276.794 174 286.5C177.258 291.097 181.591 294.097 187 295.5C188.927 295.239 190.927 295.239 193 295.5C198.375 293.506 203.041 290.506 207 286.5C208.189 281.743 209.356 277.076 210.5 272.5C211.263 270.632 212.263 268.965 213.5 267.5C214.459 269.545 215.125 271.711 215.5 274C213.81 278.697 212.643 283.53 212 288.5C205.352 295.992 197.018 300.325 187 301.5C167.003 296.182 160.003 283.516 166 263.5C171.185 254.004 179.018 249.337 189.5 249.5Z" fill="#166844"/>
<path fill-rule="evenodd" clip-rule="evenodd" d="M203.5 243.5C209.212 245.549 212.879 249.549 214.5 255.5C214.5 255.833 214.5 256.167 214.5 256.5C214.577 260.215 214.244 263.881 213.5 267.5C212.263 268.965 211.263 270.632 210.5 272.5C209.585 275.086 207.918 277.086 205.5 278.5C197.843 283.391 191.343 282.058 186 274.5C185.102 271.931 183.935 269.598 182.5 267.5C182.338 265.473 182.505 263.473 183 261.5C184.094 259.922 184.928 258.255 185.5 256.5C186.551 254.071 187.884 251.738 189.5 249.5C191.131 247.357 193.131 245.69 195.5 244.5C198.127 243.908 200.794 243.575 203.5 243.5Z" fill="#FBFDFC"/>
<path fill-rule="evenodd" clip-rule="evenodd" d="M203.5 243.5C200.794 243.575 198.127 243.908 195.5 244.5C193.924 243.925 192.258 243.592 190.5 243.5C171.016 245.824 160.35 256.99 158.5 277C160.608 293.774 170.108 303.274 187 305.5C193.706 304.819 200.206 303.319 206.5 301C209.735 296.9 212.901 292.733 216 288.5C220.162 279.26 220.495 269.927 217 260.5C216.667 260.833 216.333 261.167 216 261.5C215.802 259.618 215.302 257.952 214.5 256.5C214.5 256.167 214.5 255.833 214.5 255.5C219.577 253.165 222.41 254.831 223 260.5C228.384 278.862 223.217 293.196 207.5 303.5C195.573 310.993 183.239 311.493 170.5 305C167.537 303.039 164.871 300.706 162.5 298C162.833 297.667 163.167 297.333 163.5 297C160.433 293.703 158.267 289.869 157 285.5C156.039 276.712 156.539 268.046 158.5 259.5C162.533 255.249 166.533 250.749 170.5 246C175.532 243.436 180.699 241.269 186 239.5C191.083 240.307 196.25 240.807 201.5 241C201.167 241.333 200.833 241.667 200.5 242C201.737 242.232 202.737 242.732 203.5 243.5Z" fill="#0E3F29"/>
<path fill-rule="evenodd" clip-rule="evenodd" d="M185.5 256.5C184.928 258.255 184.094 259.922 183 261.5C182.505 263.473 182.338 265.473 182.5 267.5C181.837 265.958 181.17 264.291 180.5 262.5C174.837 270.938 175.17 279.105 181.5 287C188.439 290.762 194.939 290.262 201 285.5C202.011 286.337 203.178 286.67 204.5 286.5C204.586 284.323 205.253 282.323 206.5 280.5C206.137 279.817 205.804 279.15 205.5 278.5C207.918 277.086 209.585 275.086 210.5 272.5C209.356 277.076 208.189 281.743 207 286.5C203.041 290.506 198.375 293.506 193 295.5C190.927 295.239 188.927 295.239 187 295.5C181.591 294.097 177.258 291.097 174 286.5C170.069 276.794 171.069 267.794 177 259.5C179.964 258.79 182.798 257.79 185.5 256.5Z" fill="#19754C"/>
<path fill-rule="evenodd" clip-rule="evenodd" d="M182.5 267.5C183.935 269.598 185.102 271.931 186 274.5C191.343 282.058 197.843 283.391 205.5 278.5C205.804 279.15 206.137 279.817 206.5 280.5C205.253 282.323 204.586 284.323 204.5 286.5C203.178 286.67 202.011 286.337 201 285.5C194.939 290.262 188.439 290.762 181.5 287C175.17 279.105 174.837 270.938 180.5 262.5C181.17 264.291 181.837 265.958 182.5 267.5Z" fill="#1E8659"/>
<path fill-rule="evenodd" clip-rule="evenodd" d="M154.5 266.5C151.94 282.782 156.94 296.282 169.5 307C178.376 310.315 187.376 311.648 196.5 311C200.664 309.295 204.997 307.962 209.5 307C222.599 297.268 229.932 284.434 231.5 268.5C232.434 269.568 232.768 270.901 232.5 272.5C232.717 277.23 232.383 281.897 231.5 286.5C227.901 291.362 225.067 296.695 223 302.5C221.951 304.618 220.451 306.284 218.5 307.5C218.565 307.062 218.399 306.728 218 306.5C212.357 308.236 206.857 310.402 201.5 313C181.511 318.088 166.011 311.921 155 294.5C150.137 285.047 149.971 275.713 154.5 266.5Z" fill="#0A281A"/>
<path fill-rule="evenodd" clip-rule="evenodd" d="M53.5 308.5C58.4437 309.092 63.1104 310.592 67.5 313C71.0613 316.073 74.728 318.906 78.5 321.5C79.4408 323.05 80.1075 324.716 80.5 326.5C73.0472 322.353 65.0472 320.686 56.5 321.5C55.3678 318.449 54.3678 315.449 53.5 312.5C53.5 311.167 53.5 309.833 53.5 308.5Z" fill="#FCF3F2"/>
<path fill-rule="evenodd" clip-rule="evenodd" d="M56.5 321.5C65.0472 320.686 73.0472 322.353 80.5 326.5C81.1667 327.167 81.8333 327.833 82.5 328.5C83.2021 331.44 84.2021 334.273 85.5 337C85.2716 337.399 84.9382 337.565 84.5 337.5C76.9632 332.433 68.6299 329.766 59.5 329.5C58.5 327.5 57.5 325.5 56.5 323.5C56.5 322.833 56.5 322.167 56.5 321.5Z" fill="#EC3E36"/>
<path fill-rule="evenodd" clip-rule="evenodd" d="M59.5 329.5C68.6299 329.766 76.9632 332.433 84.5 337.5C86.316 339.118 87.6493 341.118 88.5 343.5C80.8424 342.427 73.1757 341.427 65.5 340.5C64.8333 340.167 64.1667 339.833 63.5 339.5C62.1667 336.167 60.8333 332.833 59.5 329.5Z" fill="#FCF6F5"/>
<path fill-rule="evenodd" clip-rule="evenodd" d="M65.5 340.5C73.1757 341.427 80.8424 342.427 88.5 343.5C89.2719 344.694 90.2719 345.694 91.5 346.5C92.6935 347.272 93.6935 348.272 94.5 349.5C94.9752 351.784 95.9752 353.784 97.5 355.5C88.6445 351.391 79.3111 349.391 69.5 349.5C67.8946 346.622 66.5612 343.622 65.5 340.5Z" fill="#EE4138"/>
<path fill-rule="evenodd" clip-rule="evenodd" d="M69.5 349.5C79.3111 349.391 88.6445 351.391 97.5 355.5C98.7515 357.001 99.7515 358.668 100.5 360.5C97.5176 360.037 94.5176 359.704 91.5 359.5C89.4888 358.107 87.1554 357.44 84.5 357.5C81.5078 357.966 78.5078 358.299 75.5 358.5C73.2651 355.709 71.2651 352.709 69.5 349.5Z" fill="#FCF8F7"/>
<path fill-rule="evenodd" clip-rule="evenodd" d="M100.5 362.5C100.5 361.833 100.5 361.167 100.5 360.5C99.7515 358.668 98.7515 357.001 97.5 355.5C102.351 356.216 106.518 354.883 110 351.5C112.271 354.12 112.938 357.12 112 360.5C110.687 363.395 109.52 366.395 108.5 369.5C107.349 370.731 106.183 370.731 105 369.5C104.821 366.447 104.321 363.447 103.5 360.5C102.482 361.193 101.482 361.859 100.5 362.5Z" fill="#E08D4D"/>
<path fill-rule="evenodd" clip-rule="evenodd" d="M94.5 380.5C94.1667 381.167 93.8333 381.833 93.5 382.5C92.3951 383.6 91.0618 384.267 89.5 384.5C90.0834 380.663 90.7501 376.83 91.5 373C90.7779 367.109 87.4445 363.609 81.5 362.5C78.6067 364.445 75.6067 366.111 72.5 367.5C72.7497 365.326 73.7497 363.659 75.5 362.5C84.7257 357.753 91.2257 360.42 95 370.5C95.1719 373.826 95.0053 377.159 94.5 380.5Z" fill="#FAF2EC"/>
<path fill-rule="evenodd" clip-rule="evenodd" d="M91.5 359.5C94.5176 359.704 97.5176 360.037 100.5 360.5C100.5 361.167 100.5 361.833 100.5 362.5C98.9261 364.102 98.2594 366.102 98.5 368.5C98.1667 368.5 97.8333 368.5 97.5 368.5C95.7647 365.374 93.7647 362.374 91.5 359.5Z" fill="#EE3F33"/>
<path fill-rule="evenodd" clip-rule="evenodd" d="M91.5 359.5C93.7647 362.374 95.7647 365.374 97.5 368.5C96.5318 370.607 96.1984 372.941 96.5 375.5C96.8799 377.698 96.2132 379.365 94.5 380.5C95.0053 377.159 95.1719 373.826 95 370.5C91.2257 360.42 84.7257 357.753 75.5 362.5C75.5 361.167 75.5 359.833 75.5 358.5C78.5078 358.299 81.5078 357.966 84.5 357.5C87.1554 357.44 89.4888 358.107 91.5 359.5Z" fill="#E28C52"/>
<path fill-rule="evenodd" clip-rule="evenodd" d="M100.5 362.5C100.508 365.545 100.841 368.545 101.5 371.5C100.272 370.694 99.2719 369.694 98.5 368.5C98.2594 366.102 98.9261 364.102 100.5 362.5Z" fill="#E28E4F"/>
<path fill-rule="evenodd" clip-rule="evenodd" d="M89.5 384.5C80.2085 384.207 74.5419 379.54 72.5 370.5C72.5 369.5 72.5 368.5 72.5 367.5C75.6067 366.111 78.6067 364.445 81.5 362.5C87.4445 363.609 90.7779 367.109 91.5 373C90.7501 376.83 90.0834 380.663 89.5 384.5Z" fill="#E09051"/>
<path fill-rule="evenodd" clip-rule="evenodd" d="M96.5 375.5C101.773 376.601 107.106 377.267 112.5 377.5C112.5 378.167 112.833 378.5 113.5 378.5C115.051 380.913 115.717 383.579 115.5 386.5C108.167 385.5 100.833 384.5 93.5 383.5C93.5 383.167 93.5 382.833 93.5 382.5C93.8333 381.833 94.1667 381.167 94.5 380.5C96.2132 379.365 96.8799 377.698 96.5 375.5Z" fill="#EE423A"/>
<path fill-rule="evenodd" clip-rule="evenodd" d="M395.5 259.5C395.666 267.174 395.5 274.841 395 282.5C393.109 289.879 391.442 297.212 390 304.5C400.586 318.66 409.919 333.66 418 349.5C423.037 352.505 428.037 355.505 433 358.5C436.568 365.877 434.402 370.211 426.5 371.5C422.156 370.66 417.822 370.16 413.5 370C410.383 372.542 407.717 375.542 405.5 379C400.701 381.851 397.534 380.685 396 375.5C395.5 370.988 395.667 366.488 396.5 362C396.435 359.409 395.935 356.909 395 354.5C391.389 348.556 387.389 342.889 383 337.5C381.663 336.235 380.163 335.735 378.5 336C363.194 355.148 344.527 369.981 322.5 380.5C322.167 381.333 321.833 382.167 321.5 383C322.333 392.161 323.166 401.328 324 410.5C324.833 411.333 325.667 412.167 326.5 413C335.622 411.982 342.789 415.149 348 422.5C348.755 425.303 348.422 427.97 347 430.5C338.168 435.905 328.502 438.239 318 437.5C314.833 437.333 311.667 437.167 308.5 437C304.921 434.369 302.421 430.869 301 426.5C298.62 414.262 296.12 402.096 293.5 390C282.427 388.854 271.26 388.354 260 388.5C249.259 388.505 238.592 388.839 228 389.5C226.907 393.216 226.407 397.05 226.5 401C226.763 408.535 227.43 416.035 228.5 423.5C228.582 426.757 227.582 429.591 225.5 432C210.672 438.834 195.339 440.501 179.5 437C174.747 431.967 174.247 426.467 178 420.5C179.771 419.696 181.271 418.529 182.5 417C188.009 415.664 193.343 413.83 198.5 411.5C199.473 409.608 200.14 407.608 200.5 405.5C200.061 397.97 198.728 390.636 196.5 383.5C169.953 371.298 148.12 353.298 131 329.5C124.167 338.478 119.334 348.478 116.5 359.5C114.222 364.154 112.222 368.987 110.5 374C110.978 375.303 111.645 376.469 112.5 377.5C107.106 377.267 101.773 376.601 96.5 375.5C96.1984 372.941 96.5318 370.607 97.5 368.5C97.8333 368.5 98.1667 368.5 98.5 368.5C99.2719 369.694 100.272 370.694 101.5 371.5C100.841 368.545 100.508 365.545 100.5 362.5C101.482 361.859 102.482 361.193 103.5 360.5C104.321 363.447 104.821 366.447 105 369.5C106.183 370.731 107.349 370.731 108.5 369.5C109.52 366.395 110.687 363.395 112 360.5C112.938 357.12 112.271 354.12 110 351.5C106.518 354.883 102.351 356.216 97.5 355.5C95.9752 353.784 94.9752 351.784 94.5 349.5C101.156 330.189 110.49 312.189 122.5 295.5C121.5 290.832 120.5 286.166 119.5 281.5C120.833 281.5 122.167 281.5 123.5 281.5C124.708 287.119 125.208 292.785 125 298.5C119.083 307.331 113.417 316.331 108 325.5C104.057 331.703 101.557 338.369 100.5 345.5C103.578 344.798 106.578 343.798 109.5 342.5C112.36 343.18 114.86 344.513 117 346.5C120.322 337.851 125.155 330.184 131.5 323.5C133.216 324.549 134.549 325.882 135.5 327.5C142.335 339.007 151.001 349.007 161.5 357.5C173.404 366.887 186.238 374.887 200 381.5C202.294 389.676 203.461 398.01 203.5 406.5C208.819 405.661 213.152 407.328 216.5 411.5C218.336 410.081 220.336 408.914 222.5 408C223.314 401.247 223.814 394.414 224 387.5C224.374 386.584 224.874 385.75 225.5 385C246.312 385.828 267.145 385.661 288 384.5C291.869 383.957 295.035 385.124 297.5 388C298.997 395.125 300.33 402.291 301.5 409.5C304.88 408.037 308.047 408.37 311 410.5C313.635 407.933 316.802 406.6 320.5 406.5C319.333 397.172 318.5 387.839 318 378.5C340.744 368.93 359.577 354.264 374.5 334.5C375.833 333.5 377.167 332.5 378.5 331.5C379.552 331.351 380.552 331.517 381.5 332C388.001 338.188 393.668 345.021 398.5 352.5C399.891 345.939 403.891 342.439 410.5 342C404 331.5 397.5 321 391 310.5C388.982 308.65 387.149 306.65 385.5 304.5C390.366 291.009 392.699 277.009 392.5 262.5C393.167 261.167 394.167 260.167 395.5 259.5Z" fill="#FCF7F4"/>
<path fill-rule="evenodd" clip-rule="evenodd" d="M101.5 371.5C103.308 372.907 105.308 374.074 107.5 375C104.128 376.122 102.128 374.955 101.5 371.5Z" fill="#E5965F"/>
<path fill-rule="evenodd" clip-rule="evenodd" d="M281.5 323.5C288.38 322.876 291.214 325.876 290 332.5C286.6 339.465 282.1 345.631 276.5 351C272.594 352.434 268.594 352.767 264.5 352C258.251 349.373 251.918 347.04 245.5 345C241.783 342.237 240.783 338.737 242.5 334.5C246.996 332.043 251.663 331.877 256.5 334C260.729 337.128 265.396 338.462 270.5 338C274.054 333.047 277.721 328.214 281.5 323.5Z" fill="#070505"/>
<path fill-rule="evenodd" clip-rule="evenodd" d="M154.5 311.5C158.625 314.453 162.625 317.619 166.5 321C170.431 322.807 174.431 323.974 178.5 324.5C182.51 325.698 186.677 325.698 191 324.5C192.899 324.898 194.399 325.898 195.5 327.5C199.788 339.763 195.788 348.263 183.5 353C176.218 355.479 168.884 356.979 161.5 357.5C151.001 349.007 142.335 339.007 135.5 327.5C136.32 325.188 137.153 322.854 138 320.5C142.559 315.814 148.059 312.814 154.5 311.5Z" fill="#E47953"/>
<path fill-rule="evenodd" clip-rule="evenodd" d="M355.5 294.5C366.157 293.746 375.324 297.079 383 304.5C383.249 307.177 384.25 309.51 386.001 311.5C386.668 313.833 386.668 316.167 386.001 318.5C384.476 323.494 381.975 327.828 378.5 331.5C377.167 332.5 375.833 333.5 374.5 334.5C370.229 336.297 365.896 338.13 361.5 340C353.924 341.893 346.259 342.559 338.501 342C335.34 340.587 332.34 338.92 329.501 337C323.08 331.648 320.746 324.815 322.501 316.5C337.797 315.526 348.796 308.193 355.5 294.5Z" fill="#E47953"/>
<path fill-rule="evenodd" clip-rule="evenodd" d="M93.5 383.5C100.833 384.5 108.167 385.5 115.5 386.5C115.78 389.272 115.113 391.772 113.5 394C108.742 395.034 104.409 394.201 100.5 391.5C98.1667 388.833 95.8333 386.167 93.5 383.5Z" fill="#FBF9F7"/>
<path fill-rule="evenodd" clip-rule="evenodd" d="M396.5 227.5C397.167 227.5 397.5 227.833 397.5 228.5C397.5 228.833 397.5 229.167 397.5 229.5C398.167 232.5 398.833 235.5 399.5 238.5C401.732 259.575 400.399 280.408 395.5 301C395.667 302.167 395.833 303.333 396 304.5C401.693 312.562 406.86 320.895 411.5 329.5C411.328 330.492 411.662 331.158 412.5 331.5C415.842 336.18 418.675 341.18 421 346.5C424.225 349.696 428.058 351.696 432.5 352.5C432.833 352.5 433.167 352.5 433.5 352.5C434.167 353.833 435.167 354.833 436.5 355.5C436.427 357.027 437.094 358.027 438.5 358.5C438.689 362.037 438.023 365.37 436.5 368.5C435.5 368.833 434.833 369.5 434.5 370.5C433.128 371.512 431.795 372.512 430.5 373.5C428.843 374.575 427.009 375.242 425 375.5C421.664 374.027 418.164 373.36 414.5 373.5C412.952 373.821 412.285 374.821 412.5 376.5C411.833 376.5 411.5 376.833 411.5 377.5C406.771 385.371 400.938 386.371 394 380.5C392.978 378.298 392.478 375.965 392.5 373.5C393.363 368.179 393.53 362.846 393 357.5C389.246 351.658 385.246 345.991 381 340.5C374.634 347.697 368.134 354.697 361.5 361.5C360.833 361.5 360.5 361.833 360.5 362.5C356.537 365.129 352.871 368.129 349.5 371.5C348.508 371.328 347.842 371.662 347.5 372.5C340.136 375.85 332.803 379.183 325.5 382.5C325.176 389.354 325.509 396.021 326.5 402.5C326.244 404.792 326.577 406.959 327.5 409C331.491 409.642 335.491 410.142 339.5 410.5C339.833 410.5 340.167 410.5 340.5 410.5C343.503 411.666 346.17 413.333 348.5 415.5C353.746 421.468 353.746 427.468 348.5 433.5C347.833 433.833 347.167 434.167 346.5 434.5C339.923 437.139 333.257 439.139 326.5 440.5C317.608 442.727 309.274 441.561 301.5 437C299.153 433.651 296.987 430.151 295 426.5C294.672 422.354 293.839 418.354 292.5 414.5C292.5 412.5 292.5 410.5 292.5 408.5C292.683 403.401 291.683 398.567 289.5 394C269.827 394.558 250.16 394.391 230.5 393.5C230.5 403.167 230.5 412.833 230.5 422.5C230.666 426.846 230.499 431.179 230 435.5C228.955 436.373 228.122 437.373 227.5 438.5C216.526 442.426 205.193 444.759 193.5 445.5C189.821 445.276 186.154 444.942 182.5 444.5C182.158 443.662 181.492 443.328 180.5 443.5C179.101 442.11 177.434 441.11 175.5 440.5C175.5 439.833 175.167 439.5 174.5 439.5C171.074 435.897 169.408 431.563 169.5 426.5C171.134 423.232 172.801 419.899 174.5 416.5C176.272 414.71 178.272 413.377 180.5 412.5C184.785 411.792 189.118 411.292 193.5 411C195.888 408.694 196.888 405.861 196.5 402.5C196.056 398.837 195.722 395.171 195.5 391.5C195.737 390.209 195.404 389.209 194.5 388.5C183.743 383.286 173.41 377.286 163.5 370.5C162.833 369.167 161.833 368.167 160.5 367.5C159.5 366.833 158.5 366.167 157.5 365.5C157.5 364.833 157.167 364.5 156.5 364.5C146.164 356.528 137.664 346.862 131 335.5C127.761 340.876 125.095 346.542 123 352.5C120.817 354.907 118.65 357.24 116.5 359.5C119.334 348.478 124.167 338.478 131 329.5C148.12 353.298 169.953 371.298 196.5 383.5C198.728 390.636 200.061 397.97 200.5 405.5C200.14 407.608 199.473 409.608 198.5 411.5C193.343 413.83 188.009 415.664 182.5 417C181.271 418.529 179.771 419.696 178 420.5C174.247 426.467 174.747 431.967 179.5 437C195.339 440.501 210.672 438.834 225.5 432C227.582 429.591 228.582 426.757 228.5 423.5C227.43 416.035 226.763 408.535 226.5 401C226.407 397.05 226.907 393.216 228 389.5C238.592 388.839 249.259 388.505 260 388.5C271.26 388.354 282.427 388.854 293.5 390C296.12 402.096 298.62 414.262 301 426.5C302.421 430.869 304.921 434.369 308.5 437C311.667 437.167 314.833 437.333 318 437.5C328.502 438.239 338.168 435.905 347 430.5C348.422 427.97 348.755 425.303 348 422.5C342.789 415.149 335.622 411.982 326.5 413C325.667 412.167 324.833 411.333 324 410.5C323.166 401.328 322.333 392.161 321.5 383C321.833 382.167 322.167 381.333 322.5 380.5C344.527 369.981 363.194 355.148 378.5 336C380.163 335.735 381.663 336.235 383 337.5C387.389 342.889 391.389 348.556 395 354.5C395.935 356.909 396.435 359.409 396.5 362C395.667 366.488 395.5 370.988 396 375.5C397.534 380.685 400.701 381.851 405.5 379C407.717 375.542 410.383 372.542 413.5 370C417.822 370.16 422.156 370.66 426.5 371.5C434.402 370.211 436.568 365.877 433 358.5C428.037 355.505 423.037 352.505 418 349.5C409.919 333.66 400.586 318.66 390 304.5C391.442 297.212 393.109 289.879 395 282.5C395.5 274.841 395.666 267.174 395.5 259.5C395.5 257.167 395.5 254.833 395.5 252.5C395.252 244.662 393.585 237.162 390.5 230C392.287 228.681 394.287 227.848 396.5 227.5Z" fill="#DF9052"/>
<path fill-rule="evenodd" clip-rule="evenodd" d="M408.5 351.5C416.136 353.23 423.303 356.23 430 360.5C430.667 362.5 430.667 364.5 430 366.5C429.326 367.578 428.326 368.245 427 368.5C422.085 367.598 417.252 366.765 412.5 366C408.914 368.166 406.247 371.166 404.5 375C402.975 376.009 401.308 376.509 399.5 376.5C398.018 369.047 400.185 363.047 406 358.5C407.136 356.257 407.97 353.924 408.5 351.5Z" fill="#E19051"/>
<path fill-rule="evenodd" clip-rule="evenodd" d="M319.5 415.5C324.752 416.285 330.085 416.785 335.5 417C338.759 418.211 341.592 420.044 344 422.5C346.208 427.018 344.708 429.851 339.5 431C330.02 433.878 320.353 434.878 310.5 434C305.735 429.964 303.568 424.798 304 418.5C305.364 417.742 306.531 418.242 307.5 420C313.005 422.685 317.005 421.185 319.5 415.5Z" fill="#E09051"/>
<path fill-rule="evenodd" clip-rule="evenodd" d="M206.5 415.5C209.512 418.007 212.845 420.007 216.5 421.5C219.36 420.82 221.86 419.487 224 417.5C224.667 421.167 224.667 424.833 224 428.5C223.5 429 223 429.5 222.5 430C212.627 432.802 202.627 434.969 192.5 436.5C187.258 436.629 182.758 434.962 179 431.5C177.973 427.82 178.806 424.653 181.5 422C185.066 419.799 188.9 418.299 193 417.5C196.021 419.038 199.188 419.538 202.5 419C204.324 418.34 205.657 417.173 206.5 415.5Z" fill="#E09051"/>
</svg>
