<svg width="500" height="500" viewBox="0 0 500 500" fill="none" xmlns="http://www.w3.org/2000/svg">
<path fill-rule="evenodd" clip-rule="evenodd" d="M413.75 80.2501C415.754 80.0711 417.755 79.8211 419.75 79.5001C422.394 78.6381 424.894 77.5546 427.25 76.2501C427.583 76.2501 427.75 76.0836 427.75 75.7501C428.25 75.4166 428.75 75.0836 429.25 74.7501C430.127 74.4641 430.961 74.0471 431.75 73.5001C433.763 71.5416 435.597 69.4581 437.25 67.2501C440.714 63.9506 444.214 63.9506 447.75 67.2501C447.964 68.5736 448.631 69.5736 449.75 70.2501C449.907 74.1256 448.908 77.6256 446.75 80.7501C445.75 81.4166 444.916 82.2501 444.25 83.2501C442.215 84.5961 440.215 85.9291 438.25 87.2501C433.275 88.3471 433.109 89.6806 437.75 91.2501C440.386 92.7666 443.22 93.1001 446.25 92.2501C447.594 92.1681 448.927 92.2516 450.25 92.5001C451.498 93.3331 452.664 94.2501 453.75 95.2501C453.75 95.5836 453.917 95.7501 454.25 95.7501C454.583 95.7501 454.75 95.9166 454.75 96.2501C455.611 97.9601 455.944 99.7931 455.75 101.75C454.436 102.744 453.102 103.744 451.75 104.75C448.698 105.656 445.531 105.989 442.25 105.75C439.464 105.322 436.797 104.489 434.25 103.25C432.317 102.369 430.318 101.619 428.25 101C426.308 99.6376 424.307 98.3876 422.25 97.2501C421.584 96.9166 421.083 96.4166 420.75 95.7501C420.17 94.8751 419.337 94.3751 418.25 94.2501C415.668 95.1691 413.5 96.6691 411.75 98.7501C408.53 100.97 406.03 103.803 404.25 107.25C403.917 107.25 403.75 107.417 403.75 107.75C402.427 109.073 401.094 110.406 399.75 111.75C398.998 112.279 398.165 112.612 397.25 112.75C394.086 111.669 390.919 110.585 387.75 109.5C386.427 109.252 385.094 109.168 383.75 109.25C383.865 108.284 384.281 107.45 385 106.75C389.271 102.961 392.355 98.6276 394.25 93.7501C396.676 91.9056 398.676 89.6556 400.25 87.0001C400.306 86.1506 399.974 85.5671 399.25 85.2501C398.745 83.1931 398.245 81.1931 397.75 79.2501C397.75 79.0836 397.75 78.9166 397.75 78.7501C397.75 76.0836 397.75 73.4166 397.75 70.7501C398.117 70.1461 398.284 69.4796 398.25 68.7501C398.789 67.2991 399.122 65.7991 399.25 64.2501C400.004 63.4096 400.504 62.4096 400.75 61.2501C402.15 59.6816 403.816 58.5146 405.75 57.7501C409.661 55.1491 412.328 56.0656 413.75 60.5001C411.254 67.0326 410.421 73.7826 411.25 80.7501C412.207 80.8921 413.04 80.7256 413.75 80.2501Z" fill="#69452D"/>
<path fill-rule="evenodd" clip-rule="evenodd" d="M311.75 58.25C316.304 63.1405 321.304 67.4735 326.75 71.25C330.68 75.841 335.68 78.341 341.75 78.75C344.559 80.147 347.559 80.9805 350.75 81.25C352.009 78.9635 352.509 76.4635 352.25 73.75C352.393 70.8705 352.226 68.0375 351.75 65.25C351.75 64.5835 351.75 63.9165 351.75 63.25C351.937 61.713 352.27 60.213 352.75 58.75C354.034 58.6395 355.201 58.306 356.25 57.75C358.401 57.909 360.234 58.7425 361.75 60.25C364.092 62.909 365.259 66.076 365.25 69.75C365.474 73.3575 365.141 76.8575 364.25 80.25C363.05 82.57 361.883 84.9865 360.75 87.5C362.811 89.256 364.478 91.339 365.75 93.75C366.25 94.4165 366.75 95.0835 367.25 95.75C367.495 96.4975 367.828 97.1645 368.25 97.75C369.241 99.405 370.408 100.905 371.75 102.25C371.678 104.273 372.511 105.774 374.25 106.75C374.617 107.354 374.784 108.021 374.75 108.75C375.314 110.39 375.314 112.058 374.75 113.75C372.228 113.913 369.728 113.747 367.25 113.25C365.842 111.591 364.342 110.008 362.75 108.5C360.597 106.419 358.264 104.669 355.75 103.25C353.822 98.653 350.488 95.653 345.75 94.25C342.173 93.6725 338.506 93.589 334.75 94C332.727 95.8385 330.561 97.422 328.25 98.75C325.696 100.026 323.03 101.026 320.25 101.75C313.956 103.6 308.956 101.934 305.25 96.75C304.964 95.8725 304.547 95.039 304 94.25C303.598 92.652 303.681 91.152 304.25 89.75C305.023 88.814 306.023 88.314 307.25 88.25C311.872 89.22 316.538 89.47 321.25 89C322.03 88.51 322.863 88.0935 323.75 87.75C319.917 85.1665 316.084 82.5835 312.25 80C309.397 77.021 306.731 73.9375 304.25 70.75C303.945 70.3045 303.779 69.8045 303.75 69.25C303.108 66.2565 303.108 63.2565 303.75 60.25C304.569 59.2625 305.402 58.2625 306.25 57.25C306.789 56.991 307.372 56.824 308 56.75C309.212 57.313 310.462 57.813 311.75 58.25Z" fill="#69462F"/>
<path fill-rule="evenodd" clip-rule="evenodd" d="M392.75 93.75C393.25 93.75 393.75 93.75 394.25 93.75C392.354 98.6275 389.271 102.961 385 106.75C384.281 107.45 383.864 108.284 383.75 109.25C385.093 109.168 386.427 109.251 387.75 109.5C390.919 110.585 394.086 111.668 397.25 112.75C398.165 112.612 398.998 112.279 399.75 111.75C401.094 110.406 402.427 109.073 403.75 107.75C403.75 108.083 403.75 108.417 403.75 108.75C403.441 108.806 403.191 108.972 403 109.25C402.606 111.755 402.19 114.255 401.75 116.75C401.873 117.357 402.207 117.69 402.75 117.75C403.736 119.069 404.903 120.237 406.25 121.25C407.135 122.057 407.718 123.056 408 124.25C408.89 124.82 409.807 125.319 410.75 125.75C408.789 128.244 408.872 130.744 411 133.25C412.914 135.012 414.997 135.178 417.25 133.75C418.25 134.083 419.25 134.417 420.25 134.75C420.25 135.25 420.25 135.75 420.25 136.25C420.979 136.216 421.646 136.383 422.25 136.75C423.619 138.623 425.453 139.624 427.75 139.75C419.412 140.923 414.745 145.756 413.75 154.25C413.178 155.988 413.095 157.821 413.5 159.75C413.77 161.262 414.52 162.428 415.75 163.25C416.024 164.197 416.524 165.03 417.25 165.75C421.522 169.584 426.522 170.834 432.25 169.5C433.558 169.089 434.892 168.839 436.25 168.75C435.416 170.084 434.583 171.416 433.75 172.75C432.539 172.458 431.705 171.707 431.25 170.5C430.083 170.167 428.916 170.167 427.75 170.5C426.597 171.653 425.43 172.82 424.25 174C422.033 175.329 419.699 175.745 417.25 175.25C416.104 174.171 414.937 173.088 413.75 172C410.176 171.244 409.426 172.328 411.5 175.25C414.326 178.581 417.909 179.831 422.25 179C424.634 177.768 426.884 176.351 429 174.75C429.9 175.16 430.817 175.493 431.75 175.75C430.636 176.804 429.636 177.97 428.75 179.25C425.821 180.465 422.988 181.798 420.25 183.25C419.45 183.116 418.784 183.283 418.25 183.75C412.576 184.586 406.909 185.419 401.25 186.25C399.807 186.097 398.474 186.264 397.25 186.75C389.344 186.438 381.51 187.022 373.75 188.5C373.472 188.691 373.305 188.942 373.25 189.25C371.478 189.895 369.811 190.728 368.25 191.75C365.934 191.862 363.768 192.445 361.75 193.5C352.557 199.113 347.307 207.363 346 218.25C345.709 220.412 345.459 222.579 345.25 224.75C347.345 246.551 347.761 268.384 346.5 290.25C345.631 296.255 344.631 302.255 343.5 308.25C339.908 321.066 336.408 333.899 333 346.75C332.751 348.408 332.667 350.075 332.75 351.75C332.445 352.195 332.278 352.696 332.25 353.25C328.1 358.234 323.6 362.9 318.75 367.25C317.209 368.186 315.875 369.352 314.75 370.75C312.542 372.629 310.209 374.296 307.75 375.75C304.403 377.342 301.237 379.259 298.25 381.5C295.721 382.849 293.054 383.766 290.25 384.25C291.304 386.798 292.054 389.465 292.5 392.25C292.75 397.414 292.833 402.581 292.75 407.75C296.083 407.75 299.416 407.75 302.75 407.75C295.032 416.194 290.866 426.194 290.25 437.75C288.043 437.926 285.877 438.343 283.75 439C272.439 440.852 266.189 436.102 265 424.75C264.582 419.673 264.165 414.673 263.75 409.75C263.932 403.852 263.432 398.018 262.25 392.25C253.412 392.688 244.579 393.188 235.75 393.75C224.416 393.75 213.083 393.75 201.75 393.75C200.75 393.75 199.75 393.75 198.75 393.75C198.75 399.083 198.75 404.417 198.75 409.75C198.665 410.411 198.831 410.994 199.25 411.5C201.173 412.308 203.173 412.808 205.25 413C207.099 414.089 208.932 415.173 210.75 416.25C206.382 417.951 202.715 420.618 199.75 424.25C197.282 425.801 195.198 427.8 193.5 430.25C192.492 431.765 191.909 433.432 191.75 435.25C190.455 437.473 189.455 439.806 188.75 442.25C174.433 442.85 167.516 436.017 168 421.75C167.141 419.84 166.474 417.841 166 415.75C165.833 408.083 165.666 400.417 165.5 392.75C165.207 390.244 164.874 387.744 164.5 385.25C156.059 381.123 147.642 377.04 139.25 373C136.735 371.245 134.235 369.495 131.75 367.75C123.205 359.789 115.455 351.123 108.5 341.75C105.903 337.219 103.32 332.719 100.75 328.25C97.8633 321.081 95.2798 313.747 92.9998 306.25C92.6893 302.497 92.2728 298.829 91.7498 295.25C91.7498 293.416 91.7498 291.584 91.7498 289.75C91.9128 285.326 91.7463 280.992 91.2498 276.75C91.4038 275.538 91.2368 274.372 90.7498 273.25C79.3793 266.463 70.4628 257.297 63.9998 245.75C63.0918 243.188 62.0918 240.688 60.9998 238.25C57.4913 225.464 55.5748 212.464 55.2498 199.25C55.2068 198.752 55.3738 198.336 55.7498 198C59.4933 195.592 63.1598 195.675 66.7498 198.25C70.0558 202.253 73.1393 206.42 75.9998 210.75C82.2718 217.095 89.5218 222.012 97.7498 225.5C99.7183 226.076 101.718 226.492 103.75 226.75C104.666 226.707 105.333 226.374 105.75 225.75C110.375 219.201 115.125 212.701 120 206.25C123.211 202.625 126.461 199.125 129.75 195.75C131.729 193.979 133.896 192.479 136.25 191.25C136.748 191.293 137.164 191.126 137.5 190.75C138.118 191.769 139.034 192.353 140.25 192.5C137.507 194.501 137.674 194.918 140.75 193.75C142.051 194.281 143.385 194.364 144.75 194C146.531 193.093 148.364 192.26 150.25 191.5C153.408 188.614 154.242 185.197 152.75 181.25C152.931 180.908 153.098 180.575 153.25 180.25C153.416 179.917 153.583 179.583 153.75 179.25C156.211 178.18 158.711 177.263 161.25 176.5C176.06 167.505 192.226 163.255 209.75 163.75C218.829 164.248 227.996 164.415 237.25 164.25C240.715 165.038 244.215 165.705 247.75 166.25C248.045 166.576 248.378 166.909 248.75 167.25C247.552 167.928 246.385 168.678 245.25 169.5C244.74 171.641 245.573 173.141 247.75 174C250.7 174.882 253.7 175.214 256.75 175C258.086 174.499 259.253 173.749 260.25 172.75C260.477 171.375 261.144 170.291 262.25 169.5C261.531 169.391 260.864 169.141 260.25 168.75C260.333 168.583 260.416 168.417 260.5 168.25C264.966 168.914 269.382 168.914 273.75 168.25C277.178 167.97 280.511 167.219 283.75 166C285.47 164.979 286.97 163.729 288.25 162.25C291.527 159.865 294.693 157.365 297.75 154.75C297.916 154.75 298.083 154.75 298.25 154.75C302.249 151.267 305.916 147.434 309.25 143.25C309.855 143.034 310.355 142.701 310.75 142.25C313.818 138.639 316.984 135.139 320.25 131.75C323.957 128.711 327.123 125.211 329.75 121.25C331.241 120.263 332.741 119.263 334.25 118.25C334.693 117.838 334.859 117.337 334.75 116.75C336.036 117.246 337.37 117.663 338.75 118C343.24 118.566 347.74 118.733 352.25 118.5C356.94 118.277 358.273 116.11 356.25 112C353.781 109.763 351.115 107.763 348.25 106C344.013 104.286 339.846 102.536 335.75 100.75C337.201 98.275 339.368 97.275 342.25 97.75C343.263 97.669 344.263 97.7525 345.25 98C348.9 99.492 352.4 101.242 355.75 103.25C358.263 104.669 360.596 106.419 362.75 108.5C364.341 110.008 365.841 111.591 367.25 113.25C369.728 113.747 372.228 113.913 374.75 113.75C375.314 112.058 375.314 110.39 374.75 108.75C377.255 108.833 379.755 108.75 382.25 108.5C384.163 104.727 386.329 101.144 388.75 97.75C390.287 96.5455 391.621 95.2125 392.75 93.75Z" fill="#B17954"/>
<path fill-rule="evenodd" clip-rule="evenodd" d="M335.75 100.75C339.846 102.536 344.013 104.286 348.25 106C351.115 107.763 353.782 109.763 356.25 112C358.274 116.11 356.941 118.277 352.25 118.5C347.74 118.733 343.24 118.566 338.75 118C337.37 117.663 336.037 117.246 334.75 116.75C334.173 114.036 333.84 111.286 333.75 108.5C333.535 105.609 334.201 103.026 335.75 100.75Z" fill="#F7C89D"/>
<path fill-rule="evenodd" clip-rule="evenodd" d="M413.25 124.75C413.917 124.75 414.584 124.75 415.25 124.75C416.237 125.403 417.07 126.237 417.75 127.25C418.365 128.149 418.698 129.148 418.75 130.25C418.344 131.472 417.844 132.639 417.25 133.75C414.997 135.178 412.914 135.012 411 133.25C408.873 130.744 408.79 128.244 410.75 125.75C411.653 125.488 412.486 125.155 413.25 124.75Z" fill="#0F0E0E"/>
<path fill-rule="evenodd" clip-rule="evenodd" d="M413.25 125.75C415.417 125.584 416.417 126.584 416.25 128.75C413.75 129.25 412.75 128.25 413.25 125.75Z" fill="#EBEBED"/>
<path fill-rule="evenodd" clip-rule="evenodd" d="M381.25 133.25C385.426 132.499 388.676 133.832 391 137.25C391.455 143.789 388.372 146.539 381.75 145.5C378.869 142.881 377.952 139.631 379 135.75C379.853 134.981 380.603 134.148 381.25 133.25Z" fill="#080607"/>
<path fill-rule="evenodd" clip-rule="evenodd" d="M385.25 134.75C388.105 134.433 389.105 135.6 388.25 138.25C385.148 138.979 384.148 137.812 385.25 134.75Z" fill="#E2E1DF"/>
<path fill-rule="evenodd" clip-rule="evenodd" d="M427.75 139.75C429.416 139.75 431.083 139.75 432.75 139.75C438.861 142.362 442.861 146.861 444.75 153.25C444.75 154.25 444.75 155.25 444.75 156.25C444.75 156.417 444.75 156.583 444.75 156.75C444.495 158.27 444.161 159.77 443.75 161.25C443.75 161.417 443.75 161.583 443.75 161.75C442.713 162.881 441.713 164.131 440.75 165.5C439.216 166.594 437.716 167.678 436.25 168.75C434.892 168.839 433.558 169.089 432.25 169.5C426.522 170.834 421.522 169.584 417.25 165.75C416.524 165.03 416.024 164.197 415.75 163.25C415.905 162.761 416.239 162.427 416.75 162.25C417.945 162.946 418.778 163.946 419.25 165.25C421.095 165.846 422.762 166.763 424.25 168C427.306 168.454 430.306 168.288 433.25 167.5C427.874 167.056 423.124 165.139 419 161.75C418.833 160.75 418.666 159.75 418.5 158.75C417.351 156.814 416.351 154.815 415.5 152.75C415.076 154.28 414.576 155.78 414 157.25C413.752 156.263 413.669 155.263 413.75 154.25C414.745 145.756 419.412 140.923 427.75 139.75Z" fill="#EC3E37"/>
<path fill-rule="evenodd" clip-rule="evenodd" d="M433.75 143.25C434.75 143.916 435.75 144.584 436.75 145.25C437.466 146.279 437.8 147.446 437.75 148.75C436.892 148.686 436.058 148.519 435.25 148.25C434.499 147.624 433.666 147.124 432.75 146.75C431.575 145.893 431.075 144.727 431.25 143.25C432.083 143.25 432.916 143.25 433.75 143.25Z" fill="#FDEFF0"/>
<path fill-rule="evenodd" clip-rule="evenodd" d="M433.75 143.25C432.916 143.25 432.083 143.25 431.25 143.25C431.075 144.727 431.575 145.894 432.75 146.75C431.991 146.745 431.408 146.412 431 145.75C430.752 144.764 430.669 143.764 430.75 142.75C431.867 142.603 432.867 142.77 433.75 143.25Z" fill="#F7A09C"/>
<path fill-rule="evenodd" clip-rule="evenodd" d="M436.75 145.25C437.229 145.477 437.646 145.81 438 146.25C438.249 147.405 438.332 148.571 438.25 149.75C436.844 149.987 435.844 149.487 435.25 148.25C436.058 148.519 436.892 148.686 437.75 148.75C437.8 147.446 437.466 146.279 436.75 145.25Z" fill="#F8B7B4"/>
<path fill-rule="evenodd" clip-rule="evenodd" d="M247.75 166.25C253.587 166.889 259.42 167.556 265.25 168.25C267.416 168.25 269.583 168.25 271.75 168.25C272.416 168.25 273.083 168.25 273.75 168.25C269.382 168.914 264.966 168.914 260.5 168.25C260.416 168.417 260.333 168.583 260.25 168.75C260.864 169.141 261.531 169.391 262.25 169.5C261.144 170.291 260.477 171.375 260.25 172.75C259.253 173.749 258.086 174.499 256.75 175C253.7 175.214 250.7 174.882 247.75 174C245.573 173.141 244.74 171.641 245.25 169.5C246.385 168.678 247.552 167.928 248.75 167.25C248.378 166.909 248.045 166.576 247.75 166.25Z" fill="#C08964"/>
<path fill-rule="evenodd" clip-rule="evenodd" d="M415.75 163.25C414.52 162.428 413.77 161.262 413.5 159.75C413.095 157.821 413.178 155.988 413.75 154.25C413.669 155.263 413.752 156.263 414 157.25C414.576 155.78 415.076 154.28 415.5 152.75C416.351 154.815 417.351 156.814 418.5 158.75C418.666 159.75 418.833 160.75 419 161.75C423.124 165.139 427.874 167.056 433.25 167.5C430.306 168.288 427.306 168.454 424.25 168C422.762 166.763 421.095 165.846 419.25 165.25C418.778 163.946 417.945 162.946 416.75 162.25C416.239 162.427 415.905 162.761 415.75 163.25Z" fill="#D53B34"/>
<path fill-rule="evenodd" clip-rule="evenodd" d="M282.75 166.75C285.096 168.048 285.846 170.047 285 172.75C283.944 174.639 282.694 176.389 281.25 178C278.917 178.333 276.583 178.333 274.25 178C273.397 177.068 272.897 175.985 272.75 174.75C273.517 172.222 275.017 170.222 277.25 168.75C279.204 168.267 281.037 167.6 282.75 166.75Z" fill="#C18964"/>
<path fill-rule="evenodd" clip-rule="evenodd" d="M183.25 170.75C184.792 170.709 185.626 171.459 185.75 173C185.357 174.62 184.69 176.12 183.75 177.5C181.5 179.214 179 179.881 176.25 179.5C175.385 178.606 175.052 177.522 175.25 176.25C175.75 176.25 176.25 176.25 176.75 176.25C176.766 174.729 177.433 173.562 178.75 172.75C180.241 171.918 181.741 171.252 183.25 170.75Z" fill="#C08863"/>
<path fill-rule="evenodd" clip-rule="evenodd" d="M433.75 172.75C432.837 173.574 432.17 174.574 431.75 175.75C430.817 175.493 429.9 175.16 429 174.75C426.884 176.351 424.634 177.768 422.25 179C417.909 179.831 414.326 178.581 411.5 175.25C409.426 172.328 410.176 171.245 413.75 172C414.937 173.088 416.104 174.172 417.25 175.25C419.699 175.746 422.033 175.329 424.25 174C425.43 172.82 426.597 171.653 427.75 170.5C428.916 170.167 430.083 170.167 431.25 170.5C431.705 171.708 432.539 172.458 433.75 172.75Z" fill="#6E462E"/>
<path fill-rule="evenodd" clip-rule="evenodd" d="M153.25 180.25C153.098 180.575 152.932 180.908 152.75 181.25C154.242 185.197 153.408 188.614 150.25 191.5C148.365 192.26 146.531 193.093 144.75 194C143.385 194.364 142.051 194.281 140.75 193.75C137.674 194.918 137.507 194.501 140.25 192.5C139.035 192.353 138.118 191.769 137.5 190.75C137.164 191.126 136.748 191.293 136.25 191.25C138.326 189.462 140.493 187.796 142.75 186.25C146.168 184.124 149.668 182.123 153.25 180.25Z" fill="#C18B67"/>
<path fill-rule="evenodd" clip-rule="evenodd" d="M214.75 184.25C216.441 184.128 218.025 184.462 219.5 185.25C219.833 186.75 219.833 188.25 219.5 189.75C216.845 192.939 213.429 194.189 209.25 193.5C207.282 192.915 206.116 191.581 205.75 189.5C206.596 188.39 207.096 187.14 207.25 185.75C209.733 185.042 212.233 184.542 214.75 184.25Z" fill="#C18964"/>
<path fill-rule="evenodd" clip-rule="evenodd" d="M235.25 184.75C238.421 184.667 241.587 184.75 244.75 185C245.208 185.187 245.625 185.437 246 185.75C246.537 193.693 243.12 195.943 235.75 192.5C234.833 191.583 233.916 190.666 233 189.75C232.978 188.262 233.061 186.762 233.25 185.25C234.049 185.384 234.716 185.217 235.25 184.75Z" fill="#C08863"/>
<path fill-rule="evenodd" clip-rule="evenodd" d="M186.25 190.75C187.925 190.667 189.592 190.751 191.25 191C193.843 193.104 193.677 195.104 190.75 197C187.497 199.645 184.997 199.061 183.25 195.25C183.853 193.481 184.853 191.981 186.25 190.75Z" fill="#BF8762"/>
<path fill-rule="evenodd" clip-rule="evenodd" d="M368.25 191.75C365.767 194.496 363.517 197.496 361.5 200.75C360.166 204.417 358.833 208.083 357.5 211.75C357.181 215.952 357.431 220.119 358.25 224.25C359.041 228.204 359.541 232.203 359.75 236.25C359.75 237.75 359.75 239.25 359.75 240.75C360.18 242.717 360.346 244.717 360.25 246.75C360.979 255.821 361.645 264.821 362.25 273.75C362.25 275.416 362.25 277.084 362.25 278.75C362.25 280.416 362.25 282.084 362.25 283.75C362.216 287.757 362.049 291.757 361.75 295.75C361.474 297.403 361.308 299.07 361.25 300.75C360.417 303.749 359.584 306.749 358.75 309.75C357.464 312.211 356.631 314.878 356.25 317.75C353.813 322.79 351.23 327.79 348.5 332.75C346.131 335.319 344.131 338.152 342.5 341.25C340.228 343.277 338.061 345.444 336 347.75C335.755 348.396 335.671 349.063 335.75 349.75C334.573 350.17 333.573 350.837 332.75 351.75C332.667 350.075 332.751 348.408 333 346.75C336.408 333.899 339.908 321.066 343.5 308.25C344.631 302.255 345.631 296.255 346.5 290.25C347.761 268.384 347.345 246.551 345.25 224.75C345.459 222.579 345.709 220.412 346 218.25C347.307 207.363 352.557 199.113 361.75 193.5C363.768 192.445 365.934 191.862 368.25 191.75Z" fill="#F8C99E"/>
<path fill-rule="evenodd" clip-rule="evenodd" d="M148.75 198.25C153.509 198.764 155.591 201.431 155 206.25C152.572 209.129 149.489 210.213 145.75 209.5C144.584 209 143.75 208.166 143.25 207C143.264 204.979 143.514 202.896 144 200.75C145.694 200.053 147.278 199.219 148.75 198.25Z" fill="#BD8560"/>
<path fill-rule="evenodd" clip-rule="evenodd" d="M202.75 202.25C206.322 201.496 209.239 202.496 211.5 205.25C211.342 209.053 209.342 210.886 205.5 210.75C203.406 210.593 201.322 210.343 199.25 210C198.2 208.416 197.783 206.666 198 204.75C199.185 203.941 200.518 203.441 202 203.25C202.515 203.082 202.765 202.748 202.75 202.25Z" fill="#C08863"/>
<path fill-rule="evenodd" clip-rule="evenodd" d="M55.2496 199.25C55.5746 212.464 57.4911 225.464 60.9996 238.25C62.0916 240.688 63.0916 243.188 63.9996 245.75C70.4626 257.297 79.3791 266.463 90.7496 273.25C91.2366 274.372 91.4036 275.538 91.2496 276.75C90.6041 276.631 90.1041 276.798 89.7496 277.25C83.0551 278.025 76.7216 277.026 70.7496 274.25C67.4396 272.27 64.2731 270.103 61.2496 267.75C59.4176 265.501 57.3341 263.502 54.9996 261.75C49.7686 255.455 46.2686 248.288 44.4996 240.25C44.2501 238.089 44.1666 235.923 44.2496 233.75C43.8051 227.281 44.4716 220.948 46.2496 214.75C46.5546 214.305 46.7211 213.804 46.7496 213.25C47.9751 209.192 49.7251 205.358 51.9996 201.75C53.1636 201.001 54.2471 200.167 55.2496 199.25Z" fill="#F8C99D"/>
<path fill-rule="evenodd" clip-rule="evenodd" d="M126.75 208.25C128.705 208.132 130.538 208.548 132.25 209.5C133.583 211 133.583 212.5 132.25 214C129.779 215.576 127.112 216.243 124.25 216C122.191 214.078 122.357 212.328 124.75 210.75C125.214 210.156 125.381 209.489 125.25 208.75C125.895 208.869 126.395 208.702 126.75 208.25Z" fill="#C08863"/>
<path fill-rule="evenodd" clip-rule="evenodd" d="M146.25 220.25C148.154 220.082 149.987 220.332 151.75 221C152.877 222.213 153.293 223.629 153 225.25C150.636 229.566 147.22 230.733 142.75 228.75C142.288 227.487 141.788 226.237 141.25 225C142.676 223.121 144.343 221.538 146.25 220.25Z" fill="#C08863"/>
<path fill-rule="evenodd" clip-rule="evenodd" d="M360.25 246.75C360.417 246.75 360.583 246.75 360.75 246.75C360.639 248.14 360.806 249.473 361.25 250.75C361.093 252.686 361.259 254.519 361.75 256.25C361.616 258.466 361.782 260.632 362.25 262.75C362.25 263.75 362.25 264.75 362.25 265.75C362.25 267.084 362.25 268.416 362.25 269.75C362.25 271.084 362.25 272.416 362.25 273.75C361.646 264.821 360.979 255.821 360.25 246.75Z" fill="#DAC5A6"/>
<path fill-rule="evenodd" clip-rule="evenodd" d="M291.75 273.25C289.951 272.828 288.117 272.661 286.25 272.75C283.743 272.414 281.243 271.914 278.75 271.25C277.363 270.672 275.863 270.338 274.25 270.25C272.116 269.813 269.949 269.647 267.75 269.75C263.839 269.172 259.839 269.088 255.75 269.5C254.513 269.519 253.513 269.935 252.75 270.75C251.074 271.127 249.991 272.127 249.5 273.75C247.349 274.821 245.599 276.321 244.25 278.25C243.089 278.901 242.422 279.901 242.25 281.25C241.942 281.306 241.691 281.472 241.5 281.75C241.13 283.273 240.714 284.773 240.25 286.25C239.829 287.189 239.663 288.189 239.75 289.25C239.104 289.921 238.687 290.754 238.5 291.75C238.251 293.408 238.167 295.075 238.25 296.75C238.225 305.149 240.308 312.982 244.5 320.25C245.745 321.995 247.163 323.579 248.75 325C258.5 329.214 268.5 329.88 278.75 327C280.179 325.376 281.845 324.126 283.75 323.25C285.745 322.609 287.077 321.275 287.75 319.25C288.201 318.182 288.785 317.182 289.5 316.25C290.51 312.467 291.76 308.801 293.25 305.25C294.138 303.747 294.638 302.081 294.75 300.25C294.92 298.145 295.254 296.062 295.75 294C295.676 293.372 295.509 292.789 295.25 292.25C295.295 290.924 294.962 289.758 294.25 288.75C294.25 288.417 294.25 288.083 294.25 287.75C294.25 287.25 294.25 286.75 294.25 286.25C295.108 286.314 295.942 286.481 296.75 286.75C296.986 287.453 297.487 287.786 298.25 287.75C299.142 287.947 299.975 288.28 300.75 288.75C302.592 289.625 304.592 289.958 306.75 289.75C307.717 290.075 308.717 290.241 309.75 290.25C314.47 297.437 315.887 305.27 314 313.75C312.375 329.524 304.625 341.107 290.75 348.5C281.787 353.399 272.287 356.733 262.25 358.5C245.813 359.062 229.396 359.979 213 361.25C206.578 360.778 200.162 360.194 193.75 359.5C187.625 357.896 181.458 356.564 175.25 355.5C165.496 352.335 157.079 347.084 150 339.75C147.833 336.583 145.667 333.417 143.5 330.25C141.678 325.941 140.428 321.441 139.75 316.75C141.204 316.712 142.536 316.295 143.75 315.5C144.852 314.314 146.018 313.23 147.25 312.25C148.293 311.707 148.96 310.875 149.25 309.75C150.293 309.207 150.96 308.375 151.25 307.25C151.583 306.584 152.084 306.083 152.75 305.75C153.058 305.694 153.309 305.528 153.5 305.25C153.747 306.067 153.83 306.9 153.75 307.75C153.22 312.706 153.887 317.372 155.75 321.75C155.714 322.513 156.047 323.014 156.75 323.25C158.368 328.168 161.201 332.168 165.25 335.25C165.486 335.953 165.987 336.286 166.75 336.25C170.884 339.724 175.717 341.39 181.25 341.25C184.333 340.208 187.5 339.542 190.75 339.25C192.874 339.188 194.541 338.355 195.75 336.75C195.75 336.583 195.75 336.417 195.75 336.25C196.69 336.385 197.356 336.052 197.75 335.25C203.199 331.189 206.783 325.856 208.5 319.25C209.095 318.383 209.678 317.55 210.25 316.75C210.983 316.326 211.4 315.66 211.5 314.75C211.91 311.493 211.826 308.326 211.25 305.25C211.336 304.754 211.169 304.421 210.75 304.25C210.749 302.418 210.082 300.918 208.75 299.75C207.343 296.753 205.426 294.086 203 291.75C202.833 290.584 202.667 289.416 202.5 288.25C199.945 284.347 196.362 282.013 191.75 281.25C191.368 280.866 190.868 280.616 190.25 280.5C186.754 280.25 183.254 280.167 179.75 280.25C177.065 280.196 174.398 280.363 171.75 280.75C170.253 280.647 168.919 280.98 167.75 281.75C163.659 282.91 159.826 284.743 156.25 287.25C155.487 287.214 154.986 287.547 154.75 288.25C151.75 290.25 148.75 292.25 145.75 294.25C150.562 286.683 156.396 279.933 163.25 274C168.126 271.228 173.126 268.728 178.25 266.5C192.138 262.622 206.304 260.373 220.75 259.75C235.161 260.393 249.494 261.643 263.75 263.5C267.889 264.461 272.056 265.294 276.25 266C278.82 267.135 281.487 267.967 284.25 268.5C286.809 270.362 289.642 271.862 292.75 273C292.453 273.232 292.12 273.315 291.75 273.25Z" fill="#FCFCFC"/>
<path fill-rule="evenodd" clip-rule="evenodd" d="M267.75 269.75C262.701 269.561 257.701 269.895 252.75 270.75C253.513 269.935 254.513 269.518 255.75 269.5C259.839 269.088 263.839 269.172 267.75 269.75Z" fill="#5A5A5A"/>
<path fill-rule="evenodd" clip-rule="evenodd" d="M267.75 269.75C269.949 269.647 272.116 269.813 274.25 270.25C275.586 271.059 277.086 271.392 278.75 271.25C280.979 272.614 283.479 273.114 286.25 272.75C288.117 272.661 289.951 272.828 291.75 273.25C295.819 274.786 299.653 276.87 303.25 279.5C306.95 280.601 310.45 282.101 313.75 284C315.229 287.968 313.896 290.052 309.75 290.25C308.718 290.241 307.718 290.075 306.75 289.75C304.842 289.259 302.842 288.925 300.75 288.75C299.975 288.279 299.142 287.946 298.25 287.75C298.014 287.047 297.514 286.713 296.75 286.75C296.005 285.86 295.005 285.527 293.75 285.75C293.616 286.549 293.783 287.216 294.25 287.75C294.25 288.083 294.25 288.416 294.25 288.75C294.205 290.076 294.538 291.242 295.25 292.25C295.509 292.788 295.676 293.372 295.75 294C295.254 296.062 294.921 298.145 294.75 300.25C293.862 301.752 293.362 303.419 293.25 305.25C291.761 308.801 290.511 312.467 289.5 316.25C288.785 317.182 288.202 318.182 287.75 319.25C286.393 320.607 285.06 321.94 283.75 323.25C281.845 324.126 280.179 325.376 278.75 327C268.5 329.88 258.5 329.213 248.75 325C247.163 323.578 245.746 321.995 244.5 320.25C240.308 312.982 238.225 305.148 238.25 296.75C238.64 294.279 239.14 291.779 239.75 289.25C239.663 288.189 239.83 287.189 240.25 286.25C241.365 284.823 242.031 283.156 242.25 281.25C243.185 280.483 243.851 279.483 244.25 278.25C245.599 276.321 247.349 274.821 249.5 273.75C249.991 272.126 251.074 271.126 252.75 270.75C257.701 269.895 262.701 269.561 267.75 269.75Z" fill="#030303"/>
<path fill-rule="evenodd" clip-rule="evenodd" d="M274.25 270.25C275.863 270.338 277.363 270.672 278.75 271.25C277.086 271.392 275.586 271.059 274.25 270.25Z" fill="#6F6F6F"/>
<path fill-rule="evenodd" clip-rule="evenodd" d="M278.75 271.25C281.243 271.914 283.743 272.414 286.25 272.75C283.479 273.114 280.979 272.614 278.75 271.25Z" fill="#404040"/>
<path fill-rule="evenodd" clip-rule="evenodd" d="M89.75 277.25C90.1045 276.798 90.6045 276.631 91.25 276.75C91.7465 280.992 91.913 285.325 91.75 289.75C91.2535 285.675 91.087 281.508 91.25 277.25C90.75 277.25 90.25 277.25 89.75 277.25Z" fill="#CEC2B9"/>
<path fill-rule="evenodd" clip-rule="evenodd" d="M259.25 277.75C261.382 278.382 262.882 279.716 263.75 281.75C264.381 284.421 264.381 287.088 263.75 289.75C264.843 294.148 263.51 297.482 259.75 299.75C257.078 299.833 254.412 299.75 251.75 299.5C250.696 299.046 250.029 298.296 249.75 297.25C249.417 297.083 249.084 296.917 248.75 296.75C248.514 296.047 248.014 295.714 247.25 295.75C246.771 295.019 246.188 294.353 245.5 293.75C245.255 293.104 245.172 292.437 245.25 291.75C245.253 289.733 245.419 287.733 245.75 285.75C247.084 284.75 248.25 283.584 249.25 282.25C249.696 281.945 250.196 281.779 250.75 281.75C252.986 279.216 255.82 277.882 259.25 277.75Z" fill="#FAFAFA"/>
<path fill-rule="evenodd" clip-rule="evenodd" d="M259.25 277.75C255.819 277.883 252.986 279.216 250.75 281.75C252.532 278.109 255.365 276.775 259.25 277.75Z" fill="#8D8D8D"/>
<path fill-rule="evenodd" clip-rule="evenodd" d="M179.75 280.25C183.254 280.167 186.754 280.25 190.25 280.5C190.868 280.616 191.368 280.866 191.75 281.25C187.673 280.982 183.673 280.648 179.75 280.25Z" fill="#3C3C3E"/>
<path fill-rule="evenodd" clip-rule="evenodd" d="M179.75 280.25C183.673 280.649 187.673 280.982 191.75 281.25C196.362 282.014 199.945 284.347 202.5 288.25C202.666 289.417 202.833 290.584 203 291.75C205.426 294.087 207.343 296.753 208.75 299.75C209.052 301.064 209.302 302.397 209.5 303.75C209.666 303.584 209.833 303.417 210 303.25C210.139 303.708 210.389 304.041 210.75 304.25C211.169 304.421 211.336 304.754 211.25 305.25C211.487 309.156 211.154 312.99 210.25 316.75C209.678 317.55 209.094 318.384 208.5 319.25C206.782 325.856 203.199 331.189 197.75 335.25C196.923 335.33 196.257 335.663 195.75 336.25C195.75 336.417 195.75 336.584 195.75 336.75C193.926 337.329 192.26 338.162 190.75 339.25C187.5 339.542 184.333 340.208 181.25 341.25C175.717 341.391 170.883 339.724 166.75 336.25C166.513 335.547 166.013 335.214 165.25 335.25C161.201 332.168 158.368 328.168 156.75 323.25C156.786 322.487 156.453 321.987 155.75 321.75C153.887 317.372 153.22 312.706 153.75 307.75C154.23 306.868 154.397 305.868 154.25 304.75C153.41 304.643 152.91 304.976 152.75 305.75C152.083 306.084 151.583 306.584 151.25 307.25C150.206 307.793 149.54 308.626 149.25 309.75C148.206 310.293 147.54 311.126 147.25 312.25C146.018 313.231 144.851 314.314 143.75 315.5C142.536 316.296 141.203 316.713 139.75 316.75C138.478 316.948 137.394 316.615 136.5 315.75C135.85 312.941 135.684 310.107 136 307.25C138.662 302.401 141.912 298.068 145.75 294.25C148.75 292.25 151.75 290.25 154.75 288.25C155.513 288.287 156.013 287.953 156.25 287.25C159.825 284.743 163.658 282.91 167.75 281.75C169.214 281.718 170.547 281.384 171.75 280.75C174.398 280.363 177.065 280.196 179.75 280.25Z" fill="#030303"/>
<path fill-rule="evenodd" clip-rule="evenodd" d="M244.25 278.25C243.851 279.483 243.184 280.483 242.25 281.25C242.422 279.901 243.089 278.901 244.25 278.25Z" fill="#4E4E4E"/>
<path fill-rule="evenodd" clip-rule="evenodd" d="M171.75 280.75C170.548 281.384 169.214 281.718 167.75 281.75C168.919 280.98 170.253 280.647 171.75 280.75Z" fill="#4F5151"/>
<path fill-rule="evenodd" clip-rule="evenodd" d="M242.25 281.25C242.031 283.156 241.365 284.823 240.25 286.25C240.714 284.773 241.13 283.273 241.5 281.75C241.691 281.472 241.942 281.306 242.25 281.25Z" fill="#9C9C9C"/>
<path fill-rule="evenodd" clip-rule="evenodd" d="M249.25 282.25C248.25 283.584 247.084 284.75 245.75 285.75C246.416 284.084 247.584 282.916 249.25 282.25Z" fill="#7A7A7A"/>
<path fill-rule="evenodd" clip-rule="evenodd" d="M263.75 281.75C264.874 284.295 265.04 286.962 264.25 289.75C264.083 289.75 263.917 289.75 263.75 289.75C264.381 287.088 264.381 284.421 263.75 281.75Z" fill="#949494"/>
<path fill-rule="evenodd" clip-rule="evenodd" d="M296.75 286.75C295.941 286.481 295.108 286.315 294.25 286.25C294.25 286.75 294.25 287.25 294.25 287.75C293.783 287.216 293.616 286.55 293.75 285.75C295.005 285.527 296.005 285.86 296.75 286.75Z" fill="#6E6E6E"/>
<path fill-rule="evenodd" clip-rule="evenodd" d="M245.75 285.75C245.419 287.733 245.253 289.733 245.25 291.75C244.921 291.104 244.754 290.354 244.75 289.5C244.704 288.089 245.037 286.839 245.75 285.75Z" fill="#7E7E7E"/>
<path fill-rule="evenodd" clip-rule="evenodd" d="M296.75 286.75C297.513 286.713 298.014 287.047 298.25 287.75C297.487 287.786 296.986 287.453 296.75 286.75Z" fill="#747474"/>
<path fill-rule="evenodd" clip-rule="evenodd" d="M156.25 287.25C156.014 287.953 155.513 288.286 154.75 288.25C154.986 287.547 155.487 287.213 156.25 287.25Z" fill="#6E6E6E"/>
<path fill-rule="evenodd" clip-rule="evenodd" d="M300.75 288.75C302.842 288.926 304.842 289.259 306.75 289.75C304.592 289.958 302.592 289.625 300.75 288.75Z" fill="#4A4A4A"/>
<path fill-rule="evenodd" clip-rule="evenodd" d="M191.75 289.25C193.002 289.49 194.169 289.99 195.25 290.75C195.649 290.978 195.815 291.312 195.75 291.75C196.305 293.428 197.138 294.928 198.25 296.25C198.669 296.421 198.836 296.754 198.75 297.25C199.002 300.258 198.502 303.092 197.25 305.75C196.435 306.513 196.018 307.513 196 308.75C195.427 309.318 194.844 309.818 194.25 310.25C193.125 310.54 192.292 311.206 191.75 312.25C190.346 312.964 188.846 313.297 187.25 313.25C186.144 312.938 185.144 312.438 184.25 311.75C183.416 310.583 182.416 309.583 181.25 308.75C180.551 307.066 179.885 305.4 179.25 303.75C179.2 302.381 179.367 301.048 179.75 299.75C179.75 299.583 179.75 299.416 179.75 299.25C180.987 298.656 181.487 297.656 181.25 296.25C181.503 293.557 182.837 291.724 185.25 290.75C186.356 290.576 187.356 290.159 188.25 289.5C189.405 289.251 190.571 289.168 191.75 289.25Z" fill="#F8F8F8"/>
<path fill-rule="evenodd" clip-rule="evenodd" d="M191.75 289.25C190.571 289.169 189.405 289.252 188.25 289.5C187.357 290.16 186.357 290.576 185.25 290.75C185.645 290.103 186.145 289.52 186.75 289C188.513 288.596 190.18 288.68 191.75 289.25Z" fill="#848484"/>
<path fill-rule="evenodd" clip-rule="evenodd" d="M294.25 288.75C294.962 289.758 295.295 290.924 295.25 292.25C294.538 291.242 294.205 290.076 294.25 288.75Z" fill="#727272"/>
<path fill-rule="evenodd" clip-rule="evenodd" d="M195.75 291.75C197.489 292.726 198.322 294.227 198.25 296.25C197.138 294.928 196.305 293.428 195.75 291.75Z" fill="#949496"/>
<path fill-rule="evenodd" clip-rule="evenodd" d="M239.75 289.25C239.14 291.78 238.64 294.28 238.25 296.75C238.167 295.075 238.251 293.408 238.5 291.75C238.687 290.754 239.103 289.921 239.75 289.25Z" fill="#747474"/>
<path fill-rule="evenodd" clip-rule="evenodd" d="M247.25 295.75C248.013 295.713 248.514 296.047 248.75 296.75C247.987 296.786 247.486 296.453 247.25 295.75Z" fill="#7B7B7B"/>
<path fill-rule="evenodd" clip-rule="evenodd" d="M263.75 289.75C263.917 289.75 264.083 289.75 264.25 289.75C265.523 294.588 264.023 298.088 259.75 300.25C259.75 300.083 259.75 299.917 259.75 299.75C263.51 297.482 264.843 294.148 263.75 289.75Z" fill="#3E3E3E"/>
<path fill-rule="evenodd" clip-rule="evenodd" d="M181.25 296.25C181.487 297.656 180.987 298.656 179.75 299.25C179.877 298.016 180.377 297.016 181.25 296.25Z" fill="#8C8C8C"/>
<path fill-rule="evenodd" clip-rule="evenodd" d="M249.75 297.25C250.029 298.296 250.695 299.046 251.75 299.5C254.411 299.75 257.078 299.833 259.75 299.75C259.75 299.917 259.75 300.083 259.75 300.25C256.912 300.333 254.078 300.25 251.25 300C249.982 299.536 249.482 298.619 249.75 297.25Z" fill="#BBBBBB"/>
<path fill-rule="evenodd" clip-rule="evenodd" d="M179.75 299.75C179.368 301.048 179.201 302.382 179.25 303.75C178.922 303.189 178.755 302.522 178.75 301.75C178.793 300.834 179.126 300.167 179.75 299.75Z" fill="#646464"/>
<path fill-rule="evenodd" clip-rule="evenodd" d="M198.75 297.25C199.322 298.988 199.405 300.821 199 302.75C198.7 303.955 198.117 304.955 197.25 305.75C198.502 303.092 199.002 300.259 198.75 297.25Z" fill="#494949"/>
<path fill-rule="evenodd" clip-rule="evenodd" d="M294.75 300.25C294.638 302.081 294.138 303.747 293.25 305.25C293.362 303.419 293.862 301.753 294.75 300.25Z" fill="#A3A3A3"/>
<path fill-rule="evenodd" clip-rule="evenodd" d="M208.75 299.75C210.082 300.918 210.749 302.418 210.75 304.25C210.389 304.041 210.139 303.708 210 303.25C209.833 303.417 209.667 303.583 209.5 303.75C209.302 302.396 209.053 301.064 208.75 299.75Z" fill="#373739"/>
<path fill-rule="evenodd" clip-rule="evenodd" d="M153.75 307.75C153.83 306.901 153.747 306.067 153.5 305.25C153.309 305.528 153.058 305.695 152.75 305.75C152.911 304.976 153.41 304.643 154.25 304.75C154.397 305.868 154.231 306.868 153.75 307.75Z" fill="#888888"/>
<path fill-rule="evenodd" clip-rule="evenodd" d="M151.25 307.25C150.96 308.375 150.293 309.207 149.25 309.75C149.54 308.625 150.207 307.793 151.25 307.25Z" fill="#999999"/>
<path fill-rule="evenodd" clip-rule="evenodd" d="M211.25 305.25C211.826 308.326 211.91 311.493 211.5 314.75C211.4 315.66 210.983 316.326 210.25 316.75C211.154 312.99 211.487 309.156 211.25 305.25Z" fill="#656567"/>
<path fill-rule="evenodd" clip-rule="evenodd" d="M181.25 308.75C182.416 309.584 183.416 310.584 184.25 311.75C182.75 311.25 181.75 310.25 181.25 308.75Z" fill="#565656"/>
<path fill-rule="evenodd" clip-rule="evenodd" d="M149.25 309.75C148.96 310.875 148.293 311.707 147.25 312.25C147.54 311.125 148.207 310.293 149.25 309.75Z" fill="#9D9D9D"/>
<path fill-rule="evenodd" clip-rule="evenodd" d="M194.25 310.25C193.707 311.293 192.875 311.96 191.75 312.25C192.293 311.207 193.125 310.54 194.25 310.25Z" fill="#5C5C5C"/>
<path fill-rule="evenodd" clip-rule="evenodd" d="M191.75 312.25C191.559 312.965 191.059 313.382 190.25 313.5C189.144 313.894 188.144 313.811 187.25 313.25C188.846 313.297 190.346 312.965 191.75 312.25Z" fill="#4A4A4A"/>
<path fill-rule="evenodd" clip-rule="evenodd" d="M287.75 319.25C287.077 321.275 285.745 322.609 283.75 323.25C285.059 321.941 286.393 320.607 287.75 319.25Z" fill="#BEBEBE"/>
<path fill-rule="evenodd" clip-rule="evenodd" d="M155.75 321.75C156.453 321.986 156.786 322.487 156.75 323.25C156.047 323.014 155.713 322.513 155.75 321.75Z" fill="#7D7D7D"/>
<path fill-rule="evenodd" clip-rule="evenodd" d="M240.25 354.25C237.524 354.317 234.857 353.984 232.25 353.25C228.999 352.02 225.665 351.104 222.25 350.5C221.919 349.741 221.419 349.157 220.75 348.75C220.671 347.049 220.838 345.382 221.25 343.75C223.283 342.861 225.45 342.527 227.75 342.75C229.493 343.553 231.327 344.053 233.25 344.25C233.477 344.729 233.81 345.146 234.25 345.5C235.848 345.902 237.348 345.819 238.75 345.25C240.682 341.972 242.682 338.722 244.75 335.5C249.331 334.419 251.415 336.169 251 340.75C248.942 345.451 246.192 349.701 242.75 353.5C241.988 354.004 241.154 354.254 240.25 354.25Z" fill="#090909"/>
<path fill-rule="evenodd" clip-rule="evenodd" d="M165.25 335.25C166.013 335.213 166.514 335.547 166.75 336.25C165.987 336.286 165.486 335.953 165.25 335.25Z" fill="#747474"/>
<path fill-rule="evenodd" clip-rule="evenodd" d="M197.75 335.25C197.356 336.052 196.69 336.385 195.75 336.25C196.257 335.663 196.924 335.33 197.75 335.25Z" fill="#797979"/>
<path fill-rule="evenodd" clip-rule="evenodd" d="M195.75 336.75C194.541 338.355 192.874 339.188 190.75 339.25C192.26 338.161 193.926 337.328 195.75 336.75Z" fill="#B4B4B4"/>
<path fill-rule="evenodd" clip-rule="evenodd" d="M227.75 342.75C225.45 342.527 223.283 342.861 221.25 343.75C221.477 343.271 221.81 342.854 222.25 342.5C224.179 342.095 226.012 342.178 227.75 342.75Z" fill="#5D5D5D"/>
<path fill-rule="evenodd" clip-rule="evenodd" d="M233.25 344.25C234.944 345.11 236.778 345.443 238.75 345.25C237.348 345.819 235.848 345.903 234.25 345.5C233.81 345.146 233.477 344.729 233.25 344.25Z" fill="#797979"/>
<path fill-rule="evenodd" clip-rule="evenodd" d="M221.25 343.75C220.838 345.382 220.671 347.049 220.75 348.75C220.181 347.348 220.098 345.848 220.5 344.25C220.692 343.972 220.942 343.806 221.25 343.75Z" fill="#5A5A5A"/>
<path fill-rule="evenodd" clip-rule="evenodd" d="M232.25 353.25C234.857 353.984 237.523 354.318 240.25 354.25C237.466 355.038 234.799 354.704 232.25 353.25Z" fill="#656565"/>
<path fill-rule="evenodd" clip-rule="evenodd" d="M302.75 407.75C306.873 407.954 310.29 409.621 313 412.75C314.326 415.984 313.742 418.818 311.25 421.25C310.565 421.428 310.065 421.845 309.75 422.5C310.466 425.524 310.133 428.441 308.75 431.25C303.184 435.105 297.017 437.272 290.25 437.75C290.866 426.194 295.032 416.194 302.75 407.75Z" fill="#050405"/>
<path fill-rule="evenodd" clip-rule="evenodd" d="M210.75 416.25C214.919 417.166 218.253 419.332 220.75 422.75C221.539 424.855 221.789 427.022 221.5 429.25C219.345 431.74 216.678 433.406 213.5 434.25C213.132 440.593 209.799 443.926 203.5 444.25C198.527 443.615 193.609 442.948 188.75 442.25C189.455 439.806 190.455 437.473 191.75 435.25C193.792 431.196 196.458 427.53 199.75 424.25C202.716 420.618 206.382 417.951 210.75 416.25Z" fill="#040304"/>
<path fill-rule="evenodd" clip-rule="evenodd" d="M199.75 424.25C196.458 427.53 193.792 431.196 191.75 435.25C191.91 433.432 192.492 431.765 193.5 430.25C195.199 427.8 197.282 425.801 199.75 424.25Z" fill="#543727"/>
</svg>
