<svg width="500" height="500" viewBox="0 0 500 500" fill="none" xmlns="http://www.w3.org/2000/svg">
<path fill-rule="evenodd" clip-rule="evenodd" d="M267.25 67.7501C267.583 69.0836 267.916 70.4166 268.25 71.7501C268.376 73.5201 268.709 75.1866 269.25 76.7501C269.725 77.4596 269.892 78.2926 269.75 79.2501C269.75 83.4166 269.75 87.5836 269.75 91.7501C269.59 93.4491 269.756 95.1161 270.25 96.7501C273.22 95.0471 276.22 93.5471 279.25 92.2501C282.037 91.7741 284.87 91.6071 287.75 91.7501C288.996 92.3871 290.329 92.7201 291.75 92.7501C292.257 93.3371 292.923 93.6701 293.75 93.7501C294.104 94.2021 294.604 94.3686 295.25 94.2501C296.439 95.4391 297.772 96.4391 299.25 97.2501C305.555 103.373 306.972 110.539 303.5 118.75C301.363 122.301 298.78 125.468 295.75 128.25C299.864 128.137 304.031 128.303 308.25 128.75C311.252 129.338 314.086 130.338 316.75 131.75C317.482 132.369 318.316 132.869 319.25 133.25C322.128 135.523 324.795 138.023 327.25 140.75C328.455 142.995 329.538 145.328 330.5 147.75C331.324 145.105 332.407 142.605 333.75 140.25C336.69 135.643 340.69 132.31 345.75 130.25C346.395 130.369 346.895 130.202 347.25 129.75C348.358 129.316 349.525 129.149 350.75 129.25C352.591 129.168 354.424 129.251 356.25 129.5C357.621 130.519 359.121 131.269 360.75 131.75C361.625 132.435 362.625 132.935 363.75 133.25C364.73 134.482 365.814 135.649 367 136.75C369.752 141.585 371.669 146.752 372.75 152.25C375.677 150.871 378.511 149.371 381.25 147.75C384.64 147.22 387.64 145.887 390.25 143.75C392.29 143.056 394.29 142.39 396.25 141.75C397.416 141.75 398.583 141.75 399.75 141.75C400.707 141.892 401.54 141.726 402.25 141.25C404.116 141.435 405.949 141.769 407.75 142.25C410.063 143.476 412.23 144.976 414.25 146.75C416.27 149.125 417.77 151.792 418.75 154.75C419.039 156.14 419.372 157.474 419.75 158.75C420.184 164.5 419.017 169.833 416.25 174.75C414.866 176.386 413.366 177.969 411.75 179.5C406.466 182.349 401.299 185.433 396.25 188.75C397.284 189.787 398.45 190.62 399.75 191.25C400.916 192.75 402.25 194.084 403.75 195.25C404.124 196.166 404.624 197 405.25 197.75C407.424 202.292 408.257 207.125 407.75 212.25C407.75 212.75 407.75 213.25 407.75 213.75C406.401 217.442 404.401 220.775 401.75 223.75C397.406 226.921 392.573 228.921 387.25 229.75C385.25 229.75 383.25 229.75 381.25 229.75C382.974 232.758 384.307 235.925 385.25 239.25C385.25 240.25 385.25 241.25 385.25 242.25C385.68 244.217 385.846 246.217 385.75 248.25C385.635 251.449 385.302 254.616 384.75 257.75C384.75 257.917 384.75 258.084 384.75 258.25C383.841 261.894 382.008 265.06 379.25 267.75C378.67 268.133 378.17 268.633 377.75 269.25C379.908 269.258 382.074 268.841 384.25 268C386.744 267.751 389.244 267.667 391.75 267.75C392.996 268.387 394.329 268.72 395.75 268.75C400.762 271.847 404.678 276.014 407.5 281.25C408.024 283.067 408.441 284.9 408.75 286.75C408.836 289.968 408.503 293.135 407.75 296.25C406.771 298.342 405.605 300.342 404.25 302.25C403.179 303.736 401.846 304.986 400.25 306C398.647 307.017 396.98 307.934 395.25 308.75C396.535 309.976 398.035 310.81 399.75 311.25C401.044 312.313 402.544 312.979 404.25 313.25C406.844 315.517 409.427 317.85 412 320.25C412.972 322.055 414.138 323.722 415.5 325.25C419.079 332.186 419.162 339.186 415.75 346.25C411.103 352.154 404.937 354.987 397.25 354.75C394.136 354.472 391.136 353.722 388.25 352.5C383.035 349.728 377.868 346.978 372.75 344.25C372.564 351.506 370.314 358.006 366 363.75C359.913 368.188 353.246 369.355 346 367.25C338.197 363.864 332.447 358.364 328.75 350.75C327.743 353.685 326.493 356.518 325 359.25C321.916 361.667 318.833 364.084 315.75 366.5C313.089 367.333 310.422 368.166 307.75 369C304.703 369.147 301.703 369.23 298.75 369.25C303.012 372.62 306.179 376.787 308.25 381.75C309.809 392.151 306.643 400.901 298.75 408C297.407 408.684 296.073 409.351 294.75 410C291.32 410.63 287.903 411.214 284.5 411.75C283.25 411.667 282 411.584 280.75 411.5C278.673 410.461 276.507 409.711 274.25 409.25C275.158 418.795 272.741 427.295 267 434.75C260.145 441.971 251.895 444.304 242.25 441.75C241.743 441.163 241.076 440.83 240.25 440.75C234.17 437.081 229.753 431.914 227 425.25C225.848 419.809 225.098 414.309 224.75 408.75C221.628 410.956 218.128 411.956 214.25 411.75C206.249 412.291 199.999 409.291 195.5 402.75C191.908 396.662 190.408 390.162 191 383.25C191.945 380.477 193.111 377.81 194.5 375.25C196.559 373.105 198.642 371.105 200.75 369.25C197.614 369.174 194.447 369.091 191.25 369C188.498 368.472 185.831 367.639 183.25 366.5C180.187 364.272 177.271 361.856 174.5 359.25C172.765 356.613 171.432 353.78 170.5 350.75C165.803 361.307 157.72 367.307 146.25 368.75C141.27 368.217 136.854 366.384 133 363.25C128.819 357.624 126.569 351.291 126.25 344.25C120.277 347.82 114.11 350.987 107.75 353.75C101.566 354.781 95.5662 354.198 89.7497 352C82.8922 346.768 80.1422 339.851 81.4997 331.25C82.9747 327.829 84.6412 324.496 86.4997 321.25C88.6872 318.979 90.9372 316.812 93.2497 314.75C96.8472 312.87 100.347 310.87 103.75 308.75C92.2182 302.764 88.3012 293.431 91.9997 280.75C93.0047 278.838 94.2547 277.171 95.7497 275.75C97.4812 273.768 99.3147 271.851 101.25 270C104.629 267.917 108.295 267.25 112.25 268C115.546 268.818 118.879 269.318 122.25 269.5C120.5 267.75 118.75 266 117 264.25C113.58 256.25 112.746 247.917 114.5 239.25C115.417 235.907 116.667 232.74 118.25 229.75C114.547 229.924 110.88 229.674 107.25 229C94.9682 224.69 89.9682 216.106 92.2497 203.25C92.5937 200.883 93.4272 198.716 94.7497 196.75C97.0917 193.675 99.9247 191.092 103.25 189C97.9997 185.959 92.8327 182.792 87.7497 179.5C81.2877 173.537 78.6212 166.12 79.7497 157.25C80.9577 153.169 82.9577 149.503 85.7497 146.25C87.5582 144.342 89.7252 142.925 92.2497 142C96.0832 141.667 99.9162 141.667 103.75 142C111.599 145.426 119.433 148.843 127.25 152.25C127.854 147.875 129.021 143.708 130.75 139.75C131.124 138.834 131.624 138.001 132.25 137.25C132.583 136.75 132.916 136.25 133.25 135.75C135.271 133.58 137.605 131.913 140.25 130.75C143.417 129.402 146.751 128.902 150.25 129.25C151.71 129.848 153.21 130.348 154.75 130.75C156.486 131.869 158.319 132.869 160.25 133.75C164.309 137.701 167.225 142.368 169 147.75C170.029 144.15 171.779 140.983 174.25 138.25C174.916 137.917 175.416 137.417 175.75 136.75C177.902 135.172 180.068 133.588 182.25 132C184.017 131.669 185.517 130.919 186.75 129.75C188.416 129.25 190.083 128.75 191.75 128.25C196.155 128.103 200.489 128.353 204.75 129C203.315 127.481 201.815 126.065 200.25 124.75C199.392 122.699 198.058 121.032 196.25 119.75C196.01 118.279 195.51 116.945 194.75 115.75C194.75 114.917 194.75 114.084 194.75 113.25C194.494 109.498 194.911 105.831 196 102.25C201.19 94.6976 208.44 91.1976 217.75 91.7501C219.271 92.1726 220.771 92.6726 222.25 93.2501C224.637 94.6401 227.137 95.8066 229.75 96.7501C229.073 89.3976 229.24 82.0641 230.25 74.7501C230.921 72.8376 231.504 70.8376 232 68.7501C233.405 67.2681 234.488 65.6011 235.25 63.7501C236.416 62.9166 237.416 61.9166 238.25 60.7501C238.855 60.5341 239.355 60.2006 239.75 59.7501C240.389 59.6091 240.889 59.2756 241.25 58.7501C242.287 58.2431 243.287 57.7431 244.25 57.2501C248.105 56.5221 251.938 56.6056 255.75 57.5001C260.165 60.3361 263.999 63.7526 267.25 67.7501Z" fill="#8BD2F3"/>
<path fill-rule="evenodd" clip-rule="evenodd" d="M343.749 229.75C343.749 230.417 343.749 231.084 343.749 231.75C343.083 231.75 342.416 231.75 341.749 231.75C340.798 231.602 339.964 231.269 339.249 230.75C338.827 229.621 337.994 229.121 336.749 229.25C335.441 228.607 334.274 227.774 333.249 226.75C333.013 226.047 332.513 225.714 331.749 225.75C330.923 225.67 330.256 225.337 329.749 224.75C329.513 224.047 329.013 223.714 328.249 223.75C328.083 223.75 327.916 223.75 327.749 223.75C325.241 221.492 322.241 220.659 318.749 221.25C317.406 221.332 316.072 221.249 314.749 221C313.92 220.169 312.92 219.752 311.749 219.75C310.948 218.963 309.948 218.63 308.749 218.75C307.494 218.973 306.494 218.64 305.749 217.75C303.894 216.932 301.894 216.599 299.749 216.75C294.67 216.171 289.503 216.088 284.249 216.5C283.284 216.951 282.451 217.535 281.749 218.25C280.583 218.417 279.916 219.084 279.749 220.25C278.923 220.33 278.256 220.663 277.749 221.25C276.825 221.797 275.991 222.463 275.249 223.25C274.206 223.793 273.539 224.626 273.249 225.75C272.368 226.131 271.868 226.798 271.749 227.75C270.962 228.551 270.629 229.551 270.749 230.75C270.162 231.257 269.829 231.924 269.749 232.75C268.529 234.909 267.696 237.242 267.249 239.75C266.594 245.423 266.594 251.09 267.249 256.75C267.204 258.076 267.537 259.243 268.249 260.25C268.204 261.576 268.537 262.743 269.249 263.75C269.129 264.949 269.462 265.949 270.249 266.75C270.213 267.514 270.546 268.014 271.249 268.25C272.566 271.901 275.066 274.401 278.749 275.75C278.986 276.453 279.486 276.787 280.249 276.75C280.583 276.917 280.916 277.084 281.249 277.25C282.106 277.869 283.106 278.203 284.249 278.25C285.217 278.575 286.217 278.742 287.249 278.75C288.257 279.462 289.423 279.795 290.749 279.75C291.083 279.75 291.416 279.75 291.749 279.75C292.973 280.237 294.307 280.403 295.749 280.25C296.411 282.125 296.245 283.958 295.249 285.75C295.633 287.723 295.883 289.723 295.999 291.75C297.169 293.088 298.085 294.588 298.749 296.25C300.486 297.07 301.819 298.32 302.749 300C307.364 302.119 312.198 302.786 317.249 302C319.541 301.258 321.875 300.675 324.249 300.25C324.249 302.917 324.249 305.584 324.249 308.25C324.249 308.584 324.249 308.917 324.249 309.25C319.551 314.945 314.051 319.778 307.749 323.75C309.808 325.136 311.975 326.386 314.249 327.5C315.666 328.917 317.083 330.334 318.499 331.75C319.353 332.955 319.769 334.288 319.749 335.75C314.591 337.448 313.925 340.198 317.749 344C319.072 344.249 320.406 344.332 321.749 344.25C320.496 352.755 315.662 358.005 307.249 360C299.476 361.32 293.393 358.737 288.999 352.25C286.418 347.757 285.002 342.924 284.749 337.75C281.799 338.725 278.966 339.975 276.249 341.5C272.893 342.792 269.393 343.626 265.749 344C273.158 354.779 281.742 364.862 291.499 374.25C293.15 376.405 294.817 378.572 296.499 380.75C298.115 384.39 298.115 388.057 296.499 391.75C293.072 397.847 287.822 400.43 280.749 399.5C278.062 398.716 275.562 397.55 273.249 396C269.674 392.008 266.008 388.092 262.249 384.25C262.277 394.895 262.194 405.561 261.999 416.25C261.784 420.161 261.117 423.995 259.999 427.75C252.994 437.078 246.077 437.078 239.249 427.75C238.218 424.002 237.634 420.169 237.499 416.25C237.343 405.57 237.26 394.903 237.249 384.25C233.672 387.912 230.172 391.662 226.749 395.5C220.951 400.074 214.618 400.908 207.749 398C201.35 392.673 200.1 386.423 203.999 379.25C210.666 371.917 217.333 364.584 223.999 357.25C227.154 353.012 230.404 348.845 233.749 344.75C230.639 343.686 227.473 342.77 224.249 342C221.271 340.535 218.271 339.119 215.249 337.75C214.416 345.334 211.249 351.751 205.749 357C195.714 362.425 187.13 360.675 179.999 351.75C177.636 347.933 176.803 343.767 177.499 339.25C178.583 336.75 179.666 334.25 180.749 331.75C181.759 330.905 182.759 330.072 183.749 329.25C185.663 330.29 187.663 331.206 189.749 332C192.612 332.359 195.445 332.192 198.249 331.5C202.03 330.11 205.696 328.444 209.249 326.5C211.778 324.472 214.445 322.638 217.249 321C219.06 321.203 220.893 321.203 222.749 321C223.978 320.219 225.311 319.719 226.749 319.5C229.657 316.704 229.323 314.371 225.749 312.5C223.389 312.39 221.056 312.14 218.749 311.75C218.04 310.832 217.456 309.832 216.999 308.75C216.435 307.93 215.685 307.43 214.749 307.25C214.362 306.927 213.862 306.76 213.249 306.75C212.322 306.67 211.655 307.004 211.249 307.75C210.604 308.029 210.188 308.529 209.999 309.25C209.903 311.875 209.653 314.459 209.249 317C206.148 318.967 202.982 320.8 199.749 322.5C193.702 325.114 188.618 323.864 184.499 318.75C180.356 312.633 176.856 306.133 173.999 299.25C173.348 298.958 172.765 298.625 172.249 298.25C170.64 297.408 169.307 297.742 168.249 299.25C167.283 300.589 167.033 302.089 167.499 303.75C168.293 305.836 169.21 307.836 170.249 309.75C170.189 310.867 170.356 311.951 170.749 313C170.436 314.068 170.186 315.151 169.999 316.25C167.079 327.012 163.579 337.512 159.499 347.75C157.387 351.571 154.637 354.821 151.249 357.5C147.026 358.778 143.026 358.278 139.249 356C135.664 351.465 134.748 346.381 136.499 340.75C137.851 335.845 139.434 331.012 141.249 326.25C140.999 326.084 140.749 325.917 140.499 325.75C127.934 332.825 115.184 339.575 102.249 346C96.7917 346.731 92.8752 344.647 90.4992 339.75C89.9552 335.82 90.2887 331.987 91.4992 328.25C92.2492 327.5 92.9992 326.75 93.7492 326C105.733 319.844 117.233 312.927 128.249 305.25C122.399 303.107 116.399 301.19 110.249 299.5C106.68 297.764 103.93 295.181 101.999 291.75C101.111 285.116 103.861 280.699 110.249 278.5C111.881 278.031 113.548 277.781 115.249 277.75C130.452 280.326 145.619 282.826 160.749 285.25C158.354 277.506 156.188 269.673 154.249 261.75C153.341 262.408 152.508 263.158 151.749 264C145.256 266.702 138.756 266.869 132.249 264.5C125.766 260.995 122.6 255.495 122.749 248C122.681 239.464 126.514 233.464 134.249 230C142.01 228.727 148.843 230.644 154.749 235.75C155.293 232.938 155.71 230.104 155.999 227.25C157.894 222.335 159.477 217.335 160.749 212.25C153.267 213.625 145.767 215.041 138.249 216.5C130.687 217.324 123.187 218.24 115.749 219.25C105.445 218.826 101.195 213.493 102.999 203.25C103.733 201.867 104.649 200.617 105.749 199.5C107.571 198.426 109.405 197.426 111.249 196.5C117.359 194.855 123.525 193.605 129.749 192.75C127.993 191.622 126.326 190.372 124.749 189C121.206 187.979 118.039 186.313 115.249 184C109.717 181.818 104.384 179.152 99.2492 176C94.7187 173.307 91.4687 169.557 89.4992 164.75C88.5947 158.636 90.8447 154.052 96.2492 151C98.2492 150.667 100.249 150.667 102.249 151C109.755 154.002 116.922 157.669 123.749 162C129.805 164.859 135.638 167.942 141.249 171.25C140.056 166.417 138.806 161.584 137.499 156.75C137.166 153.417 137.166 150.084 137.499 146.75C141.827 138.539 147.743 137.123 155.249 142.5C159.384 147.187 162.134 152.603 163.499 158.75C165.562 169.827 168.645 180.66 172.749 191.25C176.311 187.793 179.645 184.127 182.749 180.25C185.075 178.59 187.242 176.757 189.249 174.75C181.098 169.613 177.348 162.279 177.999 152.75C181.43 141.906 188.847 136.823 200.249 137.5C202.829 138.706 205.329 140.04 207.749 141.5C212.627 146.929 214.793 153.346 214.249 160.75C221.75 158.501 229.25 156.334 236.749 154.25C237.566 151.72 237.149 149.386 235.499 147.25C228.666 140.084 221.833 132.917 214.999 125.75C212.145 122.73 209.478 119.563 206.999 116.25C203.255 106.565 206.505 101.231 216.749 100.25C220.644 100.683 224.144 102.099 227.249 104.5C231.216 108.537 234.883 112.787 238.249 117.25C238.666 105.587 238.916 93.9202 238.999 82.2502C238.29 75.9797 240.207 70.7297 244.749 66.5002C252.916 64.1832 257.999 67.1002 259.999 75.2502C260.439 89.0827 260.856 102.916 261.249 116.75C264.94 111.806 269.107 107.223 273.749 103C279.663 99.3417 285.497 99.4252 291.249 103.25C292.249 104.247 292.999 105.414 293.499 106.75C294.188 110.47 293.688 113.97 291.999 117.25C282.625 127.288 273.292 137.288 263.999 147.25C263.459 148.498 262.792 149.665 261.999 150.75C261.646 151.986 261.813 153.153 262.499 154.25C270.085 156.723 277.751 158.89 285.499 160.75C284.166 149.347 288.75 141.597 299.249 137.5C309.486 136.834 316.736 141.25 320.999 150.75C322.161 156.779 321.161 162.446 317.999 167.75C315.319 170.181 312.569 172.515 309.749 174.75C312.196 177.282 314.863 179.532 317.749 181.5C320.69 184.964 323.69 188.38 326.749 191.75C328.8 185.25 330.884 178.75 332.999 172.25C334.263 161.956 337.596 152.456 342.999 143.75C348.65 137.776 354.317 137.776 359.999 143.75C360.418 144.922 361.085 145.922 361.999 146.75C362.333 149.917 362.333 153.084 361.999 156.25C360.56 160.942 359.31 165.692 358.249 170.5C358.416 170.75 358.583 171 358.749 171.25C369.001 165.207 379.334 159.29 389.749 153.5C391.474 152.985 393.141 152.319 394.749 151.5C401.779 149.208 406.696 151.458 409.499 158.25C410.961 163.778 409.544 168.361 405.249 172C403.749 173.167 402.249 174.334 400.749 175.5C392.127 180.096 383.46 184.596 374.749 189C372.825 190.184 370.992 191.434 369.249 192.75C375.396 194.078 381.562 195.328 387.749 196.5C390.892 197.863 393.642 199.779 395.999 202.25C398.055 208.235 396.805 213.318 392.249 217.5C387.705 219.037 383.038 219.537 378.249 219C364.931 217.524 351.764 215.274 338.749 212.25C340.227 218.179 341.894 224.012 343.749 229.75Z" fill="#FDFEFE"/>
<path fill-rule="evenodd" clip-rule="evenodd" d="M299.75 216.75C294.747 216.667 289.747 216.75 284.75 217C283.857 217.66 282.857 218.076 281.75 218.25C282.451 217.535 283.285 216.951 284.25 216.5C289.504 216.088 294.671 216.171 299.75 216.75Z" fill="#6C6C6C"/>
<path fill-rule="evenodd" clip-rule="evenodd" d="M299.75 216.75C301.895 216.599 303.895 216.932 305.75 217.75C303.605 217.901 301.605 217.568 299.75 216.75Z" fill="#BFBFBF"/>
<path fill-rule="evenodd" clip-rule="evenodd" d="M299.749 216.75C301.604 217.568 303.604 217.901 305.749 217.75C306.494 218.64 307.494 218.973 308.749 218.75C309.606 219.369 310.606 219.702 311.749 219.75C312.92 219.752 313.92 220.168 314.749 221C316.072 221.248 317.406 221.332 318.749 221.25C321.769 221.824 324.769 222.657 327.749 223.75C327.916 223.75 328.083 223.75 328.249 223.75C328.486 224.453 328.986 224.786 329.749 224.75C330.256 225.337 330.923 225.67 331.749 225.75C331.986 226.453 332.486 226.786 333.249 226.75C334.274 227.773 335.441 228.607 336.749 229.25C337.449 229.945 338.282 230.445 339.249 230.75C339.964 231.268 340.798 231.602 341.749 231.75C343.617 232.676 345.451 233.676 347.249 234.75C347.416 235.083 347.583 235.416 347.749 235.75C347.844 237.516 347.511 239.182 346.749 240.75C345.833 241.231 344.833 241.565 343.749 241.75C340.521 240.626 337.188 239.959 333.749 239.75C333.513 239.047 333.013 238.713 332.249 238.75C330.383 237.483 328.383 236.483 326.249 235.75C326.135 238.005 326.468 240.171 327.249 242.25C327.008 245.624 326.508 248.957 325.749 252.25C324.799 253.759 324.133 255.425 323.749 257.25C322.857 258.976 322.19 260.809 321.749 262.75C320.707 263.842 320.207 265.175 320.249 266.75C319.83 266.921 319.663 267.254 319.749 267.75C318.467 269.14 317.301 270.64 316.249 272.25C315.125 272.54 314.292 273.206 313.749 274.25C312.159 275.127 310.659 276.127 309.249 277.25C308.749 277.583 308.249 277.916 307.749 278.25C306.423 278.205 305.257 278.538 304.249 279.25C300.095 279.644 295.928 279.81 291.749 279.75C291.416 279.75 291.083 279.75 290.749 279.75C289.742 279.038 288.575 278.705 287.249 278.75C286.217 278.741 285.217 278.575 284.249 278.25C283.448 277.463 282.448 277.129 281.249 277.25C280.916 277.083 280.583 276.916 280.249 276.75C280.013 276.047 279.513 275.713 278.749 275.75C275.066 274.4 272.566 271.9 271.249 268.25C271.286 267.486 270.952 266.986 270.249 266.75C270.37 265.551 270.036 264.551 269.249 263.75C268.537 262.742 268.204 261.576 268.249 260.25C268.294 258.924 267.961 257.757 267.249 256.75C266.594 251.089 266.594 245.423 267.249 239.75C268.469 237.591 269.303 235.258 269.749 232.75C269.829 231.923 270.162 231.257 270.749 230.75C271.536 229.949 271.87 228.949 271.749 227.75C271.868 226.798 272.368 226.131 273.249 225.75C274.293 225.207 274.959 224.374 275.249 223.25C275.991 222.463 276.825 221.796 277.749 221.25C278.689 221.385 279.356 221.052 279.749 220.25C279.916 219.083 280.583 218.416 281.749 218.25C282.856 218.076 283.856 217.659 284.749 217C289.746 216.75 294.746 216.667 299.749 216.75Z" fill="#030303"/>
<path fill-rule="evenodd" clip-rule="evenodd" d="M308.75 218.75C309.949 218.63 310.949 218.963 311.75 219.75C310.607 219.703 309.607 219.369 308.75 218.75Z" fill="#7E7E7E"/>
<path fill-rule="evenodd" clip-rule="evenodd" d="M279.75 220.25C279.356 221.052 278.69 221.385 277.75 221.25C278.257 220.663 278.924 220.33 279.75 220.25Z" fill="#919191"/>
<path fill-rule="evenodd" clip-rule="evenodd" d="M318.75 221.25C322.241 220.659 325.241 221.492 327.75 223.75C324.77 222.658 321.77 221.825 318.75 221.25Z" fill="#A2A2A2"/>
<path fill-rule="evenodd" clip-rule="evenodd" d="M198.25 222.75C199.405 222.418 200.655 222.252 202 222.25C205.916 222.511 209.832 222.76 213.75 223C216.038 223.375 218.204 223.959 220.25 224.75C219.217 224.741 218.217 224.575 217.25 224.25C210.969 223.294 204.635 222.795 198.25 222.75Z" fill="#B4B4B4"/>
<path fill-rule="evenodd" clip-rule="evenodd" d="M198.25 222.75C204.636 222.795 210.969 223.295 217.25 224.25C218.198 225.121 219.364 225.621 220.75 225.75C221.084 225.75 221.417 225.75 221.75 225.75C222.144 226.552 222.81 226.886 223.75 226.75C224.487 227.698 225.32 228.531 226.25 229.25C226.25 229.917 226.25 230.584 226.25 231.25C227.474 231.308 228.474 231.808 229.25 232.75C228.585 235.743 229.501 238.076 232 239.75C232.547 240.539 232.964 241.373 233.25 242.25C233.214 243.014 233.547 243.514 234.25 243.75C234.669 243.921 234.836 244.254 234.75 244.75C234.714 245.514 235.047 246.014 235.75 246.25C237.731 250.738 238.231 255.405 237.25 260.25C236.085 262.246 234.919 264.246 233.75 266.25C232.372 268.208 231.372 270.375 230.75 272.75C229.837 273.574 229.17 274.574 228.75 275.75C227.25 276.917 225.917 278.25 224.75 279.75C222.297 281.196 219.964 282.862 217.75 284.75C215.919 284.862 214.253 285.362 212.75 286.25C212.584 286.25 212.417 286.25 212.25 286.25C210.105 286.099 208.105 286.432 206.25 287.25C201.174 287.859 196.341 286.942 191.75 284.5C191.31 284.146 190.977 283.729 190.75 283.25C190.045 282.043 189.045 281.21 187.75 280.75C184.134 278.638 181.634 275.638 180.25 271.75C179.61 268.807 178.443 266.14 176.75 263.75C176.795 262.424 176.462 261.258 175.75 260.25C175.75 260.084 175.75 259.917 175.75 259.75C175.616 256.522 175.95 253.356 176.75 250.25C177.231 249.368 177.398 248.368 177.25 247.25C176.605 247.132 176.105 247.298 175.75 247.75C174.431 248.737 173.264 249.903 172.25 251.25C170.931 252.737 169.598 254.237 168.25 255.75C166.956 256.21 165.956 257.043 165.25 258.25C164.754 258.164 164.421 258.331 164.25 258.75C161.785 258.983 159.452 258.65 157.25 257.75C157.127 254.721 157.294 251.721 157.75 248.75C158.631 248.369 159.131 247.702 159.25 246.75C159.417 246.25 159.75 245.917 160.25 245.75C161.778 244.526 162.945 243.026 163.75 241.25C163.75 241.084 163.75 240.917 163.75 240.75C165.25 240.25 166.25 239.25 166.75 237.75C167.254 236.739 168.087 236.073 169.25 235.75C170.337 235.625 171.171 235.125 171.75 234.25C171.75 234.084 171.75 233.917 171.75 233.75C174.636 232.859 177.136 231.359 179.25 229.25C179.584 229.25 179.917 229.25 180.25 229.25C181.349 229.44 182.183 229.107 182.75 228.25C183.684 227.869 184.518 227.369 185.25 226.75C186.084 226.417 186.917 226.084 187.75 225.75C190.458 225.403 192.958 224.57 195.25 223.25C196.133 222.77 197.133 222.603 198.25 222.75Z" fill="#030303"/>
<path fill-rule="evenodd" clip-rule="evenodd" d="M328.25 223.75C329.013 223.713 329.514 224.047 329.75 224.75C328.987 224.786 328.486 224.453 328.25 223.75Z" fill="#6E6E6E"/>
<path fill-rule="evenodd" clip-rule="evenodd" d="M195.25 223.25C192.957 224.57 190.457 225.403 187.75 225.75C190.073 224.512 192.573 223.678 195.25 223.25Z" fill="#464646"/>
<path fill-rule="evenodd" clip-rule="evenodd" d="M275.25 223.25C274.96 224.375 274.293 225.207 273.25 225.75C273.54 224.625 274.207 223.793 275.25 223.25Z" fill="#585858"/>
<path fill-rule="evenodd" clip-rule="evenodd" d="M217.25 224.25C218.217 224.575 219.217 224.741 220.25 224.75C220.417 225.083 220.583 225.417 220.75 225.75C219.364 225.62 218.197 225.121 217.25 224.25Z" fill="#525252"/>
<path fill-rule="evenodd" clip-rule="evenodd" d="M292.25 226.75C289.51 225.859 286.677 225.526 283.75 225.75C283.959 225.389 284.292 225.139 284.75 225C286.25 224.667 287.75 224.667 289.25 225C290.513 225.212 291.512 225.795 292.25 226.75Z" fill="#A3A3A3"/>
<path fill-rule="evenodd" clip-rule="evenodd" d="M283.751 225.75C286.677 225.525 289.511 225.858 292.251 226.75C293.164 227.573 293.831 228.573 294.251 229.75C294.601 231.899 294.767 234.065 294.751 236.25C294.751 236.416 294.751 236.583 294.751 236.75C294.39 236.959 294.14 237.292 294.001 237.75C293.834 240.083 293.667 242.416 293.501 244.75C291.822 246.015 290.239 247.349 288.751 248.75C285.507 248.924 282.341 248.591 279.251 247.75C278.657 246.528 277.99 245.361 277.251 244.25C276.248 242.912 275.248 241.579 274.251 240.25C274.251 240.083 274.251 239.916 274.251 239.75C274.213 237.509 274.547 235.343 275.251 233.25C275.954 233.013 276.287 232.513 276.251 231.75C277.084 231.25 277.751 230.583 278.251 229.75C280.925 229.575 282.759 228.242 283.751 225.75Z" fill="#FAFAFA"/>
<path fill-rule="evenodd" clip-rule="evenodd" d="M221.75 225.75C222.576 225.83 223.243 226.163 223.75 226.75C222.81 226.885 222.144 226.552 221.75 225.75Z" fill="#707070"/>
<path fill-rule="evenodd" clip-rule="evenodd" d="M331.75 225.75C332.513 225.713 333.014 226.047 333.25 226.75C332.487 226.786 331.986 226.453 331.75 225.75Z" fill="#8F8F8F"/>
<path fill-rule="evenodd" clip-rule="evenodd" d="M185.25 226.75C184.517 227.369 183.684 227.869 182.75 228.25C182.583 228.25 182.417 228.25 182.25 228.25C182.956 227.231 183.956 226.731 185.25 226.75Z" fill="#8C8C8C"/>
<path fill-rule="evenodd" clip-rule="evenodd" d="M283.75 225.75C282.758 228.242 280.924 229.575 278.25 229.75C280.237 228.663 282.069 227.33 283.75 225.75Z" fill="#959595"/>
<path fill-rule="evenodd" clip-rule="evenodd" d="M182.25 228.25C182.417 228.25 182.583 228.25 182.75 228.25C182.183 229.107 181.349 229.44 180.25 229.25C180.644 228.448 181.31 228.115 182.25 228.25Z" fill="#3F3F3F"/>
<path fill-rule="evenodd" clip-rule="evenodd" d="M271.751 227.75C271.871 228.949 271.538 229.949 270.751 230.75C270.63 229.551 270.964 228.551 271.751 227.75Z" fill="#505050"/>
<path fill-rule="evenodd" clip-rule="evenodd" d="M336.75 229.25C337.995 229.12 338.828 229.62 339.25 230.75C338.283 230.445 337.45 229.945 336.75 229.25Z" fill="#B4B4B4"/>
<path fill-rule="evenodd" clip-rule="evenodd" d="M226.25 229.25C227.595 230.096 228.595 231.263 229.25 232.75C228.474 231.808 227.474 231.308 226.25 231.25C226.25 230.584 226.25 229.916 226.25 229.25Z" fill="#353535"/>
<path fill-rule="evenodd" clip-rule="evenodd" d="M278.25 229.75C277.75 230.584 277.084 231.25 276.25 231.75C276.417 230.584 277.084 229.917 278.25 229.75Z" fill="#767676"/>
<path fill-rule="evenodd" clip-rule="evenodd" d="M331.75 323.75C332.389 315.426 332.639 307.093 332.5 298.75C331.953 298.154 331.536 297.487 331.25 296.75C331.212 296.125 330.878 295.709 330.25 295.5C332.287 293.688 334.037 291.605 335.5 289.25C335.916 285.738 335.832 282.238 335.25 278.75C333.671 277.086 332.171 275.336 330.75 273.5C328.657 272.317 326.49 271.317 324.25 270.5C322.888 270.365 321.555 270.115 320.25 269.75C319.786 269.156 319.619 268.489 319.75 267.75C319.664 267.254 319.831 266.921 320.25 266.75C321.293 265.658 321.793 264.325 321.75 262.75C322.191 260.81 322.858 258.976 323.75 257.25C324.949 255.846 325.615 254.179 325.75 252.25C326.67 251.171 327.254 249.838 327.5 248.25C327.906 246.156 327.823 244.156 327.25 242.25C326.469 240.172 326.136 238.005 326.25 235.75C328.384 236.484 330.384 237.484 332.25 238.75C332.487 239.453 332.987 239.787 333.75 239.75C337.189 239.959 340.522 240.626 343.75 241.75C344.834 241.565 345.834 241.232 346.75 240.75C347.466 240.56 347.882 240.06 348 239.25C348.398 237.981 348.315 236.814 347.75 235.75C347.584 235.417 347.417 235.084 347.25 234.75C347.417 234.417 347.584 234.084 347.75 233.75C351.521 230.886 355.854 229.553 360.75 229.75C364.181 229.811 367.348 230.728 370.25 232.5C376.696 238.842 378.613 246.425 376 255.25C373.428 260.49 369.345 263.907 363.75 265.5C357.161 266.74 350.994 265.656 345.25 262.25C343.075 269.989 340.908 277.656 338.75 285.25C348.475 283.802 358.142 282.052 367.75 280C374.378 278.807 381.044 278.14 387.75 278C392.33 279.167 395.58 281.917 397.5 286.25C397.834 288.084 397.834 289.917 397.5 291.75C395.195 295.454 391.945 298.037 387.75 299.5C382.12 301.433 376.453 303.266 370.75 305C382.355 313.463 394.522 320.88 407.25 327.25C409.059 331.205 409.643 335.372 409 339.75C406.381 344.519 402.297 346.602 396.75 346C383.846 339.632 371.179 332.882 358.75 325.75C359.065 329.414 360.065 332.997 361.75 336.5C363.098 341.506 363.514 346.589 363 351.75C362.279 353.579 361.196 355.163 359.75 356.5C356.34 357.708 352.84 358.208 349.25 358C348.138 357.72 347.138 357.22 346.25 356.5C345.177 354.943 343.927 353.526 342.5 352.25C338.456 342.859 334.872 333.359 331.75 323.75Z" fill="#FDFEFE"/>
<path fill-rule="evenodd" clip-rule="evenodd" d="M179.25 229.25C177.135 231.359 174.635 232.859 171.75 233.75C171.694 233.442 171.528 233.191 171.25 233C174.087 232.071 176.754 230.821 179.25 229.25Z" fill="#C4C4C4"/>
<path fill-rule="evenodd" clip-rule="evenodd" d="M343.75 229.75C344.217 230.284 344.384 230.951 344.25 231.75C344.776 231.675 345.276 231.758 345.75 232C346.266 232.813 346.933 233.396 347.75 233.75C347.583 234.083 347.417 234.417 347.25 234.75C345.452 233.676 343.618 232.677 341.75 231.75C342.416 231.75 343.084 231.75 343.75 231.75C343.75 231.084 343.75 230.416 343.75 229.75Z" fill="#9EC4D1"/>
<path fill-rule="evenodd" clip-rule="evenodd" d="M217.75 233.25C214.96 233.126 212.293 233.626 209.75 234.75C212.173 232.871 214.84 232.371 217.75 233.25Z" fill="#8B8B8B"/>
<path fill-rule="evenodd" clip-rule="evenodd" d="M276.251 231.75C276.287 232.513 275.954 233.014 275.251 233.25C275.214 232.487 275.548 231.986 276.251 231.75Z" fill="#8B8B8B"/>
<path fill-rule="evenodd" clip-rule="evenodd" d="M294.25 229.75C294.976 230.924 295.309 232.257 295.25 233.75C295.246 234.684 295.08 235.518 294.75 236.25C294.766 234.066 294.6 231.899 294.25 229.75Z" fill="#9A9A9A"/>
<path fill-rule="evenodd" clip-rule="evenodd" d="M217.749 233.25C218.479 233.217 219.145 233.383 219.749 233.75C220.416 234.75 221.249 235.584 222.249 236.25C222.861 237.637 223.611 238.971 224.499 240.25C224.793 242.764 224.71 245.264 224.249 247.75C223.215 249.761 222.132 251.761 220.999 253.75C220.314 254.521 219.564 255.188 218.749 255.75C217.573 256.17 216.573 256.837 215.749 257.75C214.941 258.486 213.941 258.82 212.749 258.75C211.977 258.745 211.31 258.578 210.749 258.25C210.513 257.547 210.013 257.214 209.249 257.25C208.249 256.084 207.249 254.917 206.249 253.75C205.948 251.814 205.115 250.148 203.749 248.75C203.749 248.417 203.749 248.084 203.749 247.75C203.675 246.197 203.925 244.697 204.499 243.25C206.021 240.256 207.771 237.423 209.749 234.75C212.292 233.626 214.959 233.126 217.749 233.25Z" fill="#F8F8F8"/>
<path fill-rule="evenodd" clip-rule="evenodd" d="M219.75 233.75C221.084 234.083 221.917 234.916 222.25 236.25C221.25 235.584 220.416 234.75 219.75 233.75Z" fill="#4C4C4C"/>
<path fill-rule="evenodd" clip-rule="evenodd" d="M171.75 234.25C171.17 235.125 170.337 235.625 169.25 235.75C169.83 234.875 170.663 234.375 171.75 234.25Z" fill="#7D7D7D"/>
<path fill-rule="evenodd" clip-rule="evenodd" d="M269.75 232.75C269.303 235.259 268.47 237.592 267.25 239.75C267.697 237.241 268.53 234.908 269.75 232.75Z" fill="#4F4F4F"/>
<path fill-rule="evenodd" clip-rule="evenodd" d="M347.75 235.75C348.314 236.814 348.398 237.98 348 239.25C347.882 240.059 347.465 240.559 346.75 240.75C347.512 239.183 347.845 237.516 347.75 235.75Z" fill="#828286"/>
<path fill-rule="evenodd" clip-rule="evenodd" d="M275.251 233.25C274.547 235.343 274.213 237.51 274.251 239.75C273.418 237.421 273.751 235.254 275.251 233.25Z" fill="#909090"/>
<path fill-rule="evenodd" clip-rule="evenodd" d="M166.75 237.75C166.25 239.25 165.25 240.25 163.75 240.75C164.584 239.584 165.584 238.584 166.75 237.75Z" fill="#403E3F"/>
<path fill-rule="evenodd" clip-rule="evenodd" d="M294.75 236.75C294.437 239.572 294.186 242.405 294 245.25C292.436 246.737 290.686 247.904 288.75 248.75C290.238 247.349 291.821 246.015 293.5 244.75C293.667 242.417 293.833 240.083 294 237.75C294.139 237.292 294.389 236.959 294.75 236.75Z" fill="#606060"/>
<path fill-rule="evenodd" clip-rule="evenodd" d="M332.25 238.75C333.013 238.713 333.514 239.047 333.75 239.75C332.987 239.786 332.486 239.453 332.25 238.75Z" fill="#7C7C7C"/>
<path fill-rule="evenodd" clip-rule="evenodd" d="M274.25 240.25C275.248 241.579 276.247 242.913 277.25 244.25C275.51 243.505 274.509 242.171 274.25 240.25Z" fill="#A3A3A3"/>
<path fill-rule="evenodd" clip-rule="evenodd" d="M209.75 234.75C207.772 237.422 206.022 240.256 204.5 243.25C203.926 244.696 203.676 246.196 203.75 247.75C202.84 245.251 203.423 243.085 205.5 241.25C205.917 239.914 206.334 238.581 206.75 237.25C207.782 236.379 208.782 235.545 209.75 234.75Z" fill="#7C7C7C"/>
<path fill-rule="evenodd" clip-rule="evenodd" d="M163.75 241.25C162.945 243.026 161.778 244.526 160.25 245.75C161.055 243.974 162.222 242.474 163.75 241.25Z" fill="#626061"/>
<path fill-rule="evenodd" clip-rule="evenodd" d="M233.251 242.25C233.954 242.486 234.287 242.987 234.251 243.75C233.548 243.514 233.214 243.013 233.251 242.25Z" fill="#5D5D5D"/>
<path fill-rule="evenodd" clip-rule="evenodd" d="M234.751 244.75C235.454 244.986 235.787 245.487 235.751 246.25C235.048 246.014 234.714 245.513 234.751 244.75Z" fill="#6E6E6E"/>
<path fill-rule="evenodd" clip-rule="evenodd" d="M159.25 246.75C159.131 247.702 158.631 248.369 157.75 248.75C157.869 247.798 158.369 247.131 159.25 246.75Z" fill="#787878"/>
<path fill-rule="evenodd" clip-rule="evenodd" d="M175.75 247.75C176.104 247.298 176.604 247.131 177.25 247.25C177.397 248.367 177.231 249.367 176.75 250.25C176.962 249.109 176.628 248.276 175.75 247.75Z" fill="#575757"/>
<path fill-rule="evenodd" clip-rule="evenodd" d="M279.25 247.75C282.34 248.591 285.507 248.924 288.75 248.75C286.342 249.325 283.842 249.408 281.25 249C280.467 248.696 279.8 248.279 279.25 247.75Z" fill="#696969"/>
<path fill-rule="evenodd" clip-rule="evenodd" d="M327.25 242.25C327.822 244.156 327.906 246.155 327.5 248.25C327.253 249.837 326.67 251.171 325.75 252.25C326.508 248.957 327.008 245.624 327.25 242.25Z" fill="#B2B2B2"/>
<path fill-rule="evenodd" clip-rule="evenodd" d="M203.75 248.75C205.115 250.148 205.949 251.814 206.25 253.75C206.083 253.75 205.917 253.75 205.75 253.75C204.543 252.33 203.876 250.663 203.75 248.75Z" fill="#BFBFBF"/>
<path fill-rule="evenodd" clip-rule="evenodd" d="M224.25 247.75C223.831 250.085 222.998 252.252 221.75 254.25C220.868 255.139 219.868 255.806 218.75 256.25C218.75 256.083 218.75 255.917 218.75 255.75C219.564 255.188 220.314 254.521 221 253.75C222.133 251.76 223.216 249.76 224.25 247.75Z" fill="#3C3C3C"/>
<path fill-rule="evenodd" clip-rule="evenodd" d="M205.75 253.75C205.917 253.75 206.083 253.75 206.25 253.75C207.25 254.916 208.25 256.084 209.25 257.25C207.584 256.584 206.416 255.416 205.75 253.75Z" fill="#606060"/>
<path fill-rule="evenodd" clip-rule="evenodd" d="M175.75 247.75C176.628 248.276 176.962 249.11 176.75 250.25C175.95 253.355 175.616 256.522 175.75 259.75C175.241 256.066 175.241 252.399 175.75 248.75C174.704 249.803 173.538 250.636 172.25 251.25C173.263 249.903 174.431 248.737 175.75 247.75Z" fill="#BBBBBB"/>
<path fill-rule="evenodd" clip-rule="evenodd" d="M325.75 252.25C325.615 254.179 324.949 255.845 323.75 257.25C324.134 255.426 324.8 253.759 325.75 252.25Z" fill="#989898"/>
<path fill-rule="evenodd" clip-rule="evenodd" d="M218.75 255.75C218.75 255.917 218.75 256.083 218.75 256.25C217.892 257.012 216.892 257.513 215.75 257.75C216.573 256.837 217.574 256.17 218.75 255.75Z" fill="#858585"/>
<path fill-rule="evenodd" clip-rule="evenodd" d="M168.25 255.75C167.544 256.957 166.544 257.79 165.25 258.25C165.956 257.043 166.956 256.21 168.25 255.75Z" fill="#939393"/>
<path fill-rule="evenodd" clip-rule="evenodd" d="M209.25 257.25C210.013 257.213 210.514 257.547 210.75 258.25C209.987 258.286 209.486 257.953 209.25 257.25Z" fill="#636363"/>
<path fill-rule="evenodd" clip-rule="evenodd" d="M157.25 257.75C159.451 258.65 161.785 258.983 164.25 258.75C162.344 259.322 160.345 259.406 158.25 259C157.81 258.646 157.477 258.229 157.25 257.75Z" fill="#4C4C4C"/>
<path fill-rule="evenodd" clip-rule="evenodd" d="M267.25 256.75C267.962 257.758 268.295 258.924 268.25 260.25C267.538 259.242 267.205 258.076 267.25 256.75Z" fill="#777777"/>
<path fill-rule="evenodd" clip-rule="evenodd" d="M175.75 260.25C176.462 261.258 176.795 262.424 176.75 263.75C176.038 262.742 175.705 261.576 175.75 260.25Z" fill="#979797"/>
<path fill-rule="evenodd" clip-rule="evenodd" d="M237.25 260.25C236.924 262.743 235.757 264.742 233.75 266.25C234.918 264.246 236.085 262.246 237.25 260.25Z" fill="#8F8F8F"/>
<path fill-rule="evenodd" clip-rule="evenodd" d="M321.751 262.75C321.793 264.324 321.293 265.658 320.251 266.75C320.208 265.176 320.708 263.842 321.751 262.75Z" fill="#B3B3B3"/>
<path fill-rule="evenodd" clip-rule="evenodd" d="M269.251 263.75C270.038 264.551 270.371 265.551 270.251 266.75C269.464 265.949 269.13 264.949 269.251 263.75Z" fill="#8D8D8D"/>
<path fill-rule="evenodd" clip-rule="evenodd" d="M270.251 266.75C270.954 266.986 271.287 267.487 271.251 268.25C270.548 268.014 270.214 267.513 270.251 266.75Z" fill="#747474"/>
<path fill-rule="evenodd" clip-rule="evenodd" d="M233.75 266.25C233.396 268.788 232.395 270.955 230.75 272.75C231.372 270.375 232.372 268.208 233.75 266.25Z" fill="#959595"/>
<path fill-rule="evenodd" clip-rule="evenodd" d="M319.75 267.75C319.619 268.489 319.785 269.155 320.25 269.75C321.554 270.115 322.888 270.365 324.25 270.5C326.49 271.317 328.657 272.317 330.75 273.5C332.171 275.336 333.671 277.086 335.25 278.75C335.832 282.238 335.915 285.738 335.5 289.25C334.037 291.605 332.287 293.688 330.25 295.5C330.878 295.708 331.212 296.125 331.25 296.75C329.068 295.811 327.151 296.144 325.5 297.75C324.953 301.287 324.537 304.787 324.25 308.25C324.25 305.583 324.25 302.917 324.25 300.25C321.875 300.675 319.542 301.258 317.25 302C312.199 302.785 307.365 302.119 302.75 300C301.82 298.32 300.487 297.07 298.75 296.25C298.086 294.588 297.169 293.088 296 291.75C295.884 289.723 295.634 287.722 295.25 285.75C296.246 283.958 296.412 282.125 295.75 280.25C297.923 280.333 300.089 280.25 302.25 280C303.029 279.895 303.696 279.645 304.25 279.25C305.576 279.295 306.742 278.962 307.75 278.25C308.25 277.917 308.75 277.583 309.25 277.25C310.556 276.815 311.89 276.481 313.25 276.25C313.216 275.521 313.383 274.854 313.75 274.25C314.875 273.96 315.707 273.293 316.25 272.25C317.301 270.64 318.468 269.14 319.75 267.75Z" fill="#E3F4FD"/>
<path fill-rule="evenodd" clip-rule="evenodd" d="M316.25 272.25C315.707 273.293 314.875 273.96 313.75 274.25C314.293 273.207 315.125 272.54 316.25 272.25Z" fill="#889199"/>
<path fill-rule="evenodd" clip-rule="evenodd" d="M230.75 272.75C230.578 274.099 229.911 275.099 228.75 275.75C229.17 274.574 229.837 273.573 230.75 272.75Z" fill="#7C7C7C"/>
<path fill-rule="evenodd" clip-rule="evenodd" d="M180.25 271.75C181.634 275.638 184.134 278.638 187.75 280.75C188.456 281.957 189.456 282.79 190.75 283.25C190.977 283.729 191.31 284.146 191.75 284.5C196.341 286.942 201.174 287.859 206.25 287.25C208.353 287.142 210.353 286.808 212.25 286.25C212.417 286.25 212.584 286.25 212.75 286.25C213.783 286.241 214.783 286.075 215.75 285.75C215.105 286.467 214.272 286.968 213.25 287.25C214.295 299.463 208.545 305.63 196 305.75C191.323 305.602 186.739 304.852 182.25 303.5C180.676 302.363 179.01 301.363 177.25 300.5C176.036 298.368 174.536 296.452 172.75 294.75C169.382 285.934 171.799 279.268 180 274.75C180.248 273.763 180.331 272.763 180.25 271.75Z" fill="#E3F3FD"/>
<path fill-rule="evenodd" clip-rule="evenodd" d="M313.75 274.25C313.383 274.854 313.216 275.521 313.25 276.25C311.89 276.481 310.556 276.815 309.25 277.25C310.66 276.128 312.16 275.127 313.75 274.25Z" fill="#B2BCC4"/>
<path fill-rule="evenodd" clip-rule="evenodd" d="M278.75 275.75C279.513 275.713 280.014 276.047 280.25 276.75C279.487 276.786 278.986 276.453 278.75 275.75Z" fill="#6E6E6E"/>
<path fill-rule="evenodd" clip-rule="evenodd" d="M281.25 277.25C282.449 277.13 283.449 277.463 284.25 278.25C283.107 278.203 282.107 277.869 281.25 277.25Z" fill="#929292"/>
<path fill-rule="evenodd" clip-rule="evenodd" d="M228.75 275.75C227.916 277.584 226.584 278.916 224.75 279.75C225.916 278.25 227.25 276.916 228.75 275.75Z" fill="#AEAEAE"/>
<path fill-rule="evenodd" clip-rule="evenodd" d="M307.75 278.25C306.742 278.962 305.576 279.295 304.25 279.25C305.258 278.538 306.424 278.205 307.75 278.25Z" fill="#787B7E"/>
<path fill-rule="evenodd" clip-rule="evenodd" d="M287.25 278.75C288.576 278.705 289.742 279.038 290.75 279.75C289.424 279.795 288.258 279.462 287.25 278.75Z" fill="#7E7E7E"/>
<path fill-rule="evenodd" clip-rule="evenodd" d="M304.25 279.25C303.696 279.645 303.029 279.895 302.25 280C300.089 280.25 297.923 280.333 295.75 280.25C294.308 280.403 292.974 280.236 291.75 279.75C295.929 279.81 300.095 279.644 304.25 279.25Z" fill="#A8AEB3"/>
<path fill-rule="evenodd" clip-rule="evenodd" d="M187.75 280.75C189.044 281.21 190.044 282.043 190.75 283.25C189.456 282.79 188.456 281.957 187.75 280.75Z" fill="#495053"/>
<path fill-rule="evenodd" clip-rule="evenodd" d="M217.75 284.75C217.243 285.337 216.576 285.67 215.75 285.75C214.783 286.075 213.783 286.241 212.75 286.25C214.253 285.362 215.919 284.862 217.75 284.75Z" fill="#818284"/>
<path fill-rule="evenodd" clip-rule="evenodd" d="M274.749 285.25C277.528 286.802 278.361 289.135 277.249 292.25C276.546 292.486 276.213 292.986 276.249 293.75C275.024 294.814 274.191 296.148 273.749 297.75C273.046 297.986 272.713 298.486 272.749 299.25C272.046 299.486 271.713 299.986 271.749 300.75C270.273 301.892 268.94 303.226 267.749 304.75C265.95 305.172 264.116 305.338 262.249 305.25C261.242 304.538 260.075 304.205 258.749 304.25C256.33 303.413 253.997 302.329 251.749 301C248.526 301.502 246.193 300.419 244.749 297.75C244.668 296.571 244.751 295.405 244.999 294.25C245.853 293.481 246.603 292.648 247.249 291.75C249.829 291.591 252.329 291.924 254.749 292.75C255.754 293.532 256.921 294.032 258.249 294.25C258.486 294.953 258.986 295.286 259.749 295.25C261.201 296.159 262.701 296.325 264.249 295.75C265.41 295.099 266.077 294.099 266.249 292.75C267.465 291.977 268.131 290.81 268.249 289.25C269.223 288.105 270.223 286.939 271.249 285.75C272.371 285.263 273.537 285.096 274.749 285.25Z" fill="#080808"/>
<path fill-rule="evenodd" clip-rule="evenodd" d="M212.25 286.25C210.352 286.809 208.352 287.142 206.25 287.25C208.105 286.432 210.105 286.099 212.25 286.25Z" fill="#656768"/>
<path fill-rule="evenodd" clip-rule="evenodd" d="M274.75 285.25C273.538 285.096 272.372 285.263 271.25 285.75C270.224 286.939 269.224 288.106 268.25 289.25C269.175 285.617 271.342 284.283 274.75 285.25Z" fill="#8B8B8B"/>
<path fill-rule="evenodd" clip-rule="evenodd" d="M246.75 291.75C248.656 291.178 250.655 291.094 252.75 291.5C253.66 291.6 254.326 292.017 254.75 292.75C252.329 291.924 249.829 291.591 247.25 291.75C247.083 291.75 246.917 291.75 246.75 291.75Z" fill="#A3A3A3"/>
<path fill-rule="evenodd" clip-rule="evenodd" d="M268.25 289.25C268.132 290.811 267.465 291.977 266.25 292.75C266.539 291.334 267.206 290.168 268.25 289.25Z" fill="#606060"/>
<path fill-rule="evenodd" clip-rule="evenodd" d="M254.75 292.75C256.245 292.583 257.412 293.083 258.25 294.25C256.921 294.033 255.755 293.533 254.75 292.75Z" fill="#ABABAB"/>
<path fill-rule="evenodd" clip-rule="evenodd" d="M277.251 292.25C277.287 293.013 276.954 293.514 276.251 293.75C276.214 292.987 276.548 292.486 277.251 292.25Z" fill="#8D8D8D"/>
<path fill-rule="evenodd" clip-rule="evenodd" d="M258.25 294.25C258.804 294.279 259.305 294.445 259.75 294.75C259.75 294.917 259.75 295.083 259.75 295.25C258.987 295.286 258.486 294.953 258.25 294.25Z" fill="#656565"/>
<path fill-rule="evenodd" clip-rule="evenodd" d="M266.25 292.75C266.078 294.099 265.411 295.099 264.25 295.75C264.25 295.583 264.25 295.417 264.25 295.25C264.802 294.305 265.469 293.473 266.25 292.75Z" fill="#606060"/>
<path fill-rule="evenodd" clip-rule="evenodd" d="M276.25 293.75C275.808 295.352 274.975 296.686 273.75 297.75C274.192 296.148 275.025 294.814 276.25 293.75Z" fill="#6F6F6F"/>
<path fill-rule="evenodd" clip-rule="evenodd" d="M246.749 291.75C246.916 291.75 247.083 291.75 247.249 291.75C246.603 292.648 245.853 293.482 244.999 294.25C244.751 295.405 244.668 296.571 244.749 297.75C243.656 295.193 244.323 293.193 246.749 291.75Z" fill="#6F6F6F"/>
<path fill-rule="evenodd" clip-rule="evenodd" d="M259.75 295.25C259.75 295.083 259.75 294.917 259.75 294.75C261.241 294.981 262.741 295.148 264.25 295.25C264.25 295.417 264.25 295.583 264.25 295.75C262.702 296.326 261.202 296.159 259.75 295.25Z" fill="#A5A5A5"/>
<path fill-rule="evenodd" clip-rule="evenodd" d="M331.249 296.75C331.535 297.487 331.952 298.154 332.499 298.75C332.638 307.093 332.388 315.426 331.749 323.75C331.605 327.94 331.355 332.106 330.999 336.25C333.732 339.045 335.065 342.379 334.999 346.25C333.993 348.251 332.409 349.001 330.249 348.5C328.183 345.613 325.35 344.197 321.749 344.25C320.406 344.332 319.072 344.249 317.749 344C313.925 340.198 314.591 337.448 319.749 335.75C320.346 335.515 320.679 335.015 320.749 334.25C321.047 332.93 321.213 331.597 321.249 330.25C321.961 329.243 322.294 328.076 322.249 326.75C322.957 320.919 323.624 315.086 324.249 309.25C324.249 308.917 324.249 308.584 324.249 308.25C324.536 304.787 324.952 301.287 325.499 297.75C327.15 296.144 329.067 295.811 331.249 296.75Z" fill="#07080A"/>
<path fill-rule="evenodd" clip-rule="evenodd" d="M172.25 298.25C170.775 298.144 169.441 298.477 168.25 299.25C169.308 297.742 170.641 297.408 172.25 298.25Z" fill="#646464"/>
<path fill-rule="evenodd" clip-rule="evenodd" d="M172.251 298.25C172.766 298.624 173.35 298.957 174.001 299.25C176.858 306.132 180.358 312.632 184.501 318.75C188.62 323.863 193.703 325.113 199.751 322.5C202.983 320.8 206.15 318.966 209.251 317C209.654 314.458 209.904 311.875 210.001 309.25C210.189 308.529 210.606 308.029 211.251 307.75C212.383 307.39 213.549 307.224 214.751 307.25C215.686 307.429 216.436 307.929 217.001 308.75C217.458 309.832 218.041 310.832 218.751 311.75C221.057 312.139 223.391 312.389 225.751 312.5C229.325 314.371 229.658 316.704 226.751 319.5C225.313 319.719 223.979 320.219 222.751 321C220.894 321.202 219.061 321.202 217.251 321C214.447 322.638 211.78 324.471 209.251 326.5C205.698 328.443 202.031 330.11 198.251 331.5C195.446 332.192 192.613 332.358 189.751 332C187.665 331.206 185.665 330.289 183.751 329.25C178.129 323.498 173.629 316.998 170.251 309.75C169.211 307.836 168.295 305.836 167.501 303.75C167.035 302.088 167.285 300.588 168.251 299.25C169.442 298.477 170.775 298.143 172.251 298.25Z" fill="#09090A"/>
<path fill-rule="evenodd" clip-rule="evenodd" d="M273.751 297.75C273.787 298.513 273.454 299.014 272.751 299.25C272.714 298.487 273.048 297.986 273.751 297.75Z" fill="#767676"/>
<path fill-rule="evenodd" clip-rule="evenodd" d="M271.75 300.75C270.906 302.594 269.572 303.928 267.75 304.75C268.941 303.226 270.274 301.893 271.75 300.75Z" fill="#9A9A9A"/>
<path fill-rule="evenodd" clip-rule="evenodd" d="M258.75 304.25C260.076 304.205 261.242 304.538 262.25 305.25C260.924 305.295 259.758 304.962 258.75 304.25Z" fill="#707070"/>
<path fill-rule="evenodd" clip-rule="evenodd" d="M214.75 307.25C213.548 307.224 212.382 307.39 211.25 307.75C211.656 307.003 212.322 306.67 213.25 306.75C213.863 306.76 214.363 306.926 214.75 307.25Z" fill="#414141"/>
<path fill-rule="evenodd" clip-rule="evenodd" d="M324.25 309.25C323.625 315.085 322.958 320.918 322.25 326.75C321.538 327.758 321.205 328.924 321.25 330.25C321.214 331.597 321.048 332.93 320.75 334.25C320.68 335.015 320.346 335.515 319.75 335.75C319.77 334.288 319.354 332.954 318.5 331.75C317.084 330.334 315.666 328.916 314.25 327.5C311.976 326.386 309.809 325.136 307.75 323.75C314.052 319.778 319.552 314.945 324.25 309.25Z" fill="#8AD1F1"/>
<path fill-rule="evenodd" clip-rule="evenodd" d="M322.25 326.75C322.295 328.076 321.962 329.242 321.25 330.25C321.205 328.924 321.538 327.758 322.25 326.75Z" fill="#375361"/>
</svg>
