<svg width="500" height="500" viewBox="0 0 500 500" fill="none" xmlns="http://www.w3.org/2000/svg">
<path fill-rule="evenodd" clip-rule="evenodd" d="M317.5 105.5C313.971 102.469 310.638 99.3028 307.5 96.0001C309.68 89.1355 313.013 82.9688 317.5 77.5001C322.909 70.9287 328.409 70.9287 334 77.5001C336.788 81.6696 337.121 86.003 335 90.5001C329.294 95.71 323.461 100.71 317.5 105.5Z" fill="#C32B28"/>
<path fill-rule="evenodd" clip-rule="evenodd" d="M214.501 115.5C210.398 122.94 206.564 130.607 203.001 138.5C201.678 143.753 200.844 149.086 200.501 154.5C199.524 157.287 199.191 160.287 199.501 163.5C186.956 164.608 175.956 169.275 166.501 177.5C168.265 167.27 168.932 156.937 168.501 146.5C160.904 145.96 153.904 147.793 147.501 152C142.233 153.45 138.733 151.617 137.001 146.5C132.317 138.323 133.817 131.823 141.501 127C146.797 124.461 152.131 122.128 157.501 120C160.758 118.957 164.091 118.457 167.501 118.5C166.2 111.128 164.2 103.961 161.501 97.0001C166.477 85.5829 175.31 80.0829 188.001 80.5001C191.553 80.6411 195.053 81.1411 198.501 82.0001C199.334 82.8334 200.168 83.6668 201.001 84.5001C205.002 95.1569 209.502 105.49 214.501 115.5Z" fill="#7E415F"/>
<path fill-rule="evenodd" clip-rule="evenodd" d="M340.501 159.5C332.778 162.865 325.445 167.031 318.501 172C315.001 174.334 312.001 177.168 309.501 180.5C307.141 182.713 305.307 185.379 304.001 188.5C303.182 193.141 301.682 197.474 299.501 201.5C293.816 210.024 286.149 216.191 276.501 220C264.415 221.862 254.582 218.028 247.001 208.5C245.525 203.924 245.191 199.257 246.001 194.5C251.001 184.167 256.001 173.833 261.001 163.5C261.276 157.68 262.276 152.013 264.001 146.5C264.697 143.562 265.863 140.896 267.501 138.5C272.267 140.452 277.101 142.118 282.001 143.5C287.266 142.618 291.766 140.284 295.501 136.5C302.184 133.77 308.851 130.937 315.501 128C321.618 126.707 327.618 125.54 333.501 124.5C344.435 122.893 355.435 122.393 366.501 123C369.197 123.69 371.364 125.19 373.001 127.5C373.668 134.167 373.668 140.833 373.001 147.5C372.536 148.931 371.702 150.097 370.501 151C364.969 152.726 359.302 153.726 353.501 154C349.078 155.885 344.745 157.719 340.501 159.5Z" fill="#7E415F"/>
<path fill-rule="evenodd" clip-rule="evenodd" d="M295.5 136.5C291.765 140.284 287.265 142.618 282 143.5C277.1 142.118 272.266 140.452 267.5 138.5C273.51 129.274 281.51 126.941 291.5 131.5C292.887 133.21 294.221 134.877 295.5 136.5Z" fill="#FCA192"/>
<path fill-rule="evenodd" clip-rule="evenodd" d="M200.5 154.5C200.335 158.182 200.501 161.848 201 165.5C209.694 172.197 217.027 180.197 223 189.5C227.384 192.217 230.718 195.884 233 200.5C232.88 206.465 231.213 212.132 228 217.5C222.256 222.573 217.256 228.24 213 234.5C198.642 247.859 184.642 261.525 171 275.5C164.392 284.715 159.392 294.715 156 305.5C152.688 309.792 148.855 310.459 144.5 307.5C141.949 305.422 140.116 302.756 139 299.5C136.048 290.312 133.714 280.978 132 271.5C131.333 266.167 131.333 260.833 132 255.5C133.992 244.604 135.158 233.604 135.5 222.5C131.298 222.817 127.298 222.483 123.5 221.5C128.099 221.2 132.599 221.533 137 222.5C138.538 217.385 140.372 212.385 142.5 207.5C138.018 206.833 133.684 206.166 129.5 205.5C134.214 205.827 138.88 205.493 143.5 204.5C144.559 202.466 145.559 200.466 146.5 198.5C149.768 194.729 153.268 191.062 157 187.5C157.483 186.552 157.649 185.552 157.5 184.5C161.363 183.306 164.363 180.973 166.5 177.5C175.955 169.275 186.955 164.608 199.5 163.5C199.19 160.287 199.523 157.287 200.5 154.5Z" fill="#F06165"/>
<path fill-rule="evenodd" clip-rule="evenodd" d="M340.5 159.5C340.387 164.518 340.053 169.518 339.5 174.5C338.601 175.472 337.434 176.138 336 176.5C326.479 174.065 317.812 175.732 310 181.5C309.601 181.272 309.435 180.938 309.5 180.5C312 177.168 315 174.334 318.5 172C325.444 167.031 332.777 162.865 340.5 159.5Z" fill="#E7433F"/>
<path fill-rule="evenodd" clip-rule="evenodd" d="M157.499 184.5C157.648 185.552 157.482 186.552 156.999 187.5C153.267 191.062 149.767 194.729 146.499 198.5C138.091 194.537 130.591 189.203 123.999 182.5C123.358 175.123 126.691 170.456 133.999 168.5C136.789 169.094 139.289 170.261 141.499 172C146.681 176.417 152.015 180.583 157.499 184.5Z" fill="#E7433F"/>
<path fill-rule="evenodd" clip-rule="evenodd" d="M339.5 174.5C342.425 178.091 345.758 181.425 349.5 184.5C352.929 189.019 356.596 193.352 360.5 197.5C362.239 200.243 364.573 202.243 367.5 203.5C368.306 206.285 368.972 209.119 369.5 212C368.182 219.841 363.515 223.007 355.5 221.5C352.5 221.5 349.5 221.5 346.5 221.5C337.17 222.167 327.837 222.333 318.5 222C308.006 218.685 301.673 211.852 299.5 201.5C301.681 197.474 303.181 193.141 304 188.5C305.306 185.379 307.14 182.713 309.5 180.5C309.435 180.938 309.601 181.272 310 181.5C317.812 175.732 326.479 174.065 336 176.5C337.434 176.138 338.601 175.472 339.5 174.5Z" fill="#F06165"/>
<path fill-rule="evenodd" clip-rule="evenodd" d="M360.5 197.5C356.596 193.352 352.929 189.019 349.5 184.5C354.074 180.549 359.407 178.216 365.5 177.5C373.502 179.246 375.668 183.912 372 191.5C368.523 194.134 364.69 196.134 360.5 197.5Z" fill="#E7433F"/>
<path fill-rule="evenodd" clip-rule="evenodd" d="M367.5 203.5C371.514 203.334 375.514 203.501 379.5 204C380.416 204.374 381.25 204.874 382 205.5C383.438 214.562 379.604 218.562 370.5 217.5C370.878 219.921 371.545 222.254 372.5 224.5C366.803 223.117 361.137 222.117 355.5 221.5C363.515 223.007 368.182 219.841 369.5 212C368.972 209.119 368.306 206.285 367.5 203.5Z" fill="#E7443F"/>
<path fill-rule="evenodd" clip-rule="evenodd" d="M129.5 205.5C133.684 206.166 138.018 206.833 142.5 207.5C140.372 212.385 138.538 217.385 137 222.5C132.599 221.533 128.099 221.2 123.5 221.5C120.548 220.641 118.715 218.641 118 215.5C116.542 211.219 117.708 208.053 121.5 206C124.146 205.503 126.813 205.336 129.5 205.5Z" fill="#E7433F"/>
<path fill-rule="evenodd" clip-rule="evenodd" d="M346.5 221.5C349.5 221.5 352.5 221.5 355.5 221.5C361.137 222.117 366.803 223.117 372.5 224.5C372.5 224.833 372.5 225.167 372.5 225.5C372.67 226.822 372.337 227.989 371.5 229C360.167 229.333 348.833 229.667 337.5 230C331.772 231.262 326.439 233.428 321.5 236.5C320.384 239.124 319.384 241.79 318.5 244.5C320.421 247.344 319.754 249.011 316.5 249.5C312.761 248.697 309.095 247.697 305.5 246.5C306.953 245.175 306.619 244.342 304.5 244C310.751 233.7 319.751 227.033 331.5 224C336.788 223.988 341.788 223.155 346.5 221.5Z" fill="#DC312B"/>
<path fill-rule="evenodd" clip-rule="evenodd" d="M317.5 77.5C313.013 82.9687 309.68 89.1354 307.5 96C310.638 99.3027 313.971 102.469 317.5 105.5C320.499 109.332 323.999 112.665 328 115.5C330.358 118.222 332.191 121.222 333.5 124.5C327.617 125.54 321.617 126.707 315.5 128C308.85 130.937 302.183 133.77 295.5 136.5C294.221 134.877 292.887 133.21 291.5 131.5C281.51 126.941 273.51 129.274 267.5 138.5C265.862 140.896 264.696 143.562 264 146.5C262.275 152.013 261.275 157.68 261 163.5C256 173.833 251 184.167 246 194.5C245.19 199.257 245.524 203.924 247 208.5C254.581 218.028 264.414 221.862 276.5 220C286.148 216.191 293.815 210.024 299.5 201.5C301.673 211.852 308.006 218.685 318.5 222C327.837 222.333 337.17 222.167 346.5 221.5C341.788 223.155 336.788 223.988 331.5 224C319.751 227.033 310.751 233.7 304.5 244C306.619 244.342 306.953 245.175 305.5 246.5C299.444 244.971 293.277 243.971 287 243.5C273.847 244.247 260.68 244.747 247.5 245C227.511 246.917 210.011 254.417 195 267.5C192.228 271.388 189.728 275.388 187.5 279.5C183.817 283.025 180.65 287.025 178 291.5C177.037 295.149 177.537 298.482 179.5 301.5C184.475 321.31 196.809 334.144 216.5 340C223.47 341.161 230.47 341.995 237.5 342.5C238.141 343.482 238.807 344.482 239.5 345.5C235.674 354.247 229.007 358.08 219.5 357C214.231 355.363 209.231 353.197 204.5 350.5C201.508 350.98 200.341 352.647 201 355.5C211.956 364.697 223.79 366.197 236.5 360C241.02 356.464 244.186 351.964 246 346.5C248.167 345.512 250 344.179 251.5 342.5C263.542 341.995 275.542 340.995 287.5 339.5C287.678 340.695 288.011 341.862 288.5 343C282.086 348.512 277.42 355.178 274.5 363C275.105 365.801 276.771 366.801 279.5 366C282.455 359.34 286.788 354.507 292.5 351.5C294.921 355.34 297.088 359.34 299 363.5C299.711 372.184 299.545 380.851 298.5 389.5C298.655 394.75 300.822 395.75 305 392.5C306.398 383.203 306.732 373.87 306 364.5C303.729 358.067 301.229 351.734 298.5 345.5C298.667 344.5 298.833 343.5 299 342.5C301.049 341.286 302.549 339.62 303.5 337.5C303.842 336.662 304.508 336.328 305.5 336.5C307.075 338.941 309.408 340.107 312.5 340C316.5 343.333 320.5 346.667 324.5 350C332.679 350.321 338.845 346.821 343 339.5C346.02 336.377 347.02 332.71 346 328.5C345.282 327.549 344.449 327.383 343.5 328C340.04 335.126 334.874 340.626 328 344.5C324.101 342.607 320.768 339.941 318 336.5C317.235 334.934 317.402 333.601 318.5 332.5C344.415 321.666 353.415 302.666 345.5 275.5C347.604 275.799 349.604 275.466 351.5 274.5C352.428 273.232 352.595 271.899 352 270.5C345.06 266.948 338.227 263.281 331.5 259.5C327.016 255.422 322.016 252.089 316.5 249.5C319.754 249.011 320.421 247.344 318.5 244.5C319.384 241.79 320.384 239.124 321.5 236.5C326.439 233.428 331.772 231.262 337.5 230C348.833 229.667 360.167 229.333 371.5 229C372.337 227.989 372.67 226.822 372.5 225.5C383.871 254.782 383.038 283.782 370 312.5C362.047 326.079 354.38 339.746 347 353.5C342.491 368.53 337.825 383.53 333 398.5C327.572 408.047 320.738 416.38 312.5 423.5C310.297 423.604 308.297 424.27 306.5 425.5C287.45 434.48 268.117 434.813 248.5 426.5C246.337 424.917 244.004 423.584 241.5 422.5C231.62 418.892 222.62 413.726 214.5 407C194.004 389.51 177.171 369.01 164 345.5C156.67 333.172 150.17 320.505 144.5 307.5C148.855 310.459 152.688 309.792 156 305.5C159.392 294.715 164.392 284.715 171 275.5C184.642 261.525 198.642 247.859 213 234.5C217.256 228.24 222.256 222.573 228 217.5C231.213 212.132 232.88 206.465 233 200.5C230.718 195.884 227.384 192.217 223 189.5C217.027 180.197 209.694 172.197 201 165.5C200.501 161.848 200.335 158.182 200.5 154.5C200.843 149.086 201.677 143.753 203 138.5C206.563 130.607 210.397 122.94 214.5 115.5C220.14 107.695 226.973 101.028 235 95.5C233.84 83.5451 233.174 71.5451 233 59.5C236.315 56.1758 240.315 54.1758 245 53.5C247.406 53.7029 249.406 54.7029 251 56.5C253.984 65.1427 256.984 73.8094 260 82.5C260.347 84.1802 261.347 85.1802 263 85.5C271.131 84.7114 279.298 84.2114 287.5 84C292.395 75.7703 298.062 68.1036 304.5 61C317.353 59.3507 321.353 64.5174 316.5 76.5C316.624 77.1067 316.957 77.44 317.5 77.5Z" fill="#E7433E"/>
<path fill-rule="evenodd" clip-rule="evenodd" d="M179.501 301.5C177.538 298.482 177.038 295.149 178.001 291.5C180.651 287.025 183.818 283.025 187.501 279.5C194.482 274.003 202.149 269.503 210.501 266C218.556 265.178 226.556 265.512 234.501 267C236.9 267.731 239.066 268.898 241.001 270.5C243.794 276.748 247.127 282.748 251.001 288.5C251.908 304.186 245.408 315.686 231.501 323C213.764 327.379 201.93 320.879 196.001 303.5C195.668 298.833 195.334 294.167 195.001 289.5C191.951 293.095 188.785 296.595 185.501 300C183.656 301.128 181.656 301.628 179.501 301.5Z" fill="#050405"/>
<path fill-rule="evenodd" clip-rule="evenodd" d="M229.499 273.5C235.572 274.577 238.906 278.244 239.499 284.5C238.618 293.228 233.951 297.394 225.499 297C218.912 291.517 218.079 285.351 222.999 278.5C224.964 276.45 227.131 274.783 229.499 273.5Z" fill="#F4F4F5"/>
<path fill-rule="evenodd" clip-rule="evenodd" d="M331.5 259.5C338.227 263.281 345.06 266.948 352 270.5C352.595 271.899 352.428 273.232 351.5 274.5C349.604 275.466 347.604 275.799 345.5 275.5C341.147 275.329 337.147 273.995 333.5 271.5C334.108 283.858 331.108 295.358 324.5 306C316.668 312.369 307.668 314.702 297.5 313C288.114 311.281 282.281 305.781 280 296.5C279.057 291.838 278.224 287.172 277.5 282.5C277.981 271.032 282.981 262.198 292.5 256C295.833 255.833 299.167 255.667 302.5 255.5C312.322 256.067 321.989 257.401 331.5 259.5Z" fill="#040404"/>
<path fill-rule="evenodd" clip-rule="evenodd" d="M293.5 263.5C297.594 262.705 300.761 264.038 303 267.5C303.25 272.514 302.916 277.514 302 282.5C298.662 285.318 294.829 286.151 290.5 285C288.767 282.725 286.933 280.558 285 278.5C284.333 276.167 284.333 273.833 285 271.5C288.003 268.933 290.836 266.266 293.5 263.5Z" fill="#F7F7F7"/>
<path fill-rule="evenodd" clip-rule="evenodd" d="M305.5 246.5C309.095 247.697 312.761 248.697 316.5 249.5C322.016 252.089 327.016 255.422 331.5 259.5C321.989 257.401 312.322 256.067 302.5 255.5C299.167 255.667 295.833 255.833 292.5 256C282.981 262.198 277.981 271.032 277.5 282.5C278.224 287.172 279.057 291.838 280 296.5C282.281 305.781 288.114 311.281 297.5 313C307.668 314.702 316.668 312.369 324.5 306C331.108 295.358 334.108 283.858 333.5 271.5C337.147 273.995 341.147 275.329 345.5 275.5C353.415 302.666 344.415 321.666 318.5 332.5C318.504 328.395 316.504 326.895 312.5 328C312.053 331.564 310.053 333.564 306.5 334C305.748 334.671 305.414 335.504 305.5 336.5C304.508 336.328 303.842 336.662 303.5 337.5C298.167 338.167 292.833 338.833 287.5 339.5C275.542 340.995 263.542 341.995 251.5 342.5C251.67 341.178 251.337 340.011 250.5 339C247.965 338.383 245.632 338.883 243.5 340.5C241.992 337.582 239.825 336.916 237 338.5C236.421 339.928 236.588 341.262 237.5 342.5C230.47 341.995 223.47 341.161 216.5 340C196.809 334.144 184.475 321.31 179.5 301.5C181.655 301.628 183.655 301.128 185.5 300C188.784 296.595 191.95 293.095 195 289.5C195.333 294.167 195.667 298.833 196 303.5C201.929 320.879 213.763 327.379 231.5 323C245.407 315.686 251.907 304.186 251 288.5C247.126 282.748 243.793 276.748 241 270.5C239.065 268.898 236.899 267.731 234.5 267C226.555 265.512 218.555 265.178 210.5 266C202.148 269.503 194.481 274.003 187.5 279.5C189.728 275.388 192.228 271.388 195 267.5C210.011 254.417 227.511 246.917 247.5 245C260.68 244.747 273.847 244.247 287 243.5C293.277 243.971 299.444 244.971 305.5 246.5Z" fill="#FBFAFA"/>
<path fill-rule="evenodd" clip-rule="evenodd" d="M283.499 319.5C287.197 318.68 289.53 320.013 290.499 323.5C288.981 328.705 286.315 333.205 282.499 337C279.633 338.457 276.633 338.79 273.499 338C269.455 336.057 265.288 334.557 260.999 333.5C260.241 331.231 260.408 329.064 261.499 327C267.206 327.354 272.872 328.021 278.499 329C280.319 325.859 281.985 322.692 283.499 319.5Z" fill="#0C0C0C"/>
<path fill-rule="evenodd" clip-rule="evenodd" d="M318.5 332.5C317.402 333.601 317.235 334.934 318 336.5C320.768 339.941 324.101 342.607 328 344.5C334.874 340.626 340.04 335.126 343.5 328C344.449 327.383 345.282 327.549 346 328.5C347.02 332.71 346.02 336.377 343 339.5C338.845 346.821 332.679 350.321 324.5 350C320.5 346.667 316.5 343.333 312.5 340C309.408 340.107 307.075 338.941 305.5 336.5C305.414 335.504 305.748 334.671 306.5 334C310.053 333.564 312.053 331.564 312.5 328C316.504 326.895 318.504 328.395 318.5 332.5Z" fill="#0C0606"/>
<path fill-rule="evenodd" clip-rule="evenodd" d="M251.501 342.5C250.001 344.179 248.168 345.512 246.001 346.5C244.187 351.964 241.021 356.464 236.501 360C223.791 366.197 211.957 364.697 201.001 355.5C200.342 352.647 201.509 350.98 204.501 350.5C209.232 353.197 214.232 355.363 219.501 357C229.008 358.08 235.675 354.247 239.501 345.5C238.808 344.482 238.142 343.482 237.501 342.5C236.589 341.262 236.422 339.928 237.001 338.5C239.826 336.916 241.993 337.582 243.501 340.5C245.633 338.883 247.966 338.383 250.501 339C251.338 340.011 251.671 341.178 251.501 342.5Z" fill="#0C0504"/>
<path fill-rule="evenodd" clip-rule="evenodd" d="M303.5 337.5C302.549 339.62 301.049 341.286 299 342.5C298.833 343.5 298.667 344.5 298.5 345.5C301.229 351.734 303.729 358.067 306 364.5C306.732 373.87 306.398 383.203 305 392.5C300.822 395.75 298.655 394.75 298.5 389.5C299.545 380.851 299.711 372.184 299 363.5C297.088 359.34 294.921 355.34 292.5 351.5C286.788 354.507 282.455 359.34 279.5 366C276.771 366.801 275.105 365.801 274.5 363C277.42 355.178 282.086 348.512 288.5 343C288.011 341.862 287.678 340.695 287.5 339.5C292.833 338.833 298.167 338.167 303.5 337.5Z" fill="#DC312B"/>
<path fill-rule="evenodd" clip-rule="evenodd" d="M241.5 422.5C244.004 423.584 246.337 424.917 248.5 426.5C248.334 431.179 248.501 435.845 249 440.5C254.333 438.167 256.333 439.833 255 445.5C251.621 447.923 248.121 448.09 244.5 446C242.054 438.393 241.054 430.56 241.5 422.5Z" fill="#140D0B"/>
<path fill-rule="evenodd" clip-rule="evenodd" d="M312.5 423.5C312.334 428.179 312.501 432.845 313 437.5C315.782 435.989 317.615 436.822 318.5 440C318.18 441.653 317.18 442.653 315.5 443C312.571 443.777 309.737 443.61 307 442.5C306.501 436.843 306.334 431.176 306.5 425.5C308.297 424.27 310.297 423.604 312.5 423.5Z" fill="#140D0B"/>
</svg>
