<svg width="500" height="500" viewBox="0 0 500 500" fill="none" xmlns="http://www.w3.org/2000/svg">
<path fill-rule="evenodd" clip-rule="evenodd" d="M274.5 357.5C266.771 359.681 259.104 362.015 251.5 364.5C245.216 363 238.883 361 232.5 358.5C220.685 360.244 209.018 359.577 197.5 356.5C193.861 354.955 190.027 353.621 186 352.5C179.255 355.137 172.422 357.47 165.5 359.5C160.285 358.558 155.952 356.058 152.5 352C134.835 349.665 124.335 339.831 121 322.5C114.501 318.421 108.834 313.421 104 307.5C102.53 303.622 101.697 299.622 101.5 295.5C100.96 291.358 100.294 287.358 99.5 283.5C99.6107 282.883 99.944 282.383 100.5 282C86.8363 263.229 86.1696 244.063 98.5 224.5C97.0059 217.422 97.1726 210.422 99 203.5C104.142 192.031 111.809 182.698 122 175.5C120.905 163.84 124.739 154.006 133.5 146C144.119 136.86 156.452 131.86 170.5 131C175.519 123.477 182.186 117.81 190.5 114C207.096 107.994 224.096 106.828 241.5 110.5C245.008 107.82 249.008 105.987 253.5 105C262.847 103.99 272.014 104.823 281 107.5C285.68 107.385 289.847 105.885 293.5 103C300.167 102.333 306.833 102.333 313.5 103C319.942 105.055 326.275 107.388 332.5 110C335.726 111.106 338.393 112.939 340.5 115.5C366.556 116.605 386.723 127.939 401 149.5C403.541 154.624 405.374 159.958 406.5 165.5C419.127 171.344 427.627 181.01 432 194.5C433.124 200.103 433.79 205.769 434 211.5C438.303 216.438 441.303 222.104 443 228.5C443.667 237.5 443.667 246.5 443 255.5C440.586 262.909 438.086 270.242 435.5 277.5C443.322 297.282 441.488 316.282 430 334.5C423.22 342.308 414.72 347.141 404.5 349C385.352 365.781 364.018 369.448 340.5 360C339.953 359.075 339.287 358.242 338.5 357.5C324.307 362.932 309.64 364.765 294.5 363C289.123 361.158 284.123 358.658 279.5 355.5C277.925 356.456 276.258 357.123 274.5 357.5Z" fill="#FDA598"/>
<path fill-rule="evenodd" clip-rule="evenodd" d="M302.501 301.5C311.54 290.036 314.873 277.036 312.501 262.5C315.222 261.304 316.388 259.304 316.001 256.5C312.933 253.917 309.766 251.584 306.501 249.5C306.939 249.565 307.273 249.399 307.501 249C306.282 246.722 304.949 244.555 303.501 242.5C306.064 240.388 307.897 237.721 309.001 234.5C316.706 211.902 312.54 191.735 296.501 174C290.313 172.158 287.813 174.324 289.001 180.5C303.441 196.837 306.274 214.837 297.501 234.5C288.812 229.464 280.146 224.464 271.501 219.5C268.146 212.98 263.312 207.98 257.001 204.5C251.607 206.296 250.44 209.63 253.501 214.5C249.303 213.099 244.969 212.265 240.501 212C219.78 211.035 199.113 211.701 178.501 214C170.969 216.01 163.636 218.51 156.501 221.5C155.464 219.262 155.298 216.929 156.001 214.5C158.34 211.824 160.173 208.824 161.501 205.5C167.783 198.388 175.117 192.555 183.501 188C199.182 181.325 215.515 178.659 232.501 180C236.073 181.155 239.74 181.988 243.501 182.5C249.845 179.546 250.178 175.712 244.501 171C232.255 168.743 219.921 168.076 207.501 169C199.934 170.147 192.601 171.813 185.501 174C196.222 159.666 209.555 148.666 225.501 141C253.498 131.758 278.831 136.425 301.501 155C307.099 156.263 309.599 154.096 309.001 148.5C304.069 143.565 298.569 139.399 292.501 136C283.258 132.21 273.925 128.71 264.501 125.5C267.457 123.904 270.457 122.404 273.501 121C306.705 115.621 333.372 126.288 353.501 153C354.834 153.667 356.168 154.333 357.501 155C353.398 159.536 353.898 163.703 359.001 167.5C360.288 178.071 359.121 188.237 355.501 198C351.739 199.881 348.072 201.714 344.501 203.5C341.805 190.285 335.139 179.452 324.501 171C316.813 168.191 314.313 170.691 317.001 178.5C328.342 187.353 335.175 198.853 337.501 213C332.102 225.551 328.935 238.717 328.001 252.5C324.569 256.364 321.902 260.698 320.001 265.5C318.251 273.223 316.584 280.889 315.001 288.5C313.057 292.11 310.724 295.443 308.001 298.5C306.737 300.607 304.904 301.607 302.501 301.5Z" fill="#FDC3BF"/>
<path fill-rule="evenodd" clip-rule="evenodd" d="M206.5 120.5C216.839 120.334 227.172 120.5 237.5 121C240.445 122.484 243.445 123.818 246.5 125C237.482 125.47 228.816 127.47 220.5 131C214.54 134.563 208.373 137.73 202 140.5C196.087 137.793 190.254 134.96 184.5 132C186.028 129.76 188.028 128.093 190.5 127C195.944 124.821 201.278 122.654 206.5 120.5Z" fill="#FEC3BE"/>
<path fill-rule="evenodd" clip-rule="evenodd" d="M163.5 143.5C169.842 143.334 176.175 143.5 182.5 144C186.237 145.268 189.57 147.101 192.5 149.5C189.909 151.38 187.409 153.38 185 155.5C178.25 148.694 170.083 145.194 160.5 145C161.737 144.768 162.737 144.268 163.5 143.5Z" fill="#FDC3BE"/>
<path fill-rule="evenodd" clip-rule="evenodd" d="M153.5 146.5C154.552 146.351 155.552 146.517 156.5 147C153.657 150.619 153.99 153.952 157.5 157C161.5 157.333 165.5 157.667 169.5 158C178.539 160.504 180.039 165.004 174 171.5C173.311 172.357 172.478 173.023 171.5 173.5C169.167 171.667 166.833 169.833 164.5 168C153.619 166.811 142.952 167.644 132.5 170.5C133.374 163.598 136.707 158.098 142.5 154C146.345 151.637 150.011 149.137 153.5 146.5Z" fill="#FEC3BF"/>
<path fill-rule="evenodd" clip-rule="evenodd" d="M237.5 149.5C244.346 149.125 251.013 149.958 257.5 152C264.594 155.218 271.594 158.385 278.5 161.5C278.808 163.924 278.474 166.257 277.5 168.5C276.061 169.063 274.561 169.397 273 169.5C265.22 166.243 257.387 163.409 249.5 161C244.821 160.836 240.155 160.836 235.5 161C231.249 156.342 231.915 152.509 237.5 149.5Z" fill="#FDA598"/>
<path fill-rule="evenodd" clip-rule="evenodd" d="M303.5 242.5C301.5 239.833 299.5 237.167 297.5 234.5C306.273 214.837 303.44 196.837 289 180.5C287.812 174.324 290.312 172.158 296.5 174C312.539 191.735 316.705 211.902 309 234.5C307.896 237.721 306.063 240.388 303.5 242.5Z" fill="#FDA598"/>
<path fill-rule="evenodd" clip-rule="evenodd" d="M330.5 269.5C337.03 276.535 343.03 284.035 348.5 292C340.394 298.761 332.228 305.594 324 312.5C319.544 321.79 321.711 329.29 330.5 335C340.955 336.71 345.288 332.21 343.5 321.5C347.861 319.821 352.361 317.488 357 314.5C357.667 316.167 357.667 317.833 357 319.5C354.567 322.795 353.567 326.461 354 330.5C355.808 332.396 357.975 332.896 360.5 332C362.43 329.742 363.93 327.242 365 324.5C366.64 318.944 367.473 313.278 367.5 307.5C375.531 308.193 383.198 306.86 390.5 303.5C391.167 303.833 391.833 304.167 392.5 304.5C394.124 313.09 392.624 321.09 388 328.5C387.503 331.146 387.336 333.813 387.5 336.5C389.527 336.662 391.527 336.495 393.5 336C401.784 324.027 404.618 310.861 402 296.5C407.47 292.036 411.803 286.703 415 280.5C416.213 277.232 416.546 273.899 416 270.5C414.534 268.675 412.701 268.175 410.5 269C403.942 284.73 392.275 293.897 375.5 296.5C374.5 296.167 373.5 295.833 372.5 295.5C373.943 292.326 375.276 289.16 376.5 286C376.262 282.929 374.596 281.429 371.5 281.5C367.402 282.599 365.068 285.266 364.5 289.5C363.295 286.766 361.795 284.099 360 281.5C354.759 275.348 349.759 269.015 345 262.5C343.188 261.023 341.355 259.69 339.5 258.5C349.714 252.778 360.381 252.112 371.5 256.5C376.15 255.734 377.65 253.068 376 248.5C374.693 247.228 373.193 246.228 371.5 245.5C378.214 240.549 385.881 237.549 394.5 236.5C400.946 239.198 403.78 237.198 403 230.5C399.349 226.795 394.849 225.461 389.5 226.5C389.663 224.143 389.497 221.81 389 219.5C385.685 216.648 382.685 216.981 380 220.5C379.502 223.817 379.335 227.15 379.5 230.5C376.575 230.46 373.909 231.293 371.5 233C367.026 235.742 362.693 238.742 358.5 242C352.004 242.86 345.671 244.36 339.5 246.5C339.167 245.667 338.833 244.833 338.5 244C340.212 235.084 343.045 226.584 347 218.5C358.246 206.154 372.412 200.82 389.5 202.5C391.395 200.133 391.895 197.466 391 194.5C389.556 192.845 387.722 192.178 385.5 192.5C387.42 182.594 387.92 172.594 387 162.5C385.287 157.962 382.12 156.462 377.5 158C376.903 159.062 376.57 160.228 376.5 161.5C378.071 171.931 377.738 182.264 375.5 192.5C373.08 192.292 370.747 192.626 368.5 193.5C368.167 192.5 367.833 191.5 367.5 190.5C370.69 179.485 369.856 168.818 365 158.5C363.269 156.383 361.102 154.883 358.5 154C361.835 151.321 362.335 148.155 360 144.5C355.2 138.698 350.033 133.198 344.5 128C364.097 129.219 379.931 137.719 392 153.5C401.604 170.74 401.438 187.74 391.5 204.5C392.856 209.929 395.856 210.929 400.5 207.5C406.127 198.662 409.127 188.995 409.5 178.5C418.501 185.08 422.834 193.747 422.5 204.5C416.575 202.967 414.075 205.3 415 211.5C424.996 214.5 431.33 221.167 434 231.5C434.667 237.833 434.667 244.167 434 250.5C432.263 257.209 430.429 263.876 428.5 270.5C425.305 270.513 423.638 272.18 423.5 275.5C425.997 280.495 428.497 285.495 431 290.5C433.059 305.569 429.559 319.069 420.5 331C419.668 331.688 419.002 331.521 418.5 330.5C421.231 327.181 421.898 323.515 420.5 319.5C418.5 318.167 416.5 318.167 414.5 319.5C402.253 344.606 382.253 356.439 354.5 355C352.941 354.02 351.274 353.187 349.5 352.5C354.961 350.345 356.961 346.345 355.5 340.5C348.41 341.531 341.744 344.031 335.5 348C325.8 351.44 315.8 353.273 305.5 353.5C300.412 353.686 295.579 352.686 291 350.5C289.743 350.15 289.409 349.483 290 348.5C295.599 342.305 299.933 335.305 303 327.5C303.333 322.826 303.167 318.16 302.5 313.5C318.796 306.32 326.963 293.653 327 275.5C327.424 272.975 328.59 270.975 330.5 269.5Z" fill="#FDC3BF"/>
<path fill-rule="evenodd" clip-rule="evenodd" d="M145.5 178.5C153.664 177.178 160.998 178.845 167.5 183.5C165.066 186.223 162.399 188.723 159.5 191C154.296 189.224 148.796 188.057 143 187.5C137.318 187.247 132.652 189.247 129 193.5C127.377 198.696 129.21 201.696 134.5 202.5C139.362 199.497 144.528 198.83 150 200.5C147.346 205.837 145.179 211.504 143.5 217.5C133.622 214.546 123.622 214.046 113.5 216C111.924 216.44 110.59 217.273 109.5 218.5C108.345 215.554 108.179 212.554 109 209.5C113.073 201.86 118.24 195.026 124.5 189C131.106 184.428 138.106 180.928 145.5 178.5Z" fill="#FDC3BE"/>
<path fill-rule="evenodd" clip-rule="evenodd" d="M271.5 219.5C265.58 217.582 259.58 215.915 253.5 214.5C250.439 209.63 251.606 206.296 257 204.5C263.311 207.98 268.145 212.98 271.5 219.5Z" fill="#FEA599"/>
<path fill-rule="evenodd" clip-rule="evenodd" d="M253.5 214.5C259.58 215.915 265.58 217.582 271.5 219.5C280.145 224.464 288.811 229.464 297.5 234.5C299.5 237.167 301.5 239.833 303.5 242.5C304.948 244.555 306.281 246.722 307.5 249C307.272 249.399 306.938 249.565 306.5 249.5C302.59 246.103 298.256 243.269 293.5 241C285.363 238.732 277.363 236.066 269.5 233C263.437 231.646 257.437 231.646 251.5 233C247.542 235.234 244.042 238.067 241 241.5C232.626 254.804 231.293 268.804 237 283.5C241.203 289.684 247.036 293.518 254.5 295C265.796 297.683 275.629 295.183 284 287.5C287 281.5 290 275.5 293 269.5C294.161 264.584 294.827 259.584 295 254.5C300.07 258.954 305.904 261.62 312.5 262.5C314.872 277.036 311.539 290.036 302.5 301.5C293.411 312.049 282.078 319.049 268.5 322.5C260.5 322.5 252.5 322.5 244.5 322.5C235.159 322.333 225.826 322 216.5 321.5C207.342 320.67 198.009 320.17 188.5 320C182.81 317.295 176.81 315.795 170.5 315.5C160.082 312.295 150.082 307.961 140.5 302.5C129.864 294.894 124.197 284.561 123.5 271.5C123.916 268.417 124.583 265.417 125.5 262.5C128.32 262.752 130.986 262.252 133.5 261C136.98 258.354 140.314 255.521 143.5 252.5C144.568 254.187 144.401 255.854 143 257.5C141.212 274.164 147.712 286.33 162.5 294C181.572 296.547 195.072 289.047 203 271.5C205.795 263.114 204.461 255.447 199 248.5C198.951 241.557 195.785 236.724 189.5 234C184.301 232.182 178.967 230.849 173.5 230C158.98 230.228 145.647 234.395 133.5 242.5C135.74 237.593 139.073 233.593 143.5 230.5C147.558 227.11 151.891 224.11 156.5 221.5C163.635 218.51 170.968 216.01 178.5 214C199.112 211.701 219.779 211.035 240.5 212C244.968 212.265 249.302 213.099 253.5 214.5Z" fill="#FCFCFC"/>
<path fill-rule="evenodd" clip-rule="evenodd" d="M85.5 246.5C83.0676 247.75 80.7343 249.25 78.5 251C76.8659 251.494 75.1992 251.66 73.5 251.5C73.9713 247.497 75.9713 244.331 79.5 242C77.0937 241.694 74.927 240.861 73 239.5C72.5 239.667 72 239.833 71.5 240C73.3293 241.113 74.1626 242.613 74 244.5C71.408 247.762 68.2413 250.262 64.5 252C62.7111 252.52 61.0444 252.187 59.5 251C58.8366 249.482 57.8366 248.315 56.5 247.5C58.2872 240.257 62.9538 236.257 70.5 235.5C70.918 231.402 71.7514 227.402 73 223.5C75.7159 219.524 78.3826 219.524 81 223.5C81.1705 228.864 81.6705 234.198 82.5 239.5C85.0934 241.071 86.0934 243.404 85.5 246.5Z" fill="#070707"/>
<path fill-rule="evenodd" clip-rule="evenodd" d="M143.5 230.5C139.073 233.593 135.74 237.593 133.5 242.5C130.476 246.518 127.476 250.518 124.5 254.5C123.566 255.568 123.232 256.901 123.5 258.5C116.323 260.264 110.657 264.264 106.5 270.5C102.13 264.825 100.13 258.325 100.5 251C101.152 239.012 107.152 231.012 118.5 227C124.5 226.333 130.5 226.333 136.5 227C139.143 227.726 141.476 228.893 143.5 230.5Z" fill="#FDC3BF"/>
<path fill-rule="evenodd" clip-rule="evenodd" d="M125.5 262.5C124.612 259.946 124.279 257.279 124.5 254.5C127.476 250.518 130.476 246.518 133.5 242.5C145.647 234.395 158.98 230.228 173.5 230C178.967 230.849 184.301 232.182 189.5 234C195.785 236.724 198.951 241.557 199 248.5C204.461 255.447 205.795 263.114 203 271.5C195.072 289.047 181.572 296.547 162.5 294C147.712 286.33 141.212 274.164 143 257.5C144.401 255.854 144.568 254.187 143.5 252.5C140.314 255.521 136.98 258.354 133.5 261C130.986 262.252 128.32 262.752 125.5 262.5Z" fill="#050505"/>
<path fill-rule="evenodd" clip-rule="evenodd" d="M417.5 229.5C420.428 230.591 422.594 232.591 424 235.5C426.958 242.916 428.291 250.583 428 258.5C425.225 261.332 422.725 261.165 420.5 258C417.507 249.367 415.674 240.534 415 231.5C415.995 230.934 416.828 230.267 417.5 229.5Z" fill="#FEA699"/>
<path fill-rule="evenodd" clip-rule="evenodd" d="M306.501 249.5C309.766 251.584 312.933 253.917 316.001 256.5C316.388 259.304 315.222 261.304 312.501 262.5C305.905 261.62 300.071 258.954 295.001 254.5C294.828 259.584 294.162 264.584 293.001 269.5C290.001 275.5 287.001 281.5 284.001 287.5C275.63 295.183 265.797 297.683 254.501 295C247.037 293.518 241.204 289.684 237.001 283.5C231.294 268.804 232.627 254.804 241.001 241.5C244.043 238.067 247.543 235.234 251.501 233C257.438 231.646 263.438 231.646 269.501 233C277.364 236.066 285.364 238.732 293.501 241C298.257 243.269 302.591 246.103 306.501 249.5Z" fill="#050404"/>
<path fill-rule="evenodd" clip-rule="evenodd" d="M252.499 240.5C259.064 239.418 262.731 242.084 263.499 248.5C262.382 252.415 261.549 256.415 260.999 260.5C256.314 265.447 251.314 265.78 245.999 261.5C244.095 258.771 242.928 255.771 242.499 252.5C242.294 249.771 243.127 247.438 244.999 245.5C248.013 244.461 250.513 242.795 252.499 240.5Z" fill="#F6F6F6"/>
<path fill-rule="evenodd" clip-rule="evenodd" d="M180.499 241.5C188.083 240.918 192.083 244.418 192.499 252C191.604 259.774 187.437 264.607 179.999 266.5C172.931 264.039 170.264 259.039 171.999 251.5C173.697 247.043 176.53 243.71 180.499 241.5Z" fill="#F8F8F8"/>
<path fill-rule="evenodd" clip-rule="evenodd" d="M85.5 246.5C85.2503 248.674 84.2503 250.341 82.5 251.5C80.6875 253.116 78.5208 254.116 76 254.5C75.1667 254.333 74.3333 254.167 73.5 254C72.8448 252.513 71.8448 251.347 70.5 250.5C67.7692 252.192 65.1025 253.858 62.5 255.5C58.5617 254.235 56.5617 251.568 56.5 247.5C57.8366 248.315 58.8366 249.482 59.5 251C61.0444 252.187 62.7111 252.52 64.5 252C68.2413 250.262 71.408 247.762 74 244.5C74.1626 242.613 73.3293 241.113 71.5 240C72 239.833 72.5 239.667 73 239.5C74.927 240.861 77.0937 241.694 79.5 242C75.9713 244.331 73.9713 247.497 73.5 251.5C75.1992 251.66 76.8659 251.494 78.5 251C80.7343 249.25 83.0676 247.75 85.5 246.5Z" fill="#646464"/>
<path fill-rule="evenodd" clip-rule="evenodd" d="M82.5 251.5C80.4649 254.026 79.1316 256.859 78.5 260C76.671 275.995 83.671 283.829 99.5 283.5C100.294 287.358 100.96 291.358 101.5 295.5C76.1234 296.29 63.9568 283.956 65 258.5C63.955 257.627 63.1217 256.627 62.5 255.5C65.1025 253.858 67.7692 252.192 70.5 250.5C71.8448 251.347 72.8448 252.513 73.5 254C74.3333 254.167 75.1667 254.333 76 254.5C78.5208 254.116 80.6875 253.116 82.5 251.5Z" fill="#080808"/>
<path fill-rule="evenodd" clip-rule="evenodd" d="M339.501 258.5C341.356 259.69 343.189 261.023 345.001 262.5C349.76 269.015 354.76 275.348 360.001 281.5C361.796 284.099 363.296 286.766 364.501 289.5C364.855 293.637 364.355 297.637 363.001 301.5C355.64 307.027 348.14 312.361 340.501 317.5C341.522 318.901 342.522 320.235 343.501 321.5C345.289 332.21 340.956 336.71 330.501 335C321.712 329.29 319.545 321.79 324.001 312.5C332.229 305.594 340.395 298.761 348.501 292C343.031 284.035 337.031 276.535 330.501 269.5C324.384 263.071 325.384 258.405 333.501 255.5C335.956 255.628 337.956 256.628 339.501 258.5Z" fill="#060404"/>
<path fill-rule="evenodd" clip-rule="evenodd" d="M343.5 321.5C342.521 320.235 341.521 318.901 340.5 317.5C348.139 312.361 355.639 307.027 363 301.5C364.354 297.637 364.854 293.637 364.5 289.5C365.068 285.266 367.402 282.599 371.5 281.5C374.596 281.429 376.262 282.929 376.5 286C375.276 289.16 373.943 292.326 372.5 295.5C373.5 295.833 374.5 296.167 375.5 296.5C392.275 293.897 403.942 284.73 410.5 269C412.701 268.175 414.534 268.675 416 270.5C416.546 273.899 416.213 277.232 415 280.5C411.803 286.703 407.47 292.036 402 296.5C404.618 310.861 401.784 324.027 393.5 336C391.527 336.495 389.527 336.662 387.5 336.5C387.336 333.813 387.503 331.146 388 328.5C392.624 321.09 394.124 313.09 392.5 304.5C391.833 304.167 391.167 303.833 390.5 303.5C383.198 306.86 375.531 308.193 367.5 307.5C367.473 313.278 366.64 318.944 365 324.5C363.93 327.242 362.43 329.742 360.5 332C357.975 332.896 355.808 332.396 354 330.5C353.567 326.461 354.567 322.795 357 319.5C357.667 317.833 357.667 316.167 357 314.5C352.361 317.488 347.861 319.821 343.5 321.5Z" fill="#FCA598"/>
<path fill-rule="evenodd" clip-rule="evenodd" d="M123.5 271.5C124.197 284.561 129.864 294.894 140.5 302.5C137.628 303.325 134.628 304.159 131.5 305C129.125 307.176 126.792 309.343 124.5 311.5C111.679 303.535 108.179 292.535 114 278.5C116.531 275.112 119.698 272.779 123.5 271.5Z" fill="#FEC3BE"/>
<path fill-rule="evenodd" clip-rule="evenodd" d="M235.5 298.5C238.699 298.696 240.699 300.363 241.5 303.5C238.789 308.405 235.456 312.905 231.5 317C229.246 318.15 226.913 318.484 224.5 318C218.608 315.805 213.108 312.971 208 309.5C206.431 305.098 207.931 303.098 212.5 303.5C216.613 303.889 220.28 305.389 223.5 308C224.833 308.667 226.167 308.667 227.5 308C230.031 304.642 232.698 301.476 235.5 298.5Z" fill="#0C0C0C"/>
<path fill-rule="evenodd" clip-rule="evenodd" d="M140.5 313.5C146.833 313.5 153.167 313.5 159.5 313.5C159.302 328.959 166.635 338.626 181.5 342.5C181.5 343.833 181.5 345.167 181.5 346.5C178.575 346.46 175.909 347.293 173.5 349C171.167 349.667 168.833 349.667 166.5 349C162.967 346.629 159.634 343.962 156.5 341C146.213 340.702 138.38 336.202 133 327.5C131.124 320.241 133.624 315.574 140.5 313.5Z" fill="#FDC3BF"/>
<path fill-rule="evenodd" clip-rule="evenodd" d="M170.5 315.5C176.81 315.795 182.81 317.295 188.5 320C198.009 320.17 207.342 320.67 216.5 321.5C215.5 321.5 214.5 321.5 213.5 321.5C211.833 327.819 214.166 330.819 220.5 330.5C230.423 329.748 240.089 327.748 249.5 324.5C247.709 323.83 246.042 323.163 244.5 322.5C252.5 322.5 260.5 322.5 268.5 322.5C266.47 325.182 263.803 326.849 260.5 327.5C259.333 334.163 261.999 336.997 268.5 336C276.799 331.031 283.799 324.698 289.5 317C290.793 316.51 292.127 316.343 293.5 316.5C293.285 326.928 289.285 335.595 281.5 342.5C277.829 342.765 274.829 344.265 272.5 347C264.282 350.791 255.616 352.624 246.5 352.5C247.329 349.531 247.495 346.531 247 343.5C246.044 342.106 244.711 341.439 243 341.5C237.379 344.383 231.545 346.883 225.5 349C210.483 351.144 198.149 346.478 188.5 335C181.633 332.81 175.8 328.977 171 323.5C170.503 320.854 170.336 318.187 170.5 315.5Z" fill="#FDC4BF"/>
<path fill-rule="evenodd" clip-rule="evenodd" d="M216.5 321.5C225.826 322 235.159 322.333 244.5 322.5C246.042 323.163 247.709 323.83 249.5 324.5C240.089 327.748 230.423 329.748 220.5 330.5C214.166 330.819 211.833 327.819 213.5 321.5C214.5 321.5 215.5 321.5 216.5 321.5Z" fill="#FEA598"/>
<path fill-rule="evenodd" clip-rule="evenodd" d="M197.5 356.5C183.308 367.682 167.808 376.682 151 383.5C142.659 381.372 138.493 375.872 138.5 367C138.45 358.711 142.45 355.044 150.5 356C153.667 358.17 156.501 360.67 159 363.5C161.298 362.273 163.465 360.94 165.5 359.5C172.422 357.47 179.255 355.137 186 352.5C190.027 353.621 193.861 354.955 197.5 356.5Z" fill="#060606"/>
<path fill-rule="evenodd" clip-rule="evenodd" d="M274.499 357.5C270.834 366.67 264.501 373.503 255.499 378C248.083 385.42 240.083 392.087 231.499 398C220.893 398.06 215.559 392.727 215.499 382C214.487 374.348 217.82 370.348 225.499 370C231.456 368.946 234.956 371.446 235.999 377.5C241.039 372.956 246.205 368.622 251.499 364.5C259.103 362.015 266.77 359.681 274.499 357.5Z" fill="#060505"/>
</svg>
