<svg width="500" height="500" viewBox="0 0 500 500" fill="none" xmlns="http://www.w3.org/2000/svg">
<path fill-rule="evenodd" clip-rule="evenodd" d="M237.5 105.5C242.304 114.111 246.304 123.111 249.5 132.5C244.496 125.496 238.496 119.496 231.5 114.5C230.228 114.57 229.062 114.903 228 115.5C227.964 117.941 227.131 119.941 225.5 121.5C224.083 116.893 221.083 115.06 216.5 116C212.813 120.496 209.813 125.329 207.5 130.5C209.291 118.422 211.291 106.422 213.5 94.5C214.172 83.1211 215.339 71.7877 217 60.5C217.347 58.8198 218.347 57.8198 220 57.5C223.077 61.3684 225.411 65.7018 227 70.5C230.968 82.0412 234.468 93.7079 237.5 105.5Z" fill="#7ACB2B"/>
<path fill-rule="evenodd" clip-rule="evenodd" d="M297.5 136.5C294.677 134.177 292.01 131.677 289.5 129C286.937 127.921 284.271 127.421 281.5 127.5C280.491 130.049 279.658 132.715 279 135.5C276 131.167 273 126.833 270 122.5C269.107 121.919 268.107 121.585 267 121.5C262.199 124.05 259.032 128.05 257.5 133.5C257.043 134.298 256.376 134.631 255.5 134.5C257.708 124.124 260.042 113.79 262.5 103.5C265.756 88.4743 273.423 76.3077 285.5 67.0001C287.025 65.9915 288.692 65.4915 290.5 65.5001C289.91 73.0157 288.41 80.349 286 87.5001C285.188 98.2065 285.522 108.873 287 119.5C290.522 125.223 294.022 130.889 297.5 136.5Z" fill="#7ACB2A"/>
<path fill-rule="evenodd" clip-rule="evenodd" d="M213.5 94.5C211.291 106.422 209.291 118.422 207.5 130.5C205.845 136.343 205.178 142.343 205.5 148.5C206.5 148.5 207.5 148.5 208.5 148.5C207.248 150.001 206.248 151.668 205.5 153.5C202.833 150.5 200.167 147.5 197.5 144.5C193.75 137.998 189.75 131.665 185.5 125.5C187.12 117.475 189.62 109.808 193 102.5C193.944 93.1808 194.777 83.8475 195.5 74.5C201.892 80.8882 207.892 87.5549 213.5 94.5Z" fill="#5DA848"/>
<path fill-rule="evenodd" clip-rule="evenodd" d="M262.5 103.5C260.042 113.79 257.708 124.124 255.5 134.5C255.283 139.447 254.283 144.114 252.5 148.5C252.672 147.508 252.338 146.842 251.5 146.5C252.774 141.621 252.107 136.955 249.5 132.5C246.304 123.111 242.304 114.111 237.5 105.5C239.821 97.2389 242.321 88.9055 245 80.5C246.353 79.3147 247.52 77.9814 248.5 76.5C251.599 82.9383 254.433 89.605 257 96.5C258.391 99.3361 260.224 101.669 262.5 103.5Z" fill="#5EA84A"/>
<path fill-rule="evenodd" clip-rule="evenodd" d="M185.5 125.5C189.75 131.665 193.75 137.998 197.5 144.5C192.276 139.636 186.443 135.636 180 132.5C178.289 132.439 176.956 133.106 176 134.5C174.847 137.711 174.18 141.044 174 144.5C171.881 140.545 168.715 137.878 164.5 136.5C162.971 136.529 161.804 137.196 161 138.5C158.23 142.264 155.897 146.264 154 150.5C153.536 149.906 153.369 149.239 153.5 148.5C155.559 130.411 154.226 112.578 149.5 95C149.833 94.5 150.167 94 150.5 93.5C152.63 94.4672 154.63 95.6338 156.5 97C166.699 106.033 176.365 115.533 185.5 125.5Z" fill="#7ACB29"/>
<path fill-rule="evenodd" clip-rule="evenodd" d="M249.501 132.5C252.108 136.955 252.775 141.621 251.501 146.5C250.392 146.443 249.392 146.11 248.501 145.5C244.426 135.765 238.76 127.098 231.501 119.5C230.791 125.669 229.625 131.669 228.001 137.5C224.817 132.295 221.817 126.961 219.001 121.5C218.334 122.167 217.668 122.833 217.001 123.5C214.34 131.818 211.84 140.151 209.501 148.5C209.168 148.5 208.834 148.5 208.501 148.5C207.501 148.5 206.501 148.5 205.501 148.5C205.179 142.343 205.846 136.343 207.501 130.5C209.814 125.329 212.814 120.496 216.501 116C221.084 115.06 224.084 116.893 225.501 121.5C227.132 119.941 227.965 117.941 228.001 115.5C229.063 114.903 230.229 114.57 231.501 114.5C238.497 119.496 244.497 125.496 249.501 132.5Z" fill="#A7DE31"/>
<path fill-rule="evenodd" clip-rule="evenodd" d="M248.5 145.5C249.008 148.176 249.175 150.843 249 153.5C248.667 152.833 248.333 152.167 248 151.5C247.667 155.5 247.333 159.5 247 163.5C244.958 165.604 242.458 166.771 239.5 167C240.696 167.654 240.696 168.154 239.5 168.5C235.966 167.869 232.466 167.202 229 166.5C226.658 167.178 224.324 166.845 222 165.5C221.586 165.957 221.086 166.291 220.5 166.5C218.664 165.081 216.664 163.914 214.5 163C213.342 159.572 212.342 156.072 211.5 152.5C210.914 152.709 210.414 153.043 210 153.5C209.506 151.866 209.34 150.199 209.5 148.5C211.839 140.151 214.339 131.818 217 123.5C217.667 122.833 218.333 122.167 219 121.5C221.816 126.961 224.816 132.295 228 137.5C229.624 131.669 230.79 125.669 231.5 119.5C238.759 127.098 244.425 135.765 248.5 145.5Z" fill="#EF4389"/>
<path fill-rule="evenodd" clip-rule="evenodd" d="M197.5 144.5C200.167 147.5 202.833 150.5 205.5 153.5C208.694 158.554 211.361 163.888 213.5 169.5C213.53 170.497 213.03 171.164 212 171.5C210.594 170.586 209.094 169.92 207.5 169.5C206.396 167.611 205.063 165.945 203.5 164.5C196.927 155.09 189.427 146.423 181 138.5C180.847 147.188 179.681 155.688 177.5 164C174.586 159.704 171.919 154.871 169.5 149.5C168.431 147.031 167.098 144.698 165.5 142.5C163.064 145.035 161.397 148.035 160.5 151.5C157.857 155.435 155.19 159.435 152.5 163.5C151.675 164.386 150.675 164.719 149.5 164.5C150.258 158.918 151.591 153.584 153.5 148.5C153.369 149.239 153.536 149.906 154 150.5C155.897 146.264 158.23 142.264 161 138.5C161.804 137.196 162.971 136.529 164.5 136.5C168.715 137.878 171.881 140.545 174 144.5C174.18 141.044 174.847 137.711 176 134.5C176.956 133.106 178.289 132.439 180 132.5C186.443 135.636 192.276 139.636 197.5 144.5Z" fill="#A9DF32"/>
<path fill-rule="evenodd" clip-rule="evenodd" d="M294.5 140.5C293.709 143.976 294.709 147.143 297.5 150C297.167 150.333 296.833 150.667 296.5 151C299.156 154.142 302.323 156.642 306 158.5C309.019 164.228 309.019 169.895 306 175.5C304.028 176.305 302.528 177.639 301.5 179.5C297.62 180.795 293.786 180.795 290 179.5C287.667 180.167 285.333 180.833 283 181.5C282.667 181.167 282.333 180.833 282 180.5C279.149 183.578 275.649 185.745 271.5 187C270.094 189.449 268.094 190.449 265.5 190C263.33 188.414 260.996 187.08 258.5 186C259.22 178.448 259.886 170.615 260.5 162.5C260.333 160.833 260.167 159.167 260 157.5C259.722 158.416 259.222 159.082 258.5 159.5C259.374 156.211 260.041 152.877 260.5 149.5C261.767 141.87 263.933 134.536 267 127.5C271.13 136.937 276.63 145.437 283.5 153C285.92 153.915 287.253 153.082 287.5 150.5C286.863 145.657 286.196 140.824 285.5 136C285.833 135.5 286.167 135 286.5 134.5C288.874 137.007 291.541 139.007 294.5 140.5Z" fill="#EF468C"/>
<path fill-rule="evenodd" clip-rule="evenodd" d="M350.5 178.5C334.557 166.814 322.89 170.147 315.5 188.5C314.817 188.137 314.15 187.804 313.5 187.5C315.023 179.265 317.356 171.265 320.5 163.5C321.738 161.786 322.405 159.786 322.5 157.5C324.621 153.259 326.787 148.925 329 144.5C330.264 142.393 332.097 141.393 334.5 141.5C335.814 147.947 337.648 154.281 340 160.5C344.154 166.145 347.654 172.145 350.5 178.5Z" fill="#7CCB2B"/>
<path fill-rule="evenodd" clip-rule="evenodd" d="M297.5 136.5C300.886 138.84 303.22 141.507 304.5 144.5C301.993 143.108 299.327 142.108 296.5 141.5C296.158 140.662 295.492 140.328 294.5 140.5C291.541 139.007 288.874 137.007 286.5 134.5C286.167 135 285.833 135.5 285.5 136C286.196 140.824 286.863 145.657 287.5 150.5C287.253 153.082 285.92 153.915 283.5 153C276.63 145.437 271.13 136.937 267 127.5C263.933 134.536 261.767 141.87 260.5 149.5C258.194 154.484 256.694 159.817 256 165.5C253.924 166.757 252.09 166.424 250.5 164.5C250.364 159.054 251.031 153.72 252.5 148.5C254.283 144.114 255.283 139.447 255.5 134.5C256.376 134.631 257.043 134.298 257.5 133.5C259.032 128.05 262.199 124.05 267 121.5C268.107 121.585 269.107 121.919 270 122.5C273 126.833 276 131.167 279 135.5C279.658 132.715 280.491 130.049 281.5 127.5C284.271 127.421 286.937 127.921 289.5 129C292.01 131.677 294.677 134.177 297.5 136.5Z" fill="#A9DF32"/>
<path fill-rule="evenodd" clip-rule="evenodd" d="M203.501 164.5C206.424 175.837 210.424 186.837 215.501 197.5C213.344 203.15 210.177 208.15 206.001 212.5C205.361 210.602 204.028 210.268 202.001 211.5C198.242 210.234 194.408 209.234 190.501 208.5C184.887 209.621 179.221 209.788 173.501 209C171.157 208.163 169.157 206.829 167.501 205C162.786 205.028 158.453 203.861 154.501 201.5C153.134 192.267 154.634 183.6 159.001 175.5C157.438 169.287 159.271 164.287 164.501 160.5C163.19 159.742 162.69 158.742 163.001 157.5C165.032 154.645 167.198 151.978 169.501 149.5C171.92 154.871 174.587 159.704 177.501 164C179.682 155.688 180.848 147.188 181.001 138.5C189.428 146.423 196.928 155.09 203.501 164.5Z" fill="#F0468C"/>
<path fill-rule="evenodd" clip-rule="evenodd" d="M296.5 141.5C299.327 142.108 301.993 143.108 304.5 144.5C310.455 148.772 316.455 153.106 322.5 157.5C322.405 159.786 321.738 161.786 320.5 163.5C312.207 157.046 304.041 150.379 296 143.5C295.308 142.563 295.475 141.897 296.5 141.5Z" fill="#E7225E"/>
<path fill-rule="evenodd" clip-rule="evenodd" d="M160.5 151.5C154.465 167.95 148.465 184.283 142.5 200.5C140.167 198.833 138.167 196.833 136.5 194.5C140.063 184.136 144.397 174.136 149.5 164.5C150.675 164.719 151.675 164.386 152.5 163.5C155.19 159.435 157.857 155.435 160.5 151.5Z" fill="#E51F5C"/>
<path fill-rule="evenodd" clip-rule="evenodd" d="M294.5 140.5C295.492 140.328 296.158 140.662 296.5 141.5C295.475 141.897 295.308 142.563 296 143.5C304.041 150.379 312.207 157.046 320.5 163.5C317.356 171.265 315.023 179.265 313.5 187.5C312.518 190.763 311.851 194.097 311.5 197.5C309.942 201.391 308.442 205.391 307 209.5C305.334 217.683 303.501 225.683 301.5 233.5C291.589 230.489 281.423 228.822 271 228.5C248.795 229.559 227.628 234.726 207.5 244C202.447 246.225 198.114 249.392 194.5 253.5C190.958 246.297 186.625 239.63 181.5 233.5C183.907 234.794 186.074 236.461 188 238.5C188.642 234.45 187.142 231.45 183.5 229.5C180.335 225.502 176.668 222.002 172.5 219C162.35 213.005 152.35 206.838 142.5 200.5C148.465 184.283 154.465 167.95 160.5 151.5C161.397 148.035 163.064 145.035 165.5 142.5C167.098 144.698 168.431 147.031 169.5 149.5C167.197 151.978 165.031 154.645 163 157.5C162.689 158.742 163.189 159.742 164.5 160.5C159.27 164.287 157.437 169.287 159 175.5C154.633 183.6 153.133 192.267 154.5 201.5C158.452 203.861 162.785 205.028 167.5 205C169.156 206.829 171.156 208.163 173.5 209C179.22 209.788 184.886 209.621 190.5 208.5C194.407 209.234 198.241 210.234 202 211.5C204.027 210.268 205.36 210.602 206 212.5C210.176 208.15 213.343 203.15 215.5 197.5C210.423 186.837 206.423 175.837 203.5 164.5C205.063 165.945 206.396 167.611 207.5 169.5C210.724 175.609 214.224 181.609 218 187.5C219.948 192.342 221.281 197.342 222 202.5C222.637 204.303 223.803 205.636 225.5 206.5C225.959 193.684 222.792 181.684 216 170.5C215.329 169.748 214.496 169.414 213.5 169.5C211.361 163.888 208.694 158.554 205.5 153.5C206.248 151.668 207.248 150.001 208.5 148.5C208.833 148.5 209.167 148.5 209.5 148.5C209.34 150.199 209.506 151.866 210 153.5C210.414 153.043 210.914 152.709 211.5 152.5C212.342 156.072 213.342 159.572 214.5 163C216.664 163.914 218.664 165.081 220.5 166.5C221.086 166.291 221.586 165.957 222 165.5C224.324 166.845 226.658 167.178 229 166.5C232.466 167.202 235.966 167.869 239.5 168.5C240.696 168.154 240.696 167.654 239.5 167C242.458 166.771 244.958 165.604 247 163.5C247.333 159.5 247.667 155.5 248 151.5C248.333 152.167 248.667 152.833 249 153.5C249.175 150.843 249.008 148.176 248.5 145.5C249.391 146.11 250.391 146.443 251.5 146.5C252.338 146.842 252.672 147.508 252.5 148.5C251.031 153.72 250.364 159.054 250.5 164.5C249.552 176.804 249.719 189.137 251 201.5C251.667 202.167 252.333 202.833 253 203.5C255.895 190.762 258.062 177.928 259.5 165C258.767 163.234 258.433 161.401 258.5 159.5C259.222 159.082 259.722 158.416 260 157.5C260.167 159.167 260.333 160.833 260.5 162.5C259.886 170.615 259.22 178.448 258.5 186C260.996 187.08 263.33 188.414 265.5 190C268.094 190.449 270.094 189.449 271.5 187C275.649 185.745 279.149 183.578 282 180.5C282.333 180.833 282.667 181.167 283 181.5C285.333 180.833 287.667 180.167 290 179.5C293.786 180.795 297.62 180.795 301.5 179.5C302.528 177.639 304.028 176.305 306 175.5C309.019 169.895 309.019 164.228 306 158.5C302.323 156.642 299.156 154.142 296.5 151C296.833 150.667 297.167 150.333 297.5 150C294.709 147.143 293.709 143.976 294.5 140.5Z" fill="#EC2F7D"/>
<path fill-rule="evenodd" clip-rule="evenodd" d="M260.499 149.5C260.04 152.877 259.373 156.211 258.499 159.5C258.432 161.401 258.766 163.234 259.499 165C258.061 177.928 255.894 190.762 252.999 203.5C252.332 202.833 251.666 202.167 250.999 201.5C249.718 189.137 249.551 176.804 250.499 164.5C252.089 166.424 253.923 166.757 255.999 165.5C256.693 159.817 258.193 154.484 260.499 149.5Z" fill="#E61F5D"/>
<path fill-rule="evenodd" clip-rule="evenodd" d="M207.5 169.5C209.094 169.92 210.594 170.586 212 171.5C213.03 171.164 213.53 170.497 213.5 169.5C214.496 169.414 215.329 169.748 216 170.5C222.792 181.684 225.959 193.684 225.5 206.5C223.803 205.636 222.637 204.303 222 202.5C221.281 197.342 219.948 192.342 218 187.5C214.224 181.609 210.724 175.609 207.5 169.5Z" fill="#E41A5A"/>
<path fill-rule="evenodd" clip-rule="evenodd" d="M349.5 185.5C350.37 189.85 351.37 194.183 352.5 198.5C350.758 201.415 351.425 202.749 354.5 202.5C353.816 209.809 353.316 217.142 353 224.5C350.977 227.212 349.477 230.212 348.5 233.5C345.573 234.762 342.907 236.429 340.5 238.5C338.358 237.399 336.192 236.399 334 235.5C333.667 236.167 333.333 236.833 333 237.5C330.146 235.402 327.479 233.069 325 230.5C323.356 225.879 321.189 221.546 318.5 217.5C316.221 209.933 315.888 202.267 317.5 194.5C320.145 189.218 323.312 184.218 327 179.5C330.42 175.185 334.586 174.018 339.5 176C342.729 179.399 346.062 182.565 349.5 185.5Z" fill="#F0468C"/>
<path fill-rule="evenodd" clip-rule="evenodd" d="M350.5 178.5C353.008 182.182 355.008 186.182 356.5 190.5C354.833 189.167 353.167 187.833 351.5 186.5C350.833 186.167 350.167 185.833 349.5 185.5C346.062 182.565 342.729 179.399 339.5 176C334.586 174.018 330.42 175.185 327 179.5C323.312 184.218 320.145 189.218 317.5 194.5C316.833 194.5 316.5 194.833 316.5 195.5C315.18 196.942 313.514 197.608 311.5 197.5C311.851 194.097 312.518 190.763 313.5 187.5C314.15 187.804 314.817 188.137 315.5 188.5C322.89 170.147 334.557 166.814 350.5 178.5Z" fill="#A8DF33"/>
<path fill-rule="evenodd" clip-rule="evenodd" d="M136.501 194.5C138.168 196.833 140.168 198.833 142.501 200.5C152.351 206.838 162.351 213.005 172.501 219C176.669 222.002 180.336 225.502 183.501 229.5C180.968 229.742 178.968 228.409 177.501 225.5C170.054 219.442 161.721 214.942 152.501 212C142.422 209.079 134.589 211.913 129.001 220.5C127.363 225.435 126.03 230.435 125.001 235.5C124.2 238.367 124.367 241.034 125.501 243.5C125.501 244.167 125.168 244.5 124.501 244.5C123.348 238.681 123.182 232.681 124.001 226.5C125.15 214.09 126.817 201.757 129.001 189.5C129.719 188.549 130.552 188.383 131.501 189C133.403 190.73 135.07 192.563 136.501 194.5Z" fill="#7ECB2C"/>
<path fill-rule="evenodd" clip-rule="evenodd" d="M316.5 195.5C313.415 209.008 311.082 222.675 309.5 236.5C306.828 235.499 304.162 234.499 301.5 233.5C303.501 225.683 305.334 217.683 307 209.5C308.442 205.391 309.942 201.391 311.5 197.5C313.514 197.608 315.18 196.942 316.5 195.5Z" fill="#E4195A"/>
<path fill-rule="evenodd" clip-rule="evenodd" d="M351.5 186.5C353.167 187.833 354.833 189.167 356.5 190.5C359.38 197.262 362.547 203.928 366 210.5C367.975 214.963 368.808 219.629 368.5 224.5C367.674 227.485 366.341 230.151 364.5 232.5C363.592 221.931 360.925 211.764 356.5 202C355.991 200.831 355.158 199.998 354 199.5C353.321 195.122 352.488 190.789 351.5 186.5Z" fill="#E5215D"/>
<path fill-rule="evenodd" clip-rule="evenodd" d="M183.499 229.5C187.141 231.45 188.641 234.45 187.999 238.5C186.073 236.461 183.906 234.794 181.499 233.5C175.332 228.581 168.665 224.414 161.499 221C156.975 219.716 152.642 218.05 148.499 216C139.923 213.088 134.423 215.921 131.999 224.5C130.288 231.022 128.121 237.355 125.499 243.5C124.365 241.034 124.198 238.367 124.999 235.5C126.028 230.435 127.361 225.435 128.999 220.5C134.587 211.913 142.42 209.079 152.499 212C161.719 214.942 170.052 219.442 177.499 225.5C178.966 228.409 180.966 229.742 183.499 229.5Z" fill="#A9DE31"/>
<path fill-rule="evenodd" clip-rule="evenodd" d="M380.5 240.5C378.203 239.165 376.203 237.332 374.5 235C373.167 234.333 371.833 234.333 370.5 235C366.124 239.624 362.124 244.457 358.5 249.5C358.5 249.167 358.5 248.833 358.5 248.5C359.515 242.786 361.515 237.453 364.5 232.5C366.341 230.151 367.674 227.485 368.5 224.5C372.301 220.527 375.968 216.36 379.5 212C380.635 211.251 381.635 211.417 382.5 212.5C381.103 214.982 380.269 217.648 380 220.5C379.391 227.189 379.557 233.856 380.5 240.5Z" fill="#7CCB2A"/>
<path fill-rule="evenodd" clip-rule="evenodd" d="M181.499 233.5C186.624 239.63 190.957 246.297 194.499 253.5C193.889 254.391 193.556 255.391 193.499 256.5C184.881 260.617 178.381 266.951 173.999 275.5C173.501 278.482 173.334 281.482 173.499 284.5C172.882 284.389 172.382 284.056 171.999 283.5C171.666 281.167 171.332 278.833 170.999 276.5C169.768 277.108 168.435 277.441 166.999 277.5C161.796 276.187 156.629 274.687 151.499 273C147.485 272.501 143.485 272.667 139.499 273.5C133.486 273.504 129.986 270.504 128.999 264.5C128.666 257.833 128.332 251.167 127.999 244.5C127.666 251.833 127.332 259.167 126.999 266.5C126.666 260.5 126.332 254.5 125.999 248.5C125.666 248.167 125.332 247.833 124.999 247.5C124.824 252.019 124.324 256.353 123.499 260.5C123.217 255.073 123.55 249.74 124.499 244.5C125.166 244.5 125.499 244.167 125.499 243.5C128.121 237.355 130.288 231.022 131.999 224.5C134.423 215.921 139.923 213.088 148.499 216C152.642 218.05 156.975 219.716 161.499 221C168.665 224.414 175.332 228.581 181.499 233.5Z" fill="#EF468C"/>
<path fill-rule="evenodd" clip-rule="evenodd" d="M301.5 233.5C304.162 234.499 306.828 235.499 309.5 236.5C311.5 237.833 313.5 239.167 315.5 240.5C306.911 238.755 298.244 238.255 289.5 239C274.533 250.694 270.699 265.527 278 283.5C282.564 293.375 290.398 298.042 301.5 297.5C311.886 297.582 319.719 293.249 325 284.5C326.869 279.228 328.535 273.894 330 268.5C330.112 263.762 330.278 259.096 330.5 254.5C333.148 256.658 336.148 257.992 339.5 258.5C343.01 263.849 345.676 269.515 347.5 275.5C347.5 276.833 347.5 278.167 347.5 279.5C348.444 299.736 339.444 313.569 320.5 321C311.873 324.74 302.873 327.074 293.5 328C275.194 329.35 256.86 330.183 238.5 330.5C236.5 330.5 234.5 330.5 232.5 330.5C223.289 328.942 214.289 326.276 205.5 322.5C204.341 320.75 202.674 319.75 200.5 319.5C194.795 314.796 189.795 309.463 185.5 303.5C182.92 297.428 181.587 291.095 181.5 284.5C184.186 280.492 187.353 276.825 191 273.5C190.566 277.452 190.566 281.452 191 285.5C194.431 298.432 202.598 306.432 215.5 309.5C237.012 307.154 247.846 295.154 248 273.5C246.118 268.956 243.451 264.956 240 261.5C238.988 255.485 235.488 251.651 229.5 250C221.833 249.333 214.167 249.333 206.5 250C201.861 251.653 197.528 253.819 193.5 256.5C193.557 255.391 193.89 254.391 194.5 253.5C198.114 249.392 202.447 246.225 207.5 244C227.628 234.726 248.795 229.559 271 228.5C281.423 228.822 291.589 230.489 301.5 233.5Z" fill="#FCFBFC"/>
<path fill-rule="evenodd" clip-rule="evenodd" d="M349.5 185.5C350.167 185.833 350.833 186.167 351.5 186.5C352.488 190.789 353.321 195.122 354 199.5C355.158 199.998 355.991 200.831 356.5 202C360.925 211.764 363.592 221.931 364.5 232.5C361.515 237.453 359.515 242.786 358.5 248.5C356.567 249.642 355.067 251.308 354 253.5C351.303 260.75 349.136 268.083 347.5 275.5C345.676 269.515 343.01 263.849 339.5 258.5C342.176 259.008 344.843 259.175 347.5 259C349.648 256.925 349.982 254.592 348.5 252C341.773 249.803 335.439 246.803 329.5 243C324.809 242.056 320.142 241.222 315.5 240.5C313.5 239.167 311.5 237.833 309.5 236.5C311.082 222.675 313.415 209.008 316.5 195.5C316.5 194.833 316.833 194.5 317.5 194.5C315.888 202.267 316.221 209.933 318.5 217.5C321.189 221.546 323.356 225.879 325 230.5C327.479 233.069 330.146 235.402 333 237.5C333.333 236.833 333.667 236.167 334 235.5C336.192 236.399 338.358 237.399 340.5 238.5C342.907 236.429 345.573 234.762 348.5 233.5C349.477 230.212 350.977 227.212 353 224.5C353.316 217.142 353.816 209.809 354.5 202.5C351.425 202.749 350.758 201.415 352.5 198.5C351.37 194.183 350.37 189.85 349.5 185.5Z" fill="#EC3480"/>
<path fill-rule="evenodd" clip-rule="evenodd" d="M315.501 240.5C320.143 241.222 324.81 242.056 329.501 243C335.44 246.803 341.774 249.803 348.501 252C349.983 254.592 349.649 256.925 347.501 259C344.844 259.175 342.177 259.008 339.501 258.5C336.149 257.992 333.149 256.658 330.501 254.5C330.279 259.096 330.113 263.762 330.001 268.5C328.536 273.894 326.87 279.228 325.001 284.5C319.72 293.249 311.887 297.582 301.501 297.5C290.399 298.042 282.565 293.375 278.001 283.5C270.7 265.527 274.534 250.694 289.501 239C298.245 238.255 306.912 238.755 315.501 240.5Z" fill="#040404"/>
<path fill-rule="evenodd" clip-rule="evenodd" d="M380.501 240.5C380.814 244.042 380.48 247.375 379.501 250.5C377.89 239.08 373.39 237.414 366.001 245.5C363.795 249.262 361.628 252.929 359.501 256.5C358.632 254.283 358.299 251.95 358.501 249.5C362.125 244.457 366.125 239.624 370.501 235C371.834 234.333 373.168 234.333 374.501 235C376.204 237.332 378.204 239.165 380.501 240.5Z" fill="#A9DF32"/>
<path fill-rule="evenodd" clip-rule="evenodd" d="M379.5 250.5C380.933 262.21 380.6 273.877 378.5 285.5C376.192 287.471 373.858 289.471 371.5 291.5C366.659 289.902 361.659 288.236 356.5 286.5C355.555 281.139 355.555 275.805 356.5 270.5C358.805 265.967 359.805 261.301 359.5 256.5C361.627 252.929 363.794 249.262 366 245.5C373.389 237.414 377.889 239.08 379.5 250.5Z" fill="#EF458B"/>
<path fill-rule="evenodd" clip-rule="evenodd" d="M290.5 246.5C294.888 245.943 298.055 247.61 300 251.5C300.168 256.172 299.834 260.839 299 265.5C292.147 271.517 286.481 270.517 282 262.5C281.333 259.833 281.333 257.167 282 254.5C285.003 251.933 287.836 249.266 290.5 246.5Z" fill="#F5F5F5"/>
<path fill-rule="evenodd" clip-rule="evenodd" d="M181.499 284.5C178.832 285.833 176.166 285.833 173.499 284.5C173.334 281.482 173.501 278.482 173.999 275.5C178.381 266.951 184.881 260.617 193.499 256.5C197.527 253.819 201.86 251.653 206.499 250C214.166 249.333 221.832 249.333 229.499 250C235.487 251.651 238.987 255.485 239.999 261.5C243.45 264.956 246.117 268.956 247.999 273.5C247.845 295.154 237.011 307.154 215.499 309.5C202.597 306.432 194.43 298.432 190.999 285.5C190.565 281.452 190.565 277.452 190.999 273.5C187.352 276.825 184.185 280.492 181.499 284.5Z" fill="#050505"/>
<path fill-rule="evenodd" clip-rule="evenodd" d="M375.5 303.5C373.589 304.075 371.922 305.075 370.5 306.5C367.729 307.633 364.896 308.633 362 309.5C359.11 309.445 357.944 307.945 358.5 305C358.667 303.833 358.833 302.667 359 301.5C363.041 297.953 367.208 294.62 371.5 291.5C373.858 289.471 376.192 287.471 378.5 285.5C382.875 281.451 386.541 276.784 389.5 271.5C384.674 266.574 384.341 261.407 388.5 256C390.913 255.516 393.246 255.85 395.5 257C397.123 259.08 398.623 261.246 400 263.5C403.947 259.34 408.281 258.673 413 261.5C413.667 263.833 413.667 266.167 413 268.5C409.468 271.85 405.301 274.016 400.5 275C393.017 285.312 384.684 294.812 375.5 303.5Z" fill="#080708"/>
<path fill-rule="evenodd" clip-rule="evenodd" d="M224.5 257.5C231.446 257.779 235.113 261.446 235.5 268.5C234.622 273.417 232.289 277.584 228.5 281C220.903 282.074 216.903 278.741 216.5 271C216.757 264.974 219.424 260.474 224.5 257.5Z" fill="#F6F6F7"/>
<path fill-rule="evenodd" clip-rule="evenodd" d="M173.499 284.5C176.166 285.833 178.832 285.833 181.499 284.5C181.586 291.095 182.919 297.428 185.499 303.5C183.941 308.097 182.441 312.763 180.999 317.5C175.083 323.665 171.583 330.998 170.499 339.5C169.648 345.33 168.981 351.33 168.499 357.5C168.669 360.826 169.669 363.826 171.499 366.5C163.402 364.898 155.735 362.231 148.499 358.5C138.368 346.909 131.368 333.576 127.499 318.5C133.942 321.113 140.609 323.113 147.499 324.5C152.559 324.613 154.393 322.279 152.999 317.5C142.743 314.958 133.243 310.624 124.499 304.5C124.5 301.157 126 298.823 128.999 297.5C132.573 300.039 136.406 302.206 140.499 304C143.348 307.016 146.348 309.85 149.499 312.5C149.832 312.167 150.166 311.833 150.499 311.5C148.659 307.144 146.325 303.144 143.499 299.5C137.395 292.057 130.395 285.724 122.499 280.5C122.243 273.776 122.576 267.109 123.499 260.5C124.324 256.353 124.824 252.019 124.999 247.5C125.332 247.833 125.666 248.167 125.999 248.5C126.332 254.5 126.666 260.5 126.999 266.5C127.332 259.167 127.666 251.833 127.999 244.5C128.332 251.167 128.666 257.833 128.999 264.5C129.986 270.504 133.486 273.504 139.499 273.5C143.485 272.667 147.485 272.501 151.499 273C156.629 274.687 161.796 276.187 166.999 277.5C168.435 277.441 169.768 277.108 170.999 276.5C171.332 278.833 171.666 281.167 171.999 283.5C172.382 284.056 172.882 284.389 173.499 284.5Z" fill="#EC317E"/>
<path fill-rule="evenodd" clip-rule="evenodd" d="M358.5 248.5C358.5 248.833 358.5 249.167 358.5 249.5C358.298 251.95 358.631 254.283 359.5 256.5C359.805 261.301 358.805 265.967 356.5 270.5C354.943 275.086 353.443 279.753 352 284.5C350.667 285.167 349.667 286.167 349 287.5C348.817 284.635 348.317 281.969 347.5 279.5C347.5 278.167 347.5 276.833 347.5 275.5C349.136 268.083 351.303 260.75 354 253.5C355.067 251.308 356.567 249.642 358.5 248.5Z" fill="#E61C5D"/>
<path fill-rule="evenodd" clip-rule="evenodd" d="M122.501 303.5C123.168 303.833 123.834 304.167 124.501 304.5C133.245 310.624 142.745 314.958 153.001 317.5C154.395 322.279 152.561 324.613 147.501 324.5C140.611 323.113 133.944 321.113 127.501 318.5C118.859 314.034 111.192 308.201 104.501 301C99.8046 301.125 95.1375 301.458 90.5006 302C84.3485 295.129 85.8485 290.629 95.0006 288.5C99.0756 290.663 101.743 289.663 103.001 285.5C105.74 281.218 109.074 280.552 113.001 283.5C113.763 287.332 113.263 290.998 111.501 294.5C114.896 297.902 118.563 300.902 122.501 303.5Z" fill="#090607"/>
<path fill-rule="evenodd" clip-rule="evenodd" d="M122.5 280.5C130.396 285.724 137.396 292.057 143.5 299.5C141.408 299.74 139.408 298.906 137.5 297C132 292.463 126.833 292.63 122 297.5C121.617 296.944 121.117 296.611 120.5 296.5C117.924 288.851 113.924 282.017 108.5 276C109.025 275.308 109.692 274.808 110.5 274.5C114.742 276.09 118.742 278.09 122.5 280.5Z" fill="#7BCB2B"/>
<path fill-rule="evenodd" clip-rule="evenodd" d="M356.5 270.5C355.555 275.805 355.555 281.139 356.5 286.5C361.659 288.236 366.659 289.902 371.5 291.5C367.208 294.62 363.041 297.953 359 301.5C358.833 302.667 358.667 303.833 358.5 305C357.944 307.945 359.11 309.445 362 309.5C364.896 308.633 367.729 307.633 370.5 306.5C360.9 313.098 352.567 321.098 345.5 330.5C343.11 332.267 341.443 334.6 340.5 337.5C334.104 345.784 329.104 354.951 325.5 365C325.969 368.822 327.469 369.322 330 366.5C333.51 359.481 337.01 352.481 340.5 345.5C340.71 348.446 342.043 351.28 344.5 354C347.351 355.289 350.351 355.789 353.5 355.5C353.5 356.833 353.5 358.167 353.5 359.5C342.083 373.865 328.083 384.865 311.5 392.5C307.379 391.658 304.379 392.991 302.5 396.5C277.634 406.542 251.968 409.209 225.5 404.5C223.701 400.867 221.035 398.034 217.5 396C213.496 394.895 211.496 396.395 211.5 400.5C199.103 398.901 187.103 395.734 175.5 391C171.385 388.552 167.552 385.719 164 382.5C163.51 381.207 163.343 379.873 163.5 378.5C163.414 377.504 163.748 376.671 164.5 376C172.833 375.333 181.167 375.333 189.5 376C191.615 376.557 193.615 377.391 195.5 378.5C196.711 377.726 196.711 376.893 195.5 376C189.531 372.733 183.197 370.566 176.5 369.5C175.833 368.833 175.167 368.167 174.5 367.5C176.181 364.418 176.848 361.085 176.5 357.5C179.224 361.956 183.39 364.29 189 364.5C191.681 363.828 194.181 363.495 196.5 363.5C199.754 365.029 203.087 366.362 206.5 367.5C211.056 365.528 215.722 363.861 220.5 362.5C222.38 359.909 224.38 357.409 226.5 355C229.95 353.97 233.283 352.637 236.5 351C239.013 347.623 240.013 343.79 239.5 339.5C241.091 343.092 243.758 345.758 247.5 347.5C248.946 346.829 249.612 345.662 249.5 344C248.153 340.146 246.153 336.646 243.5 333.5C241.897 332.207 240.231 331.207 238.5 330.5C256.86 330.183 275.194 329.35 293.5 328C302.873 327.074 311.873 324.74 320.5 321C339.444 313.569 348.444 299.736 347.5 279.5C348.317 281.969 348.817 284.635 349 287.5C349.667 286.167 350.667 285.167 352 284.5C353.443 279.753 354.943 275.086 356.5 270.5Z" fill="#EB307C"/>
<path fill-rule="evenodd" clip-rule="evenodd" d="M143.5 299.5C146.326 303.144 148.66 307.144 150.5 311.5C150.167 311.833 149.833 312.167 149.5 312.5C146.349 309.85 143.349 307.016 140.5 304C136.407 302.206 132.574 300.039 129 297.5C126.001 298.823 124.501 301.157 124.5 304.5C123.833 304.167 123.167 303.833 122.5 303.5C121.833 301.167 121.167 298.833 120.5 296.5C121.117 296.611 121.617 296.944 122 297.5C126.833 292.63 132 292.463 137.5 297C139.408 298.906 141.408 299.74 143.5 299.5Z" fill="#ABDD36"/>
<path fill-rule="evenodd" clip-rule="evenodd" d="M280.5 303.5C284.198 302.68 286.531 304.013 287.5 307.5C285.479 312.375 282.812 316.875 279.5 321C276.298 322.483 272.964 322.817 269.5 322C265.219 320.273 261.052 318.439 257 316.5C256.175 314.299 256.675 312.466 258.5 311C264.201 311.458 269.868 312.125 275.5 313C277.307 309.885 278.973 306.719 280.5 303.5Z" fill="#0C0C0C"/>
<path fill-rule="evenodd" clip-rule="evenodd" d="M375.5 303.5C376.649 303.791 377.316 304.624 377.5 306C376.112 311.836 374.778 317.669 373.5 323.5C369.296 319.787 364.296 318.621 358.5 320C354.059 323.437 349.893 327.27 346 331.5C345.601 331.272 345.435 330.938 345.5 330.5C352.567 321.098 360.9 313.098 370.5 306.5C371.922 305.075 373.589 304.075 375.5 303.5Z" fill="#7CCC2A"/>
<path fill-rule="evenodd" clip-rule="evenodd" d="M185.5 303.5C189.795 309.463 194.795 314.796 200.5 319.5C187.562 321.773 177.562 328.439 170.5 339.5C171.584 330.998 175.084 323.665 181 317.5C182.442 312.763 183.942 308.097 185.5 303.5Z" fill="#7CCB2B"/>
<path fill-rule="evenodd" clip-rule="evenodd" d="M373.5 323.5C372.738 327.133 371.404 330.466 369.5 333.5C369.665 330.482 369.498 327.482 369 324.5C368.275 323.941 367.442 323.608 366.5 323.5C358.077 327.374 350.743 332.708 344.5 339.5C342.517 339.843 341.183 339.176 340.5 337.5C341.443 334.6 343.11 332.267 345.5 330.5C345.435 330.938 345.601 331.272 346 331.5C349.893 327.27 354.059 323.437 358.5 320C364.296 318.621 369.296 319.787 373.5 323.5Z" fill="#A8DC31"/>
<path fill-rule="evenodd" clip-rule="evenodd" d="M200.5 319.5C202.674 319.75 204.341 320.75 205.5 322.5C198.799 322.682 192.799 324.849 187.5 329C182.18 333.474 177.846 338.641 174.5 344.5C173.596 345.209 173.263 346.209 173.5 347.5C172.5 347.5 171.5 347.5 170.5 347.5C170.5 344.833 170.5 342.167 170.5 339.5C177.562 328.439 187.562 321.773 200.5 319.5Z" fill="#A8E031"/>
<path fill-rule="evenodd" clip-rule="evenodd" d="M205.5 322.5C214.289 326.276 223.289 328.942 232.5 330.5C231.448 330.351 230.448 330.517 229.5 331C234.451 331.775 237.785 334.608 239.5 339.5C240.013 343.79 239.013 347.623 236.5 351C233.283 352.637 229.95 353.97 226.5 355C224.38 357.409 222.38 359.909 220.5 362.5C215.722 363.861 211.056 365.528 206.5 367.5C203.087 366.362 199.754 365.029 196.5 363.5C194.181 363.495 191.681 363.828 189 364.5C183.39 364.29 179.224 361.956 176.5 357.5C175.752 353.188 175.086 348.854 174.5 344.5C177.846 338.641 182.18 333.474 187.5 329C192.799 324.849 198.799 322.682 205.5 322.5Z" fill="#EF478D"/>
<path fill-rule="evenodd" clip-rule="evenodd" d="M369.5 333.5C365.2 342.759 359.867 351.426 353.5 359.5C353.5 358.167 353.5 356.833 353.5 355.5C350.351 355.789 347.351 355.289 344.5 354C342.043 351.28 340.71 348.446 340.5 345.5C341.654 343.349 342.987 341.349 344.5 339.5C350.743 332.708 358.077 327.374 366.5 323.5C367.442 323.608 368.275 323.941 369 324.5C369.498 327.482 369.665 330.482 369.5 333.5Z" fill="#EF458B"/>
<path fill-rule="evenodd" clip-rule="evenodd" d="M232.5 330.5C234.5 330.5 236.5 330.5 238.5 330.5C240.231 331.207 241.897 332.207 243.5 333.5C246.153 336.646 248.153 340.146 249.5 344C249.612 345.662 248.946 346.829 247.5 347.5C243.758 345.758 241.091 343.092 239.5 339.5C237.785 334.608 234.451 331.775 229.5 331C230.448 330.517 231.448 330.351 232.5 330.5Z" fill="#E61B5D"/>
<path fill-rule="evenodd" clip-rule="evenodd" d="M302.5 359.5C299.514 357.515 296.18 356.348 292.5 356C283.5 355.333 274.5 355.333 265.5 356C260.983 357.087 257.316 359.42 254.5 363C253.167 363.333 251.833 363.667 250.5 364C245.89 368.456 240.89 372.29 235.5 375.5C236.343 372.484 237.843 369.817 240 367.5C249.259 359.947 255.759 350.614 259.5 339.5C260.873 339.343 262.207 339.51 263.5 340C273.555 346.915 284.555 351.915 296.5 355C299.106 355.792 301.106 357.292 302.5 359.5Z" fill="#7BCB29"/>
<path fill-rule="evenodd" clip-rule="evenodd" d="M170.5 339.5C170.5 342.167 170.5 344.833 170.5 347.5C171.5 347.5 172.5 347.5 173.5 347.5C173.263 346.209 173.596 345.209 174.5 344.5C175.086 348.854 175.752 353.188 176.5 357.5C176.848 361.085 176.181 364.418 174.5 367.5C173.209 367.737 172.209 367.404 171.5 366.5C169.67 363.826 168.67 360.826 168.5 357.5C168.982 351.33 169.649 345.33 170.5 339.5Z" fill="#E51F5C"/>
<path fill-rule="evenodd" clip-rule="evenodd" d="M340.5 337.5C341.183 339.176 342.517 339.843 344.5 339.5C342.987 341.349 341.654 343.349 340.5 345.5C337.01 352.481 333.51 359.481 330 366.5C327.469 369.322 325.969 368.822 325.5 365C329.104 354.951 334.104 345.784 340.5 337.5Z" fill="#E61B5B"/>
<path fill-rule="evenodd" clip-rule="evenodd" d="M301.5 362.5C304.115 365.987 305.782 369.987 306.5 374.5C305.029 377.136 303.363 379.636 301.5 382C301.833 382.333 302.167 382.667 302.5 383C299.24 383.784 296.073 383.617 293 382.5C287.667 384.308 282.501 386.808 277.5 390C264.913 392.587 252.246 393.087 239.5 391.5C239.922 386.453 240.589 381.453 241.5 376.5C250.006 368.845 259.673 363.012 270.5 359C277.167 358.333 283.833 358.333 290.5 359C294.491 359.498 298.158 360.665 301.5 362.5Z" fill="#EF458C"/>
<path fill-rule="evenodd" clip-rule="evenodd" d="M302.5 359.5C306.812 361.853 306.478 362.853 301.5 362.5C298.158 360.665 294.491 359.498 290.5 359C283.833 358.333 277.167 358.333 270.5 359C259.673 363.012 250.006 368.845 241.5 376.5C239.454 378.279 237.287 379.946 235 381.5C234.211 379.288 234.378 377.288 235.5 375.5C240.89 372.29 245.89 368.456 250.5 364C251.833 363.667 253.167 363.333 254.5 363C257.316 359.42 260.983 357.087 265.5 356C274.5 355.333 283.5 355.333 292.5 356C296.18 356.348 299.514 357.515 302.5 359.5Z" fill="#A7DD32"/>
<path fill-rule="evenodd" clip-rule="evenodd" d="M148.5 358.5C155.736 362.231 163.403 364.898 171.5 366.5C172.209 367.404 173.209 367.737 174.5 367.5C175.167 368.167 175.833 368.833 176.5 369.5C172.7 369.516 168.7 369.682 164.5 370C161.591 371.406 159.591 373.572 158.5 376.5C153.91 371.51 149.91 366.01 146.5 360C147.044 359.283 147.711 358.783 148.5 358.5Z" fill="#7DCC2C"/>
<path fill-rule="evenodd" clip-rule="evenodd" d="M176.5 369.5C183.197 370.566 189.531 372.733 195.5 376C196.711 376.893 196.711 377.726 195.5 378.5C193.615 377.391 191.615 376.557 189.5 376C181.167 375.333 172.833 375.333 164.5 376C163.748 376.671 163.414 377.504 163.5 378.5C162.732 379.263 162.232 380.263 162 381.5C160.198 380.211 159.031 378.544 158.5 376.5C159.591 373.572 161.591 371.406 164.5 370C168.7 369.682 172.7 369.516 176.5 369.5Z" fill="#ACDA36"/>
<path fill-rule="evenodd" clip-rule="evenodd" d="M311.5 392.5C316.925 396.651 321.925 401.318 326.5 406.5C329.409 403.423 332.742 400.923 336.5 399C342.04 398.557 343.873 401.057 342 406.5C339.584 411.907 336.084 416.407 331.5 420C329.167 420.667 326.833 420.667 324.5 420C317.738 415.242 311.571 409.742 306 403.5C304.121 401.473 302.954 399.14 302.5 396.5C304.379 392.991 307.379 391.658 311.5 392.5Z" fill="#0B0A0A"/>
<path fill-rule="evenodd" clip-rule="evenodd" d="M225.5 404.5C226.431 412.475 227.097 420.475 227.5 428.5C233.105 427.908 238.439 428.741 243.5 431C247.061 436.65 245.394 439.817 238.5 440.5C232.25 442.174 225.917 442.674 219.5 442C216.415 439.58 215.749 436.58 217.5 433C215.364 430.221 214.197 427.054 214 423.5C213.165 415.824 212.331 408.158 211.5 400.5C211.496 396.395 213.496 394.895 217.5 396C221.035 398.034 223.701 400.867 225.5 404.5Z" fill="#060505"/>
</svg>
