<svg width="500" height="500" viewBox="0 0 500 500" fill="none" xmlns="http://www.w3.org/2000/svg">
<path fill-rule="evenodd" clip-rule="evenodd" d="M218.197 39.9838C225.562 40.0429 232.895 40.5429 240.197 41.4838C246.053 41.8084 251.886 42.3084 257.697 42.9838C263.46 44.417 269.293 45.5837 275.197 46.4838C279.438 47.5261 283.771 48.4428 288.197 49.2338C297.247 49.5718 306.081 51.0718 314.697 53.7338C328.662 50.8678 334.745 56.4513 332.947 70.4838C331.996 71.8193 331.579 73.3193 331.697 74.9838C329.782 81.4593 328.198 88.1258 326.947 94.9838C325.434 98.7713 324.184 102.605 323.197 106.484C323.197 105.817 323.197 105.15 323.197 104.484C302.188 104.168 281.188 103.835 260.197 103.484C256.992 102.562 253.658 102.062 250.197 101.984C243.858 101.55 237.525 101.05 231.197 100.484C228.297 99.8928 225.297 99.5598 222.197 99.4838C216.562 98.5713 210.896 97.9043 205.197 97.4838C205.031 97.4838 204.864 97.4838 204.697 97.4838C204.848 90.7158 204.515 84.0493 203.697 77.4838C203.588 75.3338 203.088 73.3338 202.197 71.4838C201.453 68.5313 200.953 65.5313 200.697 62.4838C200.741 59.0573 200.574 55.6408 200.197 52.2338C200.254 50.2603 200.587 48.3434 201.197 46.4838C201.891 44.3727 203.224 42.7893 205.197 41.7338C209.45 40.6553 213.783 40.072 218.197 39.9838Z" fill="#2E2C2D"/>
<path fill-rule="evenodd" clip-rule="evenodd" d="M205.197 97.4838C210.896 97.9043 216.562 98.5713 222.197 99.4838C225.072 100.309 228.072 100.642 231.197 100.484C237.525 101.05 243.858 101.55 250.197 101.984C253.403 102.906 256.736 103.406 260.197 103.484C281.188 103.835 302.188 104.168 323.197 104.484C323.197 105.15 323.197 105.817 323.197 106.484C320.82 111.484 318.82 116.65 317.197 121.984C309.328 121.977 301.494 121.477 293.697 120.484C292.025 119.625 290.192 119.292 288.197 119.484C269.84 119.245 251.507 118.745 233.197 117.984C230.357 116.934 227.357 116.434 224.197 116.484C223.531 116.484 222.864 116.484 222.197 116.484C217.277 115.903 212.277 115.403 207.197 114.984C207.197 114.65 207.031 114.484 206.697 114.484C206.717 112.793 206.551 111.127 206.197 109.484C205.629 105.505 205.296 101.505 205.197 97.4838Z" fill="#E14337"/>
<path fill-rule="evenodd" clip-rule="evenodd" d="M222.197 99.4838C225.297 99.5598 228.297 99.8928 231.197 100.484C228.072 100.642 225.072 100.309 222.197 99.4838Z" fill="#983831"/>
<path fill-rule="evenodd" clip-rule="evenodd" d="M250.197 101.984C253.658 102.062 256.992 102.562 260.197 103.484C256.736 103.406 253.403 102.906 250.197 101.984Z" fill="#6E3430"/>
<path fill-rule="evenodd" clip-rule="evenodd" d="M178.198 111.484C178.364 111.484 178.531 111.484 178.698 111.484C185.458 111.055 191.958 112.138 198.198 114.734C201.122 115.143 203.955 115.06 206.698 114.484C207.031 114.484 207.198 114.65 207.198 114.984C212.051 116.223 217.051 116.723 222.198 116.484C222.864 116.484 223.531 116.484 224.198 116.484C227.103 117.162 230.103 117.662 233.198 117.984C251.508 118.745 269.841 119.245 288.198 119.484C289.935 119.996 291.768 120.33 293.698 120.484C301.495 121.477 309.328 121.977 317.198 121.984C317.236 122.609 317.57 123.025 318.198 123.234C321.186 123.768 324.186 124.184 327.198 124.484C329.438 124.994 331.771 125.327 334.198 125.484C337.992 125.347 341.659 125.93 345.198 127.234C345.773 128.334 346.607 129.084 347.698 129.484C347.698 129.817 347.698 130.15 347.698 130.484C347.955 131.542 348.121 132.626 348.198 133.734C347.483 136.59 347.066 139.506 346.948 142.484C345.608 144.164 344.524 145.997 343.698 147.984C342.473 149.614 341.14 151.114 339.698 152.484C337.486 153.34 335.152 153.674 332.698 153.484C329.867 153.28 327.034 153.114 324.198 152.984C320.864 152.484 317.531 151.984 314.198 151.484C312.461 150.971 310.628 150.638 308.698 150.484C308.198 150.484 307.698 150.484 307.198 150.484C303.417 148.877 299.417 148.21 295.198 148.484C276.432 146.334 257.599 145.25 238.698 145.234C230.497 144.554 222.331 143.637 214.198 142.484C211.988 141.748 209.655 141.415 207.198 141.484C205.313 141.612 203.48 141.445 201.698 140.984C197.119 140.569 192.452 140.319 187.698 140.234C184.932 139.844 182.265 139.177 179.698 138.234C176.494 138.014 173.327 137.597 170.198 136.984C169.178 136.145 168.178 135.312 167.198 134.484C165.633 132.452 164.967 130.118 165.198 127.484C165.198 126.817 165.198 126.15 165.198 125.484C167.122 123.141 168.456 120.474 169.198 117.484C169.198 117.15 169.364 116.984 169.698 116.984C170.402 115.979 171.152 114.979 171.948 113.984C173.939 112.795 176.022 111.962 178.198 111.484Z" fill="#2E2C2D"/>
<path fill-rule="evenodd" clip-rule="evenodd" d="M207.197 114.984C212.277 115.403 217.277 115.903 222.197 116.484C217.051 116.723 212.051 116.223 207.197 114.984Z" fill="#9C3931"/>
<path fill-rule="evenodd" clip-rule="evenodd" d="M224.197 116.484C227.357 116.434 230.357 116.934 233.197 117.984C230.102 117.662 227.102 117.162 224.197 116.484Z" fill="#893833"/>
<path fill-rule="evenodd" clip-rule="evenodd" d="M288.197 119.484C290.192 119.292 292.025 119.625 293.697 120.484C291.767 120.33 289.934 119.996 288.197 119.484Z" fill="#973A31"/>
<path fill-rule="evenodd" clip-rule="evenodd" d="M196.197 140.984C198.031 140.984 199.864 140.984 201.697 140.984C203.479 141.445 205.313 141.612 207.197 141.484C209.407 142.22 211.74 142.553 214.197 142.484C222.33 143.637 230.497 144.554 238.697 145.234C257.598 145.25 276.432 146.334 295.197 148.484C299.098 149.356 303.098 150.023 307.197 150.484C307.697 150.484 308.197 150.484 308.697 150.484C310.37 151.342 312.203 151.676 314.197 151.484C317.531 151.984 320.864 152.484 324.197 152.984C328.774 157.893 332.774 163.226 336.197 168.984C337.412 171.252 338.746 173.419 340.197 175.484C342.27 179.962 344.603 184.295 347.197 188.484C347.478 189.965 347.978 191.381 348.697 192.734C348.662 193.116 348.496 193.366 348.197 193.484C344.905 192.28 342.072 190.363 339.697 187.734C336.883 185.671 333.883 183.921 330.697 182.484C328.778 180.701 326.445 180.034 323.697 180.484C322.898 180.618 322.231 180.451 321.697 179.984C320.896 179.197 319.896 178.863 318.697 178.984C318.531 178.984 318.364 178.984 318.197 178.984C317.961 178.281 317.461 177.947 316.697 177.984C316.531 177.984 316.364 177.984 316.197 177.984C314.695 177.095 313.028 176.595 311.197 176.484C310.593 176.117 309.927 175.95 309.197 175.984C307.547 174.913 305.714 174.246 303.697 173.984C299.027 173.9 294.36 173.734 289.697 173.484C288.498 173.363 287.498 173.697 286.697 174.484C284.959 175.783 283.126 176.949 281.197 177.984C280.073 178.274 279.24 178.94 278.697 179.984C275.851 182.161 273.851 184.994 272.697 188.484C271.994 188.72 271.661 189.22 271.697 189.984C271.054 191.437 270.554 192.937 270.197 194.484C269.494 194.72 269.161 195.22 269.197 195.984C269.197 196.15 269.197 196.317 269.197 196.484C268.485 197.491 268.152 198.658 268.197 199.984C268.197 200.15 268.197 200.317 268.197 200.484C266.759 206.527 266.925 212.527 268.697 218.484C269.031 219.817 269.364 221.15 269.697 222.484C269.652 223.81 269.985 224.976 270.697 225.984C270.661 226.747 270.994 227.247 271.697 227.484C272.002 227.929 272.169 228.429 272.197 228.984C272.161 229.747 272.494 230.247 273.197 230.484C276.47 234.413 280.636 236.913 285.697 237.984C287.417 238.836 289.25 239.503 291.197 239.984C291.253 240.292 291.419 240.542 291.697 240.734C294.712 240.86 297.712 241.11 300.697 241.484C301.239 241.391 301.739 241.225 302.197 240.984C303.656 243.81 305.323 246.56 307.197 249.234C313.385 252.479 319.801 252.896 326.447 250.484C329.334 248.916 332.25 247.416 335.197 245.984C337.367 243.627 339.284 241.127 340.947 238.484C341.546 235.669 341.712 232.836 341.447 229.984C339.832 226.952 337.748 224.285 335.197 221.984C333.013 221.366 330.93 220.533 328.947 219.484C328.561 219.556 328.228 219.723 327.947 219.984C328.312 218.723 328.562 217.39 328.697 215.984C329.786 213.141 330.87 210.308 331.947 207.484C332.178 205.142 332.095 202.808 331.697 200.484C331.442 199.04 331.775 197.873 332.697 196.984C334.406 198.361 336.239 199.528 338.197 200.484C338.674 201.539 339.507 202.122 340.697 202.234C342.188 202.483 343.688 202.566 345.197 202.484C346.197 202.984 347.197 203.484 348.197 203.984C349.251 204.468 350.418 204.635 351.697 204.484C351.697 209.817 351.697 215.15 351.697 220.484C351.23 221.018 351.063 221.684 351.197 222.484C350.042 226.555 349.042 230.722 348.197 234.984C346.817 240.056 345.567 245.223 344.447 250.484C342.417 253.761 340.5 257.094 338.697 260.484C336.734 263.035 334.651 265.535 332.447 267.984C332.242 268.684 331.992 269.351 331.697 269.984C328.743 269.969 325.826 270.303 322.947 270.984C319.625 269.094 316.041 268.51 312.197 269.234C302.78 271.129 293.28 272.463 283.697 273.234C282.425 274.28 280.925 274.78 279.197 274.734C274.04 275.209 268.874 275.459 263.697 275.484C254.782 275.72 245.948 276.054 237.197 276.484C229.695 276.567 222.195 276.484 214.697 276.234C206.98 275.058 199.313 273.558 191.697 271.734C189.755 270.807 187.755 269.974 185.697 269.234C182.291 268.71 178.958 267.877 175.697 266.734C172.886 266.219 170.052 265.969 167.197 265.984C164.673 263.127 162.34 260.127 160.197 256.984C157.629 252.5 155.879 247.667 154.947 242.484C153.038 232.057 151.788 221.557 151.197 210.984C151.217 208.637 151.384 206.304 151.697 203.984C152.031 204.984 152.364 205.984 152.697 206.984C154.584 208.365 156.751 208.865 159.197 208.484C160.853 208.659 162.02 207.993 162.697 206.484C165.048 206.122 166.548 204.789 167.197 202.484C168.492 202.024 169.492 201.191 170.197 199.984C171.305 199.632 172.222 198.966 172.947 197.984C173.194 198.801 173.277 199.634 173.197 200.484C172.554 202.083 172.221 203.749 172.197 205.484C171.866 206.554 171.699 207.721 171.697 208.984C171.629 210.957 171.962 212.791 172.697 214.484C172.799 215.576 173.132 216.576 173.697 217.484C173.809 219.315 174.309 220.981 175.197 222.484C175.197 223.15 175.197 223.817 175.197 224.484C173.686 224.636 172.186 224.886 170.697 225.234C168.182 227.157 165.516 228.824 162.697 230.234C160.774 233.091 159.774 236.257 159.697 239.734C160.572 241.954 161.322 244.204 161.947 246.484C166.043 250.999 170.793 254.749 176.197 257.734C187.18 261.406 195.93 258.489 202.447 248.984C204.008 246.747 204.592 244.247 204.197 241.484C205.64 241.637 206.973 241.47 208.197 240.984C208.364 240.984 208.531 240.984 208.697 240.984C209.952 241.207 210.952 240.874 211.697 239.984C213.714 240.57 215.714 241.32 217.697 242.234C220.747 242.664 223.747 243.247 226.697 243.984C230.11 244.317 233.61 244.484 237.197 244.484C240.881 244.482 244.381 244.149 247.697 243.484C251.37 243.166 255.037 242.75 258.697 242.234C260.454 241.818 262.038 241.068 263.447 239.984C269.247 228.881 266.497 220.464 255.197 214.734C253.031 214.4 250.864 214.4 248.697 214.734C244.04 215.953 239.456 217.37 234.947 218.984C234.748 218.87 234.665 218.703 234.697 218.484C234.648 217.457 234.982 216.624 235.697 215.984C236.4 215.747 236.734 215.247 236.697 214.484C237.275 210.739 237.358 206.906 236.947 202.984C236.808 202.526 236.558 202.193 236.197 201.984C236.197 201.817 236.197 201.65 236.197 201.484C236.217 200.189 235.717 199.189 234.697 198.484C234.904 197.074 234.404 196.074 233.197 195.484C232.435 193.633 231.352 191.966 229.947 190.484C230.476 185.959 228.893 182.375 225.197 179.734C223.086 178.763 221.086 177.68 219.197 176.484C218.396 175.697 217.396 175.363 216.197 175.484C214.197 175.15 212.197 174.817 210.197 174.484C208.634 173.943 206.967 173.61 205.197 173.484C201.286 172.906 197.286 172.822 193.197 173.234C192.739 173.373 192.406 173.623 192.197 173.984C191.301 173.917 190.468 174.083 189.697 174.484C187.064 175.028 184.564 175.862 182.197 176.984C180.964 177.111 179.964 177.611 179.197 178.484C175.97 179.263 172.97 180.597 170.197 182.484C169.434 182.447 168.934 182.781 168.697 183.484C167.871 183.564 167.204 183.897 166.697 184.484C165.745 184.603 165.078 185.103 164.697 185.984C163.065 186.781 161.732 187.947 160.697 189.484C159.326 190.353 158.326 191.52 157.697 192.984C156.017 194.181 154.683 195.681 153.697 197.484C153.385 197.275 153.219 196.942 153.197 196.484C154.226 193.562 155.059 190.562 155.697 187.484C158.742 179.395 162.575 171.729 167.197 164.484C168.031 163.984 168.697 163.317 169.197 162.484C172.642 159.1 175.975 155.6 179.197 151.984C180.632 151.517 181.799 150.684 182.697 149.484C182.864 149.484 183.031 149.484 183.197 149.484C187.549 146.644 191.882 143.81 196.197 140.984Z" fill="#FDFDFD"/>
<path fill-rule="evenodd" clip-rule="evenodd" d="M207.197 141.484C209.654 141.415 211.988 141.748 214.197 142.484C211.74 142.553 209.407 142.22 207.197 141.484Z" fill="#79797B"/>
<path fill-rule="evenodd" clip-rule="evenodd" d="M295.197 148.484C299.417 148.21 303.417 148.877 307.197 150.484C303.098 150.023 299.098 149.356 295.197 148.484Z" fill="#515151"/>
<path fill-rule="evenodd" clip-rule="evenodd" d="M308.697 150.484C310.627 150.638 312.46 150.971 314.197 151.484C312.203 151.676 310.37 151.342 308.697 150.484Z" fill="#999999"/>
<path fill-rule="evenodd" clip-rule="evenodd" d="M205.197 173.484C200.847 173.378 196.514 173.545 192.197 173.984C192.406 173.623 192.739 173.373 193.197 173.234C197.286 172.822 201.286 172.906 205.197 173.484Z" fill="#818181"/>
<path fill-rule="evenodd" clip-rule="evenodd" d="M205.197 173.484C205.406 173.845 205.739 174.095 206.197 174.234C207.52 174.482 208.854 174.566 210.197 174.484C212.197 174.817 214.197 175.15 216.197 175.484C216.998 176.271 217.998 176.604 219.197 176.484C221.086 177.68 223.086 178.763 225.197 179.734C228.893 182.375 230.476 185.959 229.947 190.484C231.352 191.966 232.435 193.633 233.197 195.484C233.443 196.643 233.943 197.643 234.697 198.484C234.825 199.717 235.325 200.717 236.197 201.484C236.197 201.65 236.197 201.817 236.197 201.984C236.633 206.134 236.8 210.3 236.697 214.484C235.994 214.72 235.661 215.22 235.697 215.984C234.982 216.624 234.648 217.457 234.697 218.484C227.875 222.73 220.708 226.48 213.197 229.734C211.783 230.858 210.283 231.858 208.697 232.734C206.958 235.986 207.791 238.236 211.197 239.484C210.411 240.077 209.578 240.577 208.697 240.984C208.531 240.984 208.364 240.984 208.197 240.984C204.864 241.15 201.531 241.317 198.197 241.484C197.028 240.714 195.695 240.381 194.197 240.484C190.948 240.193 188.281 238.859 186.197 236.484C185.697 235.65 185.031 234.984 184.197 234.484C183.492 233.277 182.492 232.443 181.197 231.984C178.301 229.352 176.301 226.186 175.197 222.484C175.086 220.653 174.586 218.986 173.697 217.484C173.132 216.576 172.799 215.576 172.697 214.484C172.365 211.495 172.198 208.495 172.197 205.484C172.221 203.749 172.554 202.083 173.197 200.484C173.678 199.601 173.845 198.601 173.697 197.484C172.126 197.718 170.959 198.552 170.197 199.984C168.903 200.443 167.903 201.277 167.197 202.484C165.684 203.831 164.184 205.165 162.697 206.484C161.397 206.968 160.23 207.634 159.197 208.484C156.751 208.865 154.584 208.365 152.697 206.984C152.697 204.317 152.697 201.65 152.697 198.984C153.223 198.623 153.556 198.123 153.697 197.484C154.683 195.681 156.017 194.181 157.697 192.984C159.069 192.114 160.069 190.947 160.697 189.484C161.732 187.947 163.065 186.781 164.697 185.984C165.649 185.865 166.316 185.365 166.697 184.484C167.204 183.897 167.871 183.564 168.697 183.484C169.461 183.52 169.961 183.187 170.197 182.484C172.97 180.597 175.97 179.263 179.197 178.484C180.431 178.356 181.431 177.856 182.197 176.984C184.905 176.637 187.405 175.804 189.697 174.484C190.468 174.083 191.301 173.917 192.197 173.984C196.514 173.545 200.847 173.378 205.197 173.484Z" fill="#030303"/>
<path fill-rule="evenodd" clip-rule="evenodd" d="M205.197 173.484C206.967 173.61 208.634 173.943 210.197 174.484C208.854 174.566 207.52 174.482 206.197 174.234C205.739 174.095 205.406 173.845 205.197 173.484Z" fill="#636363"/>
<path fill-rule="evenodd" clip-rule="evenodd" d="M289.697 173.484C288.896 174.271 287.896 174.604 286.697 174.484C287.498 173.697 288.498 173.363 289.697 173.484Z" fill="#474747"/>
<path fill-rule="evenodd" clip-rule="evenodd" d="M289.697 173.484C294.36 173.734 299.027 173.9 303.697 173.984C305.347 175.055 307.181 175.721 309.197 175.984C309.927 175.95 310.593 176.117 311.197 176.484C312.7 177.372 314.366 177.872 316.197 177.984C316.364 177.984 316.531 177.984 316.697 177.984C316.934 178.687 317.434 179.02 318.197 178.984C318.364 178.984 318.531 178.984 318.697 178.984C319.498 179.771 320.498 180.104 321.697 179.984C322.231 180.451 322.898 180.618 323.697 180.484C325.961 181.207 328.294 181.874 330.697 182.484C333.883 183.921 336.883 185.671 339.697 187.734C342.072 190.363 344.905 192.28 348.197 193.484C349.578 194.596 351.078 195.596 352.697 196.484C353.608 197.167 354.108 198.084 354.197 199.234C353.76 202.751 351.76 204.335 348.197 203.984C347.197 203.484 346.197 202.984 345.197 202.484C342.784 202.219 340.45 201.552 338.197 200.484C336.239 199.528 334.406 198.361 332.697 196.984C332.343 196.532 331.843 196.365 331.197 196.484C331.044 197.926 331.211 199.26 331.697 200.484C332.095 202.808 332.178 205.142 331.947 207.484C330.87 210.308 329.786 213.141 328.697 215.984C326.246 220.721 323.912 225.555 321.697 230.484C319.12 233.181 316.287 235.514 313.197 237.484C311.589 238.011 310.089 238.761 308.697 239.734C306.572 240.331 304.405 240.581 302.197 240.484C298.835 240.612 295.502 240.445 292.197 239.984C290.196 238.929 288.03 238.262 285.697 237.984C280.636 236.913 276.47 234.413 273.197 230.484C273.234 229.72 272.9 229.22 272.197 228.984C272.169 228.429 272.002 227.929 271.697 227.484C271.734 226.72 271.4 226.22 270.697 225.984C270.742 224.658 270.409 223.491 269.697 222.484C269.364 221.15 269.031 219.817 268.697 218.484C268.437 216.493 268.27 214.493 268.197 212.484C268.31 207.798 268.643 203.131 269.197 198.484C269.197 197.817 269.197 197.15 269.197 196.484C269.197 196.317 269.197 196.15 269.197 195.984C269.9 195.747 270.234 195.247 270.197 194.484C270.554 192.937 271.054 191.437 271.697 189.984C272.4 189.747 272.734 189.247 272.697 188.484C273.851 184.994 275.851 182.161 278.697 179.984C279.822 179.694 280.655 179.027 281.197 177.984C283.126 176.949 284.959 175.783 286.697 174.484C287.896 174.604 288.896 174.271 289.697 173.484Z" fill="#020202"/>
<path fill-rule="evenodd" clip-rule="evenodd" d="M303.697 173.984C305.714 174.246 307.547 174.913 309.197 175.984C307.181 175.721 305.347 175.055 303.697 173.984Z" fill="#9A9A9A"/>
<path fill-rule="evenodd" clip-rule="evenodd" d="M189.697 174.484C187.405 175.804 184.905 176.637 182.197 176.984C184.564 175.862 187.064 175.028 189.697 174.484Z" fill="#505050"/>
<path fill-rule="evenodd" clip-rule="evenodd" d="M216.197 175.484C217.396 175.363 218.396 175.697 219.197 176.484C217.998 176.604 216.998 176.271 216.197 175.484Z" fill="#888888"/>
<path fill-rule="evenodd" clip-rule="evenodd" d="M311.197 176.484C313.028 176.595 314.695 177.095 316.197 177.984C314.366 177.872 312.7 177.372 311.197 176.484Z" fill="#808080"/>
<path fill-rule="evenodd" clip-rule="evenodd" d="M182.197 176.984C181.431 177.856 180.431 178.356 179.197 178.484C179.964 177.611 180.964 177.111 182.197 176.984Z" fill="#545454"/>
<path fill-rule="evenodd" clip-rule="evenodd" d="M316.697 177.984C317.461 177.947 317.961 178.281 318.197 178.984C317.434 179.02 316.934 178.687 316.697 177.984Z" fill="#737373"/>
<path fill-rule="evenodd" clip-rule="evenodd" d="M281.197 177.984C280.655 179.027 279.822 179.694 278.697 179.984C279.24 178.94 280.073 178.274 281.197 177.984Z" fill="#505050"/>
<path fill-rule="evenodd" clip-rule="evenodd" d="M318.697 178.984C319.896 178.863 320.896 179.197 321.697 179.984C320.498 180.104 319.498 179.771 318.697 178.984Z" fill="#A7A7A7"/>
<path fill-rule="evenodd" clip-rule="evenodd" d="M323.697 180.484C326.445 180.034 328.778 180.701 330.697 182.484C328.294 181.874 325.961 181.207 323.697 180.484Z" fill="#B6B6B6"/>
<path fill-rule="evenodd" clip-rule="evenodd" d="M295.197 183.484C293.948 182.92 292.615 182.587 291.197 182.484C289.859 182.652 288.526 182.819 287.197 182.984C288.264 182.217 289.514 181.884 290.947 181.984C292.135 182.031 293.302 182.198 294.447 182.484C294.962 182.652 295.212 182.985 295.197 183.484Z" fill="#717171"/>
<path fill-rule="evenodd" clip-rule="evenodd" d="M170.197 182.484C169.961 183.187 169.461 183.52 168.697 183.484C168.934 182.781 169.434 182.447 170.197 182.484Z" fill="#7C7A7B"/>
<path fill-rule="evenodd" clip-rule="evenodd" d="M295.197 183.484C298.507 186.411 299.59 190.078 298.447 194.484C297.496 195.454 297.079 196.621 297.197 197.984C296.643 200.08 296.143 202.246 295.697 204.484C294.192 205.068 292.858 205.902 291.697 206.984C289.414 207.632 287.081 207.632 284.697 206.984C283.896 206.197 282.896 205.863 281.697 205.984C281.531 205.484 281.197 205.15 280.697 204.984C281.132 202.425 280.132 200.758 277.697 199.984C277.08 196.828 277.08 193.661 277.697 190.484C279.031 189.484 280.197 188.317 281.197 186.984C283.849 186.672 285.849 185.338 287.197 182.984C288.526 182.819 289.859 182.652 291.197 182.484C292.615 182.587 293.948 182.92 295.197 183.484Z" fill="#FAFAFA"/>
<path fill-rule="evenodd" clip-rule="evenodd" d="M217.197 184.984C215.18 184.986 213.18 185.153 211.197 185.484C212.287 184.771 213.537 184.438 214.947 184.484C215.801 184.488 216.551 184.655 217.197 184.984Z" fill="#464646"/>
<path fill-rule="evenodd" clip-rule="evenodd" d="M166.697 184.484C166.316 185.365 165.649 185.865 164.697 185.984C165.078 185.103 165.745 184.603 166.697 184.484Z" fill="#686667"/>
<path fill-rule="evenodd" clip-rule="evenodd" d="M217.197 184.984C218.149 185.103 218.816 185.603 219.197 186.484C216.545 186.137 213.878 185.97 211.197 185.984C211.197 185.817 211.197 185.65 211.197 185.484C213.18 185.153 215.18 184.986 217.197 184.984Z" fill="#CCCCCC"/>
<path fill-rule="evenodd" clip-rule="evenodd" d="M211.197 185.984C213.878 185.97 216.545 186.137 219.197 186.484C219.531 186.65 219.864 186.817 220.197 186.984C221.395 188.877 222.479 190.877 223.447 192.984C223.752 195.664 223.668 198.331 223.197 200.984C221.497 203.353 219.997 205.853 218.697 208.484C218.531 208.984 218.197 209.317 217.697 209.484C216.518 209.36 215.518 209.693 214.697 210.484C212.891 210.989 211.058 211.073 209.197 210.734C207.168 209.555 205.335 208.138 203.697 206.484C203.006 205.245 202.506 203.911 202.197 202.484C201.964 200.019 202.298 197.685 203.197 195.484C203.314 194.703 203.647 194.036 204.197 193.484C205.151 192.991 205.651 192.158 205.697 190.984C205.697 190.65 205.697 190.317 205.697 189.984C206.697 189.317 207.531 188.484 208.197 187.484C208.791 186.246 209.791 185.746 211.197 185.984Z" fill="#FBFBFB"/>
<path fill-rule="evenodd" clip-rule="evenodd" d="M287.197 182.984C285.849 185.338 283.849 186.672 281.197 186.984C283.331 185.85 285.331 184.517 287.197 182.984Z" fill="#9C9C9C"/>
<path fill-rule="evenodd" clip-rule="evenodd" d="M208.197 187.484C207.531 188.484 206.697 189.317 205.697 189.984C206.031 188.65 206.864 187.817 208.197 187.484Z" fill="#686868"/>
<path fill-rule="evenodd" clip-rule="evenodd" d="M281.197 186.984C280.197 188.317 279.031 189.484 277.697 190.484C278.364 188.817 279.531 187.65 281.197 186.984Z" fill="#848484"/>
<path fill-rule="evenodd" clip-rule="evenodd" d="M272.697 188.484C272.734 189.247 272.4 189.747 271.697 189.984C271.661 189.22 271.994 188.72 272.697 188.484Z" fill="#8A8A8A"/>
<path fill-rule="evenodd" clip-rule="evenodd" d="M160.697 189.484C160.069 190.947 159.069 192.114 157.697 192.984C158.326 191.52 159.326 190.353 160.697 189.484Z" fill="#5F5D5E"/>
<path fill-rule="evenodd" clip-rule="evenodd" d="M205.697 190.984C205.651 192.158 205.151 192.991 204.197 193.484C204.322 192.397 204.822 191.563 205.697 190.984Z" fill="#A1A1A1"/>
<path fill-rule="evenodd" clip-rule="evenodd" d="M277.697 190.484C277.08 193.661 277.08 196.828 277.697 199.984C277.052 199.705 276.636 199.205 276.447 198.484C276.072 195.948 276.238 193.448 276.947 190.984C277.139 190.706 277.389 190.539 277.697 190.484Z" fill="#9E9E9E"/>
<path fill-rule="evenodd" clip-rule="evenodd" d="M270.197 194.484C270.234 195.247 269.9 195.747 269.197 195.984C269.161 195.22 269.494 194.72 270.197 194.484Z" fill="#737373"/>
<path fill-rule="evenodd" clip-rule="evenodd" d="M233.197 195.484C234.404 196.074 234.904 197.074 234.697 198.484C233.943 197.643 233.443 196.643 233.197 195.484Z" fill="#9D9D9D"/>
<path fill-rule="evenodd" clip-rule="evenodd" d="M220.197 186.984C222.176 188.261 223.426 190.094 223.947 192.484C224.281 194.817 224.281 197.15 223.947 199.484C223.831 200.102 223.581 200.602 223.197 200.984C223.668 198.331 223.752 195.664 223.447 192.984C222.479 190.877 221.395 188.877 220.197 186.984Z" fill="#9E9E9E"/>
<path fill-rule="evenodd" clip-rule="evenodd" d="M295.197 183.484C297.037 184.241 298.287 185.574 298.947 187.484C299.281 190.15 299.281 192.817 298.947 195.484C298.599 196.526 298.015 197.359 297.197 197.984C297.079 196.621 297.496 195.454 298.447 194.484C299.59 190.078 298.507 186.411 295.197 183.484Z" fill="#6B6B6B"/>
<path fill-rule="evenodd" clip-rule="evenodd" d="M332.698 196.984C331.776 197.873 331.443 199.04 331.698 200.484C331.211 199.26 331.045 197.926 331.198 196.484C331.843 196.365 332.343 196.532 332.698 196.984Z" fill="#A5A5A5"/>
<path fill-rule="evenodd" clip-rule="evenodd" d="M173.197 200.484C173.277 199.634 173.194 198.801 172.947 197.984C172.222 198.966 171.305 199.632 170.197 199.984C170.959 198.552 172.126 197.718 173.697 197.484C173.845 198.601 173.678 199.601 173.197 200.484Z" fill="#ABABAB"/>
<path fill-rule="evenodd" clip-rule="evenodd" d="M203.198 195.484C202.298 197.685 201.965 200.019 202.198 202.484C201.625 200.578 201.542 198.578 201.948 196.484C202.302 196.043 202.719 195.71 203.198 195.484Z" fill="#7F7F7F"/>
<path fill-rule="evenodd" clip-rule="evenodd" d="M269.197 196.484C269.197 197.15 269.197 197.817 269.197 198.484C268.864 198.984 268.531 199.484 268.197 199.984C268.152 198.658 268.485 197.491 269.197 196.484Z" fill="#A4A4A4"/>
<path fill-rule="evenodd" clip-rule="evenodd" d="M234.697 198.484C235.717 199.189 236.217 200.189 236.197 201.484C235.325 200.717 234.825 199.717 234.697 198.484Z" fill="#8D8D8D"/>
<path fill-rule="evenodd" clip-rule="evenodd" d="M277.697 199.984C280.132 200.758 281.132 202.425 280.697 204.984C280.296 204.258 280.046 203.425 279.947 202.484C279.094 201.715 278.344 200.882 277.697 199.984Z" fill="#949494"/>
<path fill-rule="evenodd" clip-rule="evenodd" d="M338.197 200.484C340.45 201.552 342.784 202.219 345.197 202.484C343.688 202.566 342.188 202.483 340.697 202.234C339.507 202.122 338.674 201.539 338.197 200.484Z" fill="#585858"/>
<path fill-rule="evenodd" clip-rule="evenodd" d="M170.197 199.984C169.492 201.191 168.492 202.024 167.197 202.484C167.903 201.277 168.903 200.443 170.197 199.984Z" fill="#A5A3A6"/>
<path fill-rule="evenodd" clip-rule="evenodd" d="M297.197 197.984C297.28 199.659 297.196 201.325 296.947 202.984C296.759 203.705 296.342 204.205 295.697 204.484C296.143 202.246 296.643 200.08 297.197 197.984Z" fill="#8D8D8D"/>
<path fill-rule="evenodd" clip-rule="evenodd" d="M269.197 198.484C268.643 203.131 268.31 207.798 268.197 212.484C267.8 208.569 267.8 204.569 268.197 200.484C268.197 200.317 268.197 200.15 268.197 199.984C268.531 199.484 268.864 198.984 269.197 198.484Z" fill="#272727"/>
<path fill-rule="evenodd" clip-rule="evenodd" d="M152.697 198.984C152.697 201.65 152.697 204.317 152.697 206.984C152.364 205.984 152.031 204.984 151.697 203.984C151.697 203.317 151.697 202.65 151.697 201.984C151.745 200.841 152.078 199.841 152.697 198.984Z" fill="#828C96"/>
<path fill-rule="evenodd" clip-rule="evenodd" d="M295.697 204.484C294.705 205.816 293.372 206.649 291.697 206.984C292.858 205.902 294.192 205.068 295.697 204.484Z" fill="#727272"/>
<path fill-rule="evenodd" clip-rule="evenodd" d="M167.197 202.484C166.548 204.789 165.048 206.122 162.697 206.484C164.184 205.165 165.684 203.831 167.197 202.484Z" fill="#C6C3C7"/>
<path fill-rule="evenodd" clip-rule="evenodd" d="M223.197 200.984C222.432 203.489 221.348 205.822 219.947 207.984C219.612 208.36 219.195 208.527 218.697 208.484C219.997 205.853 221.497 203.353 223.197 200.984Z" fill="#939393"/>
<path fill-rule="evenodd" clip-rule="evenodd" d="M281.697 205.984C282.896 205.863 283.896 206.197 284.697 206.984C283.498 207.104 282.498 206.771 281.697 205.984Z" fill="#6A6A6A"/>
<path fill-rule="evenodd" clip-rule="evenodd" d="M172.197 205.484C172.198 208.495 172.365 211.495 172.697 214.484C171.962 212.791 171.629 210.957 171.697 208.984C171.699 207.721 171.866 206.554 172.197 205.484Z" fill="#696969"/>
<path fill-rule="evenodd" clip-rule="evenodd" d="M236.197 201.984C236.558 202.193 236.808 202.526 236.947 202.984C237.358 206.906 237.275 210.739 236.697 214.484C236.8 210.3 236.633 206.134 236.197 201.984Z" fill="#6B6B6B"/>
<path fill-rule="evenodd" clip-rule="evenodd" d="M162.697 206.484C162.02 207.993 160.853 208.659 159.197 208.484C160.23 207.634 161.397 206.968 162.697 206.484Z" fill="#ACACAE"/>
<path fill-rule="evenodd" clip-rule="evenodd" d="M268.197 200.484C267.8 204.569 267.8 208.569 268.197 212.484C268.27 214.493 268.437 216.493 268.697 218.484C266.925 212.527 266.759 206.527 268.197 200.484Z" fill="#BABABA"/>
<path fill-rule="evenodd" clip-rule="evenodd" d="M203.697 206.484C205.335 208.138 207.168 209.555 209.197 210.734C211.058 211.073 212.891 210.989 214.697 210.484C214.531 210.817 214.364 211.15 214.197 211.484C210.826 212.636 207.993 211.886 205.697 209.234C204.715 208.508 204.049 207.592 203.697 206.484Z" fill="#A0A0A0"/>
<path fill-rule="evenodd" clip-rule="evenodd" d="M217.697 209.484C216.664 210.333 215.497 211 214.197 211.484C214.364 211.15 214.531 210.817 214.697 210.484C215.518 209.693 216.518 209.36 217.697 209.484Z" fill="#454545"/>
<path fill-rule="evenodd" clip-rule="evenodd" d="M236.697 214.484C236.734 215.247 236.4 215.747 235.697 215.984C235.661 215.22 235.994 214.72 236.697 214.484Z" fill="#7E7E7E"/>
<path fill-rule="evenodd" clip-rule="evenodd" d="M247.697 243.484C240.702 243.817 233.702 243.984 226.697 243.984C223.747 243.247 220.747 242.664 217.697 242.234C215.714 241.32 213.714 240.57 211.697 239.984C211.697 239.65 211.531 239.484 211.197 239.484C207.791 238.236 206.958 235.986 208.697 232.734C210.283 231.858 211.783 230.858 213.197 229.734C220.708 226.48 227.875 222.73 234.697 218.484C234.665 218.703 234.748 218.87 234.947 218.984C239.456 217.37 244.04 215.953 248.697 214.734C250.864 214.4 253.031 214.4 255.197 214.734C266.497 220.464 269.247 228.881 263.447 239.984C262.038 241.068 260.454 241.818 258.697 242.234C255.037 242.75 251.37 243.166 247.697 243.484Z" fill="#FE9A36"/>
<path fill-rule="evenodd" clip-rule="evenodd" d="M173.697 217.484C174.586 218.986 175.086 220.653 175.197 222.484C174.309 220.981 173.809 219.315 173.697 217.484Z" fill="#9D9D9D"/>
<path fill-rule="evenodd" clip-rule="evenodd" d="M328.697 215.984C328.562 217.39 328.312 218.723 327.947 219.984C328.228 219.723 328.561 219.556 328.947 219.484C330.93 220.533 333.013 221.366 335.197 221.984C337.748 224.285 339.832 226.952 341.447 229.984C341.712 232.836 341.546 235.669 340.947 238.484C339.284 241.127 337.367 243.627 335.197 245.984C332.25 247.416 329.334 248.916 326.447 250.484C319.801 252.896 313.385 252.479 307.197 249.234C305.323 246.56 303.656 243.81 302.197 240.984C302.197 240.817 302.197 240.65 302.197 240.484C304.405 240.581 306.572 240.331 308.697 239.734C310.089 238.761 311.589 238.011 313.197 237.484C315.143 237.332 316.809 236.582 318.197 235.234C319.485 233.702 320.652 232.119 321.697 230.484C323.912 225.555 326.246 220.721 328.697 215.984Z" fill="#CEEEFC"/>
<path fill-rule="evenodd" clip-rule="evenodd" d="M269.697 222.484C270.409 223.491 270.742 224.658 270.697 225.984C269.985 224.976 269.652 223.81 269.697 222.484Z" fill="#A6A6A8"/>
<path fill-rule="evenodd" clip-rule="evenodd" d="M175.197 222.484C176.301 226.186 178.301 229.352 181.197 231.984C181.903 233.191 182.903 234.024 184.197 234.484C184.364 235.65 185.031 236.317 186.197 236.484C188.281 238.859 190.948 240.193 194.197 240.484C195.098 240.963 196.098 241.296 197.197 241.484C199.48 242.132 201.814 242.132 204.197 241.484C204.592 244.247 204.008 246.747 202.447 248.984C195.93 258.489 187.18 261.406 176.197 257.734C170.793 254.749 166.043 250.999 161.947 246.484C161.322 244.204 160.572 241.954 159.697 239.734C159.774 236.257 160.774 233.091 162.697 230.234C165.516 228.824 168.182 227.157 170.697 225.234C172.186 224.886 173.686 224.636 175.197 224.484C175.197 223.817 175.197 223.15 175.197 222.484Z" fill="#CFEFFD"/>
<path fill-rule="evenodd" clip-rule="evenodd" d="M270.697 225.984C271.4 226.22 271.734 226.72 271.697 227.484C270.994 227.247 270.661 226.747 270.697 225.984Z" fill="#7E7E7E"/>
<path fill-rule="evenodd" clip-rule="evenodd" d="M272.197 228.984C272.9 229.22 273.234 229.72 273.197 230.484C272.494 230.247 272.161 229.747 272.197 228.984Z" fill="#848484"/>
<path fill-rule="evenodd" clip-rule="evenodd" d="M181.197 231.984C182.492 232.443 183.492 233.277 184.197 234.484C182.903 234.024 181.903 233.191 181.197 231.984Z" fill="#4B4E51"/>
<path fill-rule="evenodd" clip-rule="evenodd" d="M184.197 234.484C185.031 234.984 185.697 235.65 186.197 236.484C185.031 236.317 184.364 235.65 184.197 234.484Z" fill="#6B7279"/>
<path fill-rule="evenodd" clip-rule="evenodd" d="M321.697 230.484C320.652 232.119 319.485 233.702 318.197 235.234C316.809 236.582 315.143 237.332 313.197 237.484C316.287 235.514 319.12 233.181 321.697 230.484Z" fill="#A4B9C1"/>
<path fill-rule="evenodd" clip-rule="evenodd" d="M285.697 237.984C288.03 238.262 290.196 238.929 292.197 239.984C291.864 239.984 291.531 239.984 291.197 239.984C289.25 239.503 287.417 238.836 285.697 237.984Z" fill="#353535"/>
<path fill-rule="evenodd" clip-rule="evenodd" d="M194.197 240.484C195.695 240.381 197.028 240.714 198.197 241.484C197.864 241.484 197.531 241.484 197.197 241.484C196.098 241.296 195.098 240.963 194.197 240.484Z" fill="#42464C"/>
<path fill-rule="evenodd" clip-rule="evenodd" d="M211.197 239.484C211.531 239.484 211.697 239.65 211.697 239.984C210.952 240.874 209.952 241.207 208.697 240.984C209.578 240.577 210.411 240.077 211.197 239.484Z" fill="#858687"/>
<path fill-rule="evenodd" clip-rule="evenodd" d="M291.197 239.984C291.531 239.984 291.864 239.984 292.197 239.984C295.502 240.445 298.835 240.612 302.197 240.484C302.197 240.65 302.197 240.817 302.197 240.984C301.739 241.225 301.239 241.391 300.697 241.484C297.712 241.11 294.712 240.86 291.697 240.734C291.419 240.542 291.253 240.292 291.197 239.984Z" fill="#BABBBB"/>
<path fill-rule="evenodd" clip-rule="evenodd" d="M208.197 240.984C206.973 241.47 205.64 241.637 204.197 241.484C201.814 242.132 199.48 242.132 197.197 241.484C197.531 241.484 197.864 241.484 198.197 241.484C201.531 241.317 204.864 241.15 208.197 240.984Z" fill="#A0A7AD"/>
<path fill-rule="evenodd" clip-rule="evenodd" d="M247.697 243.484C244.381 244.149 240.881 244.482 237.197 244.484C233.61 244.484 230.11 244.317 226.697 243.984C233.702 243.984 240.702 243.817 247.697 243.484Z" fill="#FFDCBC"/>
<path fill-rule="evenodd" clip-rule="evenodd" d="M371.697 242.984C372.864 242.984 374.031 242.984 375.197 242.984C377.389 243.412 379.055 244.579 380.197 246.484C380.609 247.974 381.276 249.307 382.197 250.484C382.132 250.922 382.298 251.255 382.697 251.484C385.689 249.717 388.689 248.05 391.697 246.484C396.196 247.419 397.613 250.086 395.947 254.484C395.261 255.189 394.845 256.022 394.697 256.984C391.696 259.567 388.613 262.067 385.447 264.484C383.67 268.007 381.42 271.174 378.697 273.984C377.39 274.923 376.307 276.09 375.447 277.484C372.819 282.244 370.069 286.911 367.197 291.484C364.339 294.853 361.839 298.52 359.697 302.484C358.012 304.169 356.512 306.002 355.197 307.984C352.798 310.391 350.298 312.558 347.697 314.484C347.274 312.707 346.608 310.957 345.697 309.234C346.966 307.08 348.049 304.83 348.947 302.484C349.197 299.822 349.28 297.156 349.197 294.484C351.562 292.285 353.562 289.785 355.197 286.984C360.504 280 365.587 272.833 370.447 265.484C370.751 264.657 371.001 263.823 371.197 262.984C372.347 262.418 373.013 261.501 373.197 260.234C372.93 258.68 372.43 257.263 371.697 255.984C371.453 255.236 371.12 254.569 370.697 253.984C369.99 251.695 369.49 249.361 369.197 246.984C369.652 245.373 370.486 244.039 371.697 242.984Z" fill="#B07855"/>
<path fill-rule="evenodd" clip-rule="evenodd" d="M270.197 244.484C269.531 245.484 268.697 246.317 267.697 246.984C268.031 245.65 268.864 244.817 270.197 244.484Z" fill="#5C5C5C"/>
<path fill-rule="evenodd" clip-rule="evenodd" d="M270.197 244.484C272.28 244.206 274.113 244.706 275.697 245.984C276.097 247.449 276.263 248.949 276.197 250.484C276.197 250.65 276.197 250.817 276.197 250.984C275.494 251.22 275.161 251.72 275.197 252.484C273.672 254.345 272.338 256.345 271.197 258.484C269.697 259.65 268.364 260.984 267.197 262.484C265.193 264.235 262.86 264.985 260.197 264.734C255.332 263.633 250.832 261.717 246.697 258.984C245.69 258.272 244.523 257.939 243.197 257.984C242.697 257.317 242.197 256.65 241.697 255.984C241.609 254.117 241.775 252.283 242.197 250.484C242.476 249.839 242.976 249.422 243.697 249.234C245.197 248.9 246.697 248.9 248.197 249.234C251.477 250.931 254.811 252.514 258.197 253.984C258.253 254.292 258.419 254.542 258.697 254.734C261.176 255.575 262.842 254.825 263.697 252.484C264.34 251.175 265.174 250.009 266.197 248.984C266.9 248.747 267.234 248.247 267.197 247.484C267.197 247.15 267.364 246.984 267.697 246.984C268.697 246.317 269.531 245.484 270.197 244.484Z" fill="#09080A"/>
<path fill-rule="evenodd" clip-rule="evenodd" d="M131.198 247.484C132.378 248.166 133.211 249.166 133.698 250.484C133.976 253.431 133.226 256.097 131.448 258.484C130.952 259.457 130.785 260.457 130.948 261.484C136.93 272.696 143.18 283.696 149.698 294.484C149.6 296.691 149.85 298.858 150.448 300.984C151.575 302.737 152.575 304.57 153.448 306.484C155.767 308.347 158.184 310.014 160.698 311.484C158.384 313.096 155.801 314.263 152.948 314.984C151.606 314.687 150.356 314.187 149.198 313.484C148.146 312.309 147.146 311.142 146.198 309.984C137.287 297.17 128.871 284.004 120.948 270.484C113.84 269.141 107.923 265.808 103.198 260.484C103.116 259.14 103.199 257.807 103.448 256.484C103.864 255.4 104.614 254.65 105.698 254.234C109.691 254.261 113.524 255.094 117.198 256.734C118.031 257.067 118.864 257.067 119.698 256.734C122.15 255.084 123.817 252.834 124.698 249.984C126.346 247.891 128.513 247.058 131.198 247.484Z" fill="#B17954"/>
<path fill-rule="evenodd" clip-rule="evenodd" d="M267.197 247.484C267.234 248.247 266.9 248.747 266.197 248.984C266.161 248.22 266.494 247.72 267.197 247.484Z" fill="#69696B"/>
<path fill-rule="evenodd" clip-rule="evenodd" d="M275.697 245.984C276.006 246.039 276.256 246.206 276.447 246.484C276.848 247.917 276.764 249.251 276.197 250.484C276.263 248.949 276.097 247.449 275.697 245.984Z" fill="#626262"/>
<path fill-rule="evenodd" clip-rule="evenodd" d="M276.197 250.984C276.234 251.747 275.9 252.247 275.197 252.484C275.161 251.72 275.494 251.22 276.197 250.984Z" fill="#6B6B6B"/>
<path fill-rule="evenodd" clip-rule="evenodd" d="M242.198 250.484C241.776 252.283 241.609 254.117 241.698 255.984C240.999 255.345 240.666 254.512 240.698 253.484C240.681 252.183 241.181 251.183 242.198 250.484Z" fill="#504E51"/>
<path fill-rule="evenodd" clip-rule="evenodd" d="M263.697 252.484C262.842 254.825 261.176 255.575 258.697 254.734C258.419 254.542 258.253 254.292 258.197 253.984C259.338 254.429 260.505 254.512 261.697 254.234C262.3 253.546 262.966 252.963 263.697 252.484Z" fill="#6D6C6E"/>
<path fill-rule="evenodd" clip-rule="evenodd" d="M243.197 257.984C244.523 257.939 245.69 258.272 246.697 258.984C245.333 259.148 244.166 258.815 243.197 257.984Z" fill="#777677"/>
<path fill-rule="evenodd" clip-rule="evenodd" d="M271.197 258.484C270.364 260.317 269.031 261.65 267.197 262.484C268.364 260.984 269.697 259.65 271.197 258.484Z" fill="#A9A9AB"/>
<path fill-rule="evenodd" clip-rule="evenodd" d="M166.197 266.484C164.979 267.169 163.646 267.669 162.197 267.984C163.256 266.906 164.589 266.406 166.197 266.484Z" fill="#895561"/>
<path fill-rule="evenodd" clip-rule="evenodd" d="M355.197 307.984C356.275 309.803 357.358 311.637 358.447 313.484C359.793 317.61 361.377 321.61 363.197 325.484C363.785 327.255 364.118 329.088 364.197 330.984C365.466 336.166 365.966 341.332 365.697 346.484C360.21 335.507 354.21 324.84 347.697 314.484C350.298 312.558 352.798 310.391 355.197 307.984Z" fill="#FAF9F8"/>
<path fill-rule="evenodd" clip-rule="evenodd" d="M160.697 311.484C163.276 314.025 166.276 315.942 169.697 317.234C189.749 320.425 209.916 322.841 230.197 324.484C230.579 324.868 231.079 325.118 231.697 325.234C234.358 325.576 237.025 325.826 239.697 325.984C245.916 327.087 252.25 327.753 258.697 327.984C262.026 328.317 265.443 328.484 268.947 328.484C273.806 328.586 278.556 328.253 283.197 327.484C289.249 327.113 295.333 326.78 301.447 326.484C302.623 326.386 303.623 326.72 304.447 327.484C308.994 336.448 313.16 345.614 316.947 354.984C318.989 360.357 320.572 365.857 321.697 371.484C321.652 372.81 321.985 373.976 322.697 374.984C324.778 385.815 327.278 396.648 330.197 407.484C330.115 408.827 330.199 410.161 330.447 411.484C330.783 411.86 331.199 412.027 331.697 411.984C332.513 412.146 333.013 412.646 333.197 413.484C333.889 416.965 334.472 420.465 334.947 423.984C335.579 425.037 336.496 425.537 337.697 425.484C336.501 427.435 335.001 429.185 333.197 430.734C330.364 432.9 327.531 435.067 324.697 437.234C317.42 441.481 310.253 445.815 303.197 450.234C297.969 452.276 292.636 454.109 287.197 455.734C278.252 457.761 269.252 459.344 260.197 460.484C249.467 460.717 238.8 460.051 228.197 458.484C221.049 456.864 214.049 454.78 207.197 452.234C201.356 448.646 195.356 445.312 189.197 442.234C185.722 439.926 182.389 437.426 179.197 434.734C170.55 425.59 162.467 416.007 154.947 405.984C152.636 400.713 150.136 395.547 147.447 390.484C145.896 386.447 144.896 382.28 144.447 377.984C144.186 376.593 143.603 375.426 142.697 374.484C141.896 367.583 141.229 360.666 140.697 353.734C140.905 345.641 141.905 337.724 143.697 329.984C145.031 326.479 146.197 322.812 147.197 318.984C147.335 316.916 148.002 315.083 149.197 313.484C150.356 314.187 151.606 314.687 152.947 314.984C155.8 314.263 158.384 313.096 160.697 311.484Z" fill="#FEFEFE"/>
<path fill-rule="evenodd" clip-rule="evenodd" d="M147.197 318.984C146.197 322.812 145.031 326.479 143.697 329.984C144.276 326.083 145.443 322.416 147.197 318.984Z" fill="#CCD5E5"/>
<path fill-rule="evenodd" clip-rule="evenodd" d="M230.197 324.484C233.484 324.657 236.651 325.157 239.697 325.984C237.025 325.826 234.358 325.576 231.697 325.234C231.079 325.118 230.579 324.868 230.197 324.484Z" fill="#C77975"/>
<path fill-rule="evenodd" clip-rule="evenodd" d="M283.197 327.484C278.556 328.253 273.806 328.586 268.947 328.484C265.443 328.484 262.026 328.317 258.697 327.984C266.868 327.989 275.035 327.822 283.197 327.484Z" fill="#F5E5E1"/>
<path fill-rule="evenodd" clip-rule="evenodd" d="M364.197 330.984C364.747 331.872 365.164 332.872 365.447 333.984C366.095 338.297 366.512 342.63 366.697 346.984C366.697 347.317 366.531 347.484 366.197 347.484C366.031 347.15 365.864 346.817 365.697 346.484C365.966 341.332 365.466 336.166 364.197 330.984Z" fill="#B4C5D9"/>
<path fill-rule="evenodd" clip-rule="evenodd" d="M247.198 338.984C256.101 338.797 258.518 342.63 254.448 350.484C252.129 353.502 249.212 354.252 245.698 352.734C242.261 349.114 241.844 345.197 244.448 340.984C245.354 340.245 246.27 339.579 247.198 338.984Z" fill="#303030"/>
<path fill-rule="evenodd" clip-rule="evenodd" d="M249.697 366.984C257.765 367.366 259.765 371.116 255.697 378.234C253.226 379.809 250.56 380.476 247.697 380.234C244.241 377.202 243.824 373.786 246.447 369.984C247.479 368.867 248.562 367.867 249.697 366.984Z" fill="#313131"/>
<path fill-rule="evenodd" clip-rule="evenodd" d="M378.697 369.984C379.923 371.604 380.756 373.437 381.197 375.484C379.699 373.985 378.866 372.152 378.697 369.984Z" fill="#954140"/>
<path fill-rule="evenodd" clip-rule="evenodd" d="M321.697 371.484C322.409 372.491 322.742 373.658 322.697 374.984C321.985 373.976 321.652 372.81 321.697 371.484Z" fill="#DBB2AC"/>
<path fill-rule="evenodd" clip-rule="evenodd" d="M167.197 265.984C170.052 265.969 172.886 266.219 175.697 266.734C178.958 267.877 182.291 268.71 185.697 269.234C187.755 269.974 189.755 270.807 191.697 271.734C199.313 273.558 206.98 275.058 214.697 276.234C222.195 276.484 229.695 276.567 237.197 276.484C244.366 276.567 251.533 276.484 258.697 276.234C260.46 276.144 262.127 275.894 263.697 275.484C268.874 275.459 274.04 275.209 279.197 274.734C280.925 274.78 282.425 274.28 283.697 273.234C293.28 272.463 302.78 271.129 312.197 269.234C316.041 268.51 319.625 269.094 322.947 270.984C325.826 270.303 328.743 269.969 331.697 269.984C338.153 271.928 343.236 275.761 346.947 281.484C347.755 285.819 348.505 290.152 349.197 294.484C349.28 297.156 349.197 299.822 348.947 302.484C348.049 304.83 346.966 307.08 345.697 309.234C346.608 310.957 347.274 312.707 347.697 314.484C354.21 324.84 360.21 335.507 365.697 346.484C365.864 346.817 366.031 347.15 366.197 347.484C369.968 355.191 374.135 362.691 378.697 369.984C378.866 372.152 379.699 373.985 381.197 375.484C381.691 376.131 382.191 376.798 382.697 377.484C383.667 380.063 384.334 382.73 384.697 385.484C384.713 387.725 385.213 389.725 386.197 391.484C388.339 393.11 390.006 395.11 391.197 397.484C391.657 398.778 392.49 399.778 393.697 400.484C394.566 401.293 394.816 402.293 394.447 403.484C393.537 405.229 392.12 405.812 390.197 405.234C387.462 402.588 384.962 399.755 382.697 396.734C382.197 396.4 381.697 396.4 381.197 396.734C380.583 397.498 379.833 398.082 378.947 398.484C378.79 399.188 378.956 399.854 379.447 400.484C381.808 403.344 383.974 406.344 385.947 409.484C386.11 410.9 385.86 412.233 385.197 413.484C384.031 413.484 382.864 413.484 381.697 413.484C378.503 410.254 375.67 406.754 373.197 402.984C371.904 403.207 371.237 403.957 371.197 405.234C372.405 408.401 373.822 411.484 375.447 414.484C376.307 418.124 374.89 419.707 371.197 419.234C368.499 416.029 366.416 412.446 364.947 408.484C364.227 408.864 363.477 409.197 362.697 409.484C362.125 411.878 362.375 414.211 363.447 416.484C363.781 418.65 363.781 420.817 363.447 422.984C360.695 424.756 358.945 424.089 358.197 420.984C358.318 419.785 357.984 418.785 357.197 417.984C356.497 416.382 355.997 414.715 355.697 412.984C354.188 413.086 352.688 413.252 351.197 413.484C351.835 416.616 352.335 419.783 352.697 422.984C352.615 427.23 350.865 428.23 347.447 425.984C346.752 423.348 345.836 420.848 344.697 418.484C344.697 417.317 344.697 416.15 344.697 414.984C343.304 414.495 341.804 414.329 340.197 414.484C340.197 417.484 340.197 420.484 340.197 423.484C339.691 424.17 339.191 424.836 338.697 425.484C338.364 425.484 338.031 425.484 337.697 425.484C336.496 425.537 335.579 425.037 334.947 423.984C334.472 420.465 333.889 416.965 333.197 413.484C333.013 412.646 332.513 412.146 331.697 411.984C330.971 410.537 330.471 409.037 330.197 407.484C327.278 396.648 324.778 385.815 322.697 374.984C322.742 373.658 322.409 372.491 321.697 371.484C320.572 365.857 318.989 360.357 316.947 354.984C313.16 345.614 308.994 336.448 304.447 327.484C303.623 326.72 302.623 326.386 301.447 326.484C295.333 326.78 289.249 327.113 283.197 327.484C275.035 327.822 266.868 327.989 258.697 327.984C252.25 327.753 245.916 327.087 239.697 325.984C236.651 325.157 233.484 324.657 230.197 324.484C209.916 322.841 189.749 320.425 169.697 317.234C166.276 315.942 163.276 314.025 160.697 311.484C158.183 310.014 155.767 308.347 153.447 306.484C152.574 304.57 151.574 302.737 150.447 300.984C149.85 298.858 149.6 296.691 149.697 294.484C149.798 291.232 150.381 288.065 151.447 284.984C153.288 281.302 155.122 277.635 156.947 273.984C158.257 271.591 160.007 269.591 162.197 267.984C163.646 267.669 164.979 267.169 166.197 266.484C166.693 266.57 167.026 266.403 167.197 265.984Z" fill="#A02C20"/>
<path fill-rule="evenodd" clip-rule="evenodd" d="M304.698 276.484C306.539 276.401 308.372 276.484 310.198 276.734C313.664 277.31 316.997 278.227 320.198 279.484C323.477 283.762 326.727 288.095 329.948 292.484C332.631 297.494 335.298 302.494 337.948 307.484C340.266 310.622 341.933 314.122 342.948 317.984C344.865 321.488 347.032 324.821 349.448 327.984C349.781 328.984 350.114 329.984 350.448 330.984C355.342 339.273 359.842 347.773 363.948 356.484C367.796 362.855 371.63 369.188 375.448 375.484C376.614 378.484 377.781 381.484 378.948 384.484C379.545 386.609 379.795 388.776 379.698 390.984C379.172 390.909 378.672 390.992 378.198 391.234C371.202 398.125 363.036 402.959 353.698 405.734C353.26 406.526 352.593 407.026 351.698 407.234C348.064 407.991 344.397 408.158 340.698 407.734C336.376 404.199 334.293 399.615 334.448 393.984C333.781 392.984 333.114 391.984 332.448 390.984C330.021 378.688 327.021 366.521 323.448 354.484C318.856 345.85 314.856 336.85 311.448 327.484C308.564 322.875 305.564 318.375 302.448 313.984C299.787 308.943 297.537 303.693 295.698 298.234C293.295 293.332 290.711 288.582 287.948 283.984C287.395 281.954 287.978 280.371 289.698 279.234C294.766 278.39 299.766 277.473 304.698 276.484Z" fill="#E34337"/>
<path fill-rule="evenodd" clip-rule="evenodd" d="M326.697 275.984C328.372 275.901 330.039 275.985 331.697 276.234C333.713 277.242 335.713 278.242 337.697 279.234C339.036 280.755 340.286 282.339 341.447 283.984C342.603 289.426 343.103 294.926 342.947 300.484C342.656 301.235 342.239 301.901 341.697 302.484C338.802 298.783 336.719 294.616 335.447 289.984C334.614 288.984 333.781 287.984 332.947 286.984C330.735 283.393 328.652 279.726 326.697 275.984Z" fill="#E04234"/>
<path fill-rule="evenodd" clip-rule="evenodd" d="M263.697 275.484C262.127 275.894 260.46 276.144 258.697 276.234C251.533 276.484 244.366 276.567 237.197 276.484C245.948 276.054 254.782 275.72 263.697 275.484Z" fill="#C6837D"/>
<path fill-rule="evenodd" clip-rule="evenodd" d="M168.198 271.984C176.088 272.415 183.588 274.331 190.698 277.734C202.634 281.022 214.801 282.606 227.198 282.484C245.041 282.19 262.874 281.69 280.698 280.984C281.439 285.302 283.356 288.969 286.448 291.984C287.633 295.702 289.299 299.202 291.448 302.484C291.666 303.657 291.916 304.824 292.198 305.984C294.567 310.22 296.817 314.554 298.948 318.984C299.281 319.484 299.281 319.984 298.948 320.484C281.578 322.028 264.162 322.278 246.698 321.234C234.48 318.808 222.146 317.475 209.698 317.234C200.563 315.848 191.396 314.682 182.198 313.734C177.695 312.915 173.195 311.915 168.698 310.734C167.364 310.067 166.364 309.067 165.698 307.734C157.144 304.845 153.894 298.928 155.948 289.984C158.21 283.74 161.293 277.99 165.198 272.734C166.302 272.638 167.302 272.388 168.198 271.984Z" fill="#E34337"/>
<path fill-rule="evenodd" clip-rule="evenodd" d="M384.697 385.484C385.439 387.379 385.939 389.379 386.197 391.484C385.213 389.725 384.713 387.725 384.697 385.484Z" fill="#8B575F"/>
<path fill-rule="evenodd" clip-rule="evenodd" d="M253.697 392.484C260.529 392.636 262.779 395.969 260.447 402.484C257.38 405.942 254.047 406.275 250.447 403.484C249.03 401.062 248.863 398.562 249.947 395.984C251.145 394.7 252.395 393.534 253.697 392.484Z" fill="#323232"/>
<path fill-rule="evenodd" clip-rule="evenodd" d="M391.197 397.484C392.404 398.189 393.238 399.189 393.697 400.484C392.49 399.778 391.657 398.778 391.197 397.484Z" fill="#934D50"/>
<path fill-rule="evenodd" clip-rule="evenodd" d="M330.198 407.484C330.471 409.037 330.971 410.537 331.698 411.984C331.2 412.027 330.783 411.86 330.448 411.484C330.199 410.161 330.116 408.827 330.198 407.484Z" fill="#D1A7A2"/>
<path fill-rule="evenodd" clip-rule="evenodd" d="M344.697 414.984C344.697 416.15 344.697 417.317 344.697 418.484C343.364 419.984 342.031 421.484 340.697 422.984C340.697 420.317 340.697 417.65 340.697 414.984C342.031 414.984 343.364 414.984 344.697 414.984Z" fill="#F7F8F6"/>
<path fill-rule="evenodd" clip-rule="evenodd" d="M344.697 414.984C343.364 414.984 342.031 414.984 340.697 414.984C340.697 417.65 340.697 420.317 340.697 422.984C340.697 423.317 340.531 423.484 340.197 423.484C340.197 420.484 340.197 417.484 340.197 414.484C341.804 414.329 343.304 414.495 344.697 414.984Z" fill="#B87069"/>
<path fill-rule="evenodd" clip-rule="evenodd" d="M357.197 417.984C357.984 418.785 358.318 419.785 358.197 420.984C357.41 420.183 357.077 419.183 357.197 417.984Z" fill="#8C5C66"/>
<path fill-rule="evenodd" clip-rule="evenodd" d="M228.197 458.484C238.8 460.051 249.467 460.717 260.197 460.484C253.606 461.107 246.939 461.107 240.197 460.484C236.081 460.131 232.081 459.464 228.197 458.484Z" fill="#B6C0D4"/>
</svg>
